<svg width="129" height="41" viewBox="0 0 129 41" fill="none" xmlns="http://www.w3.org/2000/svg">
<path d="M124.2 40.7911H4.19995C1.99995 40.7911 0.199951 38.9883 0.199951 36.785V4.73576C0.199951 2.53238 1.99995 0.729614 4.19995 0.729614H124.2C126.4 0.729614 128.2 2.53238 128.2 4.73576V36.785C128.2 38.9883 126.4 40.7911 124.2 40.7911Z" fill="#F6F9FE"/>
<path d="M27.1999 20.5601C27.1999 17.4553 29.7999 15.953 29.8999 15.8528C28.3999 13.7496 26.1999 13.4492 25.3999 13.349C23.4999 13.1487 21.5999 14.4507 20.7 14.4507C19.7 14.4507 18.2 13.349 16.6 13.349C14.5 13.349 12.6 14.5509 11.5 16.4538C9.29996 20.2596 10.9 25.8682 13 28.9729C14.1 30.4752 15.3 32.1778 16.9 32.0777C18.5 31.9775 19.1 31.0762 21 31.0762C22.9 31.0762 23.3999 32.0777 25.0999 32.0777C26.7999 32.0777 27.8999 30.5754 28.8999 29.0731C30.0999 27.3705 30.5999 25.6679 30.5999 25.5677C30.4999 25.4676 27.1999 24.2657 27.1999 20.5601Z" fill="black"/>
<path d="M24.1 11.3459C24.9 10.2442 25.5 8.84204 25.4 7.33972C24.2 7.43988 22.6 8.14096 21.8 9.24266C21 10.1441 20.3 11.6464 20.5 13.0485C21.8 13.1487 23.2 12.3475 24.1 11.3459Z" fill="black"/>
<path fill-rule="evenodd" clip-rule="evenodd" d="M47.7999 31.8774H49.9999L45.9999 18.9576H43.3999L39.2 31.8774H41.2999L42.3999 28.0715H46.5999L47.7999 31.8774ZM45.1 23.0613L46.2 26.4665H42.7L43.8 23.0613C44.1 22.0597 44.3 21.1584 44.4 20.6576C44.6666 21.4588 44.8444 22.1265 44.9629 22.5716C45.0222 22.7942 45.0666 22.9611 45.1 23.0613Z" fill="black"/>
<path fill-rule="evenodd" clip-rule="evenodd" d="M59.4 30.976C60.3 29.9745 60.7 28.7726 60.7 27.1702C60.7 25.6679 60.3 24.5662 59.4 23.7649C58.7 22.8636 57.8 22.463 56.7 22.463C55.3 22.463 54.3 23.0639 53.6 24.1656L53.5 22.6633H51.7C51.8 23.7649 51.8 24.7665 51.8 25.768V35.7834H53.9V30.8758C54.4 31.7772 55.3 32.1778 56.5 32.1778C57.7 32.1778 58.6 31.7772 59.4 30.976ZM57.9999 24.9643C58.3999 25.4651 58.5999 26.2663 58.5999 27.1677C58.5999 28.1693 58.3999 28.9705 57.8999 29.5714C57.4999 30.1723 56.8999 30.4728 56.0999 30.4728C55.4999 30.4728 54.8999 30.2725 54.4999 29.7717C54.1 29.271 53.9 28.7702 53.9 28.0691V26.4666C53.9 26.3665 53.9 26.1662 54 25.8657C54.1 25.365 54.3999 24.8642 54.7999 24.5637C55.1999 24.2633 55.6999 24.063 56.1999 24.063C56.9999 24.063 57.5999 24.3634 57.9999 24.9643Z" fill="black"/>
<path fill-rule="evenodd" clip-rule="evenodd" d="M70.0999 30.976C70.9999 29.9745 71.3999 28.7726 71.3999 27.1702C71.3999 25.6679 70.9999 24.5662 70.0999 23.7649C69.3999 22.8636 68.4999 22.463 67.3999 22.463C65.9999 22.463 64.9999 23.0639 64.2999 24.1656L64.1999 22.6633H62.3999C62.4999 23.7649 62.4999 24.7665 62.4999 25.768V35.7834H64.5999V30.8758C65.0999 31.7772 65.9999 32.1778 67.1999 32.1778C68.3999 32.1778 69.2999 31.7772 70.0999 30.976ZM68.6999 24.9643C69.0999 25.4651 69.2999 26.2663 69.2999 27.1677C69.2999 28.1693 69.0999 28.9705 68.5999 29.5714C68.1999 30.1723 67.5999 30.4728 66.7999 30.4728C66.1999 30.4728 65.5999 30.2725 65.1999 29.7717C64.7999 29.271 64.5999 28.7702 64.5999 28.0691V26.4666C64.5999 26.3665 64.5999 26.1662 64.6999 25.8657C64.7999 25.365 65.0999 24.8642 65.4999 24.5637C65.8999 24.2633 66.3999 24.063 66.8999 24.063C67.6999 24.063 68.2999 24.3634 68.6999 24.9643Z" fill="black"/>
<path d="M83.4 28.2718C83.4 29.3735 83 30.2749 82.3 30.976C81.5 31.7772 80.3 32.0777 78.8 32.0777C77.4 32.0777 76.3 31.7772 75.5 31.2764L76 29.5738C76.9 30.0746 77.9 30.3751 79 30.3751C79.8 30.3751 80.4 30.1748 80.8 29.8743C81.2 29.4737 81.4 29.0731 81.4 28.4721C81.4 27.9714 81.2 27.4706 80.9 27.1702C80.5 26.7695 79.9 26.4691 79.1 26.1686C76.8 25.3674 75.7 24.0654 75.7 22.4629C75.7 21.3613 76.1 20.56 76.9 19.859C77.7 19.1579 78.7 18.8574 80.1 18.8574C81.3 18.8574 82.2 19.0577 83 19.4583L82.5 21.1609C81.8 20.7603 81 20.56 80 20.56C79.3 20.56 78.7 20.7603 78.3 21.0608C78 21.3613 77.8 21.7619 77.8 22.2626C77.8 22.7634 78 23.164 78.4 23.5646C78.7 23.8651 79.4 24.1656 80.3 24.5662C81.4 24.9668 82.2 25.5677 82.8 26.1686C83.1 26.6694 83.4 27.3705 83.4 28.2718Z" fill="black"/>
<path d="M90.2 24.1655H87.9V28.6725C87.9 29.7742 88.3 30.3751 89.1 30.3751C89.5 30.3751 89.8 30.3751 90 30.2749L90.1 31.8774C89.7 32.0777 89.2 32.0777 88.5 32.0777C87.7 32.0777 87 31.8774 86.6 31.3766C86.1 30.8758 85.9 30.0746 85.9 28.8728V24.1655H84.5V22.5631H85.9V20.8604L87.9 20.2595V22.5631H90.2V24.1655Z" fill="black"/>
<path fill-rule="evenodd" clip-rule="evenodd" d="M99.2999 30.6755C100.1 29.7741 100.5 28.5723 100.5 27.1702C100.5 25.768 100.1 24.6663 99.3999 23.7649C98.5999 22.8636 97.4999 22.3628 96.0999 22.3628C94.6999 22.3628 93.4999 22.8636 92.6999 23.7649C91.7999 24.6663 91.3999 25.8682 91.3999 27.2703C91.3999 28.6725 91.7999 29.7741 92.5999 30.6755C93.3999 31.5769 94.4999 32.0777 95.8999 32.0777C97.2999 32.0777 98.3999 31.5769 99.2999 30.6755ZM97.6999 25.0645C98.0999 25.6654 98.2999 26.3665 98.2999 27.2679C98.2999 28.0691 98.0999 28.8703 97.6999 29.4712C97.1999 30.1723 96.5999 30.5729 95.7999 30.5729C94.9999 30.5729 94.2999 30.1723 93.8999 29.4712C93.4999 28.8703 93.2999 28.1692 93.2999 27.2679C93.2999 26.4666 93.4999 25.6654 93.8999 25.0645C94.2999 24.3634 94.9999 23.9628 95.7999 23.9628C96.5999 23.9628 97.2999 24.3634 97.6999 25.0645Z" fill="black"/>
<path d="M107.2 24.3659C107 24.3659 106.8 24.2658 106.5 24.2658C105.8 24.2658 105.2 24.5662 104.8 25.067C104.5 25.5678 104.3 26.1687 104.3 26.8697V31.7773H102.2V25.3674C102.2 24.2658 102.2 23.3644 102.1 22.463H103.9L104 24.2658H104.1C104.3 23.6648 104.7 23.1641 105.1 22.7635C105.6 22.463 106.1 22.2627 106.6 22.2627C106.8 22.2627 107 22.2627 107.1 22.2627V24.3659H107.2Z" fill="black"/>
<path fill-rule="evenodd" clip-rule="evenodd" d="M116.3 27.6709C116.4 27.4706 116.4 27.1702 116.4 26.7695C116.4 25.6679 116.2 24.6663 115.5 23.8651C114.9 22.8636 113.8 22.3628 112.5 22.3628C111.1 22.3628 110 22.8636 109.2 23.8651C108.5 24.7665 108.1 25.9683 108.1 27.3705C108.1 28.7726 108.5 29.9744 109.3 30.7757C110.1 31.6771 111.3 32.0777 112.7 32.0777C113.9 32.0777 114.9 31.8774 115.8 31.4767L115.5 30.0746C114.8 30.3751 113.9 30.4752 113 30.4752C112.2 30.4752 111.5 30.1748 111 29.7741C110.4 29.2734 110.1 28.5723 110.1 27.6709H116.3ZM114.499 26.1628C114.5 26.1958 114.5 26.2292 114.5 26.2628V26.1628H114.499ZM114.499 26.1628C114.488 25.6067 114.383 25.1348 114.1 24.6628C113.7 24.0628 113.2 23.7628 112.5 23.7628C111.8 23.7628 111.3 24.0628 110.9 24.5628C110.6 24.9628 110.4 25.5628 110.3 26.1628H114.499Z" fill="black"/>
<path fill-rule="evenodd" clip-rule="evenodd" d="M44.5999 13.6495C45.2999 13.0485 45.5999 12.1471 45.5999 11.0455C45.5999 10.0439 45.1999 9.24268 44.6999 8.74191C44.0999 8.24114 43.2999 8.04083 42.1999 8.04083C41.4999 8.04083 40.8999 8.04083 40.3999 8.14099V14.3505C40.7999 14.4507 41.2999 14.4507 41.8999 14.4507C43.0999 14.4507 43.9999 14.1502 44.5999 13.6495ZM43.8999 9.34176C44.2999 9.74237 44.4999 10.3433 44.4999 11.0444C44.4999 11.8456 44.2999 12.5467 43.8999 12.9473C43.4999 13.3479 42.8999 13.5482 42.0999 13.5482H41.3999V8.84099C41.5999 8.74083 41.8999 8.74083 42.1999 8.74083C42.8999 8.74083 43.4999 8.94114 43.8999 9.34176Z" fill="black"/>
<path fill-rule="evenodd" clip-rule="evenodd" d="M50.6 13.7496C51 13.349 51.2 12.7481 51.2 12.047C51.2 11.3459 51 10.745 50.6 10.3444C50.2 9.84362 49.7 9.64331 49 9.64331C48.3 9.64331 47.7 9.84362 47.3 10.3444C46.9 10.745 46.7 11.3459 46.7 12.047C46.7 12.7481 46.9 13.349 47.3 13.7496C47.7 14.2503 48.2 14.4507 48.9 14.4507C49.6 14.4507 50.2 14.2503 50.6 13.7496ZM49.8999 10.9441C50.0999 11.2445 50.1999 11.6451 50.1999 12.0457C50.1999 12.4464 50.0999 12.847 49.8999 13.0473C49.6999 13.4479 49.3999 13.6482 48.9999 13.6482C48.5999 13.6482 48.2999 13.548 48.1 13.1474C47.9 12.847 47.8 12.4464 47.8 12.0457C47.8 11.6451 47.9 11.2445 48.1 10.9441C48.2999 10.6436 48.5999 10.4433 48.9999 10.4433C49.3999 10.4433 49.6999 10.5435 49.8999 10.9441Z" fill="black"/>
<path d="M58.9 9.74341L57.5 14.3505H56.6L56 12.3474C55.8 11.8466 55.7 11.3459 55.6 10.8451C55.5 11.3459 55.4 11.8466 55.2 12.3474L54.6 14.3505H53.7L52.2 9.74341H53.2L53.7 11.9468C53.8 12.4476 53.9 12.9483 54 13.4491C54.1 13.0485 54.2 12.5477 54.4 11.9468L55 9.74341H55.8L56.4 11.8466C56.6 12.3474 56.7 12.8482 56.8 13.349C56.9 12.8482 57 12.3474 57.1 11.8466L57.7 9.74341H58.9Z" fill="black"/>
<path d="M64.0999 14.3505H63.0999V11.7465C63.0999 10.9452 62.7999 10.5446 62.1999 10.5446C61.8999 10.5446 61.6999 10.6448 61.4999 10.8451C61.2999 11.0454 61.1999 11.3459 61.1999 11.6463V14.3505H60.2V11.0454C60.2 10.6448 60.2 10.2442 60.2 9.7434H61.0999V10.4445C61.1999 10.2442 61.3999 10.0439 61.5999 9.84355C61.8999 9.64324 62.1999 9.54309 62.4999 9.54309C62.8999 9.54309 63.2999 9.64324 63.5999 9.94371C63.9999 10.2442 64.0999 10.7449 64.0999 11.446V14.3505Z" fill="black"/>
<path d="M66.8999 14.3505H65.8999V7.6402H66.8999V14.3505Z" fill="black"/>
<path fill-rule="evenodd" clip-rule="evenodd" d="M72.2999 13.7496C72.6999 13.349 72.8999 12.7481 72.8999 12.047C72.8999 11.3459 72.6999 10.745 72.2999 10.3444C71.8999 9.84362 71.3999 9.64331 70.6999 9.64331C69.9999 9.64331 69.3999 9.94377 68.9999 10.3444C68.5999 10.745 68.3999 11.3459 68.3999 12.047C68.3999 12.7481 68.5999 13.349 68.9999 13.7496C69.3999 14.2503 69.8999 14.4507 70.5999 14.4507C71.2999 14.4507 71.8999 14.2503 72.2999 13.7496ZM71.5999 10.9441C71.7999 11.2445 71.8999 11.6451 71.8999 12.0457C71.8999 12.4464 71.7999 12.847 71.5999 13.0473C71.3999 13.4479 71.0999 13.6482 70.6999 13.6482C70.2999 13.6482 69.9999 13.548 69.7999 13.1474C69.5999 12.847 69.4999 12.4464 69.4999 12.0457C69.4999 11.6451 69.5999 11.2445 69.7999 10.9441C69.9999 10.6436 70.2999 10.4433 70.6999 10.4433C71.0999 10.4433 71.3999 10.5435 71.5999 10.9441Z" fill="black"/>
<path fill-rule="evenodd" clip-rule="evenodd" d="M76.9 14.3505H77.8C77.8 14.05 77.8 13.7496 77.9 13.2488V11.5462C77.9 10.2442 77.3 9.64331 76.1 9.64331C75.4 9.64331 74.9 9.74346 74.5 10.0439L74.7 10.745C75.1 10.5447 75.4 10.4445 75.9 10.4445C76.5 10.4445 76.8 10.745 76.8 11.3459V11.4461C75.9 11.4461 75.3 11.5462 74.8 11.8467C74.3 12.1471 74.1 12.5477 74.1 13.1487C74.1 13.4491 74.3 13.7496 74.5 14.05C74.7 14.3505 75.1 14.4507 75.5 14.4507C76 14.4507 76.5 14.2503 76.8 13.8497L76.9 14.3505ZM76.8 12.0433V12.7433V12.9433C76.7 13.1433 76.6 13.3433 76.4 13.4433C76.2 13.5433 76 13.6433 75.8 13.6433C75.6 13.6433 75.4 13.5433 75.3 13.4433C75.2 13.3433 75.1 13.1433 75.1 12.9433C75.1 12.3433 75.7 12.0433 76.8 12.0433Z" fill="black"/>
<path fill-rule="evenodd" clip-rule="evenodd" d="M82.6999 14.3505H83.5999V13.1486V7.74036H82.5999V10.3443C82.2999 9.94373 81.8999 9.74342 81.2999 9.74342C80.7999 9.74342 80.2999 9.94373 79.8999 10.3443C79.4999 10.8451 79.2999 11.446 79.2999 12.1471C79.2999 12.8482 79.3999 13.4491 79.7999 13.8497C80.1999 14.2503 80.5999 14.4506 81.1999 14.4506C81.8999 14.4506 82.3999 14.2503 82.6999 13.6494V14.3505ZM82.5999 11.6463V12.4476C82.5999 12.748 82.4999 13.0485 82.2999 13.4491C82.0999 13.7496 81.7999 13.8498 81.4999 13.8498C81.0999 13.8498 80.7999 13.6494 80.5999 13.349C80.3999 13.0485 80.2999 12.748 80.2999 12.2473C80.2999 11.7465 80.3999 11.3458 80.5999 11.0454C80.7999 10.7449 81.0999 10.5446 81.4999 10.5446C81.7999 10.5446 81.9999 10.5446 82.1999 10.7449C82.3999 10.9452 82.4999 11.1455 82.5999 11.3458V11.6463Z" fill="black"/>
<path fill-rule="evenodd" clip-rule="evenodd" d="M91.6999 13.7496C92.0999 13.349 92.2999 12.7481 92.2999 12.047C92.2999 11.3459 92.0999 10.745 91.6999 10.3444C91.2999 9.84362 90.7999 9.64331 90.0999 9.64331C89.3999 9.64331 88.7999 9.84362 88.3999 10.3444C87.9999 10.745 87.7999 11.3459 87.7999 12.047C87.7999 12.7481 87.9999 13.349 88.3999 13.7496C88.7999 14.2503 89.2999 14.4507 89.9999 14.4507C90.6999 14.4507 91.2999 14.2503 91.6999 13.7496ZM90.8999 10.9441C91.0999 11.2445 91.1999 11.6451 91.1999 12.0457C91.1999 12.4464 91.0999 12.847 90.8999 13.0473C90.6999 13.4479 90.3999 13.6482 89.9999 13.6482C89.5999 13.6482 89.2999 13.548 89.0999 13.1474C88.8999 12.847 88.7999 12.4464 88.7999 12.0457C88.7999 11.6451 88.8999 11.2445 89.0999 10.9441C89.2999 10.6436 89.5999 10.4433 89.9999 10.4433C90.3999 10.4433 90.6999 10.5435 90.8999 10.9441Z" fill="black"/>
<path d="M97.7999 14.3505H96.7999V11.7465C96.7999 10.9452 96.4999 10.5446 95.8999 10.5446C95.5999 10.5446 95.3999 10.6448 95.1999 10.8451C94.9999 11.0454 94.8999 11.3459 94.8999 11.6463V14.3505H93.8999V11.0454C93.8999 10.6448 93.8999 10.2442 93.8999 9.7434H94.7999V10.4445C94.8999 10.2442 95.0999 10.0439 95.2999 9.84355C95.5999 9.64324 95.8999 9.54309 96.1999 9.54309C96.5999 9.54309 96.9999 9.64324 97.2999 9.94371C97.6999 10.2442 97.7999 10.7449 97.7999 11.446V14.3505Z" fill="black"/>
<path d="M104.6 10.5446H103.5V12.748C103.5 13.349 103.7 13.5493 104.1 13.5493C104.3 13.5493 104.4 13.5493 104.6 13.5493V14.3505C104.4 14.4507 104.1 14.4507 103.8 14.4507C103.4 14.4507 103.1 14.3505 102.9 14.05C102.7 13.8497 102.6 13.349 102.6 12.8482V10.5446H101.9V9.74342H102.6V8.94219L103.6 8.64172V9.74342H104.7V10.5446H104.6Z" fill="black"/>
<path d="M110 14.3505H109V11.7465C109 10.9453 108.7 10.5446 108.1 10.5446C107.6 10.5446 107.3 10.7449 107.1 11.2457C107.1 11.3459 107.1 11.446 107.1 11.6463V14.3505H106.1V7.6402H107.1V10.4445C107.4 9.94372 107.9 9.64326 108.5 9.64326C108.9 9.64326 109.3 9.74342 109.5 10.0439C109.8 10.3443 110 10.9453 110 11.5462V14.3505Z" fill="black"/>
<path fill-rule="evenodd" clip-rule="evenodd" d="M115.5 12.3474V11.8466C115.5 11.2457 115.4 10.7449 115.2 10.4445C114.9 9.94372 114.4 9.74341 113.7 9.74341C113 9.74341 112.5 9.94372 112.1 10.4445C111.7 10.8451 111.5 11.446 111.5 12.1471C111.5 12.8482 111.7 13.4491 112.1 13.8497C112.5 14.2503 113.1 14.4506 113.8 14.4506C114.4 14.4506 114.9 14.3505 115.3 14.1502L115.1 13.4491C114.8 13.5492 114.4 13.6494 113.9 13.6494C113.5 13.6494 113.2 13.5492 112.9 13.3489C112.7 13.1486 112.5 12.8482 112.5 12.3474H115.5ZM114.4 10.7434C114.5 10.9434 114.6 11.2434 114.6 11.5434H112.5C112.5 11.2434 112.6 10.9434 112.8 10.7434C113 10.4434 113.3 10.3434 113.6 10.3434C114 10.3434 114.2 10.4434 114.4 10.7434Z" fill="black"/>
</svg>
