<svg width="209" height="121" viewBox="0 0 209 121" fill="none" xmlns="http://www.w3.org/2000/svg">
<g filter="url(#filter0_d)">
<path d="M164.2 58.7911H44.2C42 58.7911 40.2 56.9883 40.2 54.785V22.7358C40.2 20.5324 42 18.7296 44.2 18.7296H164.2C166.4 18.7296 168.2 20.5324 168.2 22.7358V54.785C168.2 56.9883 166.4 58.7911 164.2 58.7911Z" fill="#F6F9FE"/>
</g>
<path d="M67.1999 38.5601C67.1999 35.4553 69.7999 33.953 69.8999 33.8528C68.3999 31.7496 66.1999 31.4492 65.3999 31.349C63.4999 31.1487 61.5999 32.4507 60.7 32.4507C59.7 32.4507 58.2 31.349 56.6 31.349C54.5 31.349 52.6 32.5509 51.5 34.4538C49.3 38.2596 50.9 43.8682 53 46.9729C54.1 48.4752 55.3 50.1778 56.9 50.0777C58.5 49.9775 59.1 49.0762 61 49.0762C62.9 49.0762 63.3999 50.0777 65.0999 50.0777C66.7999 50.0777 67.8999 48.5754 68.8999 47.0731C70.0999 45.3705 70.5999 43.6679 70.5999 43.5677C70.4999 43.4676 67.1999 42.2657 67.1999 38.5601Z" fill="black"/>
<path d="M64.1 29.3459C64.9 28.2442 65.5 26.842 65.4 25.3397C64.2 25.4399 62.6 26.141 61.8 27.2427C61 28.1441 60.3 29.6464 60.5 31.0485C61.8 31.1487 63.2 30.3475 64.1 29.3459Z" fill="black"/>
<path fill-rule="evenodd" clip-rule="evenodd" d="M87.7999 49.8774H89.9999L85.9999 36.9576H83.3999L79.2 49.8774H81.2999L82.3999 46.0715H86.5999L87.7999 49.8774ZM85.1 41.0613L86.2 44.4665H82.7L83.8 41.0613C84.1 40.0597 84.3 39.1584 84.4 38.6576C84.6666 39.4588 84.8444 40.1265 84.9629 40.5716C85.0222 40.7942 85.0666 40.9611 85.1 41.0613Z" fill="black"/>
<path fill-rule="evenodd" clip-rule="evenodd" d="M99.4 48.976C100.3 47.9745 100.7 46.7726 100.7 45.1702C100.7 43.6679 100.3 42.5662 99.4 41.7649C98.7 40.8636 97.8 40.463 96.7 40.463C95.3 40.463 94.3 41.0639 93.6 42.1656L93.5 40.6633H91.7C91.8 41.7649 91.8 42.7665 91.8 43.768V53.7834H93.9V48.8758C94.4 49.7772 95.3 50.1778 96.5 50.1778C97.7 50.1778 98.6 49.7772 99.4 48.976ZM97.9999 42.9643C98.3999 43.4651 98.5999 44.2663 98.5999 45.1677C98.5999 46.1693 98.3999 46.9705 97.8999 47.5714C97.4999 48.1723 96.8999 48.4728 96.0999 48.4728C95.4999 48.4728 94.8999 48.2725 94.4999 47.7717C94.1 47.271 93.9 46.7702 93.9 46.0691V44.4666C93.9 44.3665 93.9 44.1662 94 43.8657C94.1 43.365 94.3999 42.8642 94.7999 42.5637C95.1999 42.2633 95.6999 42.063 96.1999 42.063C96.9999 42.063 97.5999 42.3634 97.9999 42.9643Z" fill="black"/>
<path fill-rule="evenodd" clip-rule="evenodd" d="M110.1 48.976C111 47.9745 111.4 46.7726 111.4 45.1702C111.4 43.6679 111 42.5662 110.1 41.7649C109.4 40.8636 108.5 40.463 107.4 40.463C106 40.463 105 41.0639 104.3 42.1656L104.2 40.6633H102.4C102.5 41.7649 102.5 42.7665 102.5 43.768V53.7834H104.6V48.8758C105.1 49.7772 106 50.1778 107.2 50.1778C108.4 50.1778 109.3 49.7772 110.1 48.976ZM108.7 42.9643C109.1 43.4651 109.3 44.2663 109.3 45.1677C109.3 46.1693 109.1 46.9705 108.6 47.5714C108.2 48.1723 107.6 48.4728 106.8 48.4728C106.2 48.4728 105.6 48.2725 105.2 47.7717C104.8 47.271 104.6 46.7702 104.6 46.0691V44.4666C104.6 44.3665 104.6 44.1662 104.7 43.8657C104.8 43.365 105.1 42.8642 105.5 42.5637C105.9 42.2633 106.4 42.063 106.9 42.063C107.7 42.063 108.3 42.3634 108.7 42.9643Z" fill="black"/>
<path d="M123.4 46.2718C123.4 47.3735 123 48.2749 122.3 48.976C121.5 49.7772 120.3 50.0777 118.8 50.0777C117.4 50.0777 116.3 49.7772 115.5 49.2764L116 47.5738C116.9 48.0746 117.9 48.3751 119 48.3751C119.8 48.3751 120.4 48.1748 120.8 47.8743C121.2 47.4737 121.4 47.0731 121.4 46.4721C121.4 45.9714 121.2 45.4706 120.9 45.1702C120.5 44.7695 119.9 44.4691 119.1 44.1686C116.8 43.3674 115.7 42.0654 115.7 40.4629C115.7 39.3613 116.1 38.56 116.9 37.859C117.7 37.1579 118.7 36.8574 120.1 36.8574C121.3 36.8574 122.2 37.0577 123 37.4583L122.5 39.1609C121.8 38.7603 121 38.56 120 38.56C119.3 38.56 118.7 38.7603 118.3 39.0608C118 39.3613 117.8 39.7619 117.8 40.2626C117.8 40.7634 118 41.164 118.4 41.5646C118.7 41.8651 119.4 42.1656 120.3 42.5662C121.4 42.9668 122.2 43.5677 122.8 44.1686C123.1 44.6694 123.4 45.3705 123.4 46.2718Z" fill="black"/>
<path d="M130.2 42.1655H127.9V46.6725C127.9 47.7742 128.3 48.3751 129.1 48.3751C129.5 48.3751 129.8 48.3751 130 48.2749L130.1 49.8774C129.7 50.0777 129.2 50.0777 128.5 50.0777C127.7 50.0777 127 49.8774 126.6 49.3766C126.1 48.8758 125.9 48.0746 125.9 46.8728V42.1655H124.5V40.5631H125.9V38.8604L127.9 38.2595V40.5631H130.2V42.1655Z" fill="black"/>
<path fill-rule="evenodd" clip-rule="evenodd" d="M139.3 48.6755C140.1 47.7741 140.5 46.5723 140.5 45.1702C140.5 43.768 140.1 42.6663 139.4 41.7649C138.6 40.8636 137.5 40.3628 136.1 40.3628C134.7 40.3628 133.5 40.8636 132.7 41.7649C131.8 42.6663 131.4 43.8682 131.4 45.2703C131.4 46.6725 131.8 47.7741 132.6 48.6755C133.4 49.5769 134.5 50.0777 135.9 50.0777C137.3 50.0777 138.4 49.5769 139.3 48.6755ZM137.7 43.0645C138.1 43.6654 138.3 44.3665 138.3 45.2679C138.3 46.0691 138.1 46.8703 137.7 47.4712C137.2 48.1723 136.6 48.5729 135.8 48.5729C135 48.5729 134.3 48.1723 133.9 47.4712C133.5 46.8703 133.3 46.1692 133.3 45.2679C133.3 44.4666 133.5 43.6654 133.9 43.0645C134.3 42.3634 135 41.9628 135.8 41.9628C136.6 41.9628 137.3 42.3634 137.7 43.0645Z" fill="black"/>
<path d="M147.2 42.3659C147 42.3659 146.8 42.2658 146.5 42.2658C145.8 42.2658 145.2 42.5662 144.8 43.067C144.5 43.5678 144.3 44.1687 144.3 44.8697V49.7773H142.2V43.3674C142.2 42.2658 142.2 41.3644 142.1 40.463H143.9L144 42.2658H144.1C144.3 41.6648 144.7 41.1641 145.1 40.7635C145.6 40.463 146.1 40.2627 146.6 40.2627C146.8 40.2627 147 40.2627 147.1 40.2627V42.3659H147.2Z" fill="black"/>
<path fill-rule="evenodd" clip-rule="evenodd" d="M156.3 45.6709C156.4 45.4706 156.4 45.1702 156.4 44.7695C156.4 43.6679 156.2 42.6663 155.5 41.8651C154.9 40.8636 153.8 40.3628 152.5 40.3628C151.1 40.3628 150 40.8636 149.2 41.8651C148.5 42.7665 148.1 43.9683 148.1 45.3705C148.1 46.7726 148.5 47.9744 149.3 48.7757C150.1 49.6771 151.3 50.0777 152.7 50.0777C153.9 50.0777 154.9 49.8774 155.8 49.4767L155.5 48.0746C154.8 48.3751 153.9 48.4752 153 48.4752C152.2 48.4752 151.5 48.1748 151 47.7741C150.4 47.2734 150.1 46.5723 150.1 45.6709H156.3ZM154.499 44.1628C154.5 44.1958 154.5 44.2292 154.5 44.2628V44.1628H154.499ZM154.499 44.1628C154.488 43.6067 154.383 43.1348 154.1 42.6628C153.7 42.0628 153.2 41.7628 152.5 41.7628C151.8 41.7628 151.3 42.0628 150.9 42.5628C150.6 42.9628 150.4 43.5628 150.3 44.1628H154.499Z" fill="black"/>
<path fill-rule="evenodd" clip-rule="evenodd" d="M84.5999 31.6495C85.2999 31.0485 85.5999 30.1471 85.5999 29.0455C85.5999 28.0439 85.1999 27.2427 84.6999 26.7419C84.0999 26.2411 83.2999 26.0408 82.1999 26.0408C81.4999 26.0408 80.8999 26.0408 80.3999 26.141V32.3505C80.7999 32.4507 81.2999 32.4507 81.8999 32.4507C83.0999 32.4507 83.9999 32.1502 84.5999 31.6495ZM83.8999 27.3418C84.2999 27.7424 84.4999 28.3433 84.4999 29.0444C84.4999 29.8456 84.2999 30.5467 83.8999 30.9473C83.4999 31.3479 82.8999 31.5482 82.0999 31.5482H81.3999V26.841C81.5999 26.7408 81.8999 26.7408 82.1999 26.7408C82.8999 26.7408 83.4999 26.9411 83.8999 27.3418Z" fill="black"/>
<path fill-rule="evenodd" clip-rule="evenodd" d="M90.6 31.7496C91 31.349 91.2 30.7481 91.2 30.047C91.2 29.3459 91 28.745 90.6 28.3444C90.2 27.8436 89.7 27.6433 89 27.6433C88.3 27.6433 87.7 27.8436 87.3 28.3444C86.9 28.745 86.7 29.3459 86.7 30.047C86.7 30.7481 86.9 31.349 87.3 31.7496C87.7 32.2503 88.2 32.4507 88.9 32.4507C89.6 32.4507 90.2 32.2503 90.6 31.7496ZM89.8999 28.9441C90.0999 29.2445 90.1999 29.6451 90.1999 30.0457C90.1999 30.4464 90.0999 30.847 89.8999 31.0473C89.6999 31.4479 89.3999 31.6482 88.9999 31.6482C88.5999 31.6482 88.2999 31.548 88.1 31.1474C87.9 30.847 87.8 30.4464 87.8 30.0457C87.8 29.6451 87.9 29.2445 88.1 28.9441C88.2999 28.6436 88.5999 28.4433 88.9999 28.4433C89.3999 28.4433 89.6999 28.5435 89.8999 28.9441Z" fill="black"/>
<path d="M98.9 27.7434L97.5 32.3505H96.6L96 30.3474C95.8 29.8466 95.7 29.3459 95.6 28.8451C95.5 29.3459 95.4 29.8466 95.2 30.3474L94.6 32.3505H93.7L92.2 27.7434H93.2L93.7 29.9468C93.8 30.4476 93.9 30.9483 94 31.4491C94.1 31.0485 94.2 30.5477 94.4 29.9468L95 27.7434H95.8L96.4 29.8466C96.6 30.3474 96.7 30.8482 96.8 31.349C96.9 30.8482 97 30.3474 97.1 29.8466L97.7 27.7434H98.9Z" fill="black"/>
<path d="M104.1 32.3505H103.1V29.7465C103.1 28.9452 102.8 28.5446 102.2 28.5446C101.9 28.5446 101.7 28.6448 101.5 28.8451C101.3 29.0454 101.2 29.3459 101.2 29.6463V32.3505H100.2V29.0454C100.2 28.6448 100.2 28.2442 100.2 27.7434H101.1V28.4445C101.2 28.2442 101.4 28.0439 101.6 27.8436C101.9 27.6432 102.2 27.5431 102.5 27.5431C102.9 27.5431 103.3 27.6432 103.6 27.9437C104 28.2442 104.1 28.7449 104.1 29.446V32.3505Z" fill="black"/>
<path d="M106.9 32.3505H105.9V25.6402H106.9V32.3505Z" fill="black"/>
<path fill-rule="evenodd" clip-rule="evenodd" d="M112.3 31.7496C112.7 31.349 112.9 30.7481 112.9 30.047C112.9 29.3459 112.7 28.745 112.3 28.3444C111.9 27.8436 111.4 27.6433 110.7 27.6433C110 27.6433 109.4 27.9438 109 28.3444C108.6 28.745 108.4 29.3459 108.4 30.047C108.4 30.7481 108.6 31.349 109 31.7496C109.4 32.2503 109.9 32.4507 110.6 32.4507C111.3 32.4507 111.9 32.2503 112.3 31.7496ZM111.6 28.9441C111.8 29.2445 111.9 29.6451 111.9 30.0457C111.9 30.4464 111.8 30.847 111.6 31.0473C111.4 31.4479 111.1 31.6482 110.7 31.6482C110.3 31.6482 110 31.548 109.8 31.1474C109.6 30.847 109.5 30.4464 109.5 30.0457C109.5 29.6451 109.6 29.2445 109.8 28.9441C110 28.6436 110.3 28.4433 110.7 28.4433C111.1 28.4433 111.4 28.5435 111.6 28.9441Z" fill="black"/>
<path fill-rule="evenodd" clip-rule="evenodd" d="M116.9 32.3505H117.8C117.8 32.05 117.8 31.7496 117.9 31.2488V29.5462C117.9 28.2442 117.3 27.6433 116.1 27.6433C115.4 27.6433 114.9 27.7435 114.5 28.0439L114.7 28.745C115.1 28.5447 115.4 28.4445 115.9 28.4445C116.5 28.4445 116.8 28.745 116.8 29.3459V29.4461C115.9 29.4461 115.3 29.5462 114.8 29.8467C114.3 30.1471 114.1 30.5477 114.1 31.1487C114.1 31.4491 114.3 31.7496 114.5 32.05C114.7 32.3505 115.1 32.4507 115.5 32.4507C116 32.4507 116.5 32.2503 116.8 31.8497L116.9 32.3505ZM116.8 30.0433V30.7433V30.9433C116.7 31.1433 116.6 31.3433 116.4 31.4433C116.2 31.5433 116 31.6433 115.8 31.6433C115.6 31.6433 115.4 31.5433 115.3 31.4433C115.2 31.3433 115.1 31.1433 115.1 30.9433C115.1 30.3433 115.7 30.0433 116.8 30.0433Z" fill="black"/>
<path fill-rule="evenodd" clip-rule="evenodd" d="M122.7 32.3505H123.6V31.1486V25.7404H122.6V28.3443C122.3 27.9437 121.9 27.7434 121.3 27.7434C120.8 27.7434 120.3 27.9437 119.9 28.3443C119.5 28.8451 119.3 29.446 119.3 30.1471C119.3 30.8482 119.4 31.4491 119.8 31.8497C120.2 32.2503 120.6 32.4506 121.2 32.4506C121.9 32.4506 122.4 32.2503 122.7 31.6494V32.3505ZM122.6 29.6463V30.4476C122.6 30.748 122.5 31.0485 122.3 31.4491C122.1 31.7496 121.8 31.8498 121.5 31.8498C121.1 31.8498 120.8 31.6494 120.6 31.349C120.4 31.0485 120.3 30.748 120.3 30.2473C120.3 29.7465 120.4 29.3458 120.6 29.0454C120.8 28.7449 121.1 28.5446 121.5 28.5446C121.8 28.5446 122 28.5446 122.2 28.7449C122.4 28.9452 122.5 29.1455 122.6 29.3458V29.6463Z" fill="black"/>
<path fill-rule="evenodd" clip-rule="evenodd" d="M131.7 31.7496C132.1 31.349 132.3 30.7481 132.3 30.047C132.3 29.3459 132.1 28.745 131.7 28.3444C131.3 27.8436 130.8 27.6433 130.1 27.6433C129.4 27.6433 128.8 27.8436 128.4 28.3444C128 28.745 127.8 29.3459 127.8 30.047C127.8 30.7481 128 31.349 128.4 31.7496C128.8 32.2503 129.3 32.4507 130 32.4507C130.7 32.4507 131.3 32.2503 131.7 31.7496ZM130.9 28.9441C131.1 29.2445 131.2 29.6451 131.2 30.0457C131.2 30.4464 131.1 30.847 130.9 31.0473C130.7 31.4479 130.4 31.6482 130 31.6482C129.6 31.6482 129.3 31.548 129.1 31.1474C128.9 30.847 128.8 30.4464 128.8 30.0457C128.8 29.6451 128.9 29.2445 129.1 28.9441C129.3 28.6436 129.6 28.4433 130 28.4433C130.4 28.4433 130.7 28.5435 130.9 28.9441Z" fill="black"/>
<path d="M137.8 32.3505H136.8V29.7465C136.8 28.9452 136.5 28.5446 135.9 28.5446C135.6 28.5446 135.4 28.6448 135.2 28.8451C135 29.0454 134.9 29.3459 134.9 29.6463V32.3505H133.9V29.0454C133.9 28.6448 133.9 28.2442 133.9 27.7434H134.8V28.4445C134.9 28.2442 135.1 28.0439 135.3 27.8436C135.6 27.6432 135.9 27.5431 136.2 27.5431C136.6 27.5431 137 27.6432 137.3 27.9437C137.7 28.2442 137.8 28.7449 137.8 29.446V32.3505Z" fill="black"/>
<path d="M144.6 28.5446H143.5V30.748C143.5 31.349 143.7 31.5493 144.1 31.5493C144.3 31.5493 144.4 31.5493 144.6 31.5493V32.3505C144.4 32.4507 144.1 32.4507 143.8 32.4507C143.4 32.4507 143.1 32.3505 142.9 32.05C142.7 31.8497 142.6 31.349 142.6 30.8482V28.5446H141.9V27.7434H142.6V26.9422L143.6 26.6417V27.7434H144.7V28.5446H144.6Z" fill="black"/>
<path d="M150 32.3505H149V29.7465C149 28.9453 148.7 28.5446 148.1 28.5446C147.6 28.5446 147.3 28.7449 147.1 29.2457C147.1 29.3459 147.1 29.446 147.1 29.6463V32.3505H146.1V25.6402H147.1V28.4445C147.4 27.9437 147.9 27.6433 148.5 27.6433C148.9 27.6433 149.3 27.7434 149.5 28.0439C149.8 28.3443 150 28.9453 150 29.5462V32.3505Z" fill="black"/>
<path fill-rule="evenodd" clip-rule="evenodd" d="M155.5 30.3474V29.8466C155.5 29.2457 155.4 28.7449 155.2 28.4445C154.9 27.9437 154.4 27.7434 153.7 27.7434C153 27.7434 152.5 27.9437 152.1 28.4445C151.7 28.8451 151.5 29.446 151.5 30.1471C151.5 30.8482 151.7 31.4491 152.1 31.8497C152.5 32.2503 153.1 32.4506 153.8 32.4506C154.4 32.4506 154.9 32.3505 155.3 32.1502L155.1 31.4491C154.8 31.5492 154.4 31.6494 153.9 31.6494C153.5 31.6494 153.2 31.5492 152.9 31.3489C152.7 31.1486 152.5 30.8482 152.5 30.3474H155.5ZM154.4 28.7434C154.5 28.9434 154.6 29.2434 154.6 29.5434H152.5C152.5 29.2434 152.6 28.9434 152.8 28.7434C153 28.4434 153.3 28.3434 153.6 28.3434C154 28.3434 154.2 28.4434 154.4 28.7434Z" fill="black"/>
<defs>
<filter id="filter0_d" x="0.199951" y="0.729614" width="208" height="120.061" filterUnits="userSpaceOnUse" color-interpolation-filters="sRGB">
<feFlood flood-opacity="0" result="BackgroundImageFix"/>
<feColorMatrix in="SourceAlpha" type="matrix" values="0 0 0 0 0 0 0 0 0 0 0 0 0 0 0 0 0 0 127 0"/>
<feOffset dy="22"/>
<feGaussianBlur stdDeviation="20"/>
<feColorMatrix type="matrix" values="0 0 0 0 0 0 0 0 0 0 0 0 0 0 0 0 0 0 0.0744373 0"/>
<feBlend mode="normal" in2="BackgroundImageFix" result="effect1_dropShadow"/>
<feBlend mode="normal" in="SourceGraphic" in2="effect1_dropShadow" result="shape"/>
</filter>
</defs>
</svg>
