<svg width="580" height="518" viewBox="0 0 580 518" fill="none" xmlns="http://www.w3.org/2000/svg">
<path opacity="0.05" d="M299.019 7.25024L117 119.225C117 119.225 117 350.174 299.019 476.146C481.039 350.174 481.038 119.225 481.038 119.225L299.019 7.25024Z" fill="url(#paint0_linear)"/>
<path opacity="0.05" d="M292.234 7.25024L289.122 9.16435V473.962C290.156 474.692 291.189 475.423 292.234 476.146C474.253 350.174 474.253 119.225 474.253 119.225L292.234 7.25024Z" fill="url(#paint1_linear)"/>
<path opacity="0.5" d="M111.552 32.3546C110.994 32.1117 110.545 31.6721 110.29 31.1196C110.036 30.5672 109.993 29.9403 110.171 29.3584C110.199 29.2692 110.217 29.1769 110.224 29.0834C110.241 28.8168 110.171 28.5521 110.025 28.3284C109.879 28.1047 109.664 27.934 109.414 27.8416C109.163 27.7492 108.889 27.7399 108.633 27.8152C108.376 27.8904 108.151 28.0463 107.99 28.2595C107.935 28.3352 107.889 28.4171 107.853 28.5036C107.61 29.0614 107.17 29.5104 106.617 29.7651C106.065 30.0198 105.438 30.0625 104.855 29.885C104.766 29.8563 104.674 29.8382 104.58 29.8311C104.314 29.8149 104.049 29.8849 103.825 30.0309C103.601 30.1769 103.431 30.3911 103.338 30.6417C103.246 30.8923 103.236 31.166 103.312 31.4223C103.387 31.6785 103.543 31.9038 103.756 32.0646C103.832 32.1199 103.914 32.166 104 32.2021C104.558 32.445 105.008 32.8846 105.262 33.4371C105.517 33.9896 105.56 34.6164 105.382 35.1983C105.354 35.2875 105.335 35.3798 105.328 35.4733C105.312 35.7399 105.382 36.0046 105.528 36.2283C105.674 36.452 105.889 36.6227 106.139 36.7151C106.39 36.8076 106.664 36.8168 106.92 36.7416C107.176 36.6663 107.402 36.5105 107.563 36.2972C107.618 36.2215 107.664 36.1396 107.7 36.0531C107.943 35.4953 108.383 35.0463 108.935 34.7916C109.488 34.5369 110.115 34.4942 110.697 34.6717C110.787 34.7004 110.879 34.7185 110.972 34.7256C111.239 34.7418 111.504 34.6718 111.728 34.5258C111.951 34.3798 112.122 34.1656 112.215 33.915C112.307 33.6644 112.316 33.3907 112.241 33.1344C112.166 32.8782 112.01 32.653 111.797 32.4922C111.721 32.4369 111.639 32.3907 111.552 32.3546Z" fill="#4D8AF0"/>
<path opacity="0.5" d="M13.0184 251.622C12.4605 251.379 12.0114 250.94 11.7566 250.387C11.5018 249.835 11.4591 249.208 11.6366 248.626C11.6654 248.537 11.6834 248.444 11.6905 248.351C11.7068 248.084 11.6367 247.82 11.4906 247.596C11.3446 247.372 11.1304 247.202 10.8797 247.109C10.629 247.017 10.3552 247.007 10.0989 247.083C9.84249 247.158 9.61721 247.314 9.45636 247.527C9.40105 247.603 9.35486 247.685 9.31875 247.771C9.07575 248.329 8.63606 248.778 8.08339 249.033C7.53072 249.287 6.90366 249.33 6.32155 249.153C6.23231 249.124 6.14 249.106 6.04652 249.099C5.77982 249.082 5.51498 249.152 5.29124 249.298C5.0675 249.444 4.89674 249.659 4.80427 249.909C4.71179 250.16 4.70252 250.434 4.77782 250.69C4.85312 250.946 5.009 251.171 5.22235 251.332C5.29804 251.387 5.38 251.434 5.46652 251.47C6.02448 251.713 6.47361 252.152 6.72841 252.705C6.98321 253.257 7.02589 253.884 6.84834 254.466C6.81961 254.555 6.80151 254.647 6.79442 254.741C6.77818 255.007 6.84828 255.272 6.99432 255.496C7.14037 255.72 7.3546 255.89 7.60527 255.983C7.85595 256.075 8.12975 256.084 8.38611 256.009C8.64247 255.934 8.86776 255.778 9.02861 255.565C9.08392 255.489 9.13012 255.407 9.16622 255.321C9.40923 254.763 9.84891 254.314 10.4016 254.059C10.9542 253.804 11.5813 253.762 12.1634 253.939C12.2526 253.968 12.345 253.986 12.4384 253.993C12.7051 254.009 12.97 253.939 13.1937 253.793C13.4175 253.647 13.5882 253.433 13.6807 253.183C13.7732 252.932 13.7824 252.658 13.7071 252.402C13.6318 252.146 13.476 251.92 13.2626 251.76C13.1869 251.704 13.105 251.658 13.0184 251.622Z" fill="#4D8AF0"/>
<path opacity="0.5" d="M505.087 175.414C507.324 175.414 509.137 173.602 509.137 171.366C509.137 169.13 507.324 167.318 505.087 167.318C502.851 167.318 501.038 169.13 501.038 171.366C501.038 173.602 502.851 175.414 505.087 175.414Z" fill="#F55F44"/>
<path opacity="0.5" d="M81.9311 464.847C84.1674 464.847 85.9804 463.035 85.9804 460.799C85.9804 458.563 84.1674 456.751 81.9311 456.751C79.6947 456.751 77.8817 458.563 77.8817 460.799C77.8817 463.035 79.6947 464.847 81.9311 464.847Z" fill="#F55F44"/>
<path opacity="0.5" d="M573.926 331.263C576.162 331.263 577.975 329.45 577.975 327.215C577.975 324.979 576.162 323.167 573.926 323.167C571.69 323.167 569.877 324.979 569.877 327.215C569.877 329.45 571.69 331.263 573.926 331.263Z" fill="#F55F44"/>
<path opacity="0.5" d="M475.318 51.92C474.76 51.6771 474.311 51.2376 474.056 50.6851C473.801 50.1326 473.759 49.5057 473.936 48.9238C473.965 48.8346 473.983 48.7423 473.99 48.6489C474.006 48.3823 473.936 48.1175 473.79 47.8938C473.644 47.6702 473.43 47.4995 473.179 47.407C472.929 47.3146 472.655 47.3053 472.399 47.3806C472.142 47.4559 471.917 47.6117 471.756 47.825C471.701 47.9006 471.655 47.9826 471.618 48.0691C471.375 48.6268 470.936 49.0758 470.383 49.3305C469.83 49.5853 469.203 49.6279 468.621 49.4504C468.532 49.4217 468.44 49.4036 468.346 49.3965C468.079 49.3803 467.815 49.4504 467.591 49.5964C467.367 49.7424 467.196 49.9565 467.104 50.2071C467.011 50.4577 467.002 50.7314 467.078 50.9877C467.153 51.244 467.309 51.4692 467.522 51.63C467.598 51.6853 467.68 51.7315 467.766 51.7676C468.324 52.0105 468.773 52.45 469.028 53.0025C469.283 53.555 469.326 54.1818 469.148 54.7638C469.119 54.853 469.101 54.9453 469.094 55.0387C469.078 55.3053 469.148 55.5701 469.294 55.7937C469.44 56.0174 469.654 56.1881 469.905 56.2806C470.156 56.373 470.429 56.3823 470.686 56.307C470.942 56.2317 471.167 56.0759 471.328 55.8626C471.384 55.7869 471.43 55.705 471.466 55.6185C471.709 55.0607 472.149 54.6118 472.701 54.357C473.254 54.1023 473.881 54.0597 474.463 54.2371C474.552 54.2659 474.645 54.284 474.738 54.291C475.005 54.3073 475.27 54.2372 475.493 54.0912C475.717 53.9452 475.888 53.7311 475.98 53.4805C476.073 53.2299 476.082 52.9562 476.007 52.6999C475.931 52.4436 475.776 52.2184 475.562 52.0576C475.487 52.0023 475.405 51.9561 475.318 51.92Z" fill="#4D8AF0"/>
<path opacity="0.5" d="M542.807 475.612C542.249 475.369 541.8 474.93 541.545 474.377C541.29 473.825 541.248 473.198 541.425 472.616C541.454 472.527 541.472 472.435 541.479 472.341C541.495 472.075 541.425 471.81 541.279 471.586C541.133 471.362 540.919 471.192 540.668 471.099C540.418 471.007 540.144 470.998 539.887 471.073C539.631 471.148 539.406 471.304 539.245 471.517C539.19 471.593 539.144 471.675 539.107 471.761C538.864 472.319 538.425 472.768 537.872 473.023C537.319 473.278 536.692 473.32 536.11 473.143C536.021 473.114 535.929 473.096 535.835 473.089C535.568 473.073 535.304 473.143 535.08 473.289C534.856 473.435 534.685 473.649 534.593 473.899C534.5 474.15 534.491 474.424 534.567 474.68C534.642 474.936 534.798 475.161 535.011 475.322C535.087 475.378 535.169 475.424 535.255 475.46C535.813 475.703 536.262 476.142 536.517 476.695C536.772 477.247 536.815 477.874 536.637 478.456C536.608 478.545 536.59 478.638 536.583 478.731C536.567 478.998 536.637 479.262 536.783 479.486C536.929 479.71 537.143 479.88 537.394 479.973C537.645 480.065 537.918 480.075 538.175 479.999C538.431 479.924 538.656 479.768 538.817 479.555C538.873 479.479 538.919 479.397 538.955 479.311C539.198 478.753 539.638 478.304 540.19 478.049C540.743 477.795 541.37 477.752 541.952 477.929C542.041 477.958 542.134 477.976 542.227 477.983C542.494 478 542.759 477.929 542.982 477.783C543.206 477.637 543.377 477.423 543.469 477.173C543.562 476.922 543.571 476.648 543.496 476.392C543.42 476.136 543.265 475.911 543.051 475.75C542.976 475.695 542.894 475.648 542.807 475.612Z" fill="#4D8AF0"/>
<path opacity="0.5" d="M8.2942 123.435C7.73624 123.192 7.28712 122.753 7.03232 122.2C6.77752 121.648 6.73483 121.021 6.91238 120.439C6.94111 120.35 6.95921 120.257 6.9663 120.164C6.98254 119.897 6.91244 119.632 6.7664 119.409C6.62035 119.185 6.40612 119.014 6.15545 118.922C5.90477 118.83 5.63097 118.82 5.37461 118.896C5.11825 118.971 4.89297 119.127 4.73212 119.34C4.6768 119.416 4.63061 119.498 4.5945 119.584C4.3515 120.142 3.91181 120.591 3.35915 120.845C2.80648 121.1 2.17941 121.143 1.59731 120.965C1.50807 120.937 1.41576 120.919 1.32227 120.911C1.05558 120.895 0.79074 120.965 0.566996 121.111C0.343252 121.257 0.172497 121.471 0.0800242 121.722C-0.0124484 121.973 -0.0217219 122.246 0.0535789 122.503C0.12888 122.759 0.284752 122.984 0.498103 123.145C0.573797 123.2 0.655757 123.246 0.742279 123.283C1.30024 123.525 1.74936 123.965 2.00417 124.517C2.25897 125.07 2.30165 125.697 2.1241 126.279C2.09537 126.368 2.07727 126.46 2.07018 126.554C2.05394 126.82 2.12403 127.085 2.27008 127.309C2.41613 127.532 2.63035 127.703 2.88103 127.796C3.13171 127.888 3.40551 127.897 3.66187 127.822C3.91823 127.747 4.14352 127.591 4.30437 127.378C4.35968 127.302 4.40587 127.22 4.44198 127.133C4.68498 126.576 5.12466 126.127 5.67733 125.872C6.23 125.617 6.85706 125.575 7.43916 125.752C7.52841 125.781 7.62072 125.799 7.7142 125.806C7.9809 125.822 8.24574 125.752 8.46948 125.606C8.69322 125.46 8.86397 125.246 8.95644 124.995C9.04891 124.745 9.05818 124.471 8.98289 124.215C8.90759 123.959 8.75172 123.733 8.53837 123.573C8.46268 123.517 8.38072 123.471 8.2942 123.435Z" fill="#4D8AF0"/>
<path opacity="0.5" d="M53.5857 195.654C55.8221 195.654 57.6351 193.842 57.6351 191.606C57.6351 189.37 55.8221 187.558 53.5857 187.558C51.3493 187.558 49.5364 189.37 49.5364 191.606C49.5364 193.842 51.3493 195.654 53.5857 195.654Z" fill="#47E6B1"/>
<path opacity="0.5" d="M575.951 228.038C578.187 228.038 580 226.226 580 223.99C580 221.754 578.187 219.942 575.951 219.942C573.714 219.942 571.901 221.754 571.901 223.99C571.901 226.226 573.714 228.038 575.951 228.038Z" fill="#47E6B1"/>
<g opacity="0.5">
<path opacity="0.5" d="M395.755 0H393.73V11.4694H395.755V0Z" fill="#47E6B1"/>
<path opacity="0.5" d="M400.479 6.74666V4.72266L389.006 4.72266V6.74666L400.479 6.74666Z" fill="#47E6B1"/>
</g>
<g opacity="0.5">
<path opacity="0.5" d="M403.179 449.33H401.154V460.799H403.179V449.33Z" fill="#47E6B1"/>
<path opacity="0.5" d="M407.903 456.076V454.052H396.43V456.076H407.903Z" fill="#47E6B1"/>
</g>
<g opacity="0.5">
<path opacity="0.5" d="M19.8412 473.618H17.8165V485.087H19.8412V473.618Z" fill="#47E6B1"/>
<path opacity="0.5" d="M24.5654 480.364V478.34H13.0923V480.364H24.5654Z" fill="#47E6B1"/>
</g>
<g opacity="0.5">
<path opacity="0.5" d="M480.791 267.169H478.767V278.638H480.791V267.169Z" fill="#47E6B1"/>
<path opacity="0.5" d="M485.515 273.916V271.892H474.042V273.916H485.515Z" fill="#47E6B1"/>
</g>
<path opacity="0.5" d="M536.947 82.9964L541.295 86.981L547.455 77.9243L549.63 79.7357L541.295 90.604L535.135 83.721L536.947 82.9964Z" fill="#47E6B1"/>
<defs>
<linearGradient id="paint0_linear" x1="299.019" y1="7.25024" x2="299.019" y2="476.146" gradientUnits="userSpaceOnUse">
<stop stop-color="white"/>
<stop offset="1" stop-color="#434343"/>
</linearGradient>
<linearGradient id="paint1_linear" x1="369" y1="55" x2="381.688" y2="476.146" gradientUnits="userSpaceOnUse">
<stop stop-color="#434343"/>
<stop offset="1" stop-color="#13161B"/>
</linearGradient>
</defs>
</svg>
