<svg width="32" height="32" viewBox="0 0 32 32" fill="none" xmlns="http://www.w3.org/2000/svg">
<path d="M16 11.3548C11.4467 11.3548 7.74194 15.0596 7.74194 19.6129C7.74194 24.1662 11.4467 27.871 16 27.871C17.9701 27.871 19.8777 27.1659 21.3714 25.8854L20.6994 25.1014C19.393 26.2219 17.7239 26.8387 16 26.8387C12.0155 26.8387 8.7742 23.5974 8.7742 19.6129C8.7742 15.6284 12.0155 12.3871 16 12.3871C19.9845 12.3871 23.2258 15.6284 23.2258 19.6129C23.2258 21.3079 22.6271 22.9553 21.5401 24.2524L22.3308 24.9156C23.5737 23.4333 24.2581 21.5499 24.2581 19.6129C24.2581 15.0596 20.5533 11.3548 16 11.3548Z" fill="url(#paint0_linear)"/>
<path d="M18.0645 24.7742V19.8446C18.7236 19.2557 19.0967 18.4325 19.0967 17.5484C19.0967 15.8405 17.7078 14.4516 16 14.4516C14.2921 14.4516 12.9032 15.8405 12.9032 17.5484C12.9032 18.4325 13.2764 19.2557 13.9355 19.8446V24.7742H18.0645ZM16 15.4839C17.1386 15.4839 18.0645 16.4098 18.0645 17.5484C18.0645 18.1941 17.7631 18.7922 17.2371 19.1897L17.0322 19.3445V23.7419H14.9677V19.3445L14.7628 19.1897C14.2369 18.7922 13.9355 18.1941 13.9355 17.5484C13.9355 16.4098 14.8614 15.4839 16 15.4839Z" fill="url(#paint1_linear)"/>
<path d="M29.4194 0H20.6452C19.3992 0 18.3566 0.888258 18.1166 2.06452H3.09677C2.2431 2.06452 1.54839 2.75923 1.54839 3.6129V4.12903C0.69471 4.12903 0 4.82374 0 5.67742V23.2258C0 24.0795 0.69471 24.7742 1.54839 24.7742H4.74374C6.70503 29.0338 11.0111 32 16 32C20.9889 32 25.295 29.0338 27.2563 24.7742H30.4516C31.3053 24.7742 32 24.0795 32 23.2258V2.58065C32 1.15768 30.8423 0 29.4194 0ZM26.0779 24.8341L24.304 23.8101L23.7879 24.704L25.5603 25.727C24.673 27.1097 23.4968 28.2859 22.1156 29.1726L21.0926 27.4003L20.1987 27.9164L21.2227 29.6903C19.8018 30.4294 18.2075 30.8785 16.5166 30.9543V28.9032H15.4844V30.9548C13.7935 30.879 12.1992 30.4299 10.7783 29.6908L11.8023 27.9169L10.9084 27.4008L9.88542 29.1732C8.50426 28.2864 7.32748 27.1102 6.44129 25.729L8.21368 24.7061L7.69755 23.8121L5.92361 24.8361C5.18452 23.4152 4.73548 21.8209 4.65961 20.1301H6.70968V19.0978H4.65806C4.73394 17.407 5.18297 15.8126 5.92206 14.3917L7.696 15.4157L8.21213 14.5218L6.43974 13.4988C7.32645 12.1177 8.50271 10.9409 9.88387 10.0547L10.9068 11.8271L11.8008 11.311L10.7768 9.53703C12.1977 8.79794 13.792 8.3489 15.4828 8.27303V10.3226H16.5151V8.27097C18.2059 8.34684 19.8003 8.79587 21.2212 9.53497L20.1972 11.3089L21.0911 11.825L22.1141 10.0526C23.4952 10.9394 24.672 12.1156 25.5582 13.4968L23.7858 14.5197L24.3019 15.4137L26.0759 14.3897C26.815 15.8106 27.264 17.4049 27.3399 19.0957H25.2903V20.128H27.3419C27.2661 21.8188 26.817 23.4132 26.0779 24.8341ZM30.9677 23.2258C30.9677 23.5102 30.736 23.7419 30.4516 23.7419H27.6769C28.1352 22.4495 28.3871 21.0606 28.3871 19.6129C28.3871 12.783 22.8299 7.22581 16 7.22581C9.17006 7.22581 3.6129 12.783 3.6129 19.6129C3.6129 21.0606 3.86477 22.4495 4.3231 23.7419H1.54839C1.264 23.7419 1.03226 23.5102 1.03226 23.2258V5.67742C1.03226 5.39303 1.264 5.16129 1.54839 5.16129H3.6129V4.12903H2.58065V3.6129C2.58065 3.32852 2.81239 3.09677 3.09677 3.09677H18.0645V4.12903H4.64516V5.16129H19.0968V2.58065C19.0968 1.72697 19.7915 1.03226 20.6452 1.03226H29.4194C30.273 1.03226 30.9677 1.72697 30.9677 2.58065V23.2258Z" fill="url(#paint2_linear)"/>
<defs>
<linearGradient id="paint0_linear" x1="16" y1="11.3548" x2="16" y2="27.871" gradientUnits="userSpaceOnUse">
<stop stop-color="#FFDA44"/>
<stop offset="1" stop-color="#FFCC00"/>
</linearGradient>
<linearGradient id="paint1_linear" x1="16" y1="14.4516" x2="16" y2="24.7742" gradientUnits="userSpaceOnUse">
<stop stop-color="#FFDA44"/>
<stop offset="1" stop-color="#FFCC00"/>
</linearGradient>
<linearGradient id="paint2_linear" x1="16" y1="0" x2="16" y2="32" gradientUnits="userSpaceOnUse">
<stop stop-color="#FFDA44"/>
<stop offset="1" stop-color="#FFCC00"/>
</linearGradient>
</defs>
</svg>
