<svg width="447" height="322" viewBox="0 0 447 322" fill="none" xmlns="http://www.w3.org/2000/svg">
<g clip-path="url(#clip0)">
<path d="M151.524 94.4268H114.952" stroke="#F7F9FD" stroke-width="3"/>
<path d="M151.524 185.035H114.952" stroke="#F7F9FD" stroke-width="3"/>
<path d="M151.524 172.189H114.952" stroke="#F7F9FD" stroke-width="3"/>
<path d="M151.524 159.114H114.952" stroke="#F7F9FD" stroke-width="3"/>
<path d="M151.524 146.268H114.952" stroke="#F7F9FD" stroke-width="3"/>
<path d="M151.524 133.193H114.952" stroke="#F7F9FD" stroke-width="3"/>
<path d="M151.524 120.347H114.952" stroke="#F7F9FD" stroke-width="3"/>
<path d="M151.524 107.502H114.952" stroke="#F7F9FD" stroke-width="3"/>
<path d="M331.137 94.4268H294.566" stroke="#F7F9FD" stroke-width="3"/>
<path d="M331.137 185.035H294.566" stroke="#F7F9FD" stroke-width="3"/>
<path d="M331.137 172.189H294.566" stroke="#F7F9FD" stroke-width="3"/>
<path d="M331.137 159.114H294.566" stroke="#F7F9FD" stroke-width="3"/>
<path d="M331.137 146.268H294.566" stroke="#F7F9FD" stroke-width="3"/>
<path d="M331.137 133.193H294.566" stroke="#F7F9FD" stroke-width="3"/>
<path d="M331.137 120.347H294.566" stroke="#F7F9FD" stroke-width="3"/>
<path d="M331.137 107.502H294.566" stroke="#F7F9FD" stroke-width="3"/>
<path d="M265.779 245.959V209.257" stroke="#F7F9FD" stroke-width="3"/>
<path d="M175.722 245.959V209.257" stroke="#F7F9FD" stroke-width="3"/>
<path d="M188.521 245.959V209.257" stroke="#F7F9FD" stroke-width="3"/>
<path d="M201.322 245.959V209.257" stroke="#F7F9FD" stroke-width="3"/>
<path d="M214.35 245.959V209.257" stroke="#F7F9FD" stroke-width="3"/>
<path d="M227.15 245.959V209.257" stroke="#F7F9FD" stroke-width="3"/>
<path d="M239.95 245.959V209.257" stroke="#F7F9FD" stroke-width="3"/>
<path d="M252.979 245.959V209.257" stroke="#F7F9FD" stroke-width="3"/>
<path d="M265.779 65.6277V28.9258" stroke="#F7F9FD" stroke-width="3"/>
<path d="M175.722 65.6277V28.9258" stroke="#F7F9FD" stroke-width="3"/>
<path d="M188.521 65.6277V28.9258" stroke="#F7F9FD" stroke-width="3"/>
<path d="M201.322 65.6277V28.9258" stroke="#F7F9FD" stroke-width="3"/>
<path d="M214.35 65.6277V28.9258" stroke="#F7F9FD" stroke-width="3"/>
<path d="M227.15 65.6277V28.9258" stroke="#F7F9FD" stroke-width="3"/>
<path d="M239.95 65.6277V28.9258" stroke="#F7F9FD" stroke-width="3"/>
<path d="M252.979 65.6277V28.9258" stroke="#F7F9FD" stroke-width="3"/>
<path fill-rule="evenodd" clip-rule="evenodd" d="M156.829 62.0317L149.972 68.9133V213.198H300.6V62.0317H156.829Z" fill="url(#paint0_radial)" stroke="#F7F9FD" stroke-miterlimit="10"/>
<path d="M164.6 84.5116C167.756 84.5116 170.314 81.9441 170.314 78.777C170.314 75.6098 167.756 73.0423 164.6 73.0423C161.444 73.0423 158.886 75.6098 158.886 78.777C158.886 81.9441 161.444 84.5116 164.6 84.5116Z" fill="#242930"/>
<path d="M169.629 92.5401V69.8308H163.457V92.5401H169.629ZM171.914 92.7695C171.914 93.2283 171.686 93.6871 171.457 94.1459C171 94.6046 170.543 94.6046 170.086 94.6046H163C162.543 94.6046 162.086 94.3752 161.629 94.1459C161.171 93.6871 161.171 93.2283 161.171 92.7695V69.6015C161.171 69.1427 161.4 68.6839 161.629 68.2251C162.086 67.7664 162.543 67.7664 163 67.7664H170.086C170.543 67.7664 171 67.9957 171.457 68.2251C171.914 68.6839 171.914 69.1427 171.914 69.6015V92.7695Z" fill="#F4C944"/>
<path d="M184.943 94.834H182.657L179.914 88.1818L176.943 94.834H174.657L178.543 86.3467L174.886 78.0887H177.172L179.686 84.2822L182.429 78.0887H184.714L181.057 86.1173L184.943 94.834Z" fill="#F4C944"/>
<path d="M198.2 87.723H196.143V94.834H193.857V87.723H189.971H186.085V86.5761L189.285 77.1712L192.485 67.7664H194.771L191.571 76.7124L188.371 85.6585H193.4V75.7949H195.685V85.6585H197.743L198.2 87.723Z" fill="#F4C944"/>
<path d="M211.229 94.834H200.486V93.4577L208.714 76.483V70.0602H203.229V76.0243H200.943V69.8308C200.943 69.372 201.172 68.9133 201.4 68.4545C201.857 67.9957 202.314 67.9957 203 67.9957H209.4C209.857 67.9957 210.314 68.2251 210.772 68.4545C211.229 68.9133 211.229 69.372 211.229 69.8308V75.5655C211.229 76.2537 211 76.9418 210.543 77.8594L203.457 92.5401H211.229V94.834Z" fill="#F4C944"/>
<path d="M223.343 77.8594V70.0603H217.4V77.8594L220.371 79.9239L223.343 77.8594ZM225.629 92.9989C225.629 93.4577 225.4 93.9165 225.171 94.3753C224.714 94.834 224.257 94.834 223.8 94.834H220.371H216.943C216.486 94.834 216.029 94.6047 215.571 94.3753C215.114 93.9165 215.114 93.4577 215.114 92.9989V84.2822C215.114 83.5941 215.343 82.9059 216.029 82.6765L218.543 81.0708L216.029 79.4651C215.343 79.0063 215.114 78.5476 215.114 77.63V70.0603C215.114 69.6015 215.343 69.1427 215.571 68.6839C216.029 68.2252 216.486 68.2252 216.943 68.2252H220.371H223.8C224.257 68.2252 224.714 68.4545 225.171 68.6839C225.629 69.1427 225.629 69.6015 225.629 70.0603V77.63C225.629 78.3182 225.4 79.0063 224.714 79.4651L222.2 81.0708L224.714 82.6765C225.4 83.1353 225.629 83.5941 225.629 84.5116V92.9989ZM223.343 92.7696V83.8235L220.371 81.759L217.4 83.8235V92.7696H223.343Z" fill="#F4C944"/>
<path d="M237.057 92.7695V86.8055H232.028V92.7695H237.057ZM239.114 95.0634H236.828V94.6046C235.914 94.834 235 94.834 234.086 95.0634C232.943 95.2928 232.028 95.2928 231.343 95.2928C230.2 95.2928 229.514 94.6046 229.514 93.4577V87.2642C229.514 85.8879 230.2 85.4292 231.343 85.4292H236.6V80.3826H231.8V83.1353H229.514V80.3826C229.514 79.0063 230.2 78.5475 231.343 78.5475H236.828C238.2 78.5475 238.657 79.2357 238.657 80.3826L239.114 95.0634Z" fill="#F4C944"/>
<path d="M253.057 95.0634H242.314V93.6871L250.543 76.7125V70.2896H245.286V76.2537H243V70.0603C243 69.6015 243.229 69.1427 243.457 68.6839C243.686 68.2252 244.372 68.2252 244.829 68.2252H251.229C251.686 68.2252 252.143 68.4545 252.6 68.6839C253.057 69.1427 253.057 69.6015 253.057 70.0603V75.7949C253.057 76.4831 252.829 77.1712 252.372 78.0888L245.286 92.7696H253.057V95.0634Z" fill="#F4C944"/>
<path d="M262.886 70.0603H259.686V78.3182H262.428V80.3827H259.686V95.0634H257.4V80.3827H255.571V78.3182H257.4V70.0603C257.4 68.6839 258.086 68.2252 259.228 68.2252H262.886V70.0603Z" fill="#F4C944"/>
<path d="M273.4 80.8414V70.2896H267.457V80.8414H273.4ZM275.686 93.2283C275.686 93.6871 275.457 94.1459 275.229 94.6046C274.771 95.0634 274.314 95.0634 273.857 95.0634H270.429H267C266.543 95.0634 266.086 94.834 265.629 94.6046C265.171 94.1459 265.171 93.6871 265.171 93.2283V87.2642H267.457V92.9989H270.429H273.4V83.1353H270.2H267C266.543 83.1353 266.086 82.9059 265.629 82.6765C265.171 82.2177 265.171 81.759 265.171 81.3002V70.2896C265.171 69.8308 265.4 69.3721 265.629 68.9133C265.857 68.4545 266.543 68.4545 267 68.4545H270.429H273.857C274.314 68.4545 274.771 68.6839 275.229 68.9133C275.686 69.3721 275.686 69.8308 275.686 70.2896V81.759V93.2283Z" fill="#F4C944"/>
<path d="M288.485 78.0888V70.2896H282.543V78.0888L285.514 80.1533L288.485 78.0888ZM291 93.2283C291 93.6871 290.771 94.1459 290.543 94.6047C290.085 95.0634 289.628 95.0634 289.171 95.0634H282.085C281.628 95.0634 281.171 94.834 280.714 94.6047C280.257 94.1459 280.257 93.6871 280.257 93.2283V84.5116C280.257 83.8235 280.485 83.1353 281.171 82.9059L283.685 81.3002L280.943 79.4651C280.257 79.0063 280.028 78.5476 280.028 77.63V70.0603C280.028 69.6015 280.257 69.1427 280.485 68.6839C280.943 68.2252 281.4 68.2252 281.857 68.2252H288.714C289.171 68.2252 289.628 68.4545 290.085 68.6839C290.543 69.1427 290.543 69.6015 290.543 70.0603V77.63C290.543 78.3182 290.314 79.0063 289.628 79.4651L287.114 81.0708L289.628 82.6765C290.314 83.1353 290.543 83.5941 290.543 84.5116L291 93.2283ZM288.485 92.9989V84.0529L285.514 81.9884L282.543 84.0529V92.9989H288.485Z" fill="#F4C944"/>
<path d="M169.4 114.561V91.852H163.229V114.561H169.4ZM171.914 114.791C171.914 115.249 171.686 115.708 171.457 116.167C171 116.626 170.543 116.626 170.086 116.626H163C162.543 116.626 162.086 116.396 161.629 116.167C161.171 115.708 161.171 115.249 161.171 114.791V91.6226C161.171 91.1638 161.4 90.705 161.629 90.2463C162.086 89.7875 162.543 89.7875 163 89.7875H170.086C170.543 89.7875 171 90.0169 171.457 90.2463C171.914 90.4756 171.914 91.1638 171.914 91.6226V114.791Z" fill="#F5D061"/>
<path d="M184.943 116.626H182.657L179.686 109.974L176.943 116.626H174.657L178.543 108.138L174.886 99.8805H177.172L179.914 106.074L182.429 99.8805H184.714V100.11L181.057 108.138L184.943 116.626Z" fill="#F5D061"/>
<path d="M192.714 92.3107H195L192.486 99.4217L189.971 106.533H194.086V98.7336H195.914V106.762H197.514V108.368H195.914V114.332H193.629L193.4 109.285H190.2H187V108.138L188.6 103.321L189.743 99.8805L190.429 97.5866L192.714 92.3107ZM192.486 109.744C192.486 109.974 192.257 110.203 192.029 110.203H190.886C190.657 110.203 190.429 109.974 190.429 109.744V107.221C190.429 106.991 190.657 106.762 190.886 106.762H192.029C192.257 106.762 192.486 106.991 192.486 107.221V108.368L192.257 108.597H190.886V109.744H191.8V109.056H192.257L192.486 109.744Z" fill="#F5D061"/>
<path d="M201.857 90.705C202.086 90.4757 202.771 90.2463 203.229 90.2463H209.171C209.629 90.2463 210.086 90.4757 210.543 90.705C210.771 90.9344 211 91.3932 211 91.852V96.6691C211 97.1279 210.771 98.0454 210.543 98.7336L204.371 111.579L210.543 112.038V113.873H200.943V112.726L207.571 98.2748V92.7695L203.229 92.5401V97.1279H201.4V91.852C201.4 91.3932 201.4 90.9344 201.857 90.705ZM206.429 105.615V105.845H206.2H204.829H204.6V105.615V104.468H205.057V105.615H206.2V103.551H204.829H204.6V103.321V101.027V100.798H204.829H206.2H206.429V101.027V105.615Z" fill="#F5D061"/>
<path d="M223.114 102.404V94.1458H217.4V102.863L220.371 104.468C220.6 104.468 223.114 102.633 223.114 102.404ZM215.343 90.4756C215.571 90.2462 216.257 90.0168 216.714 90.0168H218.086L219.686 90.2462L222.429 90.705C222.886 90.705 223.343 91.1638 223.571 91.3932C223.8 91.6226 224.029 92.3107 224.029 92.7695V97.3572C224.257 97.3572 224.257 99.4217 224.486 99.4217C224.486 99.6511 224.486 99.8805 224.486 100.11C224.486 100.339 224.257 100.569 224.029 100.798C224.257 100.798 222.886 101.716 222.886 101.716L222.429 102.174C222.657 102.174 224.714 103.78 224.714 103.78C225.171 104.009 225.4 104.927 225.4 105.615V113.644V114.561C225.4 115.02 225.171 115.479 224.714 115.938C224.486 116.167 224.029 116.396 223.571 116.396C223.571 116.396 220.6 116.396 220.371 116.396H217.857H216.714C216.257 116.396 215.571 116.167 215.343 115.938C215.114 115.708 214.886 115.02 214.886 114.561V105.615C214.886 104.927 215.114 104.009 215.571 103.78L217.629 101.945L215.571 100.569C215.114 100.339 214.886 99.4217 214.886 98.9629V91.6226C215.114 91.1638 215.114 90.705 215.343 90.4756ZM222.886 113.644V106.533L220.371 104.927L217.857 106.533V113.644H222.886Z" fill="#F5D061"/>
<path d="M231.343 105.156H237.286V105.845L235.686 106.762V109.285L236.829 109.973L237.057 110.203C237.057 110.203 237.057 110.432 237.057 110.662V114.791C237.057 114.791 237.057 115.02 237.057 115.249C237.057 115.249 236.371 115.479 236.143 115.479H232.029H231.114V115.249V113.185L231.571 112.956V113.644L232.714 113.185V109.515L231.114 108.827L231.343 105.156ZM238.429 115.249H236.6V114.791C235.914 114.791 235.229 115.02 234.543 115.02C233.629 115.02 232.943 115.249 232.486 115.249C231.571 115.249 230.886 114.791 230.886 113.873V109.056C230.886 108.138 231.343 107.45 232.486 107.45H236.829V103.321H232.943V105.615H231.114V103.321C231.114 102.174 231.571 101.716 232.714 101.716H237.057C237.971 101.716 238.657 102.174 238.657 103.321L238.429 115.249Z" fill="#F5D061"/>
<path d="M243.686 93.2283C243.914 92.7695 244.371 92.5401 244.829 92.5401C244.829 92.3107 247.343 92.3107 247.571 92.3107H250.771C251.229 92.3107 251.686 92.5401 252.143 92.7695C252.371 92.9989 252.6 93.4577 252.6 93.9164V98.9629C252.6 99.4217 252.371 100.339 252.143 101.027L246.429 114.102L252.6 114.791V116.626C252.143 116.626 247.8 116.626 247.571 116.626C247.343 116.626 243 116.396 243 116.167V115.02L249.629 100.569V95.2928L245.286 95.0634V99.6511H243.457V94.3752C243.457 93.9164 243.457 93.687 243.686 93.2283ZM247.343 106.303H246.886C246.429 106.303 246.2 106.303 245.971 106.303C245.743 106.303 245.514 106.303 245.514 106.074C245.514 105.845 245.286 105.845 245.286 105.615V103.551C245.286 103.321 245.286 103.092 245.514 103.092C245.743 102.863 245.743 102.863 245.971 102.863H246.657V100.798H247.114L247.343 106.303Z" fill="#F5D061"/>
<path d="M257.628 94.1458C257.628 92.9989 258.543 92.5401 259.685 92.5401H263.114V94.3752L260.6 94.6046V101.716L262.885 101.945V103.78L260.6 104.009V109.973C260.6 110.203 260.371 116.855 260.143 116.855H257.628V103.78L256.028 103.551V101.716L257.628 101.486V94.1458ZM260.6 105.615C260.6 105.845 260.6 106.074 260.371 106.074C260.143 106.303 260.143 106.303 259.914 106.303H258.771V101.027H259.228V103.092C259.457 103.092 259.685 103.092 259.685 103.092C259.914 103.092 260.143 103.092 260.143 103.092C260.371 103.092 260.6 103.321 260.6 103.551V105.615Z" fill="#F5D061"/>
<path d="M274.086 105.386V95.7515H268.371V105.386H274.086ZM266.543 92.9989C266.771 92.5401 267.228 92.3107 267.686 92.3107H268.828H271.114H274.314C274.771 92.3107 275.228 92.5401 275.686 92.7695C276.143 92.9989 276.371 93.4577 276.371 93.9164C276.371 93.9164 276.6 95.9809 276.6 96.2103V105.156V115.708C276.6 116.167 276.371 116.626 276.143 117.085C275.914 117.314 275.228 117.543 274.771 117.543H274.314H274.086C273.857 117.543 271.8 117.543 271.571 117.543C271.343 117.543 269.286 117.543 269.286 117.543H268.143C267.686 117.543 267.228 117.314 267 116.855C266.771 116.626 266.543 116.167 266.543 115.708V110.891H268.371V115.249H270.657H272.943V106.991H270.428L267.914 106.762C267.457 106.762 267 106.533 266.771 106.303C266.086 105.156 265.857 104.698 265.857 104.239C265.857 104.009 266.085 102.633 266.314 102.633L266.771 101.716L267.228 100.798V97.816L266.771 96.8985L266.314 95.9809V95.5221L265.857 94.834C265.857 94.834 265.857 94.834 265.857 94.6046C266.086 94.1458 266.314 93.2283 266.543 92.9989Z" fill="#F5D061"/>
<path d="M282.543 91.852H289.171V92.5402L287.571 93.6871V96.4397L288.714 97.3573L288.943 97.5867C288.943 97.5867 288.943 97.8161 288.943 98.0454V102.863V103.321C288.943 103.321 288.028 104.009 287.8 104.009L285.514 105.156L283.228 104.009C283.228 104.009 282.314 103.551 282.086 103.321C282.086 103.321 282.086 103.092 282.086 102.863V100.798L282.543 100.569V101.257L283.686 100.569V96.4397L282.086 95.5222L282.543 91.852ZM290.314 112.956C290.314 113.414 290.086 113.873 289.857 114.103C289.628 114.332 289.171 114.561 288.714 114.561H283C282.543 114.561 282.086 114.332 281.857 114.103C281.628 113.873 281.4 113.414 281.4 112.956V105.845C281.4 105.156 281.628 104.698 282.086 104.468L284.143 103.092L282.086 101.716C281.628 101.486 281.4 101.027 281.4 100.339V94.3752C281.4 93.9165 281.628 93.4577 281.857 93.2283C282.086 92.9989 282.543 92.7695 283 92.7695H288.486C288.943 92.7695 289.4 92.9989 289.628 93.2283C289.857 93.4577 290.086 93.9165 290.086 94.3752V100.339C290.086 101.027 289.857 101.486 289.4 101.716L287.343 102.863L289.4 104.239C289.857 104.468 290.086 104.927 290.086 105.615L290.314 112.956ZM288.257 113.873V106.762L285.743 105.156L283.228 106.762V113.873H288.257Z" fill="#F5D061"/>
<path d="M169.172 136.812V114.103H163V136.812H169.172ZM171.457 137.041C171.457 137.5 171.229 137.959 171 138.418C170.543 138.876 170.086 138.876 169.629 138.876H162.543C162.086 138.876 161.629 138.647 161.172 138.418C160.714 137.959 160.714 137.5 160.714 137.041V113.873C160.714 113.414 160.943 112.956 161.172 112.497C161.4 112.038 162.086 112.038 162.543 112.038H169.629C170.086 112.038 170.543 112.267 171 112.497C171.457 112.956 171.457 113.414 171.457 113.873V137.041Z" fill="#F6D981"/>
<path d="M184.486 138.876H182.2L179.457 132.224L176.714 138.876H174.429L178.314 130.16L174.429 122.131H176.943L179.457 128.324L181.972 122.131H184.257L180.6 130.16L184.486 138.876Z" fill="#F6D981"/>
<path d="M192.028 116.626H194.314L192.714 122.36L190.886 127.866H193.857V122.131H195.228V128.325H196.371V129.701L195.228 129.93V134.747H192.943L192.486 130.618H189.971H187.457V129.701L188.6 125.572L189.286 122.59L189.743 120.525L192.028 116.626ZM193.171 132.912C193.171 133.371 192.943 133.6 192.486 133.6H190.2C189.743 133.6 189.514 133.371 189.514 132.912V127.866C189.514 127.407 189.743 127.178 190.2 127.178H192.486C192.943 127.178 193.171 127.407 193.171 127.866V130.16L192.943 130.389H190.428V132.912H192.486V131.765H193.4L193.171 132.912Z" fill="#F6D981"/>
<path d="M201.629 112.956C201.857 112.726 202.543 112.726 202.771 112.726H208.257C208.486 112.726 209.171 112.726 209.4 112.956C209.629 113.185 209.629 113.644 209.629 113.873V118.002C209.629 118.461 209.4 119.149 209.171 119.608L205.057 130.618L209.629 131.536V133.142H200.943V132.224L205.743 120.296V115.938L202.543 115.479V118.461L201.171 118.231V113.873C201.4 113.644 201.4 113.185 201.629 112.956ZM207.343 129.93C207.343 130.16 207.343 130.389 207.114 130.389C206.886 130.618 206.886 130.618 206.657 130.618H203.914C203.686 130.618 203.457 130.618 203.457 130.389C203.229 130.16 203.229 130.16 203.229 129.93V127.636H204.143V129.93H206.429V126.031H203.914C203.686 126.031 203.457 126.031 203.457 125.801C203.457 125.572 203.229 125.572 203.229 125.342V120.984C203.229 120.755 203.229 120.525 203.457 120.525C203.686 120.525 203.686 120.296 203.914 120.296H206.657C206.886 120.296 207.114 120.296 207.114 120.525C207.343 120.755 207.343 120.755 207.343 120.984V129.93Z" fill="#F6D981"/>
<path d="M222.657 126.948V118.002H217.172V127.636L220.143 128.783C220.6 128.783 222.657 127.407 222.657 126.948ZM214.886 112.038C215.114 111.809 215.8 111.809 216.257 111.809H217.629L218.772 112.497L220.829 113.644C221.057 113.644 221.514 114.103 221.743 114.332C221.972 114.561 221.972 115.249 221.972 115.708V120.296C222.2 120.296 222.429 121.902 222.886 121.902C222.886 122.131 223.114 122.131 223.114 122.36C223.114 122.59 223.114 122.819 223.114 122.819C223.343 122.819 222.429 123.507 222.657 123.507L222.429 123.737C222.657 123.737 224.486 125.113 224.486 125.342C224.943 125.572 224.943 126.948 224.943 127.407V135.665C224.943 135.894 224.943 136.582 224.943 136.582C224.943 137.041 224.714 137.729 224.257 137.959C224.029 138.188 223.572 138.418 223.114 138.418C222.886 138.647 220.6 138.647 220.143 138.647H217.4H216.257C216.029 138.647 214.886 138.647 214.657 138.418C214.429 138.188 214.429 137.271 214.429 137.041V127.866C214.429 127.407 214.657 126.26 214.886 126.031L216.486 124.196L214.886 122.36C214.429 122.131 214.429 121.214 214.429 120.755V113.873C214.657 112.956 214.657 112.267 214.886 112.038ZM222.2 134.289V129.013L220.372 127.866L218.543 129.013V134.289H222.2Z" fill="#F6D981"/>
<path d="M230.429 123.049H237.286V123.966L234.314 124.654V128.554L236.829 129.013C237.057 129.013 237.286 129.242 237.286 129.242C237.514 129.471 237.514 129.701 237.514 129.93V136.353C237.514 136.582 237.514 136.812 237.286 137.041C237.057 137.271 236.6 137.271 236.372 137.271H231.572C231.343 137.271 230.657 137.271 230.657 137.041C230.429 136.812 230.429 136.582 230.429 136.353V133.142L231.343 132.912V135.206L233.629 134.747V128.783L230.429 128.324V123.049ZM237.514 135.206H236.143V134.977C235.686 134.977 235 135.206 234.543 135.206C233.857 135.206 233.4 135.435 232.943 135.435C232.257 135.435 231.8 134.977 231.8 134.289V130.618C231.8 129.93 232.257 129.471 232.943 129.471H236.143V126.489H233.172V128.095H231.8V126.489C231.8 125.801 232.257 125.342 232.943 125.342H236.143C236.829 125.342 237.286 125.801 237.286 126.489L237.514 135.206Z" fill="#F6D981"/>
<path d="M243.686 117.543C243.914 117.085 244.143 116.855 244.6 116.855C244.6 116.626 246.886 116.396 247.114 116.396H250.086C250.314 116.396 251 116.396 251.229 116.626C251.457 116.855 251.457 117.314 251.457 117.543V121.672C251.457 122.131 251.229 122.819 251 123.507L246.886 134.747L251.457 135.894V137.5C250.771 137.5 247.114 137.5 246.886 137.5C246.429 137.5 243 137.271 243 136.812V135.894L247.8 124.196V119.837L244.6 119.378V122.59L243.229 122.36V118.232C243.457 118.232 243.457 117.773 243.686 117.543ZM248.486 130.618H247.571V130.389C246.657 130.618 245.971 130.618 245.971 130.618C245.514 130.618 245.286 130.389 245.057 130.16C244.829 129.93 244.6 129.471 244.6 129.242V125.343C244.6 124.884 244.829 124.654 245.057 124.425C245.286 124.196 245.743 123.966 245.971 123.966H247.571V119.837H248.486V130.618Z" fill="#F6D981"/>
<path d="M257.4 117.773C257.4 117.085 258.772 116.626 259.457 116.626H262.657V118.002L260.829 118.461V124.654L262.429 125.113V126.719L260.829 127.178V132.224C260.829 132.683 260.6 137.729 260.143 137.729H257.629V126.26L256.486 126.031V124.425L257.629 124.196L257.4 117.773ZM261.514 129.013C261.514 129.471 261.286 129.701 261.057 129.93C260.829 130.16 260.372 130.389 260.143 130.389H257.629V119.608H258.543V123.966C259 123.966 259.229 123.966 259.686 123.737C260.143 123.737 260.6 123.737 260.829 123.737C261.286 123.737 261.514 123.966 261.514 124.425V129.013Z" fill="#F6D981"/>
<path d="M274.314 129.242V120.525H268.829V129.242H274.314ZM266.772 116.855C267 116.396 267.229 115.938 267.914 115.938C268.143 115.938 268.829 115.708 269.057 115.708H271.572H274.314C274.543 115.708 275.229 115.708 275.457 115.938C275.914 116.167 276.143 116.396 276.143 116.855C276.372 117.085 276.372 118.69 276.372 118.92V127.407V137.041C276.372 137.271 276.372 137.959 276.143 138.188C275.914 138.418 275 138.418 274.772 138.418H274.314L274.086 138.188C273.629 138.188 271.8 138.188 271.572 138.418C271.114 138.418 269.514 138.418 269.057 138.418C268.829 138.418 267.914 138.418 267.914 138.188C267.457 137.959 267 137.729 266.772 137.271C266.543 137.041 266.543 136.812 266.543 136.353V132.453L267.914 132.224V135.206L269.743 134.977L271.572 134.747V128.095L269.743 127.866L267.914 127.636C267.686 127.636 267.229 127.407 267 127.178C266.772 126.948 266.772 126.489 266.772 126.26C266.772 125.801 267 124.654 267.457 124.654L268.6 123.966L269.743 123.278V119.837L268.829 119.149L267.914 118.461V118.92L267.229 118.461H267C266.543 118.232 266.543 116.855 266.772 116.855Z" fill="#F6D981"/>
<path d="M282.314 112.726H289.857V113.644L286.886 114.561V118.69L289.4 119.378C289.629 119.378 289.857 119.608 289.857 119.608C290.086 119.837 290.086 120.067 290.086 120.296V127.178C290.086 127.407 290.086 127.636 289.857 127.866C289.629 128.095 288.943 128.554 288.714 128.554L286.2 129.471L283.686 128.783C283.457 128.783 282.772 128.325 282.543 128.095C282.314 127.866 282.314 127.636 282.314 127.407V124.196L283.229 123.966V126.031L285.514 125.572V119.378L282.314 118.69V112.726ZM289.172 131.765C289.172 131.995 289.172 132.453 288.943 132.683C288.714 132.912 288.486 132.912 288.029 132.912H283.686C283.457 132.912 283 132.912 282.772 132.683C282.543 132.453 282.543 132.224 282.543 131.765V126.489C282.543 126.031 282.772 125.572 283 125.342L284.6 124.425L283 123.507C282.543 123.278 282.543 123.049 282.543 122.36V117.773C282.543 117.543 282.543 117.085 282.772 116.855C283 116.626 283.229 116.626 283.686 116.626H287.8C288.029 116.626 288.486 116.626 288.714 116.855C288.943 117.085 288.943 117.314 288.943 117.773V122.36C288.943 122.819 288.714 123.278 288.486 123.507L286.886 124.425L288.486 125.342C288.943 125.572 288.943 126.031 288.943 126.26L289.172 131.765ZM287.8 134.059V128.783L285.972 127.636L284.143 128.783V134.059H287.8Z" fill="#F6D981"/>
<path d="M168.486 158.604V135.894H162.315V158.604H168.486ZM170.772 158.833C170.772 159.292 170.543 159.751 170.315 160.209C169.857 160.668 169.4 160.668 168.943 160.668H161.857C161.4 160.668 160.943 160.439 160.486 160.209C160.029 159.751 160.029 159.292 160.029 158.833V135.665C160.029 135.206 160.257 134.747 160.486 134.289C160.943 133.83 161.4 133.83 161.857 133.83H168.943C169.4 133.83 169.857 134.059 170.315 134.289C170.772 134.747 170.772 135.206 170.772 135.665V158.833Z" fill="#F7E3A4"/>
<path d="M183.8 160.668H181.515L178.772 154.245L175.8 160.668H173.743L177.4 152.181L173.743 144.152H176.029L178.772 150.116L181.286 143.923H183.572V144.152L179.915 152.181L183.8 160.668Z" fill="#F7E3A4"/>
<path d="M191.343 141.17H193.629L192.486 145.07L191.343 148.969L193.4 149.199V145.529H194.315V149.887H195.229V151.034L194.315 151.263V154.933H192.029L191.343 152.181H189.515H187.686V151.493L188.372 148.052L188.829 145.529L189.286 143.923L191.343 141.17ZM193.629 156.08C193.629 156.769 193.172 157.227 192.486 157.227H189.286C188.6 157.227 188.143 156.769 188.143 156.08V148.281C188.143 147.593 188.6 147.134 189.286 147.134H192.486C193.172 147.134 193.629 147.593 193.629 148.281V151.951L193.172 152.41H189.286V156.08H192.257V154.245H193.629V156.08Z" fill="#F7E3A4"/>
<path d="M201.172 135.206C201.4 134.977 202.086 134.977 202.315 134.977H207.343C207.572 134.977 208.258 134.977 208.486 135.206C208.715 135.436 208.715 135.665 208.715 135.894V139.106C208.715 139.335 208.715 140.023 208.486 140.482L205.743 149.428L208.943 150.804V151.951H201.172V151.263L204.372 141.858V138.418L202.086 137.729V139.335L201.172 139.106V135.894C201.172 135.665 201.172 135.436 201.172 135.206ZM207.8 154.016C207.8 154.245 207.8 154.704 207.572 154.933C207.343 155.163 207.115 155.163 206.658 155.163H202.543C202.315 155.163 201.858 155.163 201.629 154.933C201.4 154.704 201.4 154.475 201.4 154.016V150.346H202.772V153.786H206.2V147.822H202.315C202.086 147.822 201.629 147.822 201.4 147.593C201.172 147.364 201.172 147.134 201.172 146.675V140.023C201.172 139.794 201.172 139.335 201.4 139.106C201.629 138.876 201.858 138.876 202.315 138.876H206.429C206.658 138.876 207.115 138.876 207.343 139.106C207.572 139.335 207.572 139.564 207.572 140.023L207.8 154.016Z" fill="#F7E3A4"/>
<path d="M221.743 151.493V141.858H216.257V152.41L219.229 153.098C220.372 153.328 221.743 152.181 221.743 151.493ZM214.2 133.83C214.429 133.6 215.343 133.6 215.572 133.6H216.714L217.629 134.518L219 136.124C219.229 136.124 219.457 136.812 219.457 137.041C219.686 137.271 219.686 138.188 219.686 138.418V142.776C220.143 142.776 220.6 143.693 221.057 143.693C221.286 143.693 221.286 143.923 221.286 143.923C221.514 144.152 221.514 144.152 221.514 144.152C221.972 144.152 221.514 144.611 221.743 144.611C221.972 144.611 221.743 144.84 221.972 144.84C222.429 145.07 223.8 145.987 223.8 146.675C224.029 146.905 224.257 148.511 224.257 148.74V157.227C224.257 157.457 224.257 158.145 224.257 158.145C224.257 158.604 224.029 159.292 223.572 159.521C223.343 159.751 222.886 159.98 222.657 159.98C222.429 160.209 220.6 160.209 220.143 160.209H217.4H216.257C216.029 160.209 214.886 160.209 214.657 159.98C214.429 159.751 214.429 158.604 214.429 158.374V148.969C214.429 148.74 214.429 147.134 214.657 146.905L215.8 144.84L214.886 142.776C214.657 142.546 214.429 141.4 214.429 141.17V134.518C213.972 134.977 214.2 134.059 214.2 133.83ZM221.057 155.163V151.493L219.914 150.804L218.772 151.722V155.392L221.057 155.163Z" fill="#F7E3A4"/>
<path d="M229.286 141.17H237.286V142.546L232.714 143.005L232.486 148.281L236.143 148.74C236.371 148.74 236.829 148.969 237.057 149.199C237.286 149.428 237.286 149.657 237.286 150.116V158.833C237.286 159.062 237.286 159.521 237.057 159.751C236.829 159.521 236.143 159.751 235.914 159.751H230.429C230.2 159.751 229.514 159.751 229.286 159.521C229.057 159.292 229.057 159.062 229.057 158.604V154.245H230.429V157.915L233.857 157.686V149.428L229.057 149.199L229.286 141.17ZM236.143 155.622H235.229V155.392C234.771 155.392 234.543 155.392 234.086 155.622C233.629 155.622 233.171 155.622 232.943 155.622C232.486 155.622 232.257 155.392 232.257 154.933V152.41C232.257 151.951 232.486 151.722 232.943 151.722H235V149.657H232.943V150.804H232.029V149.657C232.029 149.199 232.257 148.969 232.714 148.969H235C235.457 148.969 235.686 149.199 235.686 149.657L236.143 155.622Z" fill="#F7E3A4"/>
<path d="M243.458 142.317C243.686 141.858 243.915 141.629 244.143 141.4C244.372 140.941 245.972 140.941 246.429 140.941H249.172C249.4 140.941 250.086 140.941 250.315 141.17C250.543 141.4 250.543 141.858 250.543 142.088V145.529C250.543 145.758 250.543 146.675 250.315 146.905L247.572 156.31L250.772 157.915V159.292C249.629 159.292 246.886 159.521 246.658 159.521C245.972 159.521 243.458 159.062 243.458 158.374V157.686L246.658 148.74V145.529L244.372 144.84V146.675L243.458 146.446V143.235C243.229 142.776 243.229 142.317 243.458 142.317ZM248.943 155.163H247.572V154.933C246.2 155.163 245.286 155.163 245.286 155.163C244.6 155.163 244.143 154.933 243.915 154.475C243.458 154.016 243.458 153.557 243.458 153.098V147.134C243.458 146.446 243.686 145.987 244.143 145.529C244.6 145.07 245.058 144.84 245.743 144.84H248.029V138.647H249.4L248.943 155.163Z" fill="#F7E3A4"/>
<path d="M256.943 141.629C256.943 141.17 258.543 140.711 259 140.711H261.972V141.858L260.6 142.546V147.822L261.743 148.511V149.657L261.057 150.575V154.933C261.057 155.622 260.6 159.292 259.914 159.292H257.172V149.428L256.486 148.969V147.593L257.172 147.134L256.943 141.629ZM262.2 152.869C262.2 153.557 261.972 154.016 261.514 154.475C261.057 154.933 260.6 155.163 259.914 155.163H256.257V139.106H257.629V145.528C258.086 145.528 258.772 145.299 259.229 145.299C259.914 145.299 260.372 145.07 260.829 145.07C261.514 145.07 261.972 145.528 261.972 146.217L262.2 152.869Z" fill="#F7E3A4"/>
<path d="M274.314 153.557V145.758H268.829V153.557H274.314ZM267 140.941C267.229 140.253 267.457 140.023 267.914 139.794C268.143 139.564 268.829 139.564 269.057 139.564H271.572H274.086C274.314 139.564 275 139.564 275.229 139.794C275.686 140.023 275.914 140.253 276.143 140.482C276.372 140.711 276.6 141.858 276.6 142.317V150.346V158.833C276.6 159.062 276.6 159.75 276.372 159.98C276.143 160.209 275 160.209 274.772 160.209H274.314L274.086 159.98C273.629 159.98 272.029 160.209 271.572 160.209C270.886 160.209 269.514 160.439 269.057 160.439C268.829 160.439 268.143 160.439 267.914 160.209C267.457 159.98 267.229 159.75 267 159.062C266.772 158.833 266.772 158.604 266.772 158.374V155.392L267.686 155.163V156.998L268.829 156.768L269.972 156.539V151.493L268.6 151.263L267.229 150.804C267 150.804 266.772 150.575 266.772 150.346C266.543 150.116 266.543 149.887 266.543 149.657C266.543 148.969 267 147.822 267.686 147.822L269.286 147.364L270.886 146.905V143.005L269.514 142.546L268.143 142.317V143.464L267 143.005H266.772C266.772 143.005 266.772 141.17 267 140.941Z" fill="#F7E3A4"/>
<path d="M281.857 134.289H290.086V135.665L285.515 136.353L285.286 141.629L288.943 142.088C289.172 142.088 289.629 142.317 289.857 142.547C290.086 142.776 290.086 143.005 290.086 143.464V152.41C290.086 152.64 290.086 153.098 289.857 153.328C289.629 153.557 288.943 154.016 288.715 154.016L285.972 154.475L283.229 154.016C283 154.016 282.315 153.557 282.086 153.328C281.857 153.098 281.857 152.869 281.857 152.41V148.052H283.229V151.722L286.657 151.493V143.005L281.857 142.547V134.289ZM288.029 151.493C288.029 151.722 288.029 151.951 287.8 151.951C287.572 152.181 287.572 152.181 287.343 152.181H284.6C284.372 152.181 284.143 152.181 284.143 151.951C283.915 151.722 283.915 151.722 283.915 151.493V148.052C283.915 147.822 284.143 147.593 284.372 147.364L285.515 146.675L283.915 145.987C283.686 145.758 283.457 145.529 283.457 145.299V142.317C283.457 142.088 283.457 141.858 283.686 141.858C283.915 141.629 283.915 141.629 284.143 141.629H286.886C287.115 141.629 287.343 141.629 287.343 141.858C287.572 142.088 287.572 142.088 287.572 142.317V145.299C287.572 145.529 287.343 145.758 287.115 145.987L286.2 146.675L287.115 147.364C287.343 147.593 287.572 147.822 287.572 148.052L288.029 151.493ZM287.115 154.933V151.263L285.743 150.575L284.6 151.493V155.163L287.115 154.933Z" fill="#F7E3A4"/>
<path d="M167.572 180.395V157.686H161.4V180.395H167.572ZM170.086 180.625C170.086 181.083 169.858 181.542 169.629 182.001C169.172 182.46 168.715 182.46 168.258 182.46H161.172C160.715 182.46 160.258 182.23 159.8 182.001C159.343 181.542 159.343 181.083 159.343 180.625V157.686C159.343 157.227 159.572 156.769 159.8 156.31C160.029 155.851 160.715 155.851 161.172 155.851H168.258C168.715 155.851 169.172 156.08 169.629 156.31C170.086 156.539 170.086 157.227 170.086 157.686V180.625Z" fill="#F7EDCE"/>
<path d="M183.115 182.689H180.829L177.858 176.037L175.115 182.689H172.829V182.46L176.715 173.973L173.058 165.944H175.343L177.858 171.908L180.601 165.944H182.886L179.229 173.973L183.115 182.689Z" fill="#F7EDCE"/>
<path d="M190.429 165.256H192.715L192.029 167.32L191.344 169.614L192.258 169.844V168.238H192.715V170.761H193.172V171.449L192.715 171.908V174.661H190.201L189.286 173.284H187.915H186.544V172.596L187.001 169.844L187.229 167.779L187.458 166.403L190.429 165.256ZM193.858 179.248C193.858 180.395 193.401 180.854 192.258 180.854H187.915C187.001 180.854 186.315 180.395 186.315 179.248V168.926C186.315 167.779 186.772 167.32 187.915 167.32H192.258C193.172 167.32 193.858 167.779 193.858 168.926V173.743L193.172 174.431H188.144V179.248H192.029V176.725H193.858V179.248Z" fill="#F7EDCE"/>
<path d="M200.943 157.457H201.857H206.429H207.343C207.343 157.457 207.343 157.915 207.343 158.145V160.668C207.343 160.897 207.343 161.586 207.115 161.586L205.743 168.467L207.343 170.302V171.22H200.486V170.761L202.086 163.879V161.356L200.943 160.439L200.486 159.98V157.686C200.715 157.915 200.943 157.457 200.943 157.457ZM208.257 178.331C208.257 178.79 208.029 179.248 207.8 179.478C207.572 179.707 207.115 179.937 206.657 179.937H201.4C200.943 179.937 200.486 179.707 200.257 179.478C200.029 179.248 199.8 178.79 199.8 178.331V173.514H201.629V178.101H206.2V170.073H201.172C200.715 170.073 200.257 169.844 200.029 169.614C199.8 169.385 199.572 168.926 199.572 168.467V159.751C199.572 159.292 199.8 158.833 200.029 158.604C200.257 158.374 200.715 158.145 201.172 158.145H206.657C207.115 158.145 207.572 158.374 207.8 158.604C208.029 158.833 208.257 159.292 208.257 159.751V178.331Z" fill="#F7EDCE"/>
<path d="M221.058 176.037V165.944H215.8V177.413L219 177.872C219.915 177.872 221.058 176.955 221.058 176.037ZM213.515 155.851H214.658H215.8L216.258 157.227L216.943 159.521C216.943 159.521 217.172 160.439 217.172 160.668C217.172 160.897 217.172 161.815 217.172 161.815V165.944C217.629 165.944 218.315 166.403 218.772 166.173C219 166.173 219 166.173 219.229 166.173C219.458 166.173 219.686 166.173 219.915 166.173C220.372 166.173 220.6 166.403 220.829 166.403C221.058 166.403 221.058 166.403 221.286 166.632C221.972 166.862 222.658 167.55 222.658 168.467C222.886 168.467 222.886 170.532 222.886 170.761V179.478C222.886 179.707 222.886 180.166 222.886 180.625C222.658 181.083 222.429 181.772 221.972 182.001C221.743 182.23 221.515 182.46 221.058 182.46C220.6 182.689 219.458 182.919 218.772 182.919H215.8H214.658H213.058C213.058 182.919 213.058 181.542 213.058 181.313V171.908C213.058 171.679 213.058 169.844 213.286 169.844L213.743 167.55L213.286 165.256C213.058 165.256 213.058 163.879 213.058 163.65V157.227C213.515 156.769 213.515 155.851 213.515 155.851ZM219.915 176.037V174.202L219.229 173.743L218.543 174.202V176.037H219.915Z" fill="#F7EDCE"/>
<path d="M227.915 159.521H236.829V161.356L230.886 161.586L230.657 168.238L235.457 168.467C235.915 168.467 236.372 168.697 236.6 168.926C236.829 169.155 237.057 169.614 237.057 170.073V180.854C237.057 181.313 236.829 181.772 236.6 182.001C236.372 182.23 235.915 182.46 235.457 182.46H229.515C229.057 182.46 228.6 182.23 228.372 182.001C228.143 181.772 227.915 181.313 227.915 180.854V175.349H229.743V180.625H234.315V170.073L227.915 169.844V159.521ZM234.543 176.037H234.086C233.857 176.037 233.629 176.037 233.629 176.037C233.4 176.037 233.172 176.037 233.172 176.037C232.943 176.037 232.715 175.808 232.715 175.578V174.431C232.715 174.202 232.943 173.973 233.172 173.973H234.315V173.055H233.4V173.514H232.943V173.055C232.943 172.826 233.172 172.596 233.4 172.596H234.543C234.772 172.596 235 172.826 235 173.055V176.037H234.543Z" fill="#F7EDCE"/>
<path d="M243 167.091C243 166.632 243.229 166.403 243.457 166.173C243.686 165.715 244.829 165.485 245.515 165.485H247.8C247.8 165.485 248.715 165.485 248.943 165.485C248.943 165.485 248.943 165.944 248.943 166.173V168.926C248.943 169.155 248.943 169.844 248.715 170.073L247.572 177.643L249.172 179.937V180.854C247.8 180.854 245.743 181.084 245.515 181.084C244.6 181.084 243 180.625 243 179.478V179.019L244.6 172.826V170.532L243.457 169.614V169.844L243 169.614V167.55V167.091ZM249.4 179.937H247.572V179.478C245.515 179.707 244.6 179.937 244.372 179.937C243.686 179.937 243 179.707 242.543 179.248C242.086 178.79 241.857 178.101 241.857 177.184V169.385C241.857 168.467 242.086 167.779 242.772 167.32C243.229 166.862 243.915 166.403 244.829 166.403H247.572V158.374H249.4V179.937Z" fill="#F7EDCE"/>
<path d="M256.486 165.944C256.486 165.715 258.543 165.485 258.772 165.485H261.743V166.403L261.058 167.32V171.449L261.515 172.367V173.514L261.058 174.431V177.872C261.058 178.79 260.601 181.084 259.458 181.084H256.486V173.055L256.029 172.367V171.22L256.486 170.532V165.944ZM262.658 176.955C262.658 177.872 262.429 178.56 261.743 179.019C261.286 179.478 260.601 179.937 259.686 179.937H254.886V158.374H256.715V166.862C257.401 166.862 258.086 166.632 258.772 166.632C259.686 166.403 260.372 166.403 260.829 166.403C261.743 166.403 262.429 166.862 262.429 168.008V176.955H262.658Z" fill="#F7EDCE"/>
<path d="M274.315 178.101V171.22H269.058V178.101H274.315ZM267.001 165.485C267.001 164.797 267.229 164.338 267.686 164.109C267.915 163.88 268.601 163.88 269.058 163.88H271.801H274.086H275.001C275.458 163.88 275.915 164.109 276.143 164.338C276.601 164.568 276.829 165.485 276.829 166.173V173.973V181.542V182.46H275.229H274.772V182.001C274.086 182.001 272.715 182.23 272.029 182.23C271.115 182.23 269.972 182.46 269.515 182.46C269.058 182.46 268.601 182.46 268.372 182.23C267.915 182.001 267.686 181.542 267.686 180.854C267.686 180.854 267.686 180.625 267.686 180.395V178.56L268.143 178.331V178.79L268.829 178.56L269.515 178.331V175.119L268.829 174.89L268.143 174.431L267.915 174.202V173.743C267.915 172.826 268.372 171.908 269.515 171.908L271.572 171.679L272.715 171.22V166.632L270.658 166.403L268.601 166.173V168.238L267.001 168.008H266.772C267.001 167.779 267.001 165.485 267.001 165.485Z" fill="#F7EDCE"/>
<path d="M281.401 156.08H290.543V157.915L284.601 158.145L284.143 164.797L288.943 165.026C289.401 165.026 289.858 165.256 290.086 165.485C290.315 165.715 290.543 166.173 290.543 166.632V177.643C290.543 178.101 290.315 178.56 290.086 178.79C289.858 179.019 289.172 179.248 288.715 179.248L285.743 179.478L282.543 179.248C282.086 179.248 281.629 179.019 281.172 178.79C280.943 178.56 280.715 178.101 280.715 177.643V171.908H282.543V176.955L287.115 176.725V166.173L280.715 165.944L281.401 156.08ZM286.658 171.449V171.679H286.429H285.058H284.829V171.449V169.614C284.829 169.385 284.829 169.385 285.058 169.385L285.515 169.155L285.058 168.926C284.829 168.926 284.829 168.697 284.829 168.467V166.861V166.632H285.058H286.429H286.658V166.861V168.467C286.658 168.697 286.658 168.697 286.429 168.926H285.972L286.429 169.155C286.658 169.155 286.658 169.385 286.658 169.385V171.449ZM286.201 176.037V174.202L285.515 173.743L284.829 174.202V176.037H286.201Z" fill="#F7EDCE"/>
<path d="M166.886 202.416V179.707H160.714V202.416H166.886ZM169.172 202.646C169.172 203.105 168.943 203.563 168.714 204.022C168.257 204.481 167.8 204.481 167.343 204.481H160.257C159.8 204.481 159.343 204.252 158.886 204.022C158.429 203.563 158.429 203.105 158.429 202.646V179.478C158.429 179.019 158.657 178.56 158.886 178.101C159.114 177.643 159.8 177.643 160.257 177.643H167.343C167.8 177.643 168.257 177.872 168.714 178.101C169.172 178.331 169.172 179.019 169.172 179.478V202.646Z" fill="#F7F9FD"/>
<path d="M182.2 204.481H179.914L177.172 197.829L174.429 204.481H172.143L176.029 195.994L172.372 187.965H174.657L177.172 194.159L179.914 187.965H182.2L178.543 195.994L182.2 204.481Z" fill="#F7F9FD"/>
<path d="M192.029 194.617V192.094V189.571H189.514H187V192.094V194.617H189.514H192.029ZM194.086 202.646C194.086 204.022 193.4 204.481 192.257 204.481H186.771C185.4 204.481 184.943 203.793 184.943 202.646V189.8C184.943 188.424 185.629 187.965 186.771 187.965H192.257C193.629 187.965 194.086 188.653 194.086 189.8V195.764L193.4 196.452H187V202.416H191.8V199.434H194.086V202.646Z" fill="#F7F9FD"/>
<path d="M206.2 190.259V179.707H200.257V190.259H206.2ZM208.714 202.646C208.714 203.105 208.486 203.563 208.257 204.022C207.8 204.481 207.343 204.481 206.886 204.481H200.257C199.8 204.481 199.343 204.252 198.886 204.022C198.429 203.563 198.429 203.105 198.429 202.646V196.682H200.714V202.416H206.429V192.553H200.029C199.572 192.553 199.114 192.323 198.657 192.094C198.2 191.865 198.2 191.177 198.2 190.718V179.707C198.2 179.248 198.429 178.79 198.657 178.331C198.886 177.872 199.572 177.872 200.029 177.872H206.886C207.343 177.872 207.8 178.101 208.257 178.331C208.714 178.56 208.714 179.248 208.714 179.707V202.646Z" fill="#F7F9FD"/>
<path d="M220.143 200.581V189.8L215.114 190.03V202.646H218.314C219.457 202.416 220.143 201.728 220.143 200.581ZM222.429 200.811C222.429 201.728 222.2 202.646 221.514 203.334C220.829 204.022 219.914 204.252 219 204.252H216.029H213.057V190.718V177.184H215.343V187.736C216.257 187.736 217.171 187.506 218.086 187.506C219.229 187.277 220.143 187.277 220.829 187.277C222.2 187.277 222.657 187.965 222.657 189.112V200.811H222.429Z" fill="#F7F9FD"/>
<path d="M236.6 202.646C236.6 203.105 236.372 203.563 236.143 204.022C235.686 204.481 235.229 204.481 234.772 204.481H228.143C227.686 204.481 227.229 204.252 226.772 204.022C226.314 203.563 226.314 203.105 226.314 202.646V195.764H228.6V202.416H234.314V189.8H226.314L226.543 177.643H236.372V179.707H228.829L228.6 187.506H234.772C235.229 187.506 235.686 187.736 236.143 187.965C236.6 188.424 236.6 188.883 236.6 189.341V202.646Z" fill="#F7F9FD"/>
<path d="M247.8 202.416V189.8H244.6C243.457 189.8 242.772 190.488 242.772 191.635V200.581C242.772 201.958 243.457 202.416 244.6 202.416C244.829 202.646 245.972 202.416 247.8 202.416ZM249.857 204.481H247.572V204.022C245.057 204.481 243.686 204.481 243.457 204.481C242.543 204.481 241.629 204.252 241.172 203.563C240.714 202.875 240.257 202.187 240.257 201.04V191.177C240.257 190.259 240.486 189.341 241.172 188.653C241.857 187.965 242.772 187.736 243.686 187.736H247.343V177.643H249.629V204.481H249.857Z" fill="#F7F9FD"/>
<path d="M261.057 200.581V189.8L256.029 190.03V202.646H259.229C260.372 202.416 261.057 201.728 261.057 200.581ZM263.343 200.811C263.343 201.728 263.115 202.646 262.429 203.334C261.743 204.022 260.829 204.252 259.915 204.252H253.972V177.643H256.257V188.194C257.172 188.194 258.086 187.965 259 187.965C260.143 187.736 261.057 187.736 261.743 187.736C263.115 187.736 263.572 188.424 263.572 189.571V200.811H263.343Z" fill="#F7F9FD"/>
<path d="M274.314 202.416V196.452H269.286V202.416H274.314ZM276.371 204.481H274.086V204.022C273.171 204.252 272.257 204.252 271.343 204.481C270.2 204.71 269.286 204.71 268.6 204.71C267.457 204.71 266.771 204.022 266.771 202.875V196.682C266.771 195.305 267.457 194.847 268.6 194.847H271.343H274.086V189.571H271.571H269.057V192.323H266.771V189.571C266.771 188.194 267.457 187.736 268.6 187.736H271.343H274.086C275.457 187.736 275.914 188.424 275.914 189.571V196.911V204.481H276.371Z" fill="#F7F9FD"/>
<path d="M290.772 202.646C290.772 203.105 290.543 203.563 290.314 204.022C289.857 204.481 289.4 204.481 288.943 204.481H282.314C281.857 204.481 281.4 204.252 280.943 204.022C280.486 203.563 280.486 203.105 280.486 202.646V195.764H282.772V202.416H288.486V189.8H280.486L280.714 177.643H290.543V179.707H283L282.772 187.506H288.943C289.4 187.506 289.857 187.736 290.314 187.965C290.772 188.424 290.772 188.883 290.772 189.341V202.646Z" fill="#F7F9FD"/>
</g>
<defs>
<radialGradient id="paint0_radial" cx="0" cy="0" r="1" gradientUnits="userSpaceOnUse" gradientTransform="translate(178.062 83.8265) scale(365.47 366.774)">
<stop offset="0.0386202" stop-color="#242930"/>
<stop offset="0.8836" stop-color="#F7F9FD"/>
</radialGradient>
<clipPath id="clip0">
<rect width="216" height="217" fill="white" transform="translate(115 29)"/>
</clipPath>
</defs>
</svg>
