<svg width="216" height="217" viewBox="0 0 216 217" fill="none" xmlns="http://www.w3.org/2000/svg">
<g clip-path="url(#clip0)">
<path d="M36.5236 65.4268H-0.0478516" stroke="#F7F9FD" stroke-width="3"/>
<path d="M36.5236 156.035H-0.0478516" stroke="#F7F9FD" stroke-width="3"/>
<path d="M36.5236 143.189H-0.0478516" stroke="#F7F9FD" stroke-width="3"/>
<path d="M36.5236 130.114H-0.0478516" stroke="#F7F9FD" stroke-width="3"/>
<path d="M36.5236 117.268H-0.0478516" stroke="#F7F9FD" stroke-width="3"/>
<path d="M36.5236 104.193H-0.0478516" stroke="#F7F9FD" stroke-width="3"/>
<path d="M36.5236 91.3475H-0.0478516" stroke="#F7F9FD" stroke-width="3"/>
<path d="M36.5236 78.5018H-0.0478516" stroke="#F7F9FD" stroke-width="3"/>
<path d="M216.137 65.4268H179.566" stroke="#F7F9FD" stroke-width="3"/>
<path d="M216.137 156.035H179.566" stroke="#F7F9FD" stroke-width="3"/>
<path d="M216.137 143.189H179.566" stroke="#F7F9FD" stroke-width="3"/>
<path d="M216.137 130.114H179.566" stroke="#F7F9FD" stroke-width="3"/>
<path d="M216.137 117.268H179.566" stroke="#F7F9FD" stroke-width="3"/>
<path d="M216.137 104.193H179.566" stroke="#F7F9FD" stroke-width="3"/>
<path d="M216.137 91.3475H179.566" stroke="#F7F9FD" stroke-width="3"/>
<path d="M216.137 78.5018H179.566" stroke="#F7F9FD" stroke-width="3"/>
<path d="M150.779 216.959V180.257" stroke="#F7F9FD" stroke-width="3"/>
<path d="M60.7217 216.959V180.257" stroke="#F7F9FD" stroke-width="3"/>
<path d="M73.5215 216.959V180.257" stroke="#F7F9FD" stroke-width="3"/>
<path d="M86.3218 216.959V180.257" stroke="#F7F9FD" stroke-width="3"/>
<path d="M99.3501 216.959V180.257" stroke="#F7F9FD" stroke-width="3"/>
<path d="M112.15 216.959V180.257" stroke="#F7F9FD" stroke-width="3"/>
<path d="M124.95 216.959V180.257" stroke="#F7F9FD" stroke-width="3"/>
<path d="M137.979 216.959V180.257" stroke="#F7F9FD" stroke-width="3"/>
<path d="M150.779 36.6277V-0.0742188" stroke="#F7F9FD" stroke-width="3"/>
<path d="M60.7217 36.6277V-0.0742188" stroke="#F7F9FD" stroke-width="3"/>
<path d="M73.5215 36.6277V-0.0742188" stroke="#F7F9FD" stroke-width="3"/>
<path d="M86.3218 36.6277V-0.0742188" stroke="#F7F9FD" stroke-width="3"/>
<path d="M99.3501 36.6277V-0.0742188" stroke="#F7F9FD" stroke-width="3"/>
<path d="M112.15 36.6277V-0.0742188" stroke="#F7F9FD" stroke-width="3"/>
<path d="M124.95 36.6277V-0.0742188" stroke="#F7F9FD" stroke-width="3"/>
<path d="M137.979 36.6277V-0.0742188" stroke="#F7F9FD" stroke-width="3"/>
<path fill-rule="evenodd" clip-rule="evenodd" d="M41.8288 33.0317L34.9717 39.9133V184.198H185.6V33.0317H41.8288Z" fill="url(#paint0_radial)" stroke="#F7F9FD" stroke-miterlimit="10"/>
<path d="M49.6 55.5116C52.7559 55.5116 55.3143 52.9441 55.3143 49.777C55.3143 46.6098 52.7559 44.0423 49.6 44.0423C46.4441 44.0423 43.8857 46.6098 43.8857 49.777C43.8857 52.9441 46.4441 55.5116 49.6 55.5116Z" fill="#242930"/>
<path d="M54.6285 63.5401V40.8308H48.4571V63.5401H54.6285ZM56.9142 63.7695C56.9142 64.2283 56.6857 64.6871 56.4571 65.1459C56 65.6046 55.5428 65.6046 55.0857 65.6046H48C47.5428 65.6046 47.0857 65.3752 46.6285 65.1459C46.1714 64.6871 46.1714 64.2283 46.1714 63.7695V40.6015C46.1714 40.1427 46.4 39.6839 46.6285 39.2251C47.0857 38.7664 47.5428 38.7664 48 38.7664H55.0857C55.5428 38.7664 56 38.9957 56.4571 39.2251C56.9142 39.6839 56.9142 40.1427 56.9142 40.6015V63.7695Z" fill="#F4C944"/>
<path d="M69.9429 65.834H67.6572L64.9144 59.1818L61.9429 65.834H59.6572L63.5429 57.3467L59.8858 49.0887H62.1715L64.6858 55.2822L67.4287 49.0887H69.7144L66.0572 57.1173L69.9429 65.834Z" fill="#F4C944"/>
<path d="M83.1997 58.723H81.1426V65.834H78.8569V58.723H74.9712H71.0854V57.5761L74.2854 48.1712L77.4855 38.7664H79.7712L76.5712 47.7124L73.3712 56.6585H78.3997V46.7949H80.6854V56.6585H82.7426L83.1997 58.723Z" fill="#F4C944"/>
<path d="M96.2287 65.834H85.4858V64.4577L93.7144 47.483V41.0602H88.2287V47.0243H85.943V40.8308C85.943 40.372 86.1715 39.9133 86.4001 39.4545C86.8573 38.9957 87.3144 38.9957 88.0001 38.9957H94.4001C94.8573 38.9957 95.3144 39.2251 95.7715 39.4545C96.2287 39.9133 96.2287 40.372 96.2287 40.8308V46.5655C96.2287 47.2537 96.0001 47.9418 95.543 48.8594L88.4573 63.5401H96.2287V65.834Z" fill="#F4C944"/>
<path d="M108.343 48.8594V41.0603H102.4V48.8594L105.371 50.9239L108.343 48.8594ZM110.629 63.9989C110.629 64.4577 110.4 64.9165 110.171 65.3753C109.714 65.834 109.257 65.834 108.8 65.834H105.371H101.943C101.486 65.834 101.029 65.6047 100.571 65.3753C100.114 64.9165 100.114 64.4577 100.114 63.9989V55.2822C100.114 54.5941 100.343 53.9059 101.029 53.6765L103.543 52.0708L101.029 50.4651C100.343 50.0063 100.114 49.5476 100.114 48.63V41.0603C100.114 40.6015 100.343 40.1427 100.571 39.6839C101.029 39.2252 101.486 39.2252 101.943 39.2252H105.371H108.8C109.257 39.2252 109.714 39.4545 110.171 39.6839C110.629 40.1427 110.629 40.6015 110.629 41.0603V48.63C110.629 49.3182 110.4 50.0063 109.714 50.4651L107.2 52.0708L109.714 53.6765C110.4 54.1353 110.629 54.5941 110.629 55.5116V63.9989ZM108.343 63.7696V54.8235L105.371 52.759L102.4 54.8235V63.7696H108.343Z" fill="#F4C944"/>
<path d="M122.057 63.7695V57.8055H117.028V63.7695H122.057ZM124.114 66.0634H121.828V65.6046C120.914 65.834 120 65.834 119.086 66.0634C117.943 66.2928 117.028 66.2928 116.343 66.2928C115.2 66.2928 114.514 65.6046 114.514 64.4577V58.2642C114.514 56.8879 115.2 56.4292 116.343 56.4292H121.6V51.3826H116.8V54.1353H114.514V51.3826C114.514 50.0063 115.2 49.5475 116.343 49.5475H121.828C123.2 49.5475 123.657 50.2357 123.657 51.3826L124.114 66.0634Z" fill="#F4C944"/>
<path d="M138.057 66.0634H127.314V64.6871L135.543 47.7125V41.2896H130.286V47.2537H128V41.0603C128 40.6015 128.229 40.1427 128.457 39.6839C128.686 39.2252 129.372 39.2252 129.829 39.2252H136.229C136.686 39.2252 137.143 39.4545 137.6 39.6839C138.057 40.1427 138.057 40.6015 138.057 41.0603V46.7949C138.057 47.4831 137.829 48.1712 137.372 49.0888L130.286 63.7696H138.057V66.0634Z" fill="#F4C944"/>
<path d="M147.886 41.0603H144.686V49.3182H147.428V51.3827H144.686V66.0634H142.4V51.3827H140.571V49.3182H142.4V41.0603C142.4 39.6839 143.086 39.2252 144.228 39.2252H147.886V41.0603Z" fill="#F4C944"/>
<path d="M158.4 51.8414V41.2896H152.457V51.8414H158.4ZM160.686 64.2283C160.686 64.6871 160.457 65.1459 160.229 65.6046C159.771 66.0634 159.314 66.0634 158.857 66.0634H155.429H152C151.543 66.0634 151.086 65.834 150.629 65.6046C150.171 65.1459 150.171 64.6871 150.171 64.2283V58.2642H152.457V63.9989H155.429H158.4V54.1353H155.2H152C151.543 54.1353 151.086 53.9059 150.629 53.6765C150.171 53.2177 150.171 52.759 150.171 52.3002V41.2896C150.171 40.8308 150.4 40.3721 150.629 39.9133C150.857 39.4545 151.543 39.4545 152 39.4545H155.429H158.857C159.314 39.4545 159.771 39.6839 160.229 39.9133C160.686 40.3721 160.686 40.8308 160.686 41.2896V52.759V64.2283Z" fill="#F4C944"/>
<path d="M173.485 49.0888V41.2896H167.543V49.0888L170.514 51.1533L173.485 49.0888ZM176 64.2283C176 64.6871 175.771 65.1459 175.543 65.6047C175.085 66.0634 174.628 66.0634 174.171 66.0634H167.085C166.628 66.0634 166.171 65.834 165.714 65.6047C165.257 65.1459 165.257 64.6871 165.257 64.2283V55.5116C165.257 54.8235 165.485 54.1353 166.171 53.9059L168.685 52.3002L165.943 50.4651C165.257 50.0063 165.028 49.5476 165.028 48.63V41.0603C165.028 40.6015 165.257 40.1427 165.485 39.6839C165.943 39.2252 166.4 39.2252 166.857 39.2252H173.714C174.171 39.2252 174.628 39.4545 175.085 39.6839C175.543 40.1427 175.543 40.6015 175.543 41.0603V48.63C175.543 49.3182 175.314 50.0063 174.628 50.4651L172.114 52.0708L174.628 53.6765C175.314 54.1353 175.543 54.5941 175.543 55.5116L176 64.2283ZM173.485 63.9989V55.0529L170.514 52.9884L167.543 55.0529V63.9989H173.485Z" fill="#F4C944"/>
<path d="M54.4 85.5613V62.852H48.2285V85.5613H54.4ZM56.9142 85.7907C56.9142 86.2494 56.6857 86.7082 56.4571 87.167C56 87.6257 55.5428 87.6257 55.0857 87.6257H48C47.5428 87.6257 47.0857 87.3964 46.6285 87.167C46.1714 86.7082 46.1714 86.2494 46.1714 85.7907V62.6226C46.1714 62.1638 46.4 61.705 46.6285 61.2463C47.0857 60.7875 47.5428 60.7875 48 60.7875H55.0857C55.5428 60.7875 56 61.0169 56.4571 61.2463C56.9142 61.4756 56.9142 62.1638 56.9142 62.6226V85.7907Z" fill="#F5D061"/>
<path d="M69.9429 87.6257H67.6572L64.6858 80.9735L61.9429 87.6257H59.6572L63.5429 79.1384L59.8858 70.8805H62.1715L64.9144 77.0739L67.4287 70.8805H69.7144V71.1099L66.0572 79.1384L69.9429 87.6257Z" fill="#F5D061"/>
<path d="M77.7143 63.3107H80L77.4857 70.4217L74.9714 77.5327H79.0857V69.7336H80.9143V77.7621H82.5143V79.3678H80.9143V85.3319H78.6286L78.4 80.2853H75.2H72V79.1384L73.6 74.3213L74.7429 70.8805L75.4286 68.5866L77.7143 63.3107ZM77.4857 80.7441C77.4857 80.9735 77.2572 81.2029 77.0286 81.2029H75.8857C75.6571 81.2029 75.4286 80.9735 75.4286 80.7441V78.2209C75.4286 77.9915 75.6571 77.7621 75.8857 77.7621H77.0286C77.2572 77.7621 77.4857 77.9915 77.4857 78.2209V79.3678L77.2571 79.5972H75.8857V80.7441H76.8V80.056H77.2571L77.4857 80.7441Z" fill="#F5D061"/>
<path d="M86.8572 61.705C87.0857 61.4757 87.7714 61.2463 88.2286 61.2463H94.1715C94.6286 61.2463 95.0857 61.4757 95.5429 61.705C95.7715 61.9344 96 62.3932 96 62.852V67.6691C96 68.1279 95.7715 69.0454 95.5429 69.7336L89.3714 82.5793L95.5429 83.038V84.8731H85.9429V83.7262L92.5715 69.2748V63.7695L88.2286 63.5401V68.1279H86.4V62.852C86.4 62.3932 86.4 61.9344 86.8572 61.705ZM91.4286 76.6152V76.8446H91.2H89.8286H89.6V76.6152V75.4683H90.0572V76.6152H91.2V74.5507H89.8286H89.6V74.3213V72.0275V71.7981H89.8286H91.2H91.4286V72.0275V76.6152Z" fill="#F5D061"/>
<path d="M108.114 73.4037V65.1458H102.4V73.8625L105.371 75.4682C105.6 75.4682 108.114 73.6331 108.114 73.4037ZM100.343 61.4756C100.571 61.2462 101.257 61.0168 101.714 61.0168H103.086L104.686 61.2462L107.429 61.705C107.886 61.705 108.343 62.1638 108.571 62.3932C108.8 62.6226 109.029 63.3107 109.029 63.7695V68.3572C109.257 68.3572 109.257 70.4217 109.486 70.4217C109.486 70.6511 109.486 70.8805 109.486 71.1099C109.486 71.3393 109.257 71.5686 109.029 71.798C109.257 71.798 107.886 72.7156 107.886 72.7156L107.429 73.1744C107.657 73.1744 109.714 74.7801 109.714 74.7801C110.171 75.0094 110.4 75.927 110.4 76.6152V84.6437V85.5612C110.4 86.02 110.171 86.4788 109.714 86.9376C109.486 87.167 109.029 87.3963 108.571 87.3963C108.571 87.3963 105.6 87.3963 105.371 87.3963H102.857H101.714C101.257 87.3963 100.571 87.167 100.343 86.9376C100.114 86.7082 99.8857 86.02 99.8857 85.5612V76.6152C99.8857 75.927 100.114 75.0094 100.571 74.7801L102.629 72.945L100.571 71.5686C100.114 71.3393 99.8857 70.4217 99.8857 69.9629V62.6226C100.114 62.1638 100.114 61.705 100.343 61.4756ZM107.886 84.6437V77.5327L105.371 75.927L102.857 77.5327V84.6437H107.886Z" fill="#F5D061"/>
<path d="M116.343 76.1564H122.286V76.8445L120.686 77.7621V80.2853L121.829 80.9735L122.057 81.2029C122.057 81.2029 122.057 81.4323 122.057 81.6617V85.7906C122.057 85.7906 122.057 86.02 122.057 86.2494C122.057 86.2494 121.371 86.4788 121.143 86.4788H117.029H116.114V86.2494V84.1849L116.571 83.9555V84.6437L117.714 84.1849V80.5147L116.114 79.8266L116.343 76.1564ZM123.429 86.2494H121.6V85.7906C120.914 85.7906 120.229 86.02 119.543 86.02C118.629 86.02 117.943 86.2494 117.486 86.2494C116.571 86.2494 115.886 85.7906 115.886 84.8731V80.056C115.886 79.1384 116.343 78.4502 117.486 78.4502H121.829V74.3213H117.943V76.6152H116.114V74.3213C116.114 73.1744 116.571 72.7156 117.714 72.7156H122.057C122.971 72.7156 123.657 73.1744 123.657 74.3213L123.429 86.2494Z" fill="#F5D061"/>
<path d="M128.686 64.2283C128.914 63.7695 129.371 63.5401 129.829 63.5401C129.829 63.3107 132.343 63.3107 132.571 63.3107H135.771C136.229 63.3107 136.686 63.5401 137.143 63.7695C137.371 63.9989 137.6 64.4577 137.6 64.9164V69.9629C137.6 70.4217 137.371 71.3393 137.143 72.0274L131.429 85.1025L137.6 85.7906V87.6257C137.143 87.6257 132.8 87.6257 132.571 87.6257C132.343 87.6257 128 87.3963 128 87.167V86.02L134.629 71.5687V66.2928L130.286 66.0634V70.6511H128.457V65.3752C128.457 64.9164 128.457 64.687 128.686 64.2283ZM132.343 77.3033H131.886C131.429 77.3033 131.2 77.3033 130.971 77.3033C130.743 77.3033 130.514 77.3033 130.514 77.0739C130.514 76.8445 130.286 76.8446 130.286 76.6152V74.5507C130.286 74.3213 130.286 74.0919 130.514 74.0919C130.743 73.8625 130.743 73.8625 130.971 73.8625H131.657V71.798H132.114L132.343 77.3033Z" fill="#F5D061"/>
<path d="M142.628 65.1458C142.628 63.9989 143.543 63.5401 144.685 63.5401H148.114V65.3752L145.6 65.6046V72.7156L147.885 72.945V74.78L145.6 75.0094V80.9735C145.6 81.2029 145.371 87.8551 145.143 87.8551H142.628V74.78L141.028 74.5507V72.7156L142.628 72.4862V65.1458ZM145.6 76.6151C145.6 76.8445 145.6 77.0739 145.371 77.0739C145.143 77.3033 145.143 77.3033 144.914 77.3033H143.771V72.0274H144.228V74.0919C144.457 74.0919 144.685 74.0919 144.685 74.0919C144.914 74.0919 145.143 74.0919 145.143 74.0919C145.371 74.0919 145.6 74.3213 145.6 74.5507V76.6151Z" fill="#F5D061"/>
<path d="M159.086 76.3858V66.7515H153.371V76.3858H159.086ZM151.543 63.9989C151.771 63.5401 152.228 63.3107 152.686 63.3107H153.828H156.114H159.314C159.771 63.3107 160.228 63.5401 160.686 63.7695C161.143 63.9989 161.371 64.4577 161.371 64.9164C161.371 64.9164 161.6 66.9809 161.6 67.2103V76.1564V86.7082C161.6 87.167 161.371 87.6257 161.143 88.0845C160.914 88.3139 160.228 88.5433 159.771 88.5433H159.314H159.086C158.857 88.5433 156.8 88.5433 156.571 88.5433C156.343 88.5433 154.286 88.5433 154.286 88.5433H153.143C152.686 88.5433 152.228 88.3139 152 87.8551C151.771 87.6257 151.543 87.167 151.543 86.7082V81.8911H153.371V86.2494H155.657H157.943V77.9915H155.428L152.914 77.7621C152.457 77.7621 152 77.5327 151.771 77.3033C151.086 76.1564 150.857 75.6976 150.857 75.2388C150.857 75.0095 151.085 73.6331 151.314 73.6331L151.771 72.7156L152.228 71.798V68.816L151.771 67.8985L151.314 66.9809V66.5221L150.857 65.834C150.857 65.834 150.857 65.834 150.857 65.6046C151.086 65.1458 151.314 64.2283 151.543 63.9989Z" fill="#F5D061"/>
<path d="M167.543 62.852H174.171V63.5402L172.571 64.6871V67.4397L173.714 68.3573L173.943 68.5867C173.943 68.5867 173.943 68.8161 173.943 69.0454V73.8626V74.3213C173.943 74.3213 173.028 75.0095 172.8 75.0095L170.514 76.1564L168.228 75.0095C168.228 75.0095 167.314 74.5507 167.086 74.3213C167.086 74.3213 167.086 74.092 167.086 73.8626V71.7981L167.543 71.5687V72.2569L168.686 71.5687V67.4397L167.086 66.5222L167.543 62.852ZM175.314 83.9556C175.314 84.4144 175.086 84.8731 174.857 85.1025C174.628 85.3319 174.171 85.5613 173.714 85.5613H168C167.543 85.5613 167.086 85.3319 166.857 85.1025C166.628 84.8731 166.4 84.4144 166.4 83.9556V76.8446C166.4 76.1564 166.628 75.6977 167.086 75.4683L169.143 74.0919L167.086 72.7156C166.628 72.4862 166.4 72.0275 166.4 71.3393V65.3752C166.4 64.9165 166.628 64.4577 166.857 64.2283C167.086 63.9989 167.543 63.7695 168 63.7695H173.486C173.943 63.7695 174.4 63.9989 174.628 64.2283C174.857 64.4577 175.086 64.9165 175.086 65.3752V71.3393C175.086 72.0275 174.857 72.4862 174.4 72.7156L172.343 73.8626L174.4 75.2389C174.857 75.4683 175.086 75.927 175.086 76.6152L175.314 83.9556ZM173.257 84.8731V77.7621L170.743 76.1564L168.228 77.7621V84.8731H173.257Z" fill="#F5D061"/>
<path d="M54.1715 107.812V85.1026H48.0001V107.812H54.1715ZM56.4572 108.041C56.4572 108.5 56.2286 108.959 56.0001 109.418C55.5429 109.876 55.0858 109.876 54.6286 109.876H47.5429C47.0858 109.876 46.6286 109.647 46.1715 109.418C45.7144 108.959 45.7144 108.5 45.7144 108.041V84.8732C45.7144 84.4144 45.9429 83.9556 46.1715 83.4969C46.4001 83.0381 47.0858 83.0381 47.5429 83.0381H54.6286C55.0858 83.0381 55.5429 83.2675 56.0001 83.4969C56.4572 83.9556 56.4572 84.4144 56.4572 84.8732V108.041Z" fill="#F6D981"/>
<path d="M69.4859 109.876H67.2001L64.4573 103.224L61.7144 109.876H59.4287L63.3144 101.16L59.4287 93.131H61.943L64.4573 99.3245L66.9716 93.131H69.2573L65.6001 101.16L69.4859 109.876Z" fill="#F6D981"/>
<path d="M77.0285 87.6258H79.3142L77.7142 93.3605L75.8856 98.8657H78.857V93.1311H80.2284V99.3245H81.3713V100.701L80.2284 100.93V105.747H77.9427L77.4856 101.618H74.9713H72.457V100.701L73.5999 96.5719L74.2856 93.5898L74.7427 91.5254L77.0285 87.6258ZM78.1713 103.912C78.1713 104.371 77.9427 104.6 77.4856 104.6H75.1999C74.7427 104.6 74.5142 104.371 74.5142 103.912V98.8657C74.5142 98.407 74.7427 98.1776 75.1999 98.1776H77.4856C77.9427 98.1776 78.1713 98.407 78.1713 98.8657V101.16L77.9427 101.389H75.4285V103.912H77.4856V102.765H78.3999L78.1713 103.912Z" fill="#F6D981"/>
<path d="M86.6286 83.9556C86.8572 83.7262 87.5429 83.7262 87.7714 83.7262H93.2572C93.4857 83.7262 94.1714 83.7262 94.4 83.9556C94.6286 84.185 94.6286 84.6437 94.6286 84.8731V89.0021C94.6286 89.4609 94.4 90.149 94.1714 90.6078L90.0572 101.618L94.6286 102.536V104.142H85.9429V103.224L90.7429 91.296V86.9376L87.5429 86.4788V89.4609L86.1714 89.2315V84.8731C86.4 84.6437 86.4 84.185 86.6286 83.9556ZM92.3429 100.93C92.3429 101.16 92.3429 101.389 92.1143 101.389C91.8857 101.618 91.8857 101.618 91.6572 101.618H88.9143C88.6857 101.618 88.4572 101.618 88.4572 101.389C88.2286 101.16 88.2286 101.16 88.2286 100.93V98.6363H89.1429V100.93H91.4286V97.0306H88.9143C88.6857 97.0306 88.4572 97.0306 88.4572 96.8013C88.4572 96.5719 88.2286 96.5719 88.2286 96.3425V91.9841C88.2286 91.7547 88.2286 91.5254 88.4572 91.5254C88.6857 91.5254 88.6857 91.296 88.9143 91.296H91.6572C91.8857 91.296 92.1143 91.296 92.1143 91.5254C92.3429 91.7547 92.3429 91.7547 92.3429 91.9841V100.93Z" fill="#F6D981"/>
<path d="M107.657 97.9482V89.0021H102.172V98.6364L105.143 99.7833C105.6 99.7833 107.657 98.407 107.657 97.9482ZM99.8859 83.038C100.114 82.8087 100.8 82.8087 101.257 82.8087H102.629L103.772 83.4968L105.829 84.6438C106.057 84.6438 106.514 85.1025 106.743 85.3319C106.972 85.5613 106.972 86.2495 106.972 86.7082V91.296C107.2 91.296 107.429 92.9017 107.886 92.9017C107.886 93.1311 108.114 93.1311 108.114 93.3605C108.114 93.5899 108.114 93.8192 108.114 93.8192C108.343 93.8192 107.429 94.5074 107.657 94.5074L107.429 94.7368C107.657 94.7368 109.486 96.1131 109.486 96.3425C109.943 96.5719 109.943 97.9482 109.943 98.407V106.665C109.943 106.894 109.943 107.582 109.943 107.582C109.943 108.041 109.714 108.729 109.257 108.959C109.029 109.188 108.572 109.418 108.114 109.418C107.886 109.647 105.6 109.647 105.143 109.647H102.4H101.257C101.029 109.647 99.8859 109.647 99.6573 109.418C99.4287 109.188 99.4287 108.271 99.4287 108.041V98.8657C99.4287 98.407 99.6573 97.26 99.8859 97.0307L101.486 95.1956L99.8859 93.3605C99.4287 93.1311 99.4287 92.2135 99.4287 91.7548V84.8731C99.6573 83.9556 99.6573 83.2674 99.8859 83.038ZM107.2 105.289V100.013L105.372 98.8657L103.543 100.013V105.289H107.2Z" fill="#F6D981"/>
<path d="M115.429 94.0486H122.286V94.9661L119.314 95.6543V99.5539L121.829 100.013C122.057 100.013 122.286 100.242 122.286 100.242C122.514 100.471 122.514 100.701 122.514 100.93V107.353C122.514 107.582 122.514 107.812 122.286 108.041C122.057 108.271 121.6 108.271 121.372 108.271H116.572C116.343 108.271 115.657 108.271 115.657 108.041C115.429 107.812 115.429 107.582 115.429 107.353V104.142L116.343 103.912V106.206L118.629 105.747V99.7833L115.429 99.3245V94.0486ZM122.514 106.206H121.143V105.977C120.686 105.977 120 106.206 119.543 106.206C118.857 106.206 118.4 106.435 117.943 106.435C117.257 106.435 116.8 105.977 116.8 105.289V101.618C116.8 100.93 117.257 100.471 117.943 100.471H121.143V97.4894H118.172V99.0951H116.8V97.4894C116.8 96.8012 117.257 96.3425 117.943 96.3425H121.143C121.829 96.3425 122.286 96.8012 122.286 97.4894L122.514 106.206Z" fill="#F6D981"/>
<path d="M128.686 88.5434C128.914 88.0846 129.143 87.8552 129.6 87.8552C129.6 87.6258 131.886 87.3964 132.114 87.3964H135.086C135.314 87.3964 136 87.3964 136.229 87.6258C136.457 87.8552 136.457 88.314 136.457 88.5434V92.6723C136.457 93.1311 136.229 93.8193 136 94.5074L131.886 105.747L136.457 106.894V108.5C135.771 108.5 132.114 108.5 131.886 108.5C131.429 108.5 128 108.271 128 107.812V106.894L132.8 95.1956V90.8372L129.6 90.3785V93.5899L128.229 93.3605V89.2315C128.457 89.2315 128.457 88.7727 128.686 88.5434ZM133.486 101.618H132.571V101.389C131.657 101.618 130.971 101.618 130.971 101.618C130.514 101.618 130.286 101.389 130.057 101.16C129.829 100.93 129.6 100.471 129.6 100.242V96.3425C129.6 95.8837 129.829 95.6544 130.057 95.425C130.286 95.1956 130.743 94.9662 130.971 94.9662H132.571V90.8372H133.486V101.618Z" fill="#F6D981"/>
<path d="M142.4 88.7727C142.4 88.0846 143.772 87.6258 144.457 87.6258H147.657V89.0021L145.829 89.4609V95.6543L147.429 96.1131V97.7188L145.829 98.1776V103.224C145.829 103.683 145.6 108.729 145.143 108.729H142.629V97.26L141.486 97.0307V95.4249L142.629 95.1956L142.4 88.7727ZM146.514 100.013C146.514 100.471 146.286 100.701 146.057 100.93C145.829 101.16 145.372 101.389 145.143 101.389H142.629V90.6078H143.543V94.9662C144 94.9662 144.229 94.9662 144.686 94.7368C145.143 94.7368 145.6 94.7368 145.829 94.7368C146.286 94.7368 146.514 94.9662 146.514 95.4249V100.013Z" fill="#F6D981"/>
<path d="M159.314 100.242V91.5254H153.829V100.242H159.314ZM151.772 87.8552C152 87.3964 152.229 86.9376 152.914 86.9376C153.143 86.9376 153.829 86.7083 154.057 86.7083H156.572H159.314C159.543 86.7083 160.229 86.7083 160.457 86.9376C160.914 87.167 161.143 87.3964 161.143 87.8552C161.372 88.0846 161.372 89.6903 161.372 89.9197V98.407V108.041C161.372 108.271 161.372 108.959 161.143 109.188C160.914 109.418 160 109.418 159.772 109.418H159.314L159.086 109.188C158.629 109.188 156.8 109.188 156.572 109.418C156.114 109.418 154.514 109.418 154.057 109.418C153.829 109.418 152.914 109.418 152.914 109.188C152.457 108.959 152 108.729 151.772 108.271C151.543 108.041 151.543 107.812 151.543 107.353V103.453L152.914 103.224V106.206L154.743 105.977L156.572 105.747V99.0952L154.743 98.8658L152.914 98.6364C152.686 98.6364 152.229 98.407 152 98.1776C151.772 97.9482 151.772 97.4894 151.772 97.2601C151.772 96.8013 152 95.6543 152.457 95.6543L153.6 94.9662L154.743 94.278V90.8372L153.829 90.1491L152.914 89.4609V89.9197L152.229 89.4609H152C151.543 89.2315 151.543 87.8552 151.772 87.8552Z" fill="#F6D981"/>
<path d="M167.314 83.7262H174.857V84.6437L171.886 85.5613V89.6903L174.4 90.3784C174.629 90.3784 174.857 90.6078 174.857 90.6078C175.086 90.8372 175.086 91.0666 175.086 91.296V98.1776C175.086 98.407 175.086 98.6363 174.857 98.8657C174.629 99.0951 173.943 99.5539 173.714 99.5539L171.2 100.471L168.686 99.7833C168.457 99.7833 167.772 99.3245 167.543 99.0951C167.314 98.8657 167.314 98.6364 167.314 98.407V95.1955L168.229 94.9662V97.0306L170.514 96.5719V90.3784L167.314 89.6903V83.7262ZM174.172 102.765C174.172 102.995 174.172 103.453 173.943 103.683C173.714 103.912 173.486 103.912 173.029 103.912H168.686C168.457 103.912 168 103.912 167.772 103.683C167.543 103.453 167.543 103.224 167.543 102.765V97.4894C167.543 97.0306 167.772 96.5719 168 96.3425L169.6 95.4249L168 94.5074C167.543 94.278 167.543 94.0486 167.543 93.3604V88.7727C167.543 88.5433 167.543 88.0845 167.772 87.8552C168 87.6258 168.229 87.6258 168.686 87.6258H172.8C173.029 87.6258 173.486 87.6258 173.714 87.8552C173.943 88.0845 173.943 88.3139 173.943 88.7727V93.3604C173.943 93.8192 173.714 94.278 173.486 94.5074L171.886 95.4249L173.486 96.3425C173.943 96.5719 173.943 97.0306 173.943 97.26L174.172 102.765ZM172.8 105.059V99.7833L170.972 98.6363L169.143 99.7833V105.059H172.8Z" fill="#F6D981"/>
<path d="M53.486 129.604V106.894H47.3145V129.604H53.486ZM55.7717 129.833C55.7717 130.292 55.5431 130.751 55.3145 131.209C54.8574 131.668 54.4002 131.668 53.9431 131.668H46.8574C46.4002 131.668 45.9431 131.439 45.4859 131.209C45.0288 130.751 45.0288 130.292 45.0288 129.833V106.665C45.0288 106.206 45.2574 105.747 45.4859 105.289C45.9431 104.83 46.4002 104.83 46.8574 104.83H53.9431C54.4002 104.83 54.8574 105.059 55.3145 105.289C55.7717 105.747 55.7717 106.206 55.7717 106.665V129.833Z" fill="#F7E3A4"/>
<path d="M68.8003 131.668H66.5146L63.7717 125.245L60.8003 131.668H58.7432L62.4003 123.181L58.7432 115.152H61.0289L63.7717 121.116L66.286 114.923H68.5717V115.152L64.9146 123.181L68.8003 131.668Z" fill="#F7E3A4"/>
<path d="M76.3432 112.17H78.6289L77.486 116.07L76.3432 119.969L78.4003 120.199V116.529H79.3146V120.887H80.2289V122.034L79.3146 122.263V125.933H77.0289L76.3432 123.181H74.5146H72.686V122.493L73.3717 119.052L73.8289 116.529L74.286 114.923L76.3432 112.17ZM78.6289 127.08C78.6289 127.769 78.1718 128.227 77.486 128.227H74.286C73.6003 128.227 73.1432 127.769 73.1432 127.08V119.281C73.1432 118.593 73.6003 118.134 74.286 118.134H77.486C78.1718 118.134 78.6289 118.593 78.6289 119.281V122.951L78.1718 123.41H74.286V127.08H77.2575V125.245H78.6289V127.08Z" fill="#F7E3A4"/>
<path d="M86.1719 106.206C86.4004 105.977 87.0862 105.977 87.3147 105.977H92.3433C92.5719 105.977 93.2576 105.977 93.4862 106.206C93.7147 106.436 93.7147 106.665 93.7147 106.894V110.106C93.7147 110.335 93.7147 111.023 93.4862 111.482L90.7433 120.428L93.9433 121.804V122.951H86.1719V122.263L89.3719 112.858V109.418L87.0862 108.729V110.335L86.1719 110.106V106.894C86.1719 106.665 86.1719 106.436 86.1719 106.206ZM92.8004 125.016C92.8004 125.245 92.8004 125.704 92.5719 125.933C92.3433 126.163 92.1147 126.163 91.6576 126.163H87.5433C87.3147 126.163 86.8576 126.163 86.629 125.933C86.4004 125.704 86.4004 125.475 86.4004 125.016V121.346H87.7719V124.786H91.2004V118.822H87.3147C87.0862 118.822 86.629 118.822 86.4004 118.593C86.1719 118.364 86.1719 118.134 86.1719 117.675V111.023C86.1719 110.794 86.1719 110.335 86.4004 110.106C86.629 109.876 86.8576 109.876 87.3147 109.876H91.429C91.6576 109.876 92.1147 109.876 92.3433 110.106C92.5719 110.335 92.5719 110.564 92.5719 111.023L92.8004 125.016Z" fill="#F7E3A4"/>
<path d="M106.743 122.493V112.858H101.257V123.41L104.229 124.098C105.372 124.328 106.743 123.181 106.743 122.493ZM99.2002 104.83C99.4288 104.6 100.343 104.6 100.572 104.6H101.714L102.629 105.518L104 107.124C104.229 107.124 104.457 107.812 104.457 108.041C104.686 108.271 104.686 109.188 104.686 109.418V113.776C105.143 113.776 105.6 114.693 106.057 114.693C106.286 114.693 106.286 114.923 106.286 114.923C106.514 115.152 106.514 115.152 106.514 115.152C106.972 115.152 106.514 115.611 106.743 115.611C106.972 115.611 106.743 115.84 106.972 115.84C107.429 116.07 108.8 116.987 108.8 117.675C109.029 117.905 109.257 119.511 109.257 119.74V128.227C109.257 128.457 109.257 129.145 109.257 129.145C109.257 129.604 109.029 130.292 108.572 130.521C108.343 130.751 107.886 130.98 107.657 130.98C107.429 131.209 105.6 131.209 105.143 131.209H102.4H101.257C101.029 131.209 99.8859 131.209 99.6573 130.98C99.4288 130.751 99.4288 129.604 99.4288 129.374V119.969C99.4288 119.74 99.4288 118.134 99.6573 117.905L100.8 115.84L99.8859 113.776C99.6574 113.546 99.4288 112.4 99.4288 112.17V105.518C98.9716 105.977 99.2002 105.059 99.2002 104.83ZM106.057 126.163V122.493L104.914 121.804L103.772 122.722V126.392L106.057 126.163Z" fill="#F7E3A4"/>
<path d="M114.286 112.17H122.286V113.546L117.714 114.005L117.486 119.281L121.143 119.74C121.371 119.74 121.829 119.969 122.057 120.199C122.286 120.428 122.286 120.657 122.286 121.116V129.833C122.286 130.062 122.286 130.521 122.057 130.751C121.829 130.521 121.143 130.751 120.914 130.751H115.429C115.2 130.751 114.514 130.751 114.286 130.521C114.057 130.292 114.057 130.062 114.057 129.604V125.245H115.429V128.915L118.857 128.686V120.428L114.057 120.199L114.286 112.17ZM121.143 126.622H120.229V126.392C119.771 126.392 119.543 126.392 119.086 126.622C118.629 126.622 118.171 126.622 117.943 126.622C117.486 126.622 117.257 126.392 117.257 125.933V123.41C117.257 122.951 117.486 122.722 117.943 122.722H120V120.657H117.943V121.804H117.029V120.657C117.029 120.199 117.257 119.969 117.714 119.969H120C120.457 119.969 120.686 120.199 120.686 120.657L121.143 126.622Z" fill="#F7E3A4"/>
<path d="M128.458 113.317C128.686 112.858 128.915 112.629 129.143 112.4C129.372 111.941 130.972 111.941 131.429 111.941H134.172C134.4 111.941 135.086 111.941 135.315 112.17C135.543 112.4 135.543 112.858 135.543 113.088V116.529C135.543 116.758 135.543 117.675 135.315 117.905L132.572 127.31L135.772 128.915V130.292C134.629 130.292 131.886 130.521 131.658 130.521C130.972 130.521 128.458 130.062 128.458 129.374V128.686L131.658 119.74V116.529L129.372 115.84V117.675L128.458 117.446V114.235C128.229 113.776 128.229 113.317 128.458 113.317ZM133.943 126.163H132.572V125.933C131.2 126.163 130.286 126.163 130.286 126.163C129.6 126.163 129.143 125.933 128.915 125.475C128.458 125.016 128.458 124.557 128.458 124.098V118.134C128.458 117.446 128.686 116.987 129.143 116.529C129.6 116.07 130.058 115.84 130.743 115.84H133.029V109.647H134.4L133.943 126.163Z" fill="#F7E3A4"/>
<path d="M141.943 112.629C141.943 112.17 143.543 111.711 144 111.711H146.972V112.858L145.6 113.546V118.822L146.743 119.511V120.657L146.057 121.575V125.933C146.057 126.622 145.6 130.292 144.914 130.292H142.172V120.428L141.486 119.969V118.593L142.172 118.134L141.943 112.629ZM147.2 123.869C147.2 124.557 146.972 125.016 146.514 125.475C146.057 125.933 145.6 126.163 144.914 126.163H141.257V110.106H142.629V116.528C143.086 116.528 143.772 116.299 144.229 116.299C144.914 116.299 145.372 116.07 145.829 116.07C146.514 116.07 146.972 116.528 146.972 117.217L147.2 123.869Z" fill="#F7E3A4"/>
<path d="M159.314 124.557V116.758H153.829V124.557H159.314ZM152 111.941C152.229 111.253 152.457 111.023 152.914 110.794C153.143 110.564 153.829 110.564 154.057 110.564H156.572H159.086C159.314 110.564 160 110.564 160.229 110.794C160.686 111.023 160.914 111.253 161.143 111.482C161.372 111.711 161.6 112.858 161.6 113.317V121.346V129.833C161.6 130.062 161.6 130.75 161.372 130.98C161.143 131.209 160 131.209 159.772 131.209H159.314L159.086 130.98C158.629 130.98 157.029 131.209 156.572 131.209C155.886 131.209 154.514 131.439 154.057 131.439C153.829 131.439 153.143 131.439 152.914 131.209C152.457 130.98 152.229 130.75 152 130.062C151.772 129.833 151.772 129.604 151.772 129.374V126.392L152.686 126.163V127.998L153.829 127.768L154.972 127.539V122.493L153.6 122.263L152.229 121.804C152 121.804 151.772 121.575 151.772 121.346C151.543 121.116 151.543 120.887 151.543 120.657C151.543 119.969 152 118.822 152.686 118.822L154.286 118.364L155.886 117.905V114.005L154.514 113.546L153.143 113.317V114.464L152 114.005H151.772C151.772 114.005 151.772 112.17 152 111.941Z" fill="#F7E3A4"/>
<path d="M166.857 105.289H175.086V106.665L170.515 107.353L170.286 112.629L173.943 113.088C174.172 113.088 174.629 113.317 174.857 113.547C175.086 113.776 175.086 114.005 175.086 114.464V123.41C175.086 123.64 175.086 124.098 174.857 124.328C174.629 124.557 173.943 125.016 173.715 125.016L170.972 125.475L168.229 125.016C168 125.016 167.315 124.557 167.086 124.328C166.857 124.098 166.857 123.869 166.857 123.41V119.052H168.229V122.722L171.657 122.493V114.005L166.857 113.547V105.289ZM173.029 122.493C173.029 122.722 173.029 122.951 172.8 122.951C172.572 123.181 172.572 123.181 172.343 123.181H169.6C169.372 123.181 169.143 123.181 169.143 122.951C168.915 122.722 168.915 122.722 168.915 122.493V119.052C168.915 118.822 169.143 118.593 169.372 118.364L170.515 117.675L168.915 116.987C168.686 116.758 168.457 116.529 168.457 116.299V113.317C168.457 113.088 168.457 112.858 168.686 112.858C168.915 112.629 168.915 112.629 169.143 112.629H171.886C172.115 112.629 172.343 112.629 172.343 112.858C172.572 113.088 172.572 113.088 172.572 113.317V116.299C172.572 116.529 172.343 116.758 172.115 116.987L171.2 117.675L172.115 118.364C172.343 118.593 172.572 118.822 172.572 119.052L173.029 122.493ZM172.115 125.933V122.263L170.743 121.575L169.6 122.493V126.163L172.115 125.933Z" fill="#F7E3A4"/>
<path d="M52.5718 151.395V128.686H46.4004V151.395H52.5718ZM55.0861 151.625C55.0861 152.083 54.8575 152.542 54.629 153.001C54.1718 153.46 53.7147 153.46 53.2575 153.46H46.1718C45.7147 153.46 45.2575 153.23 44.8004 153.001C44.3433 152.542 44.3433 152.083 44.3433 151.625V128.686C44.3433 128.227 44.5718 127.769 44.8004 127.31C45.029 126.851 45.7147 126.851 46.1718 126.851H53.2575C53.7147 126.851 54.1718 127.08 54.629 127.31C55.0861 127.539 55.0861 128.227 55.0861 128.686V151.625Z" fill="#F7EDCE"/>
<path d="M68.1148 153.689H65.8291L62.8577 147.037L60.1148 153.689H57.8291V153.46L61.7148 144.973L58.0577 136.944H60.3434L62.8577 142.908L65.6005 136.944H67.8863L64.2291 144.973L68.1148 153.689Z" fill="#F7EDCE"/>
<path d="M75.4292 136.256H77.7149L77.0292 138.32L76.3435 140.614L77.2578 140.844V139.238H77.7149V141.761H78.1721V142.449L77.7149 142.908V145.661H75.2007L74.2864 144.284H72.9149H71.5435V143.596L72.0007 140.844L72.2292 138.779L72.4578 137.403L75.4292 136.256ZM78.8578 150.248C78.8578 151.395 78.4006 151.854 77.2578 151.854H72.9149C72.0007 151.854 71.3149 151.395 71.3149 150.248V139.926C71.3149 138.779 71.7721 138.32 72.9149 138.32H77.2578C78.1721 138.32 78.8578 138.779 78.8578 139.926V144.743L78.1721 145.431H73.1435V150.248H77.0292V147.725H78.8578V150.248Z" fill="#F7EDCE"/>
<path d="M85.9432 128.457H86.8575H91.4289H92.3432C92.3432 128.457 92.3432 128.915 92.3432 129.145V131.668C92.3432 131.897 92.3432 132.586 92.1146 132.586L90.7432 139.467L92.3432 141.302V142.22H85.4861V141.761L87.0861 134.879V132.356L85.9432 131.439L85.4861 130.98V128.686C85.7146 128.915 85.9432 128.457 85.9432 128.457ZM93.2575 149.331C93.2575 149.79 93.0289 150.248 92.8003 150.478C92.5718 150.707 92.1146 150.937 91.6575 150.937H86.4003C85.9432 150.937 85.4861 150.707 85.2575 150.478C85.0289 150.248 84.8003 149.79 84.8003 149.331V144.514H86.6289V149.101H91.2003V141.073H86.1718C85.7146 141.073 85.2575 140.844 85.0289 140.614C84.8004 140.385 84.5718 139.926 84.5718 139.467V130.751C84.5718 130.292 84.8004 129.833 85.0289 129.604C85.2575 129.374 85.7146 129.145 86.1718 129.145H91.6575C92.1146 129.145 92.5718 129.374 92.8003 129.604C93.0289 129.833 93.2575 130.292 93.2575 130.751V149.331Z" fill="#F7EDCE"/>
<path d="M106.058 147.037V136.944H100.8V148.413L104 148.872C104.915 148.872 106.058 147.955 106.058 147.037ZM98.5148 126.851H99.6576H100.8L101.258 128.227L101.943 130.521C101.943 130.521 102.172 131.439 102.172 131.668C102.172 131.897 102.172 132.815 102.172 132.815V136.944C102.629 136.944 103.315 137.403 103.772 137.173C104 137.173 104 137.173 104.229 137.173C104.458 137.173 104.686 137.173 104.915 137.173C105.372 137.173 105.6 137.403 105.829 137.403C106.058 137.403 106.058 137.403 106.286 137.632C106.972 137.862 107.658 138.55 107.658 139.467C107.886 139.467 107.886 141.532 107.886 141.761V150.478C107.886 150.707 107.886 151.166 107.886 151.625C107.658 152.083 107.429 152.772 106.972 153.001C106.743 153.23 106.515 153.46 106.058 153.46C105.6 153.689 104.458 153.919 103.772 153.919H100.8H99.6576H98.0576C98.0576 153.919 98.0576 152.542 98.0576 152.313V142.908C98.0576 142.679 98.0576 140.844 98.2862 140.844L98.7433 138.55L98.2862 136.256C98.0576 136.256 98.0576 134.879 98.0576 134.65V128.227C98.5148 127.769 98.5148 126.851 98.5148 126.851ZM104.915 147.037V145.202L104.229 144.743L103.543 145.202V147.037H104.915Z" fill="#F7EDCE"/>
<path d="M112.915 130.521H121.829V132.356L115.886 132.586L115.657 139.238L120.457 139.467C120.915 139.467 121.372 139.697 121.6 139.926C121.829 140.155 122.057 140.614 122.057 141.073V151.854C122.057 152.313 121.829 152.772 121.6 153.001C121.372 153.23 120.915 153.46 120.457 153.46H114.515C114.057 153.46 113.6 153.23 113.372 153.001C113.143 152.772 112.915 152.313 112.915 151.854V146.349H114.743V151.625H119.315V141.073L112.915 140.844V130.521ZM119.543 147.037H119.086C118.857 147.037 118.629 147.037 118.629 147.037C118.4 147.037 118.172 147.037 118.172 147.037C117.943 147.037 117.715 146.808 117.715 146.578V145.431C117.715 145.202 117.943 144.973 118.172 144.973H119.315V144.055H118.4V144.514H117.943V144.055C117.943 143.826 118.172 143.596 118.4 143.596H119.543C119.772 143.596 120 143.826 120 144.055V147.037H119.543Z" fill="#F7EDCE"/>
<path d="M128 138.091C128 137.632 128.229 137.403 128.457 137.173C128.686 136.715 129.829 136.485 130.515 136.485H132.8C132.8 136.485 133.715 136.485 133.943 136.485C133.943 136.485 133.943 136.944 133.943 137.173V139.926C133.943 140.155 133.943 140.844 133.715 141.073L132.572 148.643L134.172 150.937V151.854C132.8 151.854 130.743 152.084 130.515 152.084C129.6 152.084 128 151.625 128 150.478V150.019L129.6 143.826V141.532L128.457 140.614V140.844L128 140.614V138.55V138.091ZM134.4 150.937H132.572V150.478C130.515 150.707 129.6 150.937 129.372 150.937C128.686 150.937 128 150.707 127.543 150.248C127.086 149.79 126.857 149.101 126.857 148.184V140.385C126.857 139.467 127.086 138.779 127.772 138.32C128.229 137.862 128.915 137.403 129.829 137.403H132.572V129.374H134.4V150.937Z" fill="#F7EDCE"/>
<path d="M141.486 136.944C141.486 136.715 143.543 136.485 143.772 136.485H146.743V137.403L146.058 138.32V142.449L146.515 143.367V144.514L146.058 145.431V148.872C146.058 149.79 145.601 152.084 144.458 152.084H141.486V144.055L141.029 143.367V142.22L141.486 141.532V136.944ZM147.658 147.955C147.658 148.872 147.429 149.56 146.743 150.019C146.286 150.478 145.601 150.937 144.686 150.937H139.886V129.374H141.715V137.862C142.401 137.862 143.086 137.632 143.772 137.632C144.686 137.403 145.372 137.403 145.829 137.403C146.743 137.403 147.429 137.862 147.429 139.008V147.955H147.658Z" fill="#F7EDCE"/>
<path d="M159.315 149.101V142.22H154.058V149.101H159.315ZM152.001 136.485C152.001 135.797 152.229 135.338 152.686 135.109C152.915 134.88 153.601 134.88 154.058 134.88H156.801H159.086H160.001C160.458 134.88 160.915 135.109 161.143 135.338C161.601 135.568 161.829 136.485 161.829 137.173V144.973V152.542V153.46H160.229H159.772V153.001C159.086 153.001 157.715 153.23 157.029 153.23C156.115 153.23 154.972 153.46 154.515 153.46C154.058 153.46 153.601 153.46 153.372 153.23C152.915 153.001 152.686 152.542 152.686 151.854C152.686 151.854 152.686 151.625 152.686 151.395V149.56L153.143 149.331V149.79L153.829 149.56L154.515 149.331V146.119L153.829 145.89L153.143 145.431L152.915 145.202V144.743C152.915 143.826 153.372 142.908 154.515 142.908L156.572 142.679L157.715 142.22V137.632L155.658 137.403L153.601 137.173V139.238L152.001 139.008H151.772C152.001 138.779 152.001 136.485 152.001 136.485Z" fill="#F7EDCE"/>
<path d="M166.401 127.08H175.543V128.915L169.601 129.145L169.143 135.797L173.943 136.026C174.401 136.026 174.858 136.256 175.086 136.485C175.315 136.715 175.543 137.173 175.543 137.632V148.643C175.543 149.101 175.315 149.56 175.086 149.79C174.858 150.019 174.172 150.248 173.715 150.248L170.743 150.478L167.543 150.248C167.086 150.248 166.629 150.019 166.172 149.79C165.943 149.56 165.715 149.101 165.715 148.643V142.908H167.543V147.955L172.115 147.725V137.173L165.715 136.944L166.401 127.08ZM171.658 142.449V142.679H171.429H170.058H169.829V142.449V140.614C169.829 140.385 169.829 140.385 170.058 140.385L170.515 140.155L170.058 139.926C169.829 139.926 169.829 139.697 169.829 139.467V137.861V137.632H170.058H171.429H171.658V137.861V139.467C171.658 139.697 171.658 139.697 171.429 139.926H170.972L171.429 140.155C171.658 140.155 171.658 140.385 171.658 140.385V142.449ZM171.201 147.037V145.202L170.515 144.743L169.829 145.202V147.037H171.201Z" fill="#F7EDCE"/>
<path d="M51.8859 173.416V150.707H45.7144V173.416H51.8859ZM54.1716 173.646C54.1716 174.105 53.943 174.563 53.7144 175.022C53.2573 175.481 52.8001 175.481 52.343 175.481H45.2573C44.8001 175.481 44.343 175.252 43.8859 175.022C43.4287 174.563 43.4287 174.105 43.4287 173.646V150.478C43.4287 150.019 43.6573 149.56 43.8859 149.101C44.1144 148.643 44.8001 148.643 45.2573 148.643H52.343C52.8001 148.643 53.2573 148.872 53.7144 149.101C54.1716 149.331 54.1716 150.019 54.1716 150.478V173.646Z" fill="#F7F9FD"/>
<path d="M67.2002 175.481H64.9145L62.1716 168.829L59.4288 175.481H57.1431L61.0288 166.994L57.3716 158.965H59.6573L62.1716 165.159L64.9145 158.965H67.2002L63.5431 166.994L67.2002 175.481Z" fill="#F7F9FD"/>
<path d="M77.0286 165.617V163.094V160.571H74.5143H72V163.094V165.617H74.5143H77.0286ZM79.0857 173.646C79.0857 175.022 78.4 175.481 77.2572 175.481H71.7714C70.4 175.481 69.9429 174.793 69.9429 173.646V160.8C69.9429 159.424 70.6286 158.965 71.7714 158.965H77.2572C78.6286 158.965 79.0857 159.653 79.0857 160.8V166.764L78.4 167.452H72V173.416H76.8V170.434H79.0857V173.646Z" fill="#F7F9FD"/>
<path d="M91.2002 161.259V150.707H85.2573V161.259H91.2002ZM93.7145 173.646C93.7145 174.105 93.4859 174.563 93.2573 175.022C92.8002 175.481 92.343 175.481 91.8859 175.481H85.2573C84.8002 175.481 84.343 175.252 83.8859 175.022C83.4288 174.563 83.4288 174.105 83.4288 173.646V167.682H85.7145V173.416H91.4288V163.553H85.0288C84.5716 163.553 84.1145 163.323 83.6573 163.094C83.2002 162.865 83.2002 162.177 83.2002 161.718V150.707C83.2002 150.248 83.4288 149.79 83.6573 149.331C83.8859 148.872 84.5716 148.872 85.0288 148.872H91.8859C92.343 148.872 92.8002 149.101 93.2573 149.331C93.7145 149.56 93.7145 150.248 93.7145 150.707V173.646Z" fill="#F7F9FD"/>
<path d="M105.143 171.581V160.8L100.114 161.03V173.646H103.314C104.457 173.416 105.143 172.728 105.143 171.581ZM107.429 171.811C107.429 172.728 107.2 173.646 106.514 174.334C105.829 175.022 104.914 175.252 104 175.252H101.029H98.0571V161.718V148.184H100.343V158.736C101.257 158.736 102.171 158.506 103.086 158.506C104.229 158.277 105.143 158.277 105.829 158.277C107.2 158.277 107.657 158.965 107.657 160.112V171.811H107.429Z" fill="#F7F9FD"/>
<path d="M121.6 173.646C121.6 174.105 121.372 174.563 121.143 175.022C120.686 175.481 120.229 175.481 119.772 175.481H113.143C112.686 175.481 112.229 175.252 111.772 175.022C111.314 174.563 111.314 174.105 111.314 173.646V166.764H113.6V173.416H119.314V160.8H111.314L111.543 148.643H121.372V150.707H113.829L113.6 158.506H119.772C120.229 158.506 120.686 158.736 121.143 158.965C121.6 159.424 121.6 159.883 121.6 160.341V173.646Z" fill="#F7F9FD"/>
<path d="M132.8 173.416V160.8H129.6C128.457 160.8 127.772 161.488 127.772 162.635V171.581C127.772 172.958 128.457 173.416 129.6 173.416C129.829 173.646 130.972 173.416 132.8 173.416ZM134.857 175.481H132.572V175.022C130.057 175.481 128.686 175.481 128.457 175.481C127.543 175.481 126.629 175.252 126.172 174.563C125.714 173.875 125.257 173.187 125.257 172.04V162.177C125.257 161.259 125.486 160.341 126.172 159.653C126.857 158.965 127.772 158.736 128.686 158.736H132.343V148.643H134.629V175.481H134.857Z" fill="#F7F9FD"/>
<path d="M146.057 171.581V160.8L141.029 161.03V173.646H144.229C145.372 173.416 146.057 172.728 146.057 171.581ZM148.343 171.811C148.343 172.728 148.115 173.646 147.429 174.334C146.743 175.022 145.829 175.252 144.915 175.252H138.972V148.643H141.257V159.194C142.172 159.194 143.086 158.965 144 158.965C145.143 158.736 146.057 158.736 146.743 158.736C148.115 158.736 148.572 159.424 148.572 160.571V171.811H148.343Z" fill="#F7F9FD"/>
<path d="M159.314 173.416V167.452H154.286V173.416H159.314ZM161.371 175.481H159.086V175.022C158.171 175.252 157.257 175.252 156.343 175.481C155.2 175.71 154.286 175.71 153.6 175.71C152.457 175.71 151.771 175.022 151.771 173.875V167.682C151.771 166.305 152.457 165.847 153.6 165.847H156.343H159.086V160.571H156.571H154.057V163.323H151.771V160.571C151.771 159.194 152.457 158.736 153.6 158.736H156.343H159.086C160.457 158.736 160.914 159.424 160.914 160.571V167.911V175.481H161.371Z" fill="#F7F9FD"/>
<path d="M175.772 173.646C175.772 174.105 175.543 174.563 175.314 175.022C174.857 175.481 174.4 175.481 173.943 175.481H167.314C166.857 175.481 166.4 175.252 165.943 175.022C165.486 174.563 165.486 174.105 165.486 173.646V166.764H167.772V173.416H173.486V160.8H165.486L165.714 148.643H175.543V150.707H168L167.772 158.506H173.943C174.4 158.506 174.857 158.736 175.314 158.965C175.772 159.424 175.772 159.883 175.772 160.341V173.646Z" fill="#F7F9FD"/>
</g>
<defs>
<radialGradient id="paint0_radial" cx="0" cy="0" r="1" gradientUnits="userSpaceOnUse" gradientTransform="translate(63.0624 54.8265) scale(365.47 366.774)">
<stop offset="0.0386202" stop-color="#242930"/>
<stop offset="0.8836" stop-color="#F7F9FD"/>
</radialGradient>
<clipPath id="clip0">
<rect width="216" height="217" fill="white"/>
</clipPath>
</defs>
</svg>
