<svg width="32" height="32" viewBox="0 0 32 32" fill="none" xmlns="http://www.w3.org/2000/svg">
<path d="M17.5484 0V4.12903H6.19355C2.77832 4.12903 0 6.90735 0 10.3226C0 13.7378 2.77832 16.5161 6.19355 16.5161H10.8387V15.4839H6.19355C3.34761 15.4839 1.03226 13.1685 1.03226 10.3226C1.03226 7.47664 3.34761 5.16129 6.19355 5.16129H17.5484V9.29032H32V0H17.5484ZM30.9677 8.25806H28.3871V7.22581H27.3548V8.25806H22.1935V3.09677H21.1613V8.25806H18.5806V1.03226H21.1613V2.06452H22.1935V1.03226H27.3548V6.19355H28.3871V1.03226H30.9677V8.25806Z" fill="url(#paint0_linear)"/>
<path d="M25.8064 15.4839H21.1613V16.5161H25.8064C28.6524 16.5161 30.9677 18.8315 30.9677 21.6774C30.9677 24.5233 28.6524 26.8387 25.8064 26.8387H14.4516V22.7097H0V32H14.4516V27.871H25.8064C29.2217 27.871 32 25.0926 32 21.6774C32 18.2622 29.2217 15.4839 25.8064 15.4839ZM13.4194 30.9677H10.8387V29.9355H9.80645V30.9677H4.64516V25.8064H3.6129V30.9677H1.03226V23.7419H3.6129V24.7742H4.64516V23.7419H9.80645V28.9032H10.8387V23.7419H13.4194V30.9677Z" fill="url(#paint1_linear)"/>
<path d="M15.9999 10.3226C14.292 10.3226 12.9031 11.7115 12.9031 13.4193V15.4839H11.8708V21.6774H20.1289V15.4839H19.0967V13.4193C19.0967 11.7115 17.7078 10.3226 15.9999 10.3226ZM13.9354 13.4193C13.9354 12.2808 14.8613 11.3548 15.9999 11.3548C17.1385 11.3548 18.0644 12.2808 18.0644 13.4193V15.4839H13.9354V13.4193ZM19.0967 20.6452H12.9031V16.5161H19.0967V20.6452Z" fill="url(#paint2_linear)"/>
<path d="M16 20.129C16.8537 20.129 17.5484 19.4343 17.5484 18.5806C17.5484 17.727 16.8537 17.0323 16 17.0323C15.1464 17.0323 14.4517 17.727 14.4517 18.5806C14.4517 19.4343 15.1464 20.129 16 20.129ZM16 18.0645C16.2844 18.0645 16.5162 18.2957 16.5162 18.5806C16.5162 18.8655 16.2844 19.0968 16 19.0968C15.7157 19.0968 15.4839 18.8655 15.4839 18.5806C15.4839 18.2957 15.7157 18.0645 16 18.0645Z" fill="url(#paint3_linear)"/>
<defs>
<linearGradient id="paint0_linear" x1="16" y1="0" x2="16" y2="16.5161" gradientUnits="userSpaceOnUse">
<stop stop-color="#FFDA44"/>
<stop offset="1" stop-color="#FFCC00"/>
</linearGradient>
<linearGradient id="paint1_linear" x1="16" y1="15.4839" x2="16" y2="32" gradientUnits="userSpaceOnUse">
<stop stop-color="#FFDA44"/>
<stop offset="1" stop-color="#FFCC00"/>
</linearGradient>
<linearGradient id="paint2_linear" x1="15.9999" y1="10.3226" x2="15.9999" y2="21.6774" gradientUnits="userSpaceOnUse">
<stop stop-color="#FFDA44"/>
<stop offset="1" stop-color="#FFCC00"/>
</linearGradient>
<linearGradient id="paint3_linear" x1="16" y1="17.0323" x2="16" y2="20.129" gradientUnits="userSpaceOnUse">
<stop stop-color="#FFDA44"/>
<stop offset="1" stop-color="#FFCC00"/>
</linearGradient>
</defs>
</svg>
