<svg width="129" height="41" viewBox="0 0 129 41" fill="none" xmlns="http://www.w3.org/2000/svg">
<path d="M124.5 40.7911H4.5C2.3 40.7911 0.5 38.9883 0.5 36.785V4.73576C0.5 2.53238 2.3 0.729614 4.5 0.729614H124.5C126.7 0.729614 128.5 2.53238 128.5 4.73576V36.785C128.5 38.9883 126.7 40.7911 124.5 40.7911Z" fill="#F6F9FE"/>
<path fill-rule="evenodd" clip-rule="evenodd" d="M10.3 20.3597V9.84357C10.3 9.24265 10.8 8.74188 11.3 8.74188C11.8001 8.74188 12.0001 8.84204 12.3001 9.04234L31.6001 19.6587C32.0001 19.859 32.2001 20.1594 32.2001 20.4599C32.2001 20.7603 32.0001 21.0608 31.6001 21.2611L12.3001 31.8774C12.1001 31.9776 11.8001 32.1779 11.3 32.1779C10.8 32.1779 10.3 31.6771 10.3 31.0762V20.3597Z" fill="url(#paint0_linear)"/>
<path fill-rule="evenodd" clip-rule="evenodd" d="M22.8 20.4599L11.1 8.74188C11.2 8.74188 11.2 8.74188 11.3 8.74188C11.8 8.74188 12 8.84204 12.3 9.04235L26.5 16.8544L22.8 20.4599Z" fill="url(#paint1_linear)"/>
<path fill-rule="evenodd" clip-rule="evenodd" d="M26.4001 23.9653L22.8 20.3597L26.5001 16.6541L31.6001 19.4584C32.0001 19.6587 32.2001 19.9591 32.2001 20.2596C32.2001 20.56 32.0001 20.8605 31.6001 21.0608L26.4001 23.9653Z" fill="url(#paint2_linear)"/>
<path fill-rule="evenodd" clip-rule="evenodd" d="M11.2 31.9775L22.7999 20.3597L26.3999 23.9653L12.2999 31.6771C12 31.8774 11.8 31.9775 11.2 31.9775C11.3 31.9775 11.3 31.9775 11.2 31.9775Z" fill="url(#paint3_linear)"/>
<path fill-rule="evenodd" clip-rule="evenodd" d="M71.6 34.6817C71.1 34.2811 70.7 33.58 70.5 33.1794L72.1 32.4783C72.2 32.6786 72.4 32.9791 72.6 33.2796C73 33.6802 73.6 34.0808 74.2 34.0808C74.8 34.0808 75.5 33.7803 75.9 33.2796C76.2 32.7788 76.4 32.278 76.4 31.577V30.976C75.2 32.4783 72.7 32.278 71.3 30.6756C69.8 29.0731 69.8 26.369 71.3 24.7665C72.8 23.2642 75 23.0639 76.3 24.4661V23.765H78V31.2765C78 33.1794 77.3 34.2811 76.4 34.9822C75.8 35.483 74.9 35.6833 74.1 35.6833C73.2 35.5831 72.3 35.2826 71.6 34.6817ZM113.5 35.0823L115.2 31.0761L112.2 24.1655H113.9L116 29.0731L118.1 24.1655H119.8L115.2 35.0823H113.5ZM105.4 31.2764C104.9 30.7757 104.7 30.0746 104.7 29.3735C104.7 28.7726 104.9 28.1717 105.3 27.7711C106 27.07 107 26.7695 108.1 26.7695C108.8 26.7695 109.4 26.8697 109.9 27.1701C109.9 25.9683 108.9 25.4675 108.1 25.4675C107.4 25.4675 106.7 25.8682 106.4 26.5692L104.9 25.9683C105.2 25.2672 106 23.9652 108 23.9652C109 23.9652 110 24.2657 110.6 24.9668C111.2 25.6678 111.4 26.4691 111.4 27.5708V31.7772H109.7V31.0761C109.5 31.3766 109.1 31.5769 108.8 31.7772C108.4 31.9775 107.9 32.0777 107.4 32.0777C106.8 31.9775 105.9 31.7772 105.4 31.2764ZM52.1 27.6709C52.1 25.6679 53.6 23.4645 56.3 23.4645C58.9 23.4645 60.5 25.6679 60.5 27.6709C60.5 29.674 59 31.8774 56.3 31.8774C53.6 31.8774 52.1 29.674 52.1 27.6709ZM61.1 27.6709C61.1 25.6679 62.6 23.4645 65.3 23.4645C67.9 23.4645 69.5 25.6679 69.5 27.6709C69.5 29.674 68 31.8774 65.3 31.8774C62.7 31.8774 61.1 29.674 61.1 27.6709ZM40.8 29.8743C38.3 27.3705 38.4 23.2642 40.9 20.6602C42.2 19.3582 43.8 18.7573 45.5 18.7573C47.1 18.7573 48.7 19.3582 49.9 20.56L48.7 21.862C46.9 20.0593 44 20.1594 42.3 21.9622C40.5 23.8651 40.5 26.7696 42.3 28.6725C44.1 30.5754 47.1 30.6756 48.9 28.7726C49.5 28.1717 49.7 27.3705 49.8 26.5693H45.6V24.7665H51.5C51.6 25.1671 51.6 25.6679 51.6 26.1686C51.6 27.671 51 29.1733 50 30.1748C48.9 31.2765 47.3 31.8774 45.7 31.8774C43.9 31.7773 42.1 31.1763 40.8 29.8743ZM83.1 30.5754C81.6 28.9729 81.6 26.2688 83.1 24.5662C84.6 22.9637 87.1 22.9637 88.5 24.5662C89 25.067 89.3 25.768 89.6 26.4691L84.1 28.7726C84.4 29.4737 85.1 30.0746 86.1 30.0746C87 30.0746 87.6 29.7742 88.2 28.8728L89.7 29.8743C89.5 30.0746 89.3 30.2749 89.2 30.4752C87.5 32.1778 84.6 32.1778 83.1 30.5754ZM93.5 31.7743V20.6573H97.1C99.2 20.6573 100.9 22.1596 100.9 23.9623C100.9 25.7651 99.4 27.2674 97.5 27.2674H95.3V31.6741H93.5V31.7743ZM101.9 31.7743V20.6573H103.6V31.7743H101.9ZM79.3 31.5763V19.1573H81.1V31.5763H79.3ZM109.8 28.4715C109.4 28.1715 108.8 28.0715 108.2 28.0715C107 28.0715 106.3 28.6715 106.3 29.3715C106.3 30.0715 107 30.4715 107.7 30.4715C108.7 30.4715 109.8 29.6715 109.8 28.4715ZM58.6 27.6709C58.6 26.4691 57.8 25.1671 56.3 25.1671C54.8 25.1671 54 26.4691 54 27.6709C54 28.8728 54.8 30.1748 56.3 30.1748C57.7 30.1748 58.6 28.8728 58.6 27.6709ZM67.6 27.6709C67.6 26.4691 66.8 25.1671 65.3 25.1671C63.8 25.1671 63 26.4691 63 27.6709C63 28.8728 63.8 30.1748 65.3 30.1748C66.8 30.1748 67.6 28.8728 67.6 27.6709ZM76.5 28.372C76.5 28.2719 76.5 28.1717 76.6 28.0716C76.6 27.9714 76.6 27.7711 76.6 27.6709C76.6 27.5708 76.6 27.3705 76.6 27.2703V27.1702C76.6 27.07 76.5 26.8697 76.5 26.7696C76.2 25.768 75.3 25.067 74.4 25.067C73.2 25.067 72.2 26.2688 72.2 27.5708C72.2 28.9729 73.2 30.0746 74.5 30.0746C75.3 30.1748 76.1 29.4737 76.5 28.372ZM83.8 27.4668L87.5 25.8668C87.1 25.1668 86.5 24.9668 86 24.9668C84.5 25.0668 83.6 26.6668 83.8 27.4668ZM99.1 24.0654C99.1 23.0639 98.3 22.3628 97.2 22.3628H95.2V25.8682H97.3C98.3 25.8682 99.1 25.067 99.1 24.0654Z" fill="black"/>
<path fill-rule="evenodd" clip-rule="evenodd" d="M114.8 33.0784H114.7V32.9784H114.8H114.7V33.0784H114.8Z" fill="white"/>
<path fill-rule="evenodd" clip-rule="evenodd" d="M115.1 32.9784H115H115.1V33.0784V32.9784Z" fill="white"/>
<path d="M39.4 10.8451C39.4 9.04237 40.7 7.94067 42.3 7.94067C43.4 7.94067 44.1 8.44144 44.6 9.14252L43.8 9.64329C43.5 9.24268 43 8.94221 42.3 8.94221C41.2 8.94221 40.4 9.74344 40.4 10.9453C40.4 12.1471 41.2 12.9484 42.3 12.9484C42.9 12.9484 43.4 12.6479 43.6 12.4476V11.5462H42V10.6448H44.7V12.7481C44.2 13.349 43.4 13.7496 42.4 13.7496C40.7 13.7496 39.4 12.5478 39.4 10.8451Z" fill="black"/>
<path d="M45.9 13.6494V8.04083H49.7V8.94221H46.8V10.3444H49.6V11.2457H46.8V12.8482H49.7V13.7496L45.9 13.6494Z" fill="black"/>
<path d="M52.5001 13.6494V8.94221H50.8V8.04083H55.2001V8.94221H53.5001V13.6494H52.5001Z" fill="black"/>
<path d="M58.6 13.6494V8.04083H59.6V13.6494H58.6Z" fill="black"/>
<path d="M62.3 13.6494V8.94221H60.6V8.04083H65V8.94221H63.3V13.6494H62.3Z" fill="black"/>
<path fill-rule="evenodd" clip-rule="evenodd" d="M71.0999 7.94067C69.3999 7.94067 68.2 9.14252 68.2 10.8451C68.2 12.4476 69.3999 13.7496 71.0999 13.7496C72.7999 13.7496 73.9999 12.5478 73.9999 10.8451C73.9999 9.14252 72.7999 7.94067 71.0999 7.94067ZM71 8.84067C72.2 8.84067 72.9 9.64192 72.9 10.8438C72.9 11.9455 72.2 12.8469 71 12.8469C69.8 12.8469 69.1 12.0457 69.1 10.8438C69.1 9.74207 69.9 8.84067 71 8.84067Z" fill="black"/>
<path d="M79 13.6494L76.1 9.64328V13.6494H75.1V8.04083H76.1L79 11.9468V8.04083H80V13.6494H79Z" fill="black"/>
<defs>
<linearGradient id="paint0_linear" x1="6.00888" y1="10.3087" x2="12.3614" y2="33.125" gradientUnits="userSpaceOnUse">
<stop stop-color="#006884"/>
<stop offset="1" stop-color="#8AD1D0"/>
</linearGradient>
<linearGradient id="paint1_linear" x1="4.51284" y1="16.3928" x2="16.7723" y2="27.8573" gradientUnits="userSpaceOnUse">
<stop stop-color="#24BBB6"/>
<stop offset="1" stop-color="#DBE692"/>
</linearGradient>
<linearGradient id="paint2_linear" x1="32.6119" y1="24.386" x2="32.6119" y2="16.4254" gradientUnits="userSpaceOnUse">
<stop stop-color="#FCC072"/>
<stop offset="1" stop-color="#F58A5B"/>
</linearGradient>
<linearGradient id="paint3_linear" x1="20.9305" y1="38.6555" x2="29.2102" y2="24.2096" gradientUnits="userSpaceOnUse">
<stop stop-color="#712B8F"/>
<stop offset="1" stop-color="#EA1D27"/>
</linearGradient>
</defs>
</svg>
