<svg width="209" height="121" viewBox="0 0 209 121" fill="none" xmlns="http://www.w3.org/2000/svg">
<g filter="url(#filter0_d)">
<path d="M164.5 58.7911H44.5C42.3 58.7911 40.5 56.9883 40.5 54.785V22.7358C40.5 20.5324 42.3 18.7296 44.5 18.7296H164.5C166.7 18.7296 168.5 20.5324 168.5 22.7358V54.785C168.5 56.9883 166.7 58.7911 164.5 58.7911Z" fill="#F6F9FE"/>
</g>
<path fill-rule="evenodd" clip-rule="evenodd" d="M50.3 38.3597V27.8436C50.3 27.2427 50.8 26.7419 51.3 26.7419C51.8001 26.7419 52.0001 26.842 52.3001 27.0423L71.6001 37.6587C72.0001 37.859 72.2001 38.1594 72.2001 38.4599C72.2001 38.7603 72.0001 39.0608 71.6001 39.2611L52.3001 49.8774C52.1001 49.9776 51.8001 50.1779 51.3 50.1779C50.8 50.1779 50.3 49.6771 50.3 49.0762V38.3597Z" fill="url(#paint0_linear)"/>
<path fill-rule="evenodd" clip-rule="evenodd" d="M62.8 38.4599L51.1 26.7419C51.2 26.7419 51.2 26.7419 51.3 26.7419C51.8 26.7419 52 26.842 52.3 27.0423L66.5 34.8544L62.8 38.4599Z" fill="url(#paint1_linear)"/>
<path fill-rule="evenodd" clip-rule="evenodd" d="M66.4001 41.9653L62.8 38.3597L66.5001 34.6541L71.6001 37.4584C72.0001 37.6587 72.2001 37.9591 72.2001 38.2596C72.2001 38.56 72.0001 38.8605 71.6001 39.0608L66.4001 41.9653Z" fill="url(#paint2_linear)"/>
<path fill-rule="evenodd" clip-rule="evenodd" d="M51.2 49.9775L62.7999 38.3597L66.3999 41.9653L52.2999 49.6771C52 49.8774 51.8 49.9775 51.2 49.9775C51.3 49.9775 51.3 49.9775 51.2 49.9775Z" fill="url(#paint3_linear)"/>
<path fill-rule="evenodd" clip-rule="evenodd" d="M111.6 52.6817C111.1 52.2811 110.7 51.58 110.5 51.1794L112.1 50.4783C112.2 50.6786 112.4 50.9791 112.6 51.2796C113 51.6802 113.6 52.0808 114.2 52.0808C114.8 52.0808 115.5 51.7803 115.9 51.2796C116.2 50.7788 116.4 50.278 116.4 49.577V48.976C115.2 50.4783 112.7 50.278 111.3 48.6756C109.8 47.0731 109.8 44.369 111.3 42.7665C112.8 41.2642 115 41.0639 116.3 42.4661V41.765H118V49.2765C118 51.1794 117.3 52.2811 116.4 52.9822C115.8 53.483 114.9 53.6833 114.1 53.6833C113.2 53.5831 112.3 53.2826 111.6 52.6817ZM153.5 53.0823L155.2 49.0761L152.2 42.1655H153.9L156 47.0731L158.1 42.1655H159.8L155.2 53.0823H153.5ZM145.4 49.2764C144.9 48.7757 144.7 48.0746 144.7 47.3735C144.7 46.7726 144.9 46.1717 145.3 45.7711C146 45.07 147 44.7695 148.1 44.7695C148.8 44.7695 149.4 44.8697 149.9 45.1701C149.9 43.9683 148.9 43.4675 148.1 43.4675C147.4 43.4675 146.7 43.8682 146.4 44.5692L144.9 43.9683C145.2 43.2672 146 41.9652 148 41.9652C149 41.9652 150 42.2657 150.6 42.9668C151.2 43.6678 151.4 44.4691 151.4 45.5708V49.7772H149.7V49.0761C149.5 49.3766 149.1 49.5769 148.8 49.7772C148.4 49.9775 147.9 50.0777 147.4 50.0777C146.8 49.9775 145.9 49.7772 145.4 49.2764ZM92.1 45.6709C92.1 43.6679 93.6 41.4645 96.3 41.4645C98.9 41.4645 100.5 43.6679 100.5 45.6709C100.5 47.674 99 49.8774 96.3 49.8774C93.6 49.8774 92.1 47.674 92.1 45.6709ZM101.1 45.6709C101.1 43.6679 102.6 41.4645 105.3 41.4645C107.9 41.4645 109.5 43.6679 109.5 45.6709C109.5 47.674 108 49.8774 105.3 49.8774C102.7 49.8774 101.1 47.674 101.1 45.6709ZM80.8 47.8743C78.3 45.3705 78.4 41.2642 80.9 38.6602C82.2 37.3582 83.8 36.7573 85.5 36.7573C87.1 36.7573 88.7 37.3582 89.9 38.56L88.7 39.862C86.9 38.0593 84 38.1594 82.3 39.9622C80.5 41.8651 80.5 44.7696 82.3 46.6725C84.1 48.5754 87.1 48.6756 88.9 46.7726C89.5 46.1717 89.7 45.3705 89.8 44.5693H85.6V42.7665H91.5C91.6 43.1671 91.6 43.6679 91.6 44.1686C91.6 45.671 91 47.1733 90 48.1748C88.9 49.2765 87.3 49.8774 85.7 49.8774C83.9 49.7773 82.1 49.1763 80.8 47.8743ZM123.1 48.5754C121.6 46.9729 121.6 44.2688 123.1 42.5662C124.6 40.9637 127.1 40.9637 128.5 42.5662C129 43.067 129.3 43.768 129.6 44.4691L124.1 46.7726C124.4 47.4737 125.1 48.0746 126.1 48.0746C127 48.0746 127.6 47.7742 128.2 46.8728L129.7 47.8743C129.5 48.0746 129.3 48.2749 129.2 48.4752C127.5 50.1778 124.6 50.1778 123.1 48.5754ZM133.5 49.7743V38.6573H137.1C139.2 38.6573 140.9 40.1596 140.9 41.9623C140.9 43.7651 139.4 45.2674 137.5 45.2674H135.3V49.6741H133.5V49.7743ZM141.9 49.7743V38.6573H143.6V49.7743H141.9ZM119.3 49.5763V37.1573H121.1V49.5763H119.3ZM149.8 46.4715C149.4 46.1715 148.8 46.0715 148.2 46.0715C147 46.0715 146.3 46.6715 146.3 47.3715C146.3 48.0715 147 48.4715 147.7 48.4715C148.7 48.4715 149.8 47.6715 149.8 46.4715ZM98.6 45.6709C98.6 44.4691 97.8 43.1671 96.3 43.1671C94.8 43.1671 94 44.4691 94 45.6709C94 46.8728 94.8 48.1748 96.3 48.1748C97.7 48.1748 98.6 46.8728 98.6 45.6709ZM107.6 45.6709C107.6 44.4691 106.8 43.1671 105.3 43.1671C103.8 43.1671 103 44.4691 103 45.6709C103 46.8728 103.8 48.1748 105.3 48.1748C106.8 48.1748 107.6 46.8728 107.6 45.6709ZM116.5 46.372C116.5 46.2719 116.5 46.1717 116.6 46.0716C116.6 45.9714 116.6 45.7711 116.6 45.6709C116.6 45.5708 116.6 45.3705 116.6 45.2703V45.1702C116.6 45.07 116.5 44.8697 116.5 44.7696C116.2 43.768 115.3 43.067 114.4 43.067C113.2 43.067 112.2 44.2688 112.2 45.5708C112.2 46.9729 113.2 48.0746 114.5 48.0746C115.3 48.1748 116.1 47.4737 116.5 46.372ZM123.8 45.4668L127.5 43.8668C127.1 43.1668 126.5 42.9668 126 42.9668C124.5 43.0668 123.6 44.6668 123.8 45.4668ZM139.1 42.0654C139.1 41.0639 138.3 40.3628 137.2 40.3628H135.2V43.8682H137.3C138.3 43.8682 139.1 43.067 139.1 42.0654Z" fill="black"/>
<path fill-rule="evenodd" clip-rule="evenodd" d="M154.8 51.0784H154.7V50.9784H154.8H154.7V51.0784H154.8Z" fill="white"/>
<path fill-rule="evenodd" clip-rule="evenodd" d="M155.1 50.9784H155H155.1V51.0784V50.9784Z" fill="white"/>
<path d="M79.4 28.8451C79.4 27.0424 80.7 25.9407 82.3 25.9407C83.4 25.9407 84.1 26.4414 84.6 27.1425L83.8 27.6433C83.5 27.2427 83 26.9422 82.3 26.9422C81.2 26.9422 80.4 27.7434 80.4 28.9453C80.4 30.1471 81.2 30.9484 82.3 30.9484C82.9 30.9484 83.4 30.6479 83.6 30.4476V29.5462H82V28.6448H84.7V30.7481C84.2 31.349 83.4 31.7496 82.4 31.7496C80.7 31.7496 79.4 30.5478 79.4 28.8451Z" fill="black"/>
<path d="M85.9 31.6494V26.0408H89.7V26.9422H86.8V28.3444H89.6V29.2457H86.8V30.8482H89.7V31.7496L85.9 31.6494Z" fill="black"/>
<path d="M92.5001 31.6494V26.9422H90.8V26.0408H95.2001V26.9422H93.5001V31.6494H92.5001Z" fill="black"/>
<path d="M98.6 31.6494V26.0408H99.6V31.6494H98.6Z" fill="black"/>
<path d="M102.3 31.6494V26.9422H100.6V26.0408H105V26.9422H103.3V31.6494H102.3Z" fill="black"/>
<path fill-rule="evenodd" clip-rule="evenodd" d="M111.1 25.9407C109.4 25.9407 108.2 27.1425 108.2 28.8451C108.2 30.4476 109.4 31.7496 111.1 31.7496C112.8 31.7496 114 30.5478 114 28.8451C114 27.1425 112.8 25.9407 111.1 25.9407ZM111 26.8407C112.2 26.8407 112.9 27.6419 112.9 28.8438C112.9 29.9455 112.2 30.8469 111 30.8469C109.8 30.8469 109.1 30.0457 109.1 28.8438C109.1 27.7421 109.9 26.8407 111 26.8407Z" fill="black"/>
<path d="M119 31.6494L116.1 27.6433V31.6494H115.1V26.0408H116.1L119 29.9468V26.0408H120V31.6494H119Z" fill="black"/>
<defs>
<filter id="filter0_d" x="0.5" y="0.729614" width="208" height="120.061" filterUnits="userSpaceOnUse" color-interpolation-filters="sRGB">
<feFlood flood-opacity="0" result="BackgroundImageFix"/>
<feColorMatrix in="SourceAlpha" type="matrix" values="0 0 0 0 0 0 0 0 0 0 0 0 0 0 0 0 0 0 127 0"/>
<feOffset dy="22"/>
<feGaussianBlur stdDeviation="20"/>
<feColorMatrix type="matrix" values="0 0 0 0 0 0 0 0 0 0 0 0 0 0 0 0 0 0 0.0744373 0"/>
<feBlend mode="normal" in2="BackgroundImageFix" result="effect1_dropShadow"/>
<feBlend mode="normal" in="SourceGraphic" in2="effect1_dropShadow" result="shape"/>
</filter>
<linearGradient id="paint0_linear" x1="46.0089" y1="28.3087" x2="52.3614" y2="51.125" gradientUnits="userSpaceOnUse">
<stop stop-color="#006884"/>
<stop offset="1" stop-color="#8AD1D0"/>
</linearGradient>
<linearGradient id="paint1_linear" x1="44.5128" y1="34.3928" x2="56.7723" y2="45.8573" gradientUnits="userSpaceOnUse">
<stop stop-color="#24BBB6"/>
<stop offset="1" stop-color="#DBE692"/>
</linearGradient>
<linearGradient id="paint2_linear" x1="72.6119" y1="42.386" x2="72.6119" y2="34.4254" gradientUnits="userSpaceOnUse">
<stop stop-color="#FCC072"/>
<stop offset="1" stop-color="#F58A5B"/>
</linearGradient>
<linearGradient id="paint3_linear" x1="60.9305" y1="56.6555" x2="69.2102" y2="42.2096" gradientUnits="userSpaceOnUse">
<stop stop-color="#712B8F"/>
<stop offset="1" stop-color="#EA1D27"/>
</linearGradient>
</defs>
</svg>
