<svg width="56" height="72" viewBox="0 0 56 72" fill="none" xmlns="http://www.w3.org/2000/svg">
<path d="M28 0L0 17.194C0 17.194 0 52.6567 28 72C56 52.6567 56 17.194 56 17.194L28 0Z" fill="url(#paint0_linear)" fill-opacity="0.06"/>
<path d="M27.9701 0L27.491 0.293915V71.6646C27.6501 71.7767 27.8091 71.8889 27.9701 72C56.0001 52.6567 56.0001 17.194 56.0001 17.194L27.9701 0Z" fill="url(#paint1_linear)" fill-opacity="0.05"/>
<g clip-path="url(#clip0)">
<path d="M27.6934 51.8983C24.9772 51.8983 22.3988 51.5527 20.0248 50.8655C17.6508 50.1824 15.6439 49.2106 14.0626 47.9786L14.071 47.8119L15.2976 47.0556L15.4186 47.0597C16.8372 48.125 18.6438 48.9585 20.78 49.5441C22.9245 50.1296 25.2484 50.4264 27.6934 50.4264C29.6043 50.4264 31.3524 50.1946 32.892 49.7392C34.4274 49.2838 35.7083 48.6495 36.7013 47.8526C37.6901 47.0597 38.4661 46.1245 38.996 45.0795C39.5301 44.0345 39.7971 42.892 39.7971 41.6843C39.7971 40.0823 39.4049 38.6145 38.6289 37.3214C37.8528 36.0284 36.6554 34.9631 35.0699 34.158C33.4803 33.3489 31.5736 32.9423 29.404 32.9423H26.8464C25.7366 32.9423 24.923 32.6983 24.4265 32.2185C23.93 31.7387 23.6797 31.0963 23.6797 30.3115C23.6797 28.5672 25.2443 27.6808 28.3276 27.6808C31.173 27.6808 33.351 28.0386 34.7946 28.7461L34.8029 28.9209L33.5763 29.6935L33.4803 29.7016C32.5082 29.3316 30.7725 29.1486 28.3192 29.1486C27.1301 29.1486 26.329 29.2584 25.9285 29.4699C25.5447 29.6732 25.3611 29.9497 25.3611 30.3115C25.3611 30.6856 25.4612 30.9662 25.6698 31.1695C25.8743 31.3728 26.2665 31.4744 26.8422 31.4744H29.4624C31.365 31.4744 33.109 31.7469 34.6402 32.2876C36.1756 32.8284 37.4564 33.5766 38.4494 34.5118C39.4424 35.447 40.2101 36.5408 40.7358 37.7565C41.2615 38.9763 41.5244 40.2978 41.5244 41.6843C41.5244 42.8147 41.3283 43.9004 40.9486 44.9128C40.5648 45.9253 39.9807 46.8686 39.2088 47.7184C38.4369 48.5641 37.4982 49.3082 36.4134 49.9222C35.3328 50.5362 34.031 51.0241 32.5415 51.3738C31.0562 51.7194 29.4249 51.8983 27.6934 51.8983Z" fill="#FFCC00"/>
<path d="M28.3275 27.7866C31.173 27.7866 33.3134 28.1362 34.7486 28.8397L33.522 29.6122C32.5373 29.2381 30.8017 29.0511 28.3233 29.0511C27.1134 29.0511 26.2998 29.1609 25.8826 29.3845C25.4654 29.6082 25.2609 29.9172 25.2609 30.3157C25.2609 30.7141 25.3736 31.0232 25.5989 31.2468C25.8242 31.4704 26.2414 31.5802 26.8464 31.5802H29.4665C31.3691 31.5802 33.0839 31.8486 34.6109 32.3894C36.138 32.9301 37.398 33.662 38.3827 34.5932C39.3673 35.5243 40.1225 36.5937 40.644 37.8054C41.1656 39.0171 41.4242 40.3141 41.4242 41.6925C41.4242 42.8148 41.2323 43.8801 40.8526 44.8885C40.473 45.8968 39.8972 46.8198 39.1295 47.6615C38.3618 48.5032 37.4397 49.231 36.3633 49.8491C35.2868 50.463 34.006 50.9428 32.5165 51.2885C31.0311 51.6341 29.4207 51.8049 27.6892 51.8049C24.9689 51.8049 22.4238 51.4633 20.0498 50.7761C17.6758 50.089 15.7023 49.1334 14.1252 47.9055L15.3518 47.1492C16.7871 48.2267 18.5895 49.0603 20.7507 49.6498C22.9119 50.2394 25.2275 50.5362 27.6892 50.5362C29.6167 50.5362 31.3608 50.3045 32.917 49.845C34.4733 49.3815 35.7541 48.7472 36.7638 47.9421C37.7693 47.1329 38.5454 46.1977 39.0878 45.1324C39.6302 44.0671 39.9014 42.9205 39.9014 41.6925C39.9014 40.0661 39.505 38.5942 38.7164 37.2768C37.9279 35.9594 36.7263 34.8941 35.1158 34.0727C33.5011 33.2554 31.5986 32.8448 29.3998 32.8448H26.8422C25.7574 32.8448 24.9772 32.613 24.4974 32.1535C24.0176 31.69 23.7798 31.0801 23.7798 30.3197C23.7839 28.6282 25.2985 27.7866 28.3275 27.7866ZM28.3275 27.5833C26.7838 27.5833 25.603 27.8028 24.8187 28.242C23.9967 28.7014 23.5795 29.3967 23.5795 30.3157C23.5795 31.1289 23.8423 31.7957 24.3597 32.2958C24.8771 32.796 25.7157 33.0481 26.8505 33.0481H29.4081C31.561 33.0481 33.4511 33.4547 35.024 34.2557C36.5928 35.0526 37.7777 36.1057 38.5412 37.3825C39.3089 38.6592 39.6969 40.1108 39.6969 41.6925C39.6969 42.8839 39.4299 44.0102 38.9042 45.043C38.3785 46.0758 37.615 46.9988 36.6345 47.7835C35.654 48.5683 34.3856 49.1985 32.8628 49.6498C31.3357 50.1052 29.5959 50.3329 27.6933 50.3329C25.2567 50.3329 22.9411 50.0361 20.8091 49.4547C18.6813 48.8732 16.8914 48.0437 15.4812 46.9866L15.2433 46.9744L14.0209 47.7266L14 48.0559C15.5896 49.2961 17.609 50.2719 19.9955 50.9632C22.3779 51.6503 24.9689 52 27.6933 52C29.4332 52 31.0729 51.8252 32.5665 51.4755C34.0685 51.1258 35.3786 50.6338 36.4676 50.0158C37.5566 49.3937 38.5078 48.6455 39.288 47.7916C40.0682 46.9337 40.6607 45.9782 41.0487 44.9535C41.4367 43.9289 41.6328 42.831 41.6328 41.6885C41.6328 40.2857 41.3658 38.952 40.8359 37.724C40.3061 36.492 39.53 35.3901 38.5287 34.4468C37.5273 33.4994 36.2339 32.7431 34.6819 32.1982C33.1381 31.6534 31.3816 31.3769 29.4665 31.3769H26.8464C26.3082 31.3769 25.9285 31.2834 25.7491 31.1045C25.5613 30.9215 25.4737 30.6613 25.4737 30.3157C25.4737 29.9944 25.6406 29.7505 25.9869 29.5634C26.3707 29.3601 27.1551 29.2544 28.3275 29.2544C30.7683 29.2544 32.4914 29.4374 33.4469 29.8033L33.6346 29.783L34.8613 29.0104L34.8404 28.6567C33.3843 27.9451 31.1897 27.5833 28.3275 27.5833Z" fill="#F7F9FE"/>
<path d="M27.6934 44.3151C24.8313 44.3151 22.645 43.9573 21.2014 43.2498L21.193 43.0749L22.4197 42.3024L22.5157 42.2942C23.4836 42.6642 25.2276 42.8472 27.6976 42.8472C28.8867 42.8472 29.6878 42.7374 30.0883 42.526C30.4721 42.3227 30.6557 42.0462 30.6557 41.6843C30.6557 41.3224 30.5514 41.0459 30.3386 40.8345C30.1258 40.6271 29.7211 40.5214 29.1328 40.5214H26.8506C24.9022 40.5214 23.1206 40.2531 21.5477 39.7245C19.9706 39.1959 18.6563 38.4559 17.6425 37.5247C16.6286 36.5936 15.8442 35.5039 15.306 34.28C14.7678 33.0561 14.4966 31.7224 14.4966 30.3074C14.4966 29.1771 14.6927 28.0914 15.0724 27.079C15.4562 26.0665 16.0403 25.1191 16.8122 24.2734C17.584 23.4276 18.5228 22.6836 19.6034 22.0696C20.684 21.4556 21.9858 20.9677 23.4753 20.618C24.9648 20.2724 26.5961 20.0975 28.3276 20.0975C31.0437 20.0975 33.618 20.4432 35.9837 21.1303C38.3535 21.8175 40.3562 22.7893 41.9333 24.0172L41.925 24.1839L40.6983 24.9402L40.5773 24.9362C39.1588 23.8709 37.3564 23.0373 35.2243 22.4518C33.0881 21.8663 30.7684 21.5695 28.3234 21.5695C26.4125 21.5695 24.6644 21.8012 23.1248 22.2566C21.5894 22.712 20.3085 23.3463 19.3155 24.1433C18.3225 24.9362 17.5507 25.8714 17.0166 26.9163C16.4826 27.9613 16.2156 29.1039 16.2156 30.3115C16.2156 31.9379 16.6161 33.418 17.4046 34.7191C18.1932 36.0162 19.4157 37.0775 21.0387 37.8663C22.6617 38.6551 24.6185 39.0576 26.8423 39.0576H29.1662C30.2719 39.0576 31.0855 39.3057 31.5861 39.7895C32.0826 40.2775 32.333 40.9158 32.333 41.6884C32.3413 43.4287 30.7767 44.3151 27.6934 44.3151Z" fill="white"/>
<path d="M28.3276 20.2033C31.0437 20.2033 33.5888 20.5449 35.9544 21.232C38.3201 21.9151 40.2936 22.8747 41.8707 24.1027L40.6441 24.859C39.2088 23.7814 37.4106 22.9479 35.2577 22.3583C33.1006 21.7687 30.7934 21.4719 28.3276 21.4719C26.3958 21.4719 24.656 21.7037 23.0997 22.1632C21.5435 22.6267 20.2626 23.261 19.2529 24.0661C18.2474 24.8752 17.4714 25.8104 16.929 26.8757C16.3866 27.941 16.1154 29.0877 16.1154 30.3156C16.1154 31.9665 16.5159 33.4506 17.3212 34.772C18.1222 36.0935 19.3489 37.1548 20.9969 37.9558C22.645 38.7568 24.5976 39.1593 26.8506 39.1593H29.1745C30.2593 39.1593 31.0395 39.3952 31.5193 39.8628C31.9992 40.3304 32.237 40.9403 32.237 41.6884C32.237 43.3718 30.7224 44.2175 27.6934 44.2175C24.8354 44.2175 22.6867 43.8679 21.2514 43.1644L22.4781 42.3919C23.4627 42.7659 25.2025 42.953 27.6976 42.953C28.9075 42.953 29.7211 42.8432 30.1383 42.6196C30.5555 42.3959 30.76 42.0869 30.76 41.6884C30.76 41.3022 30.6432 40.9972 30.4095 40.7654C30.1759 40.5377 29.7503 40.4239 29.1328 40.4239H26.8506C24.9063 40.4239 23.1498 40.1596 21.581 39.6351C20.0081 39.1065 18.7189 38.3787 17.7133 37.4557C16.7078 36.5327 15.936 35.4592 15.3977 34.2435C14.8637 33.0277 14.5967 31.7144 14.5967 30.3116C14.5967 29.1893 14.7844 28.124 15.1683 27.1156C15.5479 26.1072 16.1237 25.1842 16.8914 24.3426C17.6591 23.5009 18.5812 22.7731 19.6576 22.1591C20.7341 21.5451 22.0149 21.0653 23.5044 20.7197C24.9856 20.3781 26.5961 20.2033 28.3276 20.2033ZM28.3276 20C26.5877 20 24.948 20.1748 23.4502 20.5245C21.9524 20.8742 20.6381 21.3662 19.5491 21.9842C18.456 22.6064 17.5089 23.3545 16.7329 24.2084C15.9527 25.0663 15.3602 26.0219 14.9722 27.0465C14.5842 28.0712 14.3881 29.169 14.3881 30.3116C14.3881 31.7388 14.6634 33.0887 15.2058 34.3248C15.7482 35.5609 16.5451 36.6668 17.5673 37.6061C18.5895 38.5454 19.9163 39.2935 21.5101 39.8262C23.0956 40.3588 24.8896 40.6272 26.8506 40.6272H29.1328C29.6835 40.6272 30.0757 40.7248 30.2635 40.9078C30.4554 41.0989 30.5514 41.351 30.5514 41.6844C30.5514 42.0056 30.3845 42.2496 30.0382 42.4366C29.6543 42.6399 28.87 42.7456 27.6976 42.7456C25.2401 42.7456 23.5086 42.5626 22.5532 42.1967L22.3654 42.217L21.1388 42.9896L21.1596 43.3433C21.8939 43.7011 22.816 43.9736 23.905 44.1525C24.9856 44.3273 26.2581 44.4168 27.6934 44.4168C29.2371 44.4168 30.4179 44.1972 31.2022 43.7581C32.0242 43.2986 32.4414 42.6033 32.4414 41.6844C32.4414 40.8834 32.1786 40.2206 31.6612 39.7164C31.1438 39.2122 30.3052 38.956 29.1704 38.956H26.8464C24.6351 38.956 22.6992 38.5576 21.0887 37.7769C19.4866 36.9962 18.2766 35.9512 17.5006 34.6704C16.7204 33.3855 16.324 31.9217 16.324 30.3156C16.324 29.1243 16.591 27.998 17.1167 26.9652C17.6424 25.9324 18.4059 25.0094 19.3864 24.2247C20.3669 23.4358 21.6353 22.8056 23.1581 22.3543C24.6894 21.8989 26.425 21.6712 28.3276 21.6712C30.76 21.6712 33.0714 21.968 35.1993 22.5494C37.3188 23.1309 39.1045 23.9604 40.5147 25.0175L40.7525 25.0297L41.9792 24.2734L41.9959 23.9441C40.4062 22.7039 38.391 21.7281 36.0087 21.0368C33.6388 20.3497 31.052 20 28.3276 20Z" fill="#F7F9FE"/>
<g opacity="0.75">
<path opacity="0.75" d="M27.6934 49.3692C25.4404 49.3692 23.3084 49.109 21.3474 48.5926C19.3865 48.0762 17.7342 47.3403 16.4325 46.401L16.4367 46.2343L17.6216 45.4455H17.7384C18.8774 46.218 20.3336 46.8279 22.065 47.2549C23.8007 47.6818 25.6949 47.9014 27.6892 47.9014C30.6223 47.9014 32.892 47.3118 34.4399 46.1489C35.9753 44.9941 36.7556 43.4897 36.7556 41.6844C36.7556 39.8953 36.1005 38.399 34.8155 37.232C33.5262 36.061 31.6487 35.4673 29.2371 35.4673H26.8506C24.777 35.4673 23.1957 34.9875 22.1527 34.0361C21.1096 33.0846 20.5797 31.8323 20.5797 30.3115C20.5797 28.7868 21.2348 27.5303 22.5323 26.5789C23.8216 25.6356 25.77 25.1558 28.3318 25.1558C30.1175 25.1558 31.8031 25.3306 33.3385 25.6762C34.878 26.0218 36.1714 26.526 37.1769 27.1725V27.3433L35.9712 28.1159L35.8627 28.1199C34.127 27.1278 31.5903 26.6236 28.3318 26.6236C26.2373 26.6236 24.6894 26.9692 23.7339 27.6483C22.7868 28.3192 22.307 29.2178 22.307 30.3115C22.307 31.4256 22.6617 32.3283 23.3626 32.9952C24.0635 33.662 25.236 34.0035 26.8506 34.0035H29.258C32.1285 34.0035 34.4107 34.7436 36.0337 36.2073C37.6609 37.6711 38.487 39.5171 38.487 41.6884C38.487 43.9004 37.5274 45.7545 35.6374 47.202C33.7557 48.6373 31.0813 49.3692 27.6934 49.3692Z" fill="#FDEAB2"/>
<path opacity="0.75" d="M28.3276 25.2574C30.1175 25.2574 31.778 25.4322 33.3134 25.7738C34.8488 26.1194 36.1172 26.6154 37.1185 27.2579L35.9127 28.0304C34.152 27.0221 31.6236 26.5219 28.3276 26.5219C26.1997 26.5219 24.6476 26.8716 23.6671 27.5669C22.6867 28.2622 22.1985 29.1771 22.1985 30.3115C22.1985 31.4581 22.5615 32.3771 23.2875 33.0683C24.0134 33.7595 25.1984 34.1052 26.8464 34.1052H29.2538C32.1118 34.1052 34.3481 34.8289 35.9628 36.2805C37.5774 37.7321 38.3827 39.5334 38.3827 41.6843C38.3827 43.8719 37.4439 45.6813 35.5748 47.1166C33.7014 48.5519 31.0729 49.2675 27.6934 49.2675C25.4404 49.2675 23.3334 49.0114 21.3766 48.495C19.4198 47.9786 17.7926 47.2548 16.495 46.3196L17.68 45.5308C18.8357 46.3156 20.2876 46.9255 22.0441 47.3565C23.7965 47.7916 25.6823 48.0071 27.6975 48.0071C30.6682 48.0071 32.9379 47.4175 34.5108 46.2343C36.0838 45.051 36.864 43.5344 36.864 41.6843C36.864 39.8587 36.2048 38.3501 34.8905 37.1547C33.5763 35.9593 31.6904 35.3656 29.2371 35.3656H26.8506C24.7937 35.3656 23.2499 34.898 22.2235 33.9628C21.1972 33.0276 20.6798 31.8119 20.6798 30.3115C20.6798 28.8152 21.3182 27.5994 22.5907 26.6602C23.8674 25.725 25.7783 25.2574 28.3276 25.2574ZM28.3276 25.0541C27.0425 25.0541 25.8993 25.1761 24.9313 25.4119C23.9509 25.6518 23.1248 26.0177 22.4655 26.5016C21.1429 27.4734 20.4712 28.7583 20.4712 30.3156C20.4712 31.8648 21.0136 33.1415 22.0775 34.1133C22.6116 34.6012 23.2875 34.9712 24.0844 35.2111C24.8729 35.451 25.7992 35.573 26.8464 35.573H29.2329C31.6153 35.573 33.4719 36.1585 34.7403 37.3092C36.0087 38.4559 36.647 39.9318 36.647 41.6884C36.647 43.4612 35.8835 44.9372 34.3732 46.0716C32.8461 47.2182 30.5973 47.8038 27.6892 47.8038C25.699 47.8038 23.8173 47.5883 22.09 47.1613C20.3711 46.7384 18.9233 46.1326 17.7968 45.3682H17.559L16.3782 46.1529L16.3699 46.4823C17.68 47.4297 19.3447 48.1738 21.3182 48.6902C23.2833 49.2066 25.4278 49.4708 27.6892 49.4708C29.3915 49.4708 30.9227 49.2879 32.2495 48.926C33.5846 48.5641 34.7445 48.0071 35.6958 47.2792C36.6512 46.5473 37.3814 45.7057 37.8612 44.7786C38.341 43.8475 38.5871 42.8106 38.5871 41.6884C38.5871 40.5905 38.3785 39.5659 37.9655 38.6429C37.5524 37.7199 36.9266 36.8782 36.1005 36.1341C35.2744 35.3941 34.2814 34.8289 33.1382 34.4589C32.0033 34.0889 30.6974 33.9059 29.2496 33.9059H26.8422C25.2568 33.9059 24.1094 33.5766 23.4293 32.9301C22.7493 32.2836 22.403 31.4053 22.403 30.3196C22.403 29.2421 22.8536 28.4005 23.784 27.7377C24.7227 27.0708 26.2498 26.7334 28.3192 26.7334C31.5611 26.7334 34.0769 27.2335 35.8001 28.2134L36.0212 28.2094L37.227 27.4368V27.0993C36.2089 26.4447 34.9072 25.9364 33.3551 25.5867C31.8156 25.2289 30.1216 25.0541 28.3276 25.0541Z" fill="#F7F9FE"/>
</g>
<g opacity="0.25">
<path opacity="0.75" d="M27.6933 46.8402C25.9034 46.8402 24.2136 46.6653 22.674 46.3197C21.1261 45.9741 19.8327 45.4699 18.8272 44.8234V44.6526L20.033 43.8801L20.1415 43.876C21.8771 44.8681 24.418 45.3723 27.6933 45.3723C29.7877 45.3723 31.3356 45.0267 32.2911 44.3477C33.2382 43.6727 33.718 42.7782 33.718 41.6844C33.718 40.5825 33.3592 39.6839 32.6499 39.0089C31.9406 38.3339 30.764 37.9924 29.1535 37.9924H26.8505C23.9507 37.9924 21.6477 37.2605 20.008 35.817C18.3641 34.3695 17.5338 32.5195 17.5338 30.3116C17.5338 28.0996 18.4934 26.2455 20.3835 24.798C22.2652 23.3586 24.9396 22.6267 28.3274 22.6267C30.5763 22.6267 32.7083 22.8869 34.6609 23.4033C36.6135 23.9197 38.2657 24.6557 39.5675 25.5949L39.5633 25.7617L38.3784 26.5505H38.2616C37.1225 25.7779 35.6706 25.168 33.9433 24.7411C32.2118 24.3141 30.3218 24.0946 28.3274 24.0946C25.3943 24.0946 23.1205 24.6841 21.5767 25.847C20.0413 27.0018 19.2611 28.5063 19.2611 30.3116C19.2611 32.1088 19.9162 33.6132 21.2137 34.7721C22.5113 35.935 24.4055 36.5286 26.8463 36.5286H29.1702C31.2438 36.5286 32.8251 37.0165 33.8682 37.9802C34.9113 38.9439 35.4453 40.1921 35.4453 41.6885C35.4453 43.2132 34.7861 44.4697 33.4927 45.4211C32.2035 46.3644 30.255 46.8402 27.6933 46.8402Z" fill="#F7F9FE"/>
<path opacity="0.75" d="M28.3275 22.7325C30.5805 22.7325 32.6833 22.9886 34.6318 23.505C36.5802 24.0214 38.2074 24.7452 39.5008 25.6804L38.3159 26.4692C37.1602 25.6844 35.7082 25.0786 33.9642 24.6435C32.216 24.2125 30.3385 23.993 28.3233 23.993C25.3527 23.993 23.0788 24.5825 21.51 25.7658C19.9413 26.949 19.1527 28.4616 19.1527 30.3116C19.1527 32.1495 19.8161 33.6621 21.1387 34.8494C22.4696 36.0367 24.368 36.6303 26.8463 36.6303H29.1703C31.2272 36.6303 32.7668 37.106 33.7973 38.0534C34.8237 39.0008 35.3411 40.2125 35.3411 41.6844C35.3411 43.1808 34.7027 44.4006 33.4302 45.3358C32.1535 46.271 30.2426 46.7386 27.6933 46.7386C25.9034 46.7386 24.2387 46.5678 22.695 46.2222C21.1512 45.8766 19.8829 45.3846 18.8815 44.7381L20.0873 43.9655C21.848 44.9739 24.3847 45.474 27.6933 45.474C29.8212 45.474 31.3732 45.1284 32.3495 44.429C33.33 43.7337 33.8182 42.8189 33.8182 41.6804C33.8182 40.5459 33.451 39.6311 32.7209 38.9358C31.9866 38.2405 30.7975 37.8908 29.1494 37.8908H26.8463C23.9591 37.8908 21.702 37.1752 20.0748 35.7398C18.4476 34.3045 17.634 32.4951 17.634 30.3076C17.634 28.12 18.5686 26.3106 20.4419 24.8753C22.3194 23.4481 24.948 22.7325 28.3275 22.7325ZM28.3275 22.5292C26.6252 22.5292 25.0898 22.7121 23.7672 23.074C22.4321 23.4359 21.2722 23.993 20.3209 24.7208C19.3655 25.4527 18.6353 26.2944 18.1555 27.2214C17.6757 28.1526 17.4296 29.1894 17.4296 30.3116C17.4296 31.4298 17.6424 32.4667 18.0554 33.3937C18.4726 34.3208 19.1068 35.1625 19.9371 35.8944C20.7674 36.6263 21.7729 37.1833 22.9244 37.5493C24.0676 37.9111 25.3902 38.0982 26.8463 38.0982H29.1494C30.7307 38.0982 31.8864 38.4316 32.5748 39.0862C33.2633 39.7409 33.6096 40.6151 33.6096 41.6885C33.6096 42.766 33.159 43.6077 32.2286 44.2705C31.2898 44.9373 29.7669 45.2748 27.6933 45.2748C24.4348 45.2748 21.9106 44.7747 20.1916 43.7947L19.9705 43.7988L18.7647 44.5714V44.9088C19.7827 45.5635 21.0886 46.0717 22.6449 46.4214C24.1928 46.767 25.8909 46.9459 27.6891 46.9459C28.9742 46.9459 30.1174 46.824 31.0854 46.5881C32.0658 46.3482 32.8919 45.9823 33.5512 45.4984C34.8738 44.5266 35.5455 43.2418 35.5455 41.6844C35.5455 40.1597 35.0031 38.887 33.9392 37.903C33.4051 37.411 32.7292 37.0369 31.9323 36.7889C31.1438 36.5449 30.2175 36.4229 29.1703 36.4229H26.8463C24.4306 36.4229 22.5614 35.8415 21.2847 34.6949C20.0122 33.5523 19.3655 32.0763 19.3655 30.3076C19.3655 28.5348 20.129 27.0588 21.6394 25.9243C23.1664 24.7777 25.4153 24.1922 28.3233 24.1922C30.3093 24.1922 32.191 24.4077 33.9141 24.8346C35.6289 25.2616 37.0684 25.8634 38.199 26.6278H38.4369L39.6218 25.839L39.6301 25.5096C38.32 24.5622 36.6553 23.8181 34.6902 23.3017C32.7251 22.7894 30.5847 22.5292 28.3275 22.5292Z" fill="#F7F9FE"/>
</g>
</g>
<defs>
<linearGradient id="paint0_linear" x1="28" y1="0" x2="28" y2="72" gradientUnits="userSpaceOnUse">
<stop stop-color="white"/>
<stop offset="1" stop-color="white"/>
</linearGradient>
<linearGradient id="paint1_linear" x1="39.7917" y1="7.33208" x2="41.7343" y2="72.0003" gradientUnits="userSpaceOnUse">
<stop stop-color="white"/>
<stop offset="1" stop-color="white"/>
</linearGradient>
<clipPath id="clip0">
<rect width="28" height="32" fill="white" transform="translate(14 20)"/>
</clipPath>
</defs>
</svg>
