<svg width="347" height="253" viewBox="0 0 347 253" fill="none" xmlns="http://www.w3.org/2000/svg">
<path d="M176.54 213.509C176.428 212.337 176.41 211.006 176.391 209.552C176.391 208.812 176.391 208.043 176.391 207.246C176.373 205.134 176.214 203.026 175.917 200.935C175.084 194.712 171.906 189.051 167.043 185.127C165.63 183.973 164.737 182.895 163.853 182.314C157.845 178.375 151.762 176.688 146.897 175.309C145.595 174.953 144.311 174.559 143.046 174.165C140.182 173.228 137.466 172.29 134.964 171.418C133.029 170.724 131.243 170.077 129.625 169.543C127.656 168.794 125.623 168.232 123.551 167.864C121.456 167.58 119.413 166.989 117.487 166.111C115.473 165.223 113.765 163.755 112.576 161.892C110.613 158.741 110.715 155.159 110.427 152.937C110.343 152.187 110.678 141.929 110.911 136.369C110.994 134.381 111.069 132.993 111.097 132.853C111.692 129.505 117.803 127.817 120.24 122.276C120.342 122.032 120.444 121.788 120.537 121.535C121.496 118.664 122.12 115.691 122.398 112.674C122.477 111.319 122.367 109.958 122.072 108.633C121.729 107.107 121.097 105.662 120.212 104.376C119.977 104.086 119.816 103.741 119.745 103.373C119.673 103.005 119.693 102.625 119.803 102.266C120.453 99.9584 120.766 97.5674 120.733 95.1684C120.733 94.7465 120.733 94.3245 120.733 93.912C120.733 93.1712 120.668 92.4492 120.602 91.7366C119.951 84.8824 117.04 79.369 114.231 75.1027C112.585 72.6086 110.976 70.5363 109.878 68.8767C107.683 66.0638 104.976 65.0792 102.437 62.857C98.8004 59.7065 96.2612 59.3033 94.773 59.1064C94.4103 59.1064 94.1126 59.0408 93.8429 58.9845V58.9282C93.7964 58.8532 93.7592 58.7782 93.722 58.7032C92.4897 58.5012 91.2479 58.3635 90.0015 58.2906C89.1551 58.2344 88.2529 58.1969 87.2948 58.1875C85.909 58.0562 84.644 57.9625 83.8534 57.9625C82.1978 57.9625 78.4401 58.3563 75.9288 58.6376L73.7244 58.9095L73.4732 58.9939C73.2965 58.9939 73.1291 59.1064 72.9524 59.1627C71.6691 59.5659 70.424 60.0836 69.2319 60.7098C68.1515 61.2616 67.1104 61.8882 66.116 62.5851C63.3142 64.5906 60.8089 66.9867 58.675 69.7018C55.8052 73.2337 53.6501 77.2985 52.3316 81.6663C52.0334 82.7062 51.8219 83.7695 51.6991 84.8449V85.0699C51.1317 91.0615 50.0528 89.1299 50.4248 100.419C50.4806 102.145 50.5643 104.17 50.6946 106.58C50.7876 111.352 49.6249 110.33 48.9552 113.725C47.6717 118.957 54.1174 128.727 56.5915 131.54C56.7672 131.752 56.9567 131.953 57.1589 132.14C59.3231 133.853 61.2832 135.814 63.0001 137.982C66.7206 142.942 65.7904 146.57 65.6602 152.393C65.6602 153.2 65.6602 154.053 65.6602 154.962C65.7784 156.027 65.8002 157.1 65.7253 158.169C65.5054 161.752 63.9936 165.13 61.4747 167.668C60.2897 168.878 58.9658 169.942 57.531 170.837C51.8851 174.4 44.286 176.116 37.7938 176.941C33.3696 177.491 28.913 177.732 24.4558 177.663C21.1711 178.083 18.0434 179.328 15.3593 181.282C13.4717 182.601 11.7371 184.13 10.1878 185.839C8.31199 187.896 6.66516 190.153 5.27674 192.571C4.39353 194.109 3.62559 195.71 2.97934 197.363C2.42463 198.809 1.9891 200.299 1.67717 201.817C1.11595 205.364 0.77733 208.944 0.663338 212.534C0.495916 216.285 0.719147 224.583 0.719147 224.583L1.08189 228.587L1.24001 233.059V239.688L1.34233 245.249L1.05399 250.528L1.98411 254.972H173.052C173.052 254.531 173.052 254.1 173.052 253.659C173.136 251.784 173.266 249.993 173.461 248.193C173.582 247.021 173.759 245.727 173.954 244.33C174.224 242.454 174.54 240.42 174.884 238.226C176.221 230.059 176.775 221.782 176.54 213.509Z" fill="url(#paint0_linear)"/>
<path d="M214.061 208.915C213.931 207.639 213.912 206.186 213.903 204.592C213.903 203.786 213.903 202.942 213.903 202.07C213.887 199.763 213.713 197.461 213.382 195.178C212.485 188.378 209.012 182.192 203.69 177.916C202.156 176.641 201.179 175.469 200.202 174.831C193.692 170.527 187.023 168.652 181.684 167.18C180.251 166.786 178.893 166.364 177.48 165.933C174.345 164.948 171.369 163.898 168.643 162.923C166.523 162.173 164.569 161.46 162.802 160.86C160.653 160.041 158.437 159.413 156.18 158.985C153.886 158.711 151.648 158.079 149.548 157.109C147.352 156.136 145.486 154.535 144.181 152.506C142.042 149.064 142.126 145.145 141.828 142.717C141.726 141.901 142.107 130.687 142.367 124.611C142.451 122.445 142.535 120.926 142.572 120.776C143.214 117.109 149.901 115.272 152.552 109.224C152.664 108.961 152.776 108.689 152.878 108.408C153.912 105.271 154.583 102.024 154.878 98.7314C154.958 97.2464 154.836 95.7573 154.515 94.3057C154.134 92.6214 153.429 91.0286 152.441 89.6175C152.19 89.2961 152.023 88.9173 151.953 88.5148C151.883 88.1124 151.913 87.6987 152.041 87.3108C152.719 84.7846 153.033 82.1729 152.971 79.5565C152.971 79.0876 152.971 78.6188 152.971 78.1781C152.971 77.3717 152.906 76.5841 152.831 75.8059C152.115 68.3047 148.943 62.2943 145.874 57.6342C144.079 54.9057 142.321 52.6459 141.121 50.8269C138.721 47.7983 135.773 46.6637 133.029 44.2633C129.076 40.794 126.276 40.3815 124.658 40.2033C124.267 40.1564 123.942 40.1283 123.728 40.072C123.723 40.0504 123.723 40.028 123.728 40.0064C123.676 39.9284 123.629 39.847 123.588 39.7626C122.248 39.542 120.898 39.3918 119.542 39.3125C118.612 39.2469 117.682 39.2094 116.584 39.2094C115.068 39.0594 113.692 38.9562 112.864 38.9562C111.06 38.9562 106.948 39.3782 104.214 39.697L101.796 39.9877L101.526 40.0814L100.949 40.2596C99.5589 40.7024 98.211 41.2704 96.9217 41.9567C95.7424 42.5736 94.6051 43.269 93.5175 44.0383C90.4612 46.2309 87.7276 48.8478 85.3975 51.8114C82.2589 55.669 79.9015 60.1098 78.4588 64.8823C78.1405 66.0216 77.9134 67.1849 77.7798 68.3609C77.7798 68.4359 77.7798 68.5203 77.7798 68.6047C77.166 75.1683 75.9847 73.0398 76.3847 85.3699C76.4498 87.2452 76.5428 89.4674 76.6823 92.1116C76.7846 97.3156 75.5196 96.1622 74.7755 99.9128C73.3804 105.633 80.4214 116.34 83.1466 119.425C83.3409 119.657 83.549 119.876 83.7698 120.082C86.1338 121.951 88.275 124.091 90.1504 126.458C94.2337 131.887 93.2385 135.834 93.0524 142.21C93.0524 143.092 93.0524 144.02 93.0524 145.023C93.1783 146.188 93.2032 147.361 93.1268 148.53C92.8822 152.445 91.2285 156.136 88.4762 158.91C87.1797 160.232 85.7308 161.394 84.1605 162.37C77.9938 166.261 69.6878 168.136 62.591 169.036C57.7595 169.638 52.8929 169.904 48.0253 169.833C44.3873 170.276 40.9209 171.644 37.952 173.809C35.8935 175.253 34 176.923 32.3062 178.788C30.2573 181.032 28.4605 183.497 26.9487 186.139C25.962 187.805 25.1037 189.545 24.3816 191.343C23.7747 192.89 23.2895 194.483 22.9306 196.106C22.3162 199.983 21.9465 203.894 21.8237 207.818C21.6377 211.906 21.8889 220.945 21.8889 220.945L22.2795 225.324L22.4562 230.218V237.447L22.5585 243.533L22.2516 249.299L23.3026 254.147H210.257C210.257 253.678 210.257 253.209 210.257 252.722C210.35 250.715 210.499 248.721 210.703 246.739C210.843 245.464 211.029 244.048 211.252 242.52C211.541 240.485 211.885 238.254 212.238 235.853C213.354 228.249 214.508 218.872 214.061 208.915Z" fill="url(#paint1_linear)" stroke="white" stroke-width="0.33" stroke-miterlimit="10"/>
<path d="M251.554 204.32C251.415 202.942 251.396 201.357 251.377 199.632C251.377 198.76 251.377 197.841 251.377 196.903C251.363 194.393 251.176 191.887 250.819 189.402C249.849 182.015 246.079 175.294 240.3 170.649C238.635 169.271 237.574 167.996 236.523 167.302C229.399 162.613 222.218 160.598 216.433 159.004C214.88 158.582 213.363 158.122 211.866 157.653C208.462 156.584 205.234 155.45 202.286 154.39C199.988 153.575 197.858 152.806 195.952 152.149C193.618 151.273 191.212 150.608 188.762 150.161C186.274 149.846 183.849 149.147 181.572 148.089C179.189 147.027 177.165 145.287 175.749 143.082C173.424 139.332 173.526 135.103 173.201 132.468C173.089 131.577 173.498 119.425 173.777 112.834C173.88 110.48 173.963 108.83 174.001 108.67C174.698 104.695 181.953 102.707 184.827 96.1341C184.96 95.8499 185.078 95.5588 185.181 95.2621C186.31 91.8562 187.037 88.3283 187.348 84.751C187.442 83.1433 187.311 81.5302 186.957 79.9596C186.539 78.1497 185.774 76.4393 184.706 74.9245C184.438 74.5738 184.259 74.1625 184.185 73.7262C184.11 73.2899 184.142 72.8418 184.279 72.4209C185.028 69.673 185.385 66.8315 185.339 63.9821C185.339 63.4758 185.339 62.9788 185.339 62.4818C185.339 61.6098 185.264 60.7566 185.19 59.9127C184.409 51.7926 180.958 45.2572 177.637 40.222C175.61 37.3153 173.75 34.8587 172.438 32.8802C169.834 29.5891 166.634 28.3608 163.658 25.7447C159.37 21.9941 156.328 21.5347 154.561 21.3378C154.143 21.2909 153.789 21.2534 153.51 21.1971C153.513 21.1753 153.513 21.1533 153.51 21.1315C153.455 21.044 153.405 20.9532 153.361 20.8596C152.087 20.6533 150.627 20.4751 148.971 20.372C147.967 20.3063 146.906 20.2595 145.762 20.2595C144.125 20.1001 142.628 19.9875 141.688 19.9875C139.726 19.9875 135.28 20.447 132.303 20.7939C131.104 20.9252 130.145 21.0471 129.69 21.1034C129.593 21.1433 129.493 21.1778 129.392 21.2065C129.178 21.2628 128.974 21.3378 128.769 21.4034C127.257 21.8971 125.791 22.5247 124.388 23.2787C123.1 23.9491 121.857 24.7039 120.668 25.5384C117.354 27.9179 114.391 30.7591 111.869 33.9773C108.464 38.1609 105.907 42.9778 104.344 48.1546C103.993 49.3819 103.745 50.6364 103.6 51.9052C103.6 51.9989 103.6 52.0833 103.6 52.1677C102.921 59.2657 101.647 56.9872 102.074 70.3581C102.149 72.4022 102.251 74.8119 102.409 77.6718C102.512 83.2977 101.135 82.06 100.335 86.1106C98.819 92.3085 106.455 103.926 109.385 107.273C109.598 107.524 109.825 107.761 110.064 107.986C112.629 110.015 114.951 112.337 116.984 114.906C121.412 120.785 120.342 125.089 120.137 131.98C120.137 132.918 120.137 133.959 120.137 135.028C120.271 136.292 120.299 137.566 120.221 138.835C119.948 143.083 118.145 147.084 115.152 150.086C113.757 151.521 112.196 152.781 110.501 153.837C103.814 158.057 94.8009 160.091 87.1088 161.066C81.8639 161.719 76.5808 162.007 71.2967 161.929C67.4035 162.423 63.6962 163.896 60.5166 166.214C58.2798 167.782 56.2238 169.596 54.3871 171.624C52.1628 174.056 50.2131 176.729 48.5738 179.594C47.5208 181.416 46.6066 183.315 45.8393 185.276C45.1807 186.951 44.6551 188.675 44.2674 190.434C43.6006 194.642 43.1998 198.889 43.0675 203.148C42.8722 207.574 43.1326 217.419 43.1326 217.419L43.5605 222.164L43.7465 227.471V235.319L43.8674 241.882L43.5233 248.137L44.6766 253.397H247.443C247.443 252.881 247.443 252.365 247.49 251.85C247.583 249.662 247.744 247.499 247.973 245.361C248.113 243.973 248.327 242.436 248.559 240.785C248.875 238.582 249.247 236.153 249.629 233.547C250.791 225.295 252.038 215.131 251.554 204.32Z" fill="url(#paint2_linear)" stroke="white" stroke-width="0.67" stroke-miterlimit="10"/>
<path d="M289.085 199.782C288.936 198.282 288.908 196.585 288.889 194.719C288.889 193.781 288.889 192.787 288.889 191.774C288.863 189.076 288.658 186.382 288.276 183.711C287.216 175.761 283.154 168.53 276.937 163.523C275.142 162.042 273.998 160.663 272.863 159.913C265.19 154.887 257.451 152.684 251.201 150.977C249.536 150.518 247.89 150.04 246.281 149.505C242.616 148.352 239.137 147.133 235.956 145.998C233.482 145.117 231.185 144.282 229.129 143.579C226.616 142.619 224.019 141.901 221.372 141.432C218.692 141.072 216.079 140.32 213.615 139.2C211.049 138.057 208.87 136.183 207.346 133.809C204.844 129.786 204.974 125.201 204.602 122.37C204.49 121.432 204.918 108.305 205.225 101.188C205.327 98.6564 205.42 96.8843 205.467 96.7061C206.22 92.421 214.024 90.2645 217.14 83.1852C217.27 82.8851 217.4 82.5663 217.521 82.2475C218.733 78.5766 219.514 74.775 219.847 70.9207C219.922 69.1636 219.747 67.4047 219.326 65.698C218.877 63.7471 218.056 61.903 216.907 60.269C216.615 59.8922 216.42 59.4491 216.337 58.9783C216.254 58.5075 216.287 58.0235 216.433 57.5686C217.241 54.6167 217.626 51.5634 217.577 48.5015C217.577 47.9577 217.577 47.4138 217.577 46.8888C217.577 45.9511 217.503 45.0135 217.419 44.0758C216.582 35.3182 212.861 28.2764 209.271 22.8287C207.178 19.6313 205.123 16.9871 203.69 14.868C200.9 11.3237 197.421 10.011 194.231 7.17929C189.58 3.14739 186.334 2.64106 184.427 2.4254C184.047 2.39512 183.668 2.34505 183.293 2.27538C183.291 2.25041 183.291 2.22534 183.293 2.20037C183.228 2.1066 183.19 2.00346 183.135 1.9097C181.758 1.68466 180.186 1.49713 178.4 1.38461C177.321 1.31898 176.177 1.2721 174.95 1.26272C173.173 1.09394 171.564 0.972046 170.55 0.972046C168.439 0.972046 163.639 1.469 160.43 1.83468L157.64 2.17224C157.537 2.21536 157.431 2.25292 157.324 2.28476L156.645 2.50042C155.017 3.0167 153.439 3.67882 151.929 4.47886C150.551 5.20415 149.222 6.01848 147.948 6.91675C144.35 9.48508 141.136 12.5607 138.405 16.0495C134.74 20.5618 131.988 25.7541 130.304 31.3331C129.926 32.6655 129.656 34.0264 129.495 35.4025V35.6838C128.769 43.3351 127.383 40.8691 127.858 55.2995C127.932 57.4936 128.044 60.0909 128.211 63.1757C128.323 69.2611 126.844 67.864 125.979 72.3084C124.342 78.9845 132.583 91.5115 135.736 95.1215C135.964 95.3901 136.21 95.6437 136.47 95.881C139.227 98.087 141.723 100.604 143.911 103.382C148.683 109.73 147.52 114.362 147.306 121.798C147.306 122.838 147.306 123.926 147.306 125.079C147.454 126.443 147.482 127.818 147.39 129.186C147.112 133.764 145.18 138.081 141.958 141.319C140.447 142.871 138.754 144.232 136.917 145.37C129.708 149.918 119.989 152.112 111.692 153.162C106.043 153.865 100.353 154.179 94.6615 154.1C90.4637 154.631 86.4658 156.217 83.035 158.713C80.6233 160.401 78.408 162.357 76.4311 164.545C74.0337 167.166 71.9313 170.047 70.1621 173.134C69.0265 175.1 68.0408 177.15 67.2136 179.266C66.5063 181.072 65.9403 182.931 65.5208 184.826C64.8012 189.36 64.3694 193.936 64.2279 198.526C64.014 203.308 64.293 213.922 64.293 213.922L64.7581 219.032L64.9627 224.752V233.19L65.0836 240.298L64.7209 247.049L65.958 252.722H284.536C284.536 252.159 284.536 251.606 284.583 251.043C284.685 248.699 284.862 246.355 285.104 244.058C285.262 242.558 285.485 240.898 285.736 239.116C286.08 236.744 286.49 234.128 286.89 231.315C288.22 222.342 289.568 211.381 289.085 199.782Z" fill="#F4C944" stroke="white" stroke-miterlimit="10"/>
<path opacity="0.15" d="M346.585 209.083C346.473 207.911 346.455 206.58 346.445 205.126C346.445 204.383 346.445 203.614 346.445 202.82C346.427 200.708 346.268 198.6 345.971 196.509C345.144 190.284 341.965 184.621 337.098 180.701C335.693 179.547 334.8 178.46 333.907 177.888C327.908 173.95 321.816 172.262 316.96 170.884C315.658 170.527 314.375 170.133 313.11 169.74C310.245 168.802 307.529 167.864 305.027 166.983C303.092 166.298 301.306 165.642 299.688 165.108C297.72 164.359 295.686 163.797 293.614 163.429C291.518 163.149 289.475 162.558 287.55 161.676C285.539 160.784 283.831 159.317 282.639 157.456C280.676 154.306 280.779 150.715 280.49 148.502C280.407 147.752 280.751 137.494 280.983 131.934C281.067 129.946 281.141 128.558 281.179 128.417C281.765 125.061 287.875 123.382 290.322 117.841C290.424 117.606 290.526 117.362 290.619 117.1C291.579 114.229 292.203 111.256 292.48 108.239C292.558 106.883 292.449 105.523 292.154 104.198C291.814 102.671 291.182 101.225 290.294 99.9409C290.066 99.6462 289.915 99.2996 289.851 98.9317C289.788 98.5638 289.815 98.1859 289.931 97.8312C290.576 95.5223 290.89 93.1319 290.861 90.7332C290.861 90.3113 290.861 89.8893 290.861 89.4768C290.861 88.736 290.796 88.014 290.731 87.3014C290.08 80.4566 287.169 74.9338 284.36 70.6675C282.723 68.1734 281.114 66.1012 280.016 64.4415C277.821 61.6286 275.114 60.6909 272.575 58.4218C268.938 55.2619 266.399 54.8681 264.911 54.6712C264.548 54.6712 264.25 54.6056 263.981 54.5587C263.984 54.5369 263.984 54.5148 263.981 54.4931C263.981 54.4181 263.897 54.343 263.86 54.268C262.627 54.0661 261.386 53.9284 260.139 53.8555C259.293 53.7992 258.391 53.7617 257.433 53.7523C256.047 53.6211 254.782 53.5273 253.991 53.5273C252.336 53.5273 248.578 53.9117 246.067 54.2024L243.862 54.4649C243.78 54.4986 243.696 54.5268 243.611 54.5493L243.09 54.7181C241.807 55.1213 240.562 55.6391 239.37 56.2652C238.289 56.817 237.248 57.4436 236.254 58.1405C233.452 60.1465 230.947 62.5426 228.813 65.2573C225.941 68.7846 223.786 72.8467 222.469 77.2123C222.171 78.2555 221.96 79.3218 221.837 80.4003V80.6254C221.27 86.6076 220.191 84.676 220.553 95.9653C220.609 97.6906 220.702 99.7159 220.832 102.135C220.916 106.898 219.753 105.886 219.084 109.28C217.8 114.512 224.246 124.282 226.711 127.142C226.887 127.357 227.079 127.558 227.287 127.742C229.449 129.455 231.406 131.416 233.119 133.584C236.84 138.553 235.91 142.173 235.779 147.995C235.779 148.802 235.779 149.655 235.779 150.565C235.896 151.629 235.921 152.702 235.854 153.771C235.631 157.355 234.116 160.733 231.594 163.27C230.408 164.483 229.08 165.547 227.641 166.439C222.004 169.993 214.405 171.709 207.904 172.534C203.483 173.084 199.029 173.325 194.575 173.256C191.288 173.674 188.158 174.915 185.469 176.866C183.585 178.193 181.851 179.724 180.298 181.432C178.423 183.484 176.779 185.739 175.396 188.155C174.506 189.69 173.735 191.292 173.089 192.946C172.53 194.361 172.085 195.819 171.759 197.306C171.192 200.853 170.854 204.433 170.745 208.024C170.569 211.774 170.792 220.073 170.792 220.073L171.155 224.067L171.313 228.549V235.169L171.406 240.738L171.117 246.017L172.047 250.462H343.032C343.032 250.021 343.032 249.59 343.032 249.149C343.115 247.274 343.246 245.483 343.441 243.683C343.562 242.511 343.739 241.217 343.943 239.82C344.204 237.944 344.529 235.91 344.873 233.715C346.223 225.579 346.796 217.33 346.585 209.083Z" fill="#F7F9FD"/>
<path opacity="0.43" d="M327.406 206.102C327.285 204.817 327.266 203.364 327.248 201.77C327.248 200.963 327.248 200.119 327.248 199.257C327.231 196.947 327.057 194.641 326.727 192.356C325.819 185.548 322.328 179.36 316.988 175.094C315.454 173.818 314.477 172.646 313.51 172.009C306.999 167.705 300.33 165.82 294.991 164.348C293.559 163.964 292.201 163.532 290.787 163.101C287.652 162.163 284.676 161.066 281.951 160.091C279.83 159.341 277.877 158.628 276.109 158.019C273.961 157.199 271.745 156.571 269.487 156.144C267.193 155.87 264.956 155.238 262.855 154.268C260.66 153.297 258.797 151.696 257.498 149.665C255.349 146.223 255.442 142.304 255.145 139.875C255.042 139.06 255.424 127.845 255.684 121.769C255.777 119.604 255.851 118.085 255.889 117.934C256.54 114.268 263.227 112.44 265.878 106.383C265.99 106.12 266.101 105.848 266.204 105.576C267.243 102.437 267.914 99.1866 268.203 95.8903C268.289 94.4053 268.167 92.9155 267.841 91.4646C267.463 89.7808 266.762 88.188 265.776 86.7764C265.524 86.4558 265.356 86.077 265.286 85.6742C265.216 85.2714 265.247 84.8574 265.376 84.4698C266.07 81.9459 266.399 79.3341 266.352 76.7154C266.352 76.2591 266.352 75.7996 266.352 75.3371C266.352 74.5307 266.287 73.7431 266.213 72.9648C265.497 65.4636 262.316 59.4533 259.256 54.7932C257.461 52.0646 255.703 49.7955 254.503 47.9858C252.103 44.9572 249.164 43.8227 246.411 41.4223C242.467 37.953 239.667 37.5404 238.04 37.3622C237.649 37.3154 237.323 37.2872 237.063 37.2404C237.068 37.2187 237.068 37.1963 237.063 37.1747C237.007 37.0903 236.97 37.0059 236.923 36.9216C235.752 36.734 234.403 36.5652 232.877 36.4715C231.947 36.4058 231.017 36.3683 229.929 36.359C228.413 36.2183 227.036 36.1152 226.162 36.1152C224.358 36.1152 220.256 36.5371 217.512 36.8465L215.103 37.1372L214.833 37.231L214.256 37.4185C212.864 37.8597 211.513 38.4245 210.22 39.1063C209.041 39.7251 207.904 40.4205 206.815 41.1879C203.757 43.3745 201.023 45.9886 198.695 48.9516C195.56 52.8116 193.203 57.2516 191.757 62.0224C191.432 63.1607 191.202 64.3243 191.068 65.5011V65.7449C190.445 72.3085 189.264 70.18 189.664 82.5195C189.72 84.3948 189.822 86.617 189.962 89.2518C190.055 94.4557 188.79 93.3024 188.101 97.0624C186.697 102.773 193.738 113.49 196.472 116.575C196.669 116.801 196.877 117.017 197.096 117.222C199.458 119.097 201.599 121.24 203.476 123.607C207.56 129.036 206.564 132.984 206.378 139.36C206.378 140.241 206.378 141.169 206.378 142.173C206.504 143.337 206.529 144.511 206.453 145.68C206.203 149.594 204.55 153.283 201.802 156.059C200.506 157.382 199.057 158.544 197.486 159.519C191.32 163.401 183.014 165.276 175.917 166.177C171.085 166.778 166.219 167.041 161.351 166.964C157.761 167.418 154.341 168.776 151.408 170.912C149.349 172.358 147.452 174.028 145.753 175.891C143.705 178.135 141.908 180.601 140.395 183.242C139.423 184.921 138.58 186.673 137.875 188.483C137.268 190.027 136.783 191.617 136.424 193.237C135.81 197.113 135.44 201.025 135.317 204.948C135.131 209.037 135.364 218.075 135.364 218.075L135.763 222.445L135.931 227.339V234.578L136.033 240.654L135.717 246.43L136.638 251.353H323.592C323.592 250.874 323.592 250.415 323.592 249.918C323.685 247.911 323.834 245.914 324.039 243.945C324.178 242.661 324.364 241.245 324.587 239.726C324.876 237.691 325.229 235.45 325.573 233.05C326.699 225.427 327.852 216.06 327.406 206.102Z" fill="#F7E6B1" stroke="white" stroke-width="0.33" stroke-miterlimit="10"/>
<path opacity="0.72" d="M308.226 203.111C308.096 201.723 308.068 200.148 308.059 198.422C308.059 197.541 308.059 196.631 308.059 195.684C308.042 193.174 307.852 190.667 307.492 188.183C306.531 180.795 302.763 174.072 296.981 169.43C295.326 168.052 294.256 166.777 293.205 166.083C286.089 161.395 278.909 159.379 273.124 157.785C271.57 157.353 270.054 156.894 268.557 156.425C265.162 155.356 261.934 154.222 258.976 153.162C256.679 152.346 254.558 151.568 252.642 150.912C250.309 150.036 247.903 149.37 245.452 148.924C242.965 148.608 240.54 147.91 238.263 146.852C235.882 145.79 233.861 144.049 232.449 141.845C230.124 138.094 230.217 133.865 229.901 131.23C229.789 130.34 230.208 118.178 230.487 111.596C230.58 109.242 230.673 107.592 230.71 107.433C231.408 103.457 238.663 101.469 241.546 94.8964C241.667 94.6151 241.788 94.3244 241.899 94.0244C243.024 90.6205 243.751 87.0962 244.067 83.5227C244.157 81.9119 244.025 80.2964 243.676 78.7219C243.256 76.9126 242.491 75.2026 241.425 73.6868C241.157 73.3361 240.978 72.9248 240.903 72.4885C240.829 72.0522 240.861 71.6041 240.997 71.1832C241.746 68.4353 242.103 65.5938 242.058 62.7444C242.058 62.2381 242.058 61.7411 242.058 61.2535C242.058 60.3721 241.992 59.5189 241.909 58.675C241.137 50.5549 237.686 44.0195 234.365 38.9843C232.421 36.0214 230.515 33.5647 229.213 31.5957C226.608 28.3045 223.418 27.0762 220.442 24.4602C216.154 20.7096 213.112 20.2501 211.354 20.0532C210.926 20.0063 210.573 19.9782 210.294 19.9219C210.299 19.8972 210.299 19.8717 210.294 19.8469C210.239 19.7594 210.189 19.6686 210.145 19.575C208.871 19.3687 207.411 19.1906 205.755 19.0874C204.76 19.0218 203.69 18.9749 202.546 18.9749C200.909 18.8155 199.411 18.703 198.472 18.6936C196.509 18.6936 192.063 19.1531 189.087 19.5L186.473 19.8094C186.376 19.8494 186.277 19.8838 186.176 19.9125C185.962 19.9688 185.757 20.0438 185.553 20.1095C184.04 20.6032 182.574 21.2307 181.172 21.9848C179.884 22.6551 178.641 23.41 177.451 24.2445C174.136 26.6258 171.171 29.4667 168.643 32.6833C165.242 36.8694 162.686 41.6855 161.118 46.8606C160.772 48.0889 160.523 49.3431 160.374 50.6112C160.374 50.6956 160.374 50.78 160.374 50.8737C159.705 57.9718 158.421 55.6839 158.858 69.0641C158.923 71.0988 159.026 73.5086 159.184 76.3684C159.286 81.9943 157.909 80.766 157.11 84.8073C155.593 91.0051 163.23 102.623 166.15 105.979C166.42 106.279 166.653 106.523 166.829 106.683C169.394 108.715 171.717 111.04 173.749 113.612C178.177 119.491 177.098 123.795 176.893 130.686C176.893 131.624 176.893 132.665 176.893 133.734C177.028 134.998 177.053 136.272 176.968 137.541C176.702 141.785 174.909 145.786 171.926 148.793C170.532 150.227 168.97 151.487 167.276 152.543C160.588 156.753 151.575 158.788 143.883 159.763C138.638 160.416 133.355 160.701 128.071 160.616C124.176 161.111 120.466 162.585 117.282 164.901C115.045 166.465 112.989 168.277 111.152 170.302C108.931 172.736 106.981 175.409 105.339 178.272C104.29 180.096 103.376 181.995 102.604 183.954C101.945 185.631 101.419 187.359 101.033 189.121C100.36 193.325 99.9564 197.569 99.8234 201.826C99.6281 206.252 99.8885 216.097 99.8885 216.097L100.316 220.842L100.502 226.149V233.997L100.614 240.56L100.27 246.814L101.414 252.075H136.452H304.041C304.041 251.55 304.041 251.034 304.087 250.518C304.19 248.343 304.348 246.177 304.58 244.039C304.72 242.642 304.934 241.114 305.166 239.454C305.482 237.25 305.864 234.831 306.245 232.225C307.454 224.086 308.71 213.912 308.226 203.111Z" fill="#F6D677" stroke="white" stroke-width="0.67" stroke-miterlimit="10"/>
<path d="M289.085 200.129C288.936 198.629 288.917 196.932 288.899 195.066C288.899 194.128 288.899 193.134 288.899 192.121C288.881 189.423 288.679 186.728 288.294 184.058C287.234 176.107 283.177 168.874 276.965 163.861C275.161 162.379 274.026 161.001 272.891 160.26C265.218 155.225 257.479 153.021 251.238 151.305C249.564 150.846 247.927 150.368 246.318 149.843C242.653 148.689 239.165 147.461 235.984 146.327C233.51 145.445 231.222 144.611 229.157 143.898C226.646 142.944 224.052 142.228 221.409 141.76C218.73 141.394 216.117 140.639 213.652 139.519C211.086 138.376 208.907 136.502 207.383 134.128C204.881 130.105 205.02 125.511 204.639 122.679C204.527 121.741 204.965 108.614 205.271 101.507C205.374 98.9659 205.467 97.2031 205.513 97.0249C206.267 92.7399 214.07 90.5833 217.186 83.5134C217.326 83.204 217.456 82.8946 217.568 82.5758C218.786 78.9057 219.573 75.104 219.912 71.2489C220.013 69.5151 219.869 67.7755 219.484 66.0825C219.038 64.1308 218.216 62.2863 217.065 60.6535C216.773 60.277 216.577 59.8334 216.496 59.3622C216.415 58.891 216.451 58.4069 216.6 57.9531C217.409 55.0013 217.795 51.9479 217.744 48.886C217.744 48.3422 217.744 47.8077 217.744 47.2732C217.744 46.3356 217.67 45.3979 217.586 44.4603C216.749 35.712 213.038 28.6609 209.448 23.2131C207.355 20.0158 205.299 17.3716 203.867 15.2525C201.077 11.6988 197.607 10.3955 194.408 7.55439C189.757 3.52249 186.511 3.01616 184.613 2.8005C184.158 2.75362 183.776 2.71611 183.469 2.65985C183.473 2.63184 183.473 2.60348 183.469 2.57547C183.408 2.48187 183.352 2.38482 183.302 2.2848C181.935 2.05976 180.354 1.87223 178.577 1.75971C177.498 1.6847 176.354 1.64719 175.117 1.63782C173.35 1.46904 171.741 1.34715 170.717 1.33777C168.606 1.33777 163.807 1.83472 160.607 2.20041L157.817 2.53796C157.714 2.58255 157.608 2.62014 157.5 2.65048L156.831 2.86614C155.203 3.38075 153.624 4.04294 152.115 4.84458C150.736 5.56451 149.406 6.37579 148.134 7.27309C144.557 9.83568 141.357 12.8945 138.628 16.3589C134.965 20.8733 132.21 26.0648 130.518 31.6426C130.143 32.9752 129.876 34.3361 129.718 35.712C129.718 35.8058 129.718 35.8995 129.718 35.9933C128.992 43.6445 127.606 41.1785 128.071 55.6089C128.146 57.803 128.257 60.4003 128.425 63.4852C128.536 69.5705 127.058 68.1735 126.193 72.6179C124.556 79.294 132.787 91.8304 135.95 95.4403C136.173 95.7107 136.415 95.9645 136.675 96.1998C139.433 98.4034 141.93 100.92 144.116 103.701C148.888 110.049 147.725 114.681 147.511 122.116C147.511 123.157 147.511 124.245 147.511 125.398C147.658 126.759 147.686 128.13 147.595 129.496C147.27 134.102 145.277 138.427 141.995 141.648C140.479 143.194 138.783 144.551 136.945 145.689C129.736 150.237 120.026 152.431 111.72 153.481C106.071 154.19 100.381 154.504 94.6894 154.418C90.4926 154.954 86.4956 156.54 83.0629 159.032C80.652 160.724 78.4342 162.68 76.4497 164.864C74.0552 167.487 71.9529 170.368 70.1807 173.453C69.0486 175.42 68.0631 177.47 67.2322 179.585C66.5249 181.391 65.9589 183.25 65.5394 185.145C64.815 189.679 64.3801 194.255 64.2372 198.844C64.0233 203.617 64.3023 214.231 64.3023 214.231L64.7674 219.351L64.972 225.07V233.509L65.0929 240.617L64.7302 247.358L65.9672 252.984H103.739H174.494H205.299H284.536C284.536 252.431 284.536 251.868 284.592 251.315C284.695 248.971 284.862 246.627 285.113 244.33C285.271 242.83 285.494 241.17 285.746 239.388C286.09 237.016 286.499 234.4 286.908 231.587C288.22 222.736 289.568 211.775 289.085 200.129Z" fill="#F4C944" stroke="white" stroke-miterlimit="10"/>
<path d="M290.201 201.101C290.052 199.61 290.034 197.903 290.015 196.047C290.015 195.109 290.015 194.115 290.015 193.103C289.995 190.403 289.787 187.709 289.392 185.039C288.307 177.064 284.196 169.824 277.923 164.842C276.063 163.37 274.956 162.029 273.812 161.241C266.055 156.215 258.233 154.012 251.926 152.296C250.234 151.837 248.578 151.358 246.96 150.833C243.239 149.68 239.733 148.461 236.514 147.327C234.012 146.445 231.696 145.611 229.622 144.898C227.082 143.944 224.461 143.228 221.791 142.76C219.083 142.399 216.442 141.644 213.95 140.519C211.364 139.384 209.163 137.514 207.615 135.137C205.086 131.105 205.225 126.52 204.825 123.688C204.723 122.751 205.16 109.624 205.458 102.516C205.569 99.9753 205.662 98.2031 205.699 98.0249C206.462 93.7493 214.35 91.5927 217.503 84.5134C217.633 84.204 217.763 83.8946 217.884 83.5758C219.116 79.9079 219.912 76.1058 220.256 72.2489C220.362 70.5119 220.218 68.7685 219.828 67.0731C219.375 65.1186 218.544 63.2736 217.382 61.6441C217.088 61.2699 216.892 60.8283 216.809 60.3587C216.726 59.8892 216.76 59.4062 216.907 58.9531C217.73 56.0006 218.118 52.9426 218.061 49.8766C218.061 49.3328 218.061 48.7983 218.061 48.2639C218.061 47.3262 217.977 46.3886 217.893 45.4509C217.047 36.6933 213.289 29.6515 209.671 24.1944C207.541 21.0064 205.467 18.3528 204.09 16.2431C201.253 12.6894 197.756 11.3861 194.529 8.54501C189.878 4.51312 186.558 4.00678 184.632 3.8005C184.167 3.74424 183.786 3.71611 183.479 3.65048C183.474 3.62573 183.474 3.60021 183.479 3.57547C183.414 3.4817 183.367 3.37856 183.311 3.2848C181.926 3.05976 180.335 2.87223 178.531 2.75971C177.442 2.6847 176.28 2.63782 175.043 2.63782C173.247 2.46904 171.62 2.34715 170.597 2.33777C168.467 2.33777 163.611 2.83472 160.365 3.20978L157.519 3.54734C157.413 3.59046 157.304 3.62801 157.194 3.65985L156.515 3.86614C154.875 4.38864 153.281 5.0505 151.752 5.84458C150.36 6.56952 149.014 7.38382 147.725 8.28247C144.122 10.8432 140.894 13.9017 138.135 17.3683C134.432 21.8726 131.647 27.0697 129.941 32.6614C129.563 33.9935 129.292 35.3545 129.132 36.7308C129.132 36.8245 129.132 36.9183 129.132 37.0121C128.406 44.6633 127.011 42.1973 127.486 56.6183C127.56 58.8218 127.672 61.4191 127.839 64.504C127.951 70.5893 126.462 69.2391 125.588 73.6273C123.932 80.3127 132.257 92.8397 135.447 96.4497C135.676 96.7183 135.922 96.972 136.182 97.2092C138.975 99.4087 141.506 101.926 143.725 104.71C148.543 111.058 147.372 115.69 147.158 123.126C147.158 124.157 147.111 125.254 147.158 126.408C147.313 127.768 147.344 129.139 147.251 130.505C146.96 135.094 145.007 139.415 141.763 142.648C140.228 144.195 138.517 145.555 136.666 146.698C129.383 151.246 119.57 153.44 111.181 154.49C105.473 155.197 99.7235 155.51 93.9733 155.428C89.7373 155.961 85.6998 157.55 82.2258 160.05C79.7974 161.739 77.5609 163.691 75.5568 165.873C73.136 168.494 71.0116 171.378 69.2227 174.472C68.0802 176.435 67.0853 178.481 66.2463 180.594C65.5289 182.402 64.9566 184.264 64.5349 186.164C63.7537 190.688 63.2628 195.257 63.0653 199.844C62.8514 204.617 63.1397 215.231 63.1397 215.231L63.6141 220.341L63.8094 226.07V234.509L63.9396 241.626L63.5676 248.368L64.814 253.994H285.662C285.662 253.44 285.662 252.878 285.718 252.325C285.82 249.98 285.988 247.636 286.239 245.339C286.397 243.829 286.629 242.179 286.88 240.398C287.225 238.016 287.634 235.409 288.052 232.596C289.373 223.717 290.731 212.756 290.201 201.101Z" fill="url(#paint3_linear)" stroke="white" stroke-miterlimit="10"/>
<defs>
<linearGradient id="paint0_linear" x1="0.561025" y1="156.472" x2="176.661" y2="156.472" gradientUnits="userSpaceOnUse">
<stop stop-color="white" stop-opacity="0.15"/>
<stop offset="1" stop-color="white" stop-opacity="0.1"/>
</linearGradient>
<linearGradient id="paint1_linear" x1="21.7586" y1="146.608" x2="214.164" y2="146.608" gradientUnits="userSpaceOnUse">
<stop stop-color="#FDEAB2" stop-opacity="0.43"/>
<stop offset="1" stop-color="#FDEAB2" stop-opacity="0.4"/>
</linearGradient>
<linearGradient id="paint2_linear" x1="42.9559" y1="136.734" x2="251.657" y2="136.734" gradientUnits="userSpaceOnUse">
<stop stop-color="#F9D877" stop-opacity="0.72"/>
<stop offset="1" stop-color="#F9D877" stop-opacity="0.7"/>
</linearGradient>
<linearGradient id="paint3_linear" x1="176.652" y1="2.33777" x2="176.652" y2="253.994" gradientUnits="userSpaceOnUse">
<stop stop-color="#1E2229"/>
<stop offset="1" stop-color="#2D333B"/>
</linearGradient>
</defs>
</svg>
