<svg width="447" height="322" viewBox="0 0 447 322" fill="none" xmlns="http://www.w3.org/2000/svg">
<mask id="mask0" mask-type="alpha" maskUnits="userSpaceOnUse" x="47" y="5" width="365" height="265">
<path d="M47.6025 239.183C47.6025 239.183 105.654 269.878 229.305 269.878C352.956 269.878 411.008 239.183 411.008 239.183V5.79135H47.6025L47.6025 239.183Z" fill="#1F242B"/>
</mask>
<g mask="url(#mask0)">
<path d="M226.54 230.509C226.428 229.337 226.41 228.006 226.391 226.552C226.391 225.812 226.391 225.043 226.391 224.246C226.373 222.134 226.214 220.026 225.917 217.935C225.084 211.712 221.906 206.051 217.043 202.127C215.63 200.973 214.737 199.895 213.853 199.314C207.845 195.375 201.762 193.688 196.897 192.309C195.595 191.953 194.311 191.559 193.046 191.165C190.182 190.228 187.466 189.29 184.964 188.418C183.029 187.724 181.243 187.077 179.625 186.543C177.656 185.794 175.623 185.232 173.551 184.864C171.456 184.58 169.413 183.989 167.487 183.111C165.473 182.223 163.765 180.755 162.576 178.892C160.613 175.741 160.715 172.159 160.427 169.937C160.343 169.187 160.678 158.929 160.911 153.369C160.994 151.381 161.069 149.993 161.097 149.853C161.692 146.505 167.803 144.817 170.24 139.276C170.342 139.032 170.444 138.788 170.537 138.535C171.496 135.664 172.12 132.691 172.398 129.674C172.477 128.319 172.367 126.958 172.072 125.633C171.729 124.107 171.097 122.662 170.212 121.376C169.977 121.086 169.816 120.741 169.745 120.373C169.673 120.005 169.693 119.625 169.803 119.266C170.453 116.958 170.766 114.567 170.733 112.168C170.733 111.746 170.733 111.325 170.733 110.912C170.733 110.171 170.668 109.449 170.602 108.737C169.951 101.882 167.04 96.369 164.231 92.1027C162.585 89.6086 160.976 87.5363 159.878 85.8767C157.683 83.0638 154.976 82.0792 152.437 79.857C148.8 76.7065 146.261 76.3033 144.773 76.1064C144.41 76.1064 144.113 76.0408 143.843 75.9845V75.9282C143.796 75.8532 143.759 75.7782 143.722 75.7032C142.49 75.5012 141.248 75.3635 140.002 75.2906C139.155 75.2344 138.253 75.1969 137.295 75.1875C135.909 75.0562 134.644 74.9625 133.853 74.9625C132.198 74.9625 128.44 75.3563 125.929 75.6376L123.724 75.9095L123.473 75.9939C123.297 75.9939 123.129 76.1064 122.952 76.1627C121.669 76.5659 120.424 77.0836 119.232 77.7098C118.152 78.2616 117.11 78.8882 116.116 79.5851C113.314 81.5906 110.809 83.9867 108.675 86.7018C105.805 90.2337 103.65 94.2985 102.332 98.6663C102.033 99.7062 101.822 100.769 101.699 101.845V102.07C101.132 108.062 100.053 106.13 100.425 117.419C100.481 119.145 100.564 121.17 100.695 123.58C100.788 128.352 99.6249 127.33 98.9552 130.725C97.6717 135.957 104.117 145.727 106.592 148.54C106.767 148.752 106.957 148.953 107.159 149.14C109.323 150.853 111.283 152.814 113 154.982C116.721 159.942 115.79 163.57 115.66 169.393C115.66 170.2 115.66 171.053 115.66 171.962C115.778 173.027 115.8 174.1 115.725 175.169C115.505 178.752 113.994 182.13 111.475 184.668C110.29 185.878 108.966 186.942 107.531 187.837C101.885 191.4 94.286 193.116 87.7938 193.941C83.3696 194.491 78.913 194.732 74.4558 194.663C71.1711 195.083 68.0434 196.328 65.3593 198.282C63.4717 199.601 61.7371 201.13 60.1878 202.839C58.312 204.896 56.6652 207.153 55.2767 209.571C54.3935 211.109 53.6256 212.71 52.9793 214.363C52.4246 215.809 51.9891 217.299 51.6772 218.817C51.1159 222.364 50.7773 225.944 50.6633 229.534C50.4959 233.285 50.7191 241.583 50.7191 241.583L51.0819 245.587L51.24 250.059V256.688L51.3423 262.249L51.054 267.528L51.9841 271.972H223.052C223.052 271.531 223.052 271.1 223.052 270.659C223.136 268.784 223.266 266.993 223.461 265.193C223.582 264.021 223.759 262.727 223.954 261.33C224.224 259.454 224.54 257.42 224.884 255.226C226.221 247.059 226.775 238.782 226.54 230.509Z" fill="url(#paint0_linear)"/>
<path d="M264.061 225.915C263.931 224.639 263.912 223.186 263.903 221.592C263.903 220.786 263.903 219.942 263.903 219.07C263.887 216.763 263.713 214.461 263.382 212.178C262.485 205.378 259.012 199.192 253.69 194.916C252.156 193.641 251.179 192.469 250.202 191.831C243.692 187.527 237.023 185.652 231.684 184.18C230.251 183.786 228.893 183.364 227.48 182.933C224.345 181.948 221.369 180.898 218.643 179.923C216.523 179.173 214.569 178.46 212.802 177.86C210.653 177.041 208.437 176.413 206.18 175.985C203.886 175.711 201.648 175.079 199.548 174.109C197.352 173.136 195.486 171.535 194.181 169.506C192.042 166.064 192.126 162.145 191.828 159.717C191.726 158.901 192.107 147.687 192.367 141.611C192.451 139.445 192.535 137.926 192.572 137.776C193.214 134.109 199.901 132.272 202.552 126.224C202.664 125.961 202.776 125.689 202.878 125.408C203.912 122.271 204.583 119.024 204.878 115.731C204.958 114.246 204.836 112.757 204.515 111.306C204.134 109.621 203.429 108.029 202.441 106.617C202.19 106.296 202.023 105.917 201.953 105.515C201.883 105.112 201.913 104.699 202.041 104.311C202.719 101.785 203.033 99.1729 202.971 96.5565C202.971 96.0876 202.971 95.6188 202.971 95.1781C202.971 94.3717 202.906 93.5841 202.831 92.8059C202.115 85.3047 198.943 79.2943 195.874 74.6342C194.079 71.9057 192.321 69.6459 191.121 67.8269C188.721 64.7983 185.773 63.6637 183.029 61.2633C179.076 57.794 176.276 57.3815 174.658 57.2033C174.267 57.1564 173.942 57.1283 173.728 57.072C173.723 57.0504 173.723 57.028 173.728 57.0064C173.676 56.9284 173.629 56.847 173.588 56.7626C172.248 56.542 170.898 56.3918 169.542 56.3125C168.612 56.2469 167.682 56.2094 166.584 56.2094C165.068 56.0594 163.692 55.9562 162.864 55.9562C161.06 55.9562 156.948 56.3782 154.214 56.697L151.796 56.9877L151.526 57.0814L150.949 57.2596C149.559 57.7024 148.211 58.2704 146.922 58.9567C145.742 59.5736 144.605 60.269 143.517 61.0383C140.461 63.2309 137.728 65.8478 135.398 68.8114C132.259 72.669 129.902 77.1098 128.459 81.8823C128.14 83.0216 127.913 84.1849 127.78 85.3609C127.78 85.4359 127.78 85.5203 127.78 85.6047C127.166 92.1683 125.985 90.0398 126.385 102.37C126.45 104.245 126.543 106.467 126.682 109.112C126.785 114.316 125.52 113.162 124.776 116.913C123.38 122.633 130.421 133.34 133.147 136.425C133.341 136.657 133.549 136.876 133.77 137.082C136.134 138.951 138.275 141.091 140.15 143.458C144.234 148.887 143.238 152.834 143.052 159.21C143.052 160.092 143.052 161.02 143.052 162.023C143.178 163.188 143.203 164.361 143.127 165.53C142.882 169.445 141.229 173.136 138.476 175.91C137.18 177.232 135.731 178.394 134.16 179.37C127.994 183.261 119.688 185.136 112.591 186.036C107.76 186.638 102.893 186.904 98.0253 186.833C94.3873 187.276 90.9209 188.644 87.952 190.809C85.8935 192.253 84 193.923 82.3062 195.788C80.2573 198.032 78.4605 200.497 76.9487 203.139C75.962 204.805 75.1037 206.545 74.3816 208.343C73.7747 209.89 73.2895 211.483 72.9306 213.106C72.3162 216.983 71.9465 220.894 71.8237 224.818C71.6377 228.906 71.8889 237.945 71.8889 237.945L72.2795 242.324L72.4562 247.218V254.447L72.5585 260.533L72.2516 266.299L73.3026 271.147H260.257C260.257 270.678 260.257 270.209 260.257 269.722C260.35 267.715 260.499 265.721 260.703 263.739C260.843 262.464 261.029 261.048 261.252 259.52C261.541 257.485 261.885 255.254 262.238 252.853C263.354 245.249 264.508 235.872 264.061 225.915Z" fill="url(#paint1_linear)" stroke="white" stroke-width="0.33" stroke-miterlimit="10"/>
<path d="M301.554 221.32C301.415 219.942 301.396 218.357 301.377 216.632C301.377 215.76 301.377 214.841 301.377 213.903C301.363 211.393 301.176 208.887 300.819 206.402C299.849 199.015 296.079 192.294 290.3 187.649C288.635 186.271 287.574 184.996 286.523 184.302C279.399 179.613 272.218 177.598 266.433 176.004C264.88 175.582 263.363 175.122 261.866 174.653C258.462 173.584 255.234 172.45 252.286 171.39C249.988 170.575 247.858 169.806 245.952 169.149C243.618 168.273 241.212 167.608 238.762 167.161C236.274 166.846 233.849 166.147 231.572 165.089C229.189 164.027 227.165 162.287 225.749 160.082C223.424 156.332 223.526 152.103 223.201 149.468C223.089 148.577 223.498 136.425 223.777 129.834C223.88 127.48 223.963 125.83 224.001 125.67C224.698 121.695 231.953 119.707 234.827 113.134C234.96 112.85 235.078 112.559 235.181 112.262C236.31 108.856 237.037 105.328 237.348 101.751C237.442 100.143 237.311 98.5302 236.957 96.9596C236.539 95.1497 235.774 93.4393 234.706 91.9245C234.438 91.5738 234.259 91.1625 234.185 90.7262C234.11 90.2899 234.142 89.8418 234.279 89.4209C235.028 86.673 235.385 83.8315 235.339 80.9821C235.339 80.4758 235.339 79.9788 235.339 79.4818C235.339 78.6098 235.264 77.7566 235.19 76.9127C234.409 68.7926 230.958 62.2572 227.637 57.222C225.61 54.3153 223.75 51.8587 222.438 49.8802C219.834 46.5891 216.634 45.3608 213.658 42.7447C209.37 38.9941 206.328 38.5347 204.561 38.3378C204.143 38.2909 203.789 38.2534 203.51 38.1971C203.513 38.1753 203.513 38.1533 203.51 38.1315C203.455 38.044 203.405 37.9532 203.361 37.8596C202.087 37.6533 200.627 37.4751 198.971 37.372C197.967 37.3063 196.906 37.2595 195.762 37.2595C194.125 37.1001 192.628 36.9875 191.688 36.9875C189.726 36.9875 185.28 37.447 182.303 37.7939C181.104 37.9252 180.145 38.0471 179.69 38.1034C179.593 38.1433 179.493 38.1778 179.392 38.2065C179.178 38.2628 178.974 38.3378 178.769 38.4034C177.257 38.8971 175.791 39.5247 174.388 40.2787C173.1 40.9491 171.857 41.7039 170.668 42.5384C167.354 44.9179 164.391 47.7591 161.869 50.9773C158.464 55.1609 155.907 59.9778 154.344 65.1546C153.993 66.3819 153.745 67.6364 153.6 68.9052C153.6 68.9989 153.6 69.0833 153.6 69.1677C152.921 76.2657 151.647 73.9872 152.074 87.3581C152.149 89.4022 152.251 91.8119 152.409 94.6718C152.512 100.298 151.135 99.06 150.335 103.111C148.819 109.308 156.455 120.926 159.385 124.273C159.598 124.524 159.825 124.761 160.064 124.986C162.629 127.015 164.951 129.337 166.984 131.906C171.412 137.785 170.342 142.089 170.137 148.98C170.137 149.918 170.137 150.959 170.137 152.028C170.271 153.292 170.299 154.566 170.221 155.835C169.948 160.083 168.145 164.084 165.152 167.086C163.757 168.521 162.196 169.781 160.501 170.837C153.814 175.057 144.801 177.091 137.109 178.066C131.864 178.719 126.581 179.007 121.297 178.929C117.404 179.423 113.696 180.896 110.517 183.214C108.28 184.782 106.224 186.596 104.387 188.624C102.163 191.056 100.213 193.729 98.5738 196.594C97.5208 198.416 96.6066 200.315 95.8393 202.276C95.1807 203.951 94.6551 205.675 94.2674 207.434C93.6006 211.642 93.1998 215.889 93.0675 220.148C92.8722 224.574 93.1326 234.419 93.1326 234.419L93.5605 239.164L93.7465 244.471V252.319L93.8674 258.882L93.5233 265.137L94.6766 270.397H297.443C297.443 269.881 297.443 269.365 297.49 268.85C297.583 266.662 297.744 264.499 297.973 262.361C298.113 260.973 298.327 259.436 298.559 257.785C298.875 255.582 299.247 253.153 299.629 250.547C300.791 242.295 302.038 232.131 301.554 221.32Z" fill="url(#paint2_linear)" stroke="white" stroke-width="0.67" stroke-miterlimit="10"/>
<path d="M339.085 216.782C338.936 215.282 338.908 213.585 338.889 211.719C338.889 210.781 338.889 209.787 338.889 208.774C338.863 206.076 338.658 203.382 338.276 200.711C337.216 192.761 333.154 185.53 326.937 180.523C325.142 179.042 323.998 177.663 322.863 176.913C315.19 171.887 307.451 169.684 301.201 167.977C299.536 167.518 297.89 167.04 296.281 166.505C292.616 165.352 289.137 164.133 285.956 162.998C283.482 162.117 281.185 161.282 279.129 160.579C276.616 159.619 274.019 158.901 271.372 158.432C268.692 158.072 266.079 157.32 263.615 156.2C261.049 155.057 258.87 153.183 257.346 150.809C254.844 146.786 254.974 142.201 254.602 139.37C254.49 138.432 254.918 125.305 255.225 118.188C255.327 115.656 255.42 113.884 255.467 113.706C256.22 109.421 264.024 107.264 267.14 100.185C267.27 99.8851 267.4 99.5663 267.521 99.2475C268.733 95.5766 269.514 91.775 269.847 87.9207C269.922 86.1636 269.747 84.4047 269.326 82.698C268.877 80.7471 268.056 78.903 266.907 77.269C266.615 76.8922 266.42 76.4491 266.337 75.9783C266.254 75.5075 266.287 75.0235 266.433 74.5686C267.241 71.6167 267.626 68.5634 267.577 65.5015C267.577 64.9577 267.577 64.4138 267.577 63.8888C267.577 62.9511 267.503 62.0135 267.419 61.0758C266.582 52.3182 262.861 45.2764 259.271 39.8287C257.178 36.6313 255.123 33.9871 253.69 31.868C250.9 28.3237 247.421 27.011 244.231 24.1793C239.58 20.1474 236.334 19.6411 234.427 19.4254C234.047 19.3951 233.668 19.345 233.293 19.2754C233.291 19.2504 233.291 19.2253 233.293 19.2004C233.228 19.1066 233.19 19.0035 233.135 18.9097C231.758 18.6847 230.186 18.4971 228.4 18.3846C227.321 18.319 226.177 18.2721 224.95 18.2627C223.173 18.0939 221.564 17.972 220.55 17.972C218.439 17.972 213.639 18.469 210.43 18.8347L207.64 19.1722C207.537 19.2154 207.431 19.2529 207.324 19.2848L206.645 19.5004C205.017 20.0167 203.439 20.6788 201.929 21.4789C200.551 22.2042 199.222 23.0185 197.948 23.9167C194.35 26.4851 191.136 29.5607 188.405 33.0495C184.74 37.5618 181.988 42.7541 180.304 48.3331C179.926 49.6655 179.656 51.0264 179.495 52.4025V52.6838C178.769 60.3351 177.383 57.8691 177.858 72.2995C177.932 74.4936 178.044 77.0909 178.211 80.1757C178.323 86.2611 176.844 84.864 175.979 89.3084C174.342 95.9845 182.583 108.512 185.736 112.121C185.964 112.39 186.21 112.644 186.47 112.881C189.227 115.087 191.723 117.604 193.911 120.382C198.683 126.73 197.52 131.362 197.306 138.798C197.306 139.838 197.306 140.926 197.306 142.079C197.454 143.443 197.482 144.818 197.39 146.186C197.112 150.764 195.18 155.081 191.958 158.319C190.447 159.871 188.754 161.232 186.917 162.37C179.708 166.918 169.989 169.112 161.692 170.162C156.043 170.865 150.353 171.179 144.661 171.1C140.464 171.631 136.466 173.217 133.035 175.713C130.623 177.401 128.408 179.357 126.431 181.545C124.034 184.166 121.931 187.047 120.162 190.134C119.026 192.1 118.041 194.15 117.214 196.266C116.506 198.072 115.94 199.931 115.521 201.826C114.801 206.36 114.369 210.936 114.228 215.526C114.014 220.308 114.293 230.922 114.293 230.922L114.758 236.032L114.963 241.752V250.19L115.084 257.298L114.721 264.049L115.958 269.722H334.536C334.536 269.159 334.536 268.606 334.583 268.043C334.685 265.699 334.862 263.355 335.104 261.058C335.262 259.558 335.485 257.898 335.736 256.116C336.08 253.744 336.49 251.128 336.89 248.315C338.22 239.342 339.568 228.381 339.085 216.782Z" fill="#F4C944" stroke="white" stroke-miterlimit="10"/>
<path opacity="0.15" d="M396.585 226.083C396.473 224.911 396.455 223.58 396.445 222.126C396.445 221.383 396.445 220.614 396.445 219.82C396.427 217.708 396.268 215.6 395.971 213.509C395.144 207.284 391.965 201.621 387.098 197.701C385.693 196.547 384.8 195.46 383.907 194.888C377.908 190.95 371.816 189.262 366.96 187.884C365.658 187.527 364.375 187.133 363.11 186.74C360.245 185.802 357.529 184.864 355.027 183.983C353.092 183.298 351.306 182.642 349.688 182.108C347.72 181.359 345.686 180.797 343.614 180.429C341.518 180.149 339.475 179.558 337.55 178.676C335.539 177.784 333.831 176.317 332.639 174.456C330.676 171.306 330.779 167.715 330.49 165.502C330.407 164.752 330.751 154.494 330.983 148.934C331.067 146.946 331.141 145.558 331.179 145.417C331.765 142.061 337.875 140.382 340.322 134.841C340.424 134.606 340.526 134.362 340.619 134.1C341.579 131.229 342.203 128.256 342.48 125.239C342.558 123.883 342.449 122.523 342.154 121.198C341.814 119.671 341.182 118.225 340.294 116.941C340.066 116.646 339.915 116.3 339.851 115.932C339.788 115.564 339.815 115.186 339.931 114.831C340.576 112.522 340.89 110.132 340.861 107.733C340.861 107.311 340.861 106.889 340.861 106.477C340.861 105.736 340.796 105.014 340.731 104.301C340.08 97.4566 337.169 91.9338 334.36 87.6675C332.723 85.1734 331.114 83.1012 330.016 81.4415C327.821 78.6286 325.114 77.6909 322.575 75.4218C318.938 72.2619 316.399 71.8681 314.911 71.6712C314.548 71.6712 314.25 71.6056 313.981 71.5587C313.984 71.5369 313.984 71.5148 313.981 71.4931C313.981 71.4181 313.897 71.343 313.86 71.268C312.627 71.0661 311.386 70.9284 310.139 70.8555C309.293 70.7992 308.391 70.7617 307.433 70.7523C306.047 70.6211 304.782 70.5273 303.991 70.5273C302.336 70.5273 298.578 70.9117 296.067 71.2024L293.862 71.4649C293.78 71.4986 293.696 71.5268 293.611 71.5493L293.09 71.7181C291.807 72.1213 290.562 72.6391 289.37 73.2652C288.289 73.817 287.248 74.4436 286.254 75.1405C283.452 77.1465 280.947 79.5426 278.813 82.2573C275.941 85.7846 273.786 89.8467 272.469 94.2123C272.171 95.2555 271.96 96.3218 271.837 97.4003V97.6254C271.27 103.608 270.191 101.676 270.553 112.965C270.609 114.691 270.702 116.716 270.832 119.135C270.916 123.898 269.753 122.886 269.084 126.28C267.8 131.512 274.246 141.282 276.711 144.142C276.887 144.357 277.079 144.558 277.287 144.742C279.449 146.455 281.406 148.416 283.119 150.584C286.84 155.553 285.91 159.173 285.779 164.995C285.779 165.802 285.779 166.655 285.779 167.565C285.896 168.629 285.921 169.702 285.854 170.771C285.631 174.355 284.116 177.733 281.594 180.27C280.408 181.483 279.08 182.547 277.641 183.439C272.004 186.993 264.405 188.709 257.904 189.534C253.483 190.084 249.029 190.325 244.575 190.256C241.288 190.674 238.158 191.915 235.469 193.866C233.585 195.193 231.851 196.724 230.298 198.432C228.423 200.484 226.779 202.739 225.396 205.155C224.506 206.69 223.735 208.292 223.089 209.946C222.53 211.361 222.085 212.819 221.759 214.306C221.192 217.853 220.854 221.433 220.745 225.024C220.569 228.774 220.792 237.073 220.792 237.073L221.155 241.067L221.313 245.549V252.169L221.406 257.738L221.117 263.017L222.047 267.462H393.032C393.032 267.021 393.032 266.59 393.032 266.149C393.115 264.274 393.246 262.483 393.441 260.683C393.562 259.511 393.739 258.217 393.943 256.82C394.204 254.944 394.529 252.91 394.873 250.715C396.223 242.579 396.796 234.33 396.585 226.083Z" fill="#F7F9FD"/>
<path opacity="0.43" d="M377.406 223.102C377.285 221.817 377.266 220.364 377.248 218.77C377.248 217.963 377.248 217.119 377.248 216.257C377.231 213.947 377.057 211.641 376.727 209.356C375.819 202.548 372.328 196.36 366.988 192.094C365.454 190.818 364.477 189.646 363.51 189.009C356.999 184.705 350.33 182.82 344.991 181.348C343.559 180.964 342.201 180.532 340.787 180.101C337.652 179.163 334.676 178.066 331.951 177.091C329.83 176.341 327.877 175.628 326.109 175.019C323.961 174.199 321.745 173.571 319.487 173.144C317.193 172.87 314.956 172.238 312.855 171.268C310.66 170.297 308.797 168.696 307.498 166.665C305.349 163.223 305.442 159.304 305.145 156.875C305.042 156.06 305.424 144.845 305.684 138.769C305.777 136.604 305.851 135.085 305.889 134.934C306.54 131.268 313.227 129.44 315.878 123.383C315.99 123.12 316.101 122.848 316.204 122.576C317.243 119.437 317.914 116.187 318.203 112.89C318.289 111.405 318.167 109.915 317.841 108.465C317.463 106.781 316.762 105.188 315.776 103.776C315.524 103.456 315.356 103.077 315.286 102.674C315.216 102.271 315.247 101.857 315.376 101.47C316.07 98.9459 316.399 96.3341 316.352 93.7154C316.352 93.2591 316.352 92.7996 316.352 92.3371C316.352 91.5307 316.287 90.7431 316.213 89.9648C315.497 82.4636 312.316 76.4533 309.256 71.7932C307.461 69.0646 305.703 66.7955 304.503 64.9858C302.103 61.9572 299.164 60.8227 296.411 58.4223C292.467 54.953 289.667 54.5404 288.04 54.3622C287.649 54.3154 287.323 54.2872 287.063 54.2404C287.068 54.2187 287.068 54.1963 287.063 54.1747C287.007 54.0903 286.97 54.0059 286.923 53.9216C285.752 53.734 284.403 53.5652 282.877 53.4715C281.947 53.4058 281.017 53.3683 279.929 53.359C278.413 53.2183 277.036 53.1152 276.162 53.1152C274.358 53.1152 270.256 53.5371 267.512 53.8465L265.103 54.1372L264.833 54.231L264.256 54.4185C262.864 54.8597 261.513 55.4245 260.22 56.1063C259.041 56.7251 257.904 57.4205 256.815 58.1879C253.757 60.3745 251.023 62.9886 248.695 65.9516C245.56 69.8116 243.203 74.2516 241.757 79.0224C241.432 80.1607 241.202 81.3243 241.068 82.5011V82.7449C240.445 89.3085 239.264 87.18 239.664 99.5195C239.72 101.395 239.822 103.617 239.962 106.252C240.055 111.456 238.79 110.302 238.101 114.062C236.697 119.773 243.738 130.49 246.472 133.575C246.669 133.801 246.877 134.017 247.096 134.222C249.458 136.097 251.599 138.24 253.476 140.607C257.56 146.036 256.564 149.984 256.378 156.36C256.378 157.241 256.378 158.169 256.378 159.173C256.504 160.337 256.529 161.511 256.453 162.68C256.203 166.594 254.55 170.283 251.802 173.059C250.506 174.382 249.057 175.544 247.486 176.519C241.32 180.401 233.014 182.276 225.917 183.177C221.085 183.778 216.219 184.041 211.351 183.964C207.761 184.418 204.341 185.776 201.408 187.912C199.349 189.358 197.452 191.028 195.753 192.891C193.705 195.135 191.908 197.601 190.395 200.242C189.423 201.921 188.58 203.673 187.875 205.483C187.268 207.027 186.783 208.617 186.424 210.237C185.81 214.113 185.44 218.025 185.317 221.948C185.131 226.037 185.364 235.075 185.364 235.075L185.763 239.445L185.931 244.339V251.578L186.033 257.654L185.717 263.43L186.638 268.353H373.592C373.592 267.874 373.592 267.415 373.592 266.918C373.685 264.911 373.834 262.914 374.039 260.945C374.178 259.661 374.364 258.245 374.587 256.726C374.876 254.691 375.229 252.45 375.573 250.05C376.699 242.427 377.852 233.06 377.406 223.102Z" fill="#F7E6B1" stroke="white" stroke-width="0.33" stroke-miterlimit="10"/>
<path opacity="0.72" d="M358.226 220.111C358.096 218.723 358.068 217.148 358.059 215.422C358.059 214.541 358.059 213.631 358.059 212.684C358.042 210.174 357.852 207.667 357.492 205.183C356.531 197.795 352.763 191.072 346.981 186.43C345.326 185.052 344.256 183.777 343.205 183.083C336.089 178.395 328.909 176.379 323.124 174.785C321.57 174.353 320.054 173.894 318.557 173.425C315.162 172.356 311.934 171.222 308.976 170.162C306.679 169.346 304.558 168.568 302.642 167.912C300.309 167.036 297.903 166.37 295.452 165.924C292.965 165.608 290.54 164.91 288.263 163.852C285.882 162.79 283.861 161.049 282.449 158.845C280.124 155.094 280.217 150.865 279.901 148.23C279.789 147.34 280.208 135.178 280.487 128.596C280.58 126.242 280.673 124.592 280.71 124.433C281.408 120.457 288.663 118.469 291.546 111.896C291.667 111.615 291.788 111.324 291.899 111.024C293.024 107.621 293.751 104.096 294.067 100.523C294.157 98.9119 294.025 97.2964 293.676 95.7219C293.256 93.9126 292.491 92.2026 291.425 90.6868C291.157 90.3361 290.978 89.9248 290.903 89.4885C290.829 89.0522 290.861 88.6041 290.997 88.1832C291.746 85.4353 292.103 82.5938 292.058 79.7444C292.058 79.2381 292.058 78.7411 292.058 78.2535C292.058 77.3721 291.992 76.5189 291.909 75.675C291.137 67.5549 287.686 61.0195 284.365 55.9843C282.421 53.0214 280.515 50.5647 279.213 48.5957C276.608 45.3045 273.418 44.0762 270.442 41.4602C266.154 37.7096 263.112 37.2501 261.354 37.0532C260.926 37.0063 260.573 36.9782 260.294 36.9219C260.299 36.8972 260.299 36.8717 260.294 36.8469C260.239 36.7594 260.189 36.6686 260.145 36.575C258.871 36.3687 257.411 36.1906 255.755 36.0874C254.76 36.0218 253.69 35.9749 252.546 35.9749C250.909 35.8155 249.411 35.703 248.472 35.6936C246.509 35.6936 242.063 36.1531 239.087 36.5L236.473 36.8094C236.376 36.8494 236.277 36.8838 236.176 36.9125C235.962 36.9688 235.757 37.0438 235.553 37.1095C234.04 37.6032 232.574 38.2307 231.172 38.9848C229.884 39.6551 228.641 40.41 227.451 41.2445C224.136 43.6258 221.171 46.4667 218.643 49.6833C215.242 53.8694 212.686 58.6855 211.118 63.8606C210.772 65.0889 210.523 66.3431 210.374 67.6112C210.374 67.6956 210.374 67.78 210.374 67.8737C209.705 74.9718 208.421 72.6839 208.858 86.0641C208.923 88.0988 209.026 90.5086 209.184 93.3684C209.286 98.9943 207.909 97.766 207.11 101.807C205.593 108.005 213.23 119.623 216.15 122.979C216.42 123.279 216.653 123.523 216.829 123.683C219.394 125.715 221.717 128.04 223.749 130.612C228.177 136.491 227.098 140.795 226.893 147.686C226.893 148.624 226.893 149.665 226.893 150.734C227.028 151.998 227.053 153.272 226.968 154.541C226.702 158.785 224.909 162.786 221.926 165.793C220.532 167.227 218.97 168.487 217.276 169.543C210.588 173.753 201.575 175.788 193.883 176.763C188.638 177.416 183.355 177.701 178.071 177.616C174.176 178.111 170.466 179.585 167.282 181.901C165.045 183.465 162.989 185.277 161.152 187.302C158.931 189.736 156.981 192.409 155.339 195.272C154.29 197.096 153.376 198.995 152.604 200.954C151.945 202.631 151.419 204.359 151.033 206.121C150.36 210.325 149.956 214.569 149.823 218.826C149.628 223.252 149.888 233.097 149.888 233.097L150.316 237.842L150.502 243.149V250.997L150.614 257.56L150.27 263.814L151.414 269.075H186.452H354.041C354.041 268.55 354.041 268.034 354.087 267.518C354.19 265.343 354.348 263.177 354.58 261.039C354.72 259.642 354.934 258.114 355.166 256.454C355.482 254.25 355.864 251.831 356.245 249.225C357.454 241.086 358.71 230.912 358.226 220.111Z" fill="#F6D677" stroke="white" stroke-width="0.67" stroke-miterlimit="10"/>
<path d="M339.085 217.129C338.936 215.629 338.917 213.932 338.899 212.066C338.899 211.128 338.899 210.134 338.899 209.121C338.881 206.423 338.679 203.728 338.294 201.058C337.234 193.107 333.177 185.874 326.965 180.861C325.161 179.379 324.026 178.001 322.891 177.26C315.218 172.225 307.479 170.021 301.238 168.305C299.564 167.846 297.927 167.368 296.318 166.843C292.653 165.689 289.165 164.461 285.984 163.327C283.51 162.445 281.222 161.611 279.157 160.898C276.646 159.944 274.052 159.228 271.409 158.76C268.73 158.394 266.117 157.639 263.652 156.519C261.086 155.376 258.907 153.502 257.383 151.128C254.881 147.105 255.02 142.511 254.639 139.679C254.527 138.741 254.965 125.614 255.271 118.507C255.374 115.966 255.467 114.203 255.513 114.025C256.267 109.74 264.07 107.583 267.186 100.513C267.326 100.204 267.456 99.8946 267.568 99.5758C268.786 95.9057 269.573 92.104 269.912 88.2489C270.013 86.5151 269.869 84.7755 269.484 83.0825C269.038 81.1308 268.216 79.2863 267.065 77.6535C266.773 77.277 266.577 76.8334 266.496 76.3622C266.415 75.891 266.451 75.4069 266.6 74.9531C267.409 72.0013 267.795 68.9479 267.744 65.886C267.744 65.3422 267.744 64.8077 267.744 64.2732C267.744 63.3356 267.67 62.3979 267.586 61.4603C266.749 52.712 263.038 45.6609 259.448 40.2131C257.355 37.0158 255.299 34.3716 253.867 32.2525C251.077 28.6988 247.607 27.3955 244.408 24.5544C239.757 20.5225 236.511 20.0162 234.613 19.8005C234.158 19.7536 233.776 19.7161 233.469 19.6599C233.473 19.6318 233.473 19.6035 233.469 19.5755C233.408 19.4819 233.352 19.3848 233.302 19.2848C231.935 19.0598 230.354 18.8722 228.577 18.7597C227.498 18.6847 226.354 18.6472 225.117 18.6378C223.35 18.469 221.741 18.3471 220.717 18.3378C218.606 18.3378 213.807 18.8347 210.607 19.2004L207.817 19.538C207.714 19.5826 207.608 19.6201 207.5 19.6505L206.831 19.8661C205.203 20.3808 203.624 21.0429 202.115 21.8446C200.736 22.5645 199.406 23.3758 198.134 24.2731C194.557 26.8357 191.357 29.8945 188.628 33.3589C184.965 37.8733 182.21 43.0648 180.518 48.6426C180.143 49.9752 179.876 51.3361 179.718 52.712C179.718 52.8058 179.718 52.8995 179.718 52.9933C178.992 60.6445 177.606 58.1785 178.071 72.6089C178.146 74.803 178.257 77.4003 178.425 80.4852C178.536 86.5705 177.058 85.1735 176.193 89.6179C174.556 96.294 182.787 108.83 185.95 112.44C186.173 112.711 186.415 112.965 186.675 113.2C189.433 115.403 191.93 117.92 194.116 120.701C198.888 127.049 197.725 131.681 197.511 139.116C197.511 140.157 197.511 141.245 197.511 142.398C197.658 143.759 197.686 145.13 197.595 146.496C197.27 151.102 195.277 155.427 191.995 158.648C190.479 160.194 188.783 161.551 186.945 162.689C179.736 167.237 170.026 169.431 161.72 170.481C156.071 171.19 150.381 171.504 144.689 171.418C140.493 171.954 136.496 173.54 133.063 176.032C130.652 177.724 128.434 179.68 126.45 181.864C124.055 184.487 121.953 187.368 120.181 190.453C119.049 192.42 118.063 194.47 117.232 196.585C116.525 198.391 115.959 200.25 115.539 202.145C114.815 206.679 114.38 211.255 114.237 215.844C114.023 220.617 114.302 231.231 114.302 231.231L114.767 236.351L114.972 242.07V250.509L115.093 257.617L114.73 264.358L115.967 269.984H153.739H224.494H255.299H334.536C334.536 269.431 334.536 268.868 334.592 268.315C334.695 265.971 334.862 263.627 335.113 261.33C335.271 259.83 335.494 258.17 335.746 256.388C336.09 254.016 336.499 251.4 336.908 248.587C338.22 239.736 339.568 228.775 339.085 217.129Z" fill="#F4C944" stroke="white" stroke-miterlimit="10"/>
<path d="M340.201 218.101C340.052 216.61 340.034 214.903 340.015 213.047C340.015 212.109 340.015 211.115 340.015 210.103C339.995 207.403 339.787 204.709 339.392 202.039C338.307 194.064 334.196 186.824 327.923 181.842C326.063 180.37 324.956 179.029 323.812 178.241C316.055 173.215 308.233 171.012 301.926 169.296C300.234 168.837 298.578 168.358 296.96 167.833C293.239 166.68 289.733 165.461 286.514 164.327C284.012 163.445 281.696 162.611 279.622 161.898C277.082 160.944 274.461 160.228 271.791 159.76C269.083 159.399 266.442 158.644 263.95 157.519C261.364 156.384 259.163 154.514 257.615 152.137C255.086 148.105 255.225 143.52 254.825 140.688C254.723 139.751 255.16 126.624 255.458 119.516C255.569 116.975 255.662 115.203 255.699 115.025C256.462 110.749 264.35 108.593 267.503 101.513C267.633 101.204 267.763 100.895 267.884 100.576C269.116 96.9079 269.912 93.1058 270.256 89.2489C270.362 87.5119 270.218 85.7685 269.828 84.0731C269.375 82.1186 268.544 80.2736 267.382 78.6441C267.088 78.2699 266.892 77.8283 266.809 77.3587C266.726 76.8892 266.76 76.4062 266.907 75.9531C267.73 73.0006 268.118 69.9426 268.061 66.8766C268.061 66.3328 268.061 65.7983 268.061 65.2639C268.061 64.3262 267.977 63.3886 267.893 62.4509C267.047 53.6933 263.289 46.6515 259.671 41.1944C257.541 38.0064 255.467 35.3528 254.09 33.2431C251.253 29.6894 247.756 28.3861 244.529 25.545C239.878 21.5131 236.558 21.0068 234.632 20.8005C234.167 20.7442 233.786 20.7161 233.479 20.6505C233.474 20.6257 233.474 20.6002 233.479 20.5755C233.414 20.4817 233.367 20.3786 233.311 20.2848C231.926 20.0598 230.335 19.8722 228.531 19.7597C227.442 19.6847 226.28 19.6378 225.043 19.6378C223.247 19.469 221.62 19.3471 220.597 19.3378C218.467 19.3378 213.611 19.8347 210.365 20.2098L207.519 20.5473C207.413 20.5905 207.304 20.628 207.194 20.6599L206.515 20.8661C204.875 21.3886 203.281 22.0505 201.752 22.8446C200.36 23.5695 199.014 24.3838 197.725 25.2825C194.122 27.8432 190.894 30.9017 188.135 34.3683C184.432 38.8726 181.647 44.0697 179.941 49.6614C179.563 50.9935 179.292 52.3545 179.132 53.7308C179.132 53.8245 179.132 53.9183 179.132 54.0121C178.406 61.6633 177.011 59.1973 177.486 73.6183C177.56 75.8218 177.672 78.4191 177.839 81.504C177.951 87.5893 176.462 86.2391 175.588 90.6273C173.932 97.3127 182.257 109.84 185.447 113.45C185.676 113.718 185.922 113.972 186.182 114.209C188.975 116.409 191.506 118.926 193.725 121.71C198.543 128.058 197.372 132.69 197.158 140.126C197.158 141.157 197.111 142.254 197.158 143.408C197.313 144.768 197.344 146.139 197.251 147.505C196.96 152.094 195.007 156.415 191.763 159.648C190.228 161.195 188.517 162.555 186.666 163.698C179.383 168.246 169.57 170.44 161.181 171.49C155.473 172.197 149.723 172.51 143.973 172.428C139.737 172.961 135.7 174.55 132.226 177.05C129.797 178.739 127.561 180.691 125.557 182.873C123.136 185.494 121.012 188.378 119.223 191.472C118.08 193.435 117.085 195.481 116.246 197.594C115.529 199.402 114.957 201.264 114.535 203.164C113.754 207.688 113.263 212.257 113.065 216.844C112.851 221.617 113.14 232.231 113.14 232.231L113.614 237.341L113.809 243.07V251.509L113.94 258.626L113.568 265.368L114.814 270.994H335.662C335.662 270.44 335.662 269.878 335.718 269.325C335.82 266.98 335.988 264.636 336.239 262.339C336.397 260.829 336.629 259.179 336.88 257.398C337.225 255.016 337.634 252.409 338.052 249.596C339.373 240.717 340.731 229.756 340.201 218.101Z" fill="url(#paint3_linear)" stroke="white" stroke-miterlimit="10"/>
</g>
<defs>
<linearGradient id="paint0_linear" x1="50.561" y1="173.472" x2="226.661" y2="173.472" gradientUnits="userSpaceOnUse">
<stop stop-color="white" stop-opacity="0.15"/>
<stop offset="1" stop-color="white" stop-opacity="0.1"/>
</linearGradient>
<linearGradient id="paint1_linear" x1="71.7586" y1="163.608" x2="264.164" y2="163.608" gradientUnits="userSpaceOnUse">
<stop stop-color="#FDEAB2" stop-opacity="0.43"/>
<stop offset="1" stop-color="#FDEAB2" stop-opacity="0.4"/>
</linearGradient>
<linearGradient id="paint2_linear" x1="92.9559" y1="153.734" x2="301.657" y2="153.734" gradientUnits="userSpaceOnUse">
<stop stop-color="#F9D877" stop-opacity="0.72"/>
<stop offset="1" stop-color="#F9D877" stop-opacity="0.7"/>
</linearGradient>
<linearGradient id="paint3_linear" x1="226.652" y1="19.3378" x2="226.652" y2="270.994" gradientUnits="userSpaceOnUse">
<stop stop-color="#1E2229"/>
<stop offset="1" stop-color="#2D333B"/>
</linearGradient>
</defs>
</svg>
