<svg width="24" height="24" viewBox="0 0 24 24" fill="none" xmlns="http://www.w3.org/2000/svg">
<g clip-path="url(#clip0)">
<path fill-rule="evenodd" clip-rule="evenodd" d="M20.75 7.9928C20.75 9.006 20.6229 9.76481 20.3867 10.3464C21.3717 11.0008 22 11.8252 22 12.8408C22 14.1348 21.53 14.6 20.4459 14.708C20.0608 19.9128 16.4375 24 12 24C7.5625 24 3.93916 19.9128 3.55415 14.708C2.46958 14.6 2 14.1348 2 12.8408C2 11.8256 2.62793 11.0008 3.61333 10.3464C3.37666 9.76481 3.25 9.006 3.25 7.9928C3.25 2.84278 6.36206 0 12 0C17.6379 0 20.75 2.84278 20.75 7.9928ZM19.5 7.9928C19.5 3.4852 16.9767 1.2 12 1.2C7.02334 1.2 4.5 3.4852 4.5 7.9928C4.5 8.77359 4.57163 9.32639 4.71123 9.74358C6.75293 8.82722 9.6 8.4 12 8.4C14.4 8.4 17.2471 8.82722 19.2888 9.74358C19.4283 9.32639 19.5 8.77359 19.5 7.9928ZM12 22.8C8.25332 22.8 5.17876 19.2484 4.80542 14.718C5.28771 14.6934 5.83888 14.6471 6.46412 14.5946C7.89858 14.4743 9.72294 14.3212 12 14.3212C14.2801 14.3212 16.106 14.4744 17.5411 14.5949C18.1642 14.6472 18.7136 14.6933 19.1946 14.718C18.8212 19.2484 15.7467 22.8 12 22.8ZM19.8517 13.5372C20.4788 13.5372 20.655 13.4572 20.6846 13.4408C20.6833 13.4398 20.6852 13.4332 20.6889 13.4196C20.704 13.365 20.75 13.1982 20.75 12.8408C20.75 10.9308 16.1388 9.60005 12 9.60005C7.86128 9.60005 3.25005 10.9308 3.25005 12.8408C3.25005 13.3265 3.33462 13.4604 3.33545 13.4617C3.33501 13.4609 3.33501 13.4604 3.33628 13.4604C3.33847 13.4604 3.34381 13.4619 3.35303 13.4644C3.41049 13.4802 3.61835 13.5372 4.14834 13.5372C4.71086 13.5372 5.43246 13.4768 6.34532 13.4003L6.35332 13.3996L6.36584 13.3986C7.84036 13.2752 9.6745 13.1216 12 13.1216C14.3325 13.1216 16.1704 13.2757 17.6471 13.3996L17.6569 13.4005C18.5689 13.4769 19.2895 13.5372 19.8517 13.5372Z" fill="white"/>
<path d="M20.3867 10.3464L20.3403 10.3276L20.325 10.3654L20.359 10.388L20.3867 10.3464ZM20.4459 14.708L20.4409 14.6583L20.3991 14.6624L20.396 14.7043L20.4459 14.708ZM3.55415 14.708L3.60401 14.7043L3.60091 14.6624L3.5591 14.6583L3.55415 14.708ZM3.61333 10.3464L3.64099 10.388L3.67506 10.3654L3.65964 10.3275L3.61333 10.3464ZM4.71123 9.74358L4.66381 9.75944L4.68133 9.8118L4.7317 9.78919L4.71123 9.74358ZM19.2888 9.74358L19.2683 9.78919L19.3187 9.8118L19.3362 9.75944L19.2888 9.74358ZM4.80542 14.718L4.80287 14.6681L4.75135 14.6707L4.75559 14.7221L4.80542 14.718ZM6.46412 14.5946L6.45994 14.5448L6.46412 14.5946ZM17.5411 14.5949L17.5369 14.6447L17.5411 14.5949ZM19.1946 14.718L19.2444 14.7221L19.2486 14.6707L19.1971 14.6681L19.1946 14.718ZM20.6846 13.4408L20.7088 13.4845L20.7756 13.4475L20.715 13.4011L20.6846 13.4408ZM20.6889 13.4196L20.6407 13.4063V13.4063L20.6889 13.4196ZM20.75 12.8408L20.8 12.8408V12.8408H20.75ZM3.33545 13.4617L3.29412 13.4898L3.37924 13.4375L3.33545 13.4617ZM3.35303 13.4644L3.36626 13.4162H3.36626L3.35303 13.4644ZM6.34532 13.4003L6.34115 13.3505H6.34115L6.34532 13.4003ZM6.35332 13.3996L6.34915 13.3498H6.34915L6.35332 13.3996ZM6.36584 13.3986L6.37001 13.4484H6.37001L6.36584 13.3986ZM17.6471 13.3996L17.6429 13.4495L17.6429 13.4495L17.6471 13.3996ZM17.6569 13.4005L17.6611 13.3506H17.6611L17.6569 13.4005ZM20.433 10.3652C20.6725 9.77556 20.8 9.00973 20.8 7.9928H20.7C20.7 9.00227 20.5733 9.75406 20.3403 10.3276L20.433 10.3652ZM22.05 12.8408C22.05 11.8015 21.4063 10.9638 20.4143 10.3047L20.359 10.388C21.3371 11.0379 21.95 11.8489 21.95 12.8408H22.05ZM20.4508 14.7578C20.998 14.7033 21.4019 14.5577 21.6673 14.2519C21.932 13.9468 22.05 13.4922 22.05 12.8408H21.95C21.95 13.4834 21.833 13.9084 21.5917 14.1864C21.351 14.4638 20.9779 14.6048 20.4409 14.6583L20.4508 14.7578ZM12 24.05C16.4713 24.05 20.1094 19.9342 20.4957 14.7117L20.396 14.7043C20.0123 19.8914 16.4037 23.95 12 23.95V24.05ZM3.50429 14.7117C3.89061 19.9342 7.52867 24.05 12 24.05V23.95C7.59633 23.95 3.98771 19.8914 3.60401 14.7043L3.50429 14.7117ZM1.95 12.8408C1.95 13.4922 2.06787 13.9468 2.3326 14.2519C2.59787 14.5577 3.00182 14.7033 3.5492 14.7578L3.5591 14.6583C3.02191 14.6048 2.64878 14.4638 2.40813 14.1864C2.16692 13.9084 2.05 13.4834 2.05 12.8408H1.95ZM3.58567 10.3047C2.59332 10.9638 1.95 11.8019 1.95 12.8408H2.05C2.05 11.8493 2.66254 11.0378 3.64099 10.388L3.58567 10.3047ZM3.2 7.9928C3.2 9.0097 3.32705 9.77556 3.56702 10.3652L3.65964 10.3275C3.42627 9.75406 3.3 9.0023 3.3 7.9928H3.2ZM12 -0.05C9.17321 -0.05 6.97196 0.662675 5.47705 2.02823C3.98143 3.39443 3.2 5.40753 3.2 7.9928H3.3C3.3 5.42805 4.0746 3.44475 5.54449 2.10206C7.0151 0.758716 9.18885 0.05 12 0.05V-0.05ZM20.8 7.9928C20.8 5.40753 20.0186 3.39443 18.5229 2.02823C17.028 0.662675 14.8268 -0.05 12 -0.05V0.05C14.8111 0.05 16.9849 0.758716 18.4555 2.10206C19.9254 3.44475 20.7 5.42805 20.7 7.9928H20.8ZM12 1.25C14.4816 1.25 16.3425 1.81985 17.5827 2.94311C18.822 4.06554 19.45 5.74824 19.45 7.9928H19.55C19.55 5.72976 18.9163 4.01606 17.6498 2.86899C16.3842 1.72275 14.495 1.15 12 1.15V1.25ZM4.55 7.9928C4.55 5.74824 5.178 4.06554 6.41732 2.94311C7.65755 1.81985 9.51838 1.25 12 1.25V1.15C9.50496 1.15 7.61579 1.72275 6.35019 2.86899C5.08367 4.01606 4.45 5.72976 4.45 7.9928H4.55ZM4.75865 9.72771C4.6215 9.31785 4.55 8.77117 4.55 7.9928H4.45C4.45 8.77602 4.52176 9.33493 4.66381 9.75944L4.75865 9.72771ZM12 8.35C9.59576 8.35 6.74105 8.77775 4.69076 9.69796L4.7317 9.78919C6.76481 8.87669 9.60424 8.45 12 8.45V8.35ZM19.3092 9.69796C17.259 8.77775 14.4042 8.35 12 8.35V8.45C14.3958 8.45 17.2352 8.87669 19.2683 9.78919L19.3092 9.69796ZM19.45 7.9928C19.45 8.77117 19.3785 9.31785 19.2414 9.72772L19.3362 9.75944C19.4782 9.33493 19.55 8.77602 19.55 7.9928H19.45ZM4.75559 14.7221C5.13025 19.2686 8.21847 22.85 12 22.85V22.75C8.28817 22.75 5.22726 19.2282 4.85525 14.7139L4.75559 14.7221ZM6.45994 14.5448C5.83445 14.5973 5.28417 14.6435 4.80287 14.6681L4.80797 14.7679C5.29125 14.7432 5.8433 14.6969 6.4683 14.6445L6.45994 14.5448ZM12 14.2712C9.72068 14.2712 7.89452 14.4244 6.45994 14.5448L6.4683 14.6445C7.90264 14.5241 9.7252 14.3712 12 14.3712V14.2712ZM17.5453 14.5451C16.11 14.4246 14.2824 14.2712 12 14.2712V14.3712C14.2778 14.3712 16.1019 14.5243 17.5369 14.6447L17.5453 14.5451ZM19.1971 14.6681C18.7172 14.6434 18.1686 14.5974 17.5453 14.5451L17.5369 14.6447C18.1598 14.697 18.7101 14.7432 19.192 14.7679L19.1971 14.6681ZM12 22.85C15.7815 22.85 18.8697 19.2686 19.2444 14.7221L19.1447 14.7139C18.7727 19.2282 15.7118 22.75 12 22.75V22.85ZM20.6603 13.3971C20.6422 13.4071 20.4766 13.4872 19.8517 13.4872V13.5872C20.4809 13.5872 20.6677 13.5073 20.7088 13.4845L20.6603 13.3971ZM20.6407 13.4063C20.639 13.4125 20.6372 13.4191 20.6361 13.4241C20.6356 13.4264 20.6346 13.4309 20.6343 13.4361C20.6341 13.4386 20.634 13.4439 20.6353 13.4502C20.6364 13.4559 20.6403 13.4699 20.6542 13.4805L20.715 13.4011C20.7285 13.4115 20.7322 13.4251 20.7332 13.4301C20.7344 13.4359 20.7342 13.4404 20.7341 13.4419C20.7339 13.4451 20.7334 13.447 20.7337 13.4458C20.7341 13.4439 20.7351 13.4403 20.7371 13.4329L20.6407 13.4063ZM20.7001 12.8408C20.7 13.1931 20.6547 13.3555 20.6407 13.4063L20.7371 13.4329C20.7532 13.3745 20.8 13.2032 20.8 12.8408L20.7001 12.8408ZM12 9.65005C14.0649 9.65005 16.2468 9.98212 17.9109 10.5515C18.7432 10.8363 19.4431 11.1794 19.9338 11.5679C20.4251 11.9568 20.7001 12.3852 20.7001 12.8408H20.8C20.8 12.3415 20.4986 11.8873 19.9959 11.4895C19.4928 11.0912 18.7811 10.7436 17.9433 10.4569C16.2671 9.88337 14.074 9.55005 12 9.55005V9.65005ZM3.30005 12.8408C3.30005 12.3852 3.57496 11.9568 4.06625 11.5679C4.55704 11.1794 5.25691 10.8363 6.0892 10.5515C7.75331 9.98212 9.93522 9.65005 12 9.65005V9.55005C9.92611 9.55005 7.73302 9.88337 6.05682 10.4569C5.21896 10.7436 4.50734 11.0912 4.00419 11.4895C3.50154 11.8873 3.20005 12.3415 3.20005 12.8408H3.30005ZM3.37678 13.4335C3.38425 13.4445 3.30005 13.3225 3.30005 12.8408H3.20005C3.20005 13.3304 3.28499 13.4764 3.29412 13.4898L3.37678 13.4335ZM3.33628 13.4104C3.33402 13.4104 3.32812 13.4105 3.32106 13.4127C3.31376 13.4149 3.29916 13.4213 3.29061 13.4382C3.28248 13.4542 3.28548 13.4689 3.28703 13.4745C3.28866 13.4804 3.29103 13.4847 3.29166 13.4858L3.37924 13.4375C3.37965 13.4383 3.38185 13.4422 3.3834 13.4478C3.38487 13.4531 3.38786 13.4675 3.37984 13.4833C3.37139 13.5 3.357 13.5063 3.35004 13.5084C3.34333 13.5104 3.3379 13.5104 3.33628 13.5104V13.4104ZM3.36626 13.4162C3.36191 13.415 3.35754 13.4138 3.35402 13.4129C3.35245 13.4126 3.34453 13.4104 3.33628 13.4104V13.5104C3.33393 13.5104 3.33214 13.5103 3.33126 13.5101C3.3303 13.51 3.32963 13.5099 3.32939 13.5099C3.32896 13.5098 3.32905 13.5098 3.33002 13.51C3.33202 13.5105 3.33493 13.5113 3.3398 13.5127L3.36626 13.4162ZM4.14834 13.4872C3.62247 13.4872 3.41908 13.4307 3.36626 13.4162L3.3398 13.5127C3.4019 13.5297 3.61424 13.5872 4.14834 13.5872V13.4872ZM6.34115 13.3505C5.42744 13.427 4.70828 13.4872 4.14834 13.4872V13.5872C4.71344 13.5872 5.43748 13.5265 6.3495 13.4501L6.34115 13.3505ZM6.34915 13.3498L6.34115 13.3505L6.3495 13.4501L6.35749 13.4495L6.34915 13.3498ZM6.36167 13.3488L6.34915 13.3498L6.35749 13.4495L6.37001 13.4484L6.36167 13.3488ZM12 13.0716C9.67226 13.0716 7.83633 13.2253 6.36167 13.3488L6.37001 13.4484C7.8444 13.325 9.67675 13.1716 12 13.1716V13.0716ZM17.6513 13.3498C16.1744 13.2258 14.3347 13.0716 12 13.0716V13.1716C14.3302 13.1716 16.1664 13.3255 17.6429 13.4495L17.6513 13.3498ZM17.6611 13.3506L17.6512 13.3498L17.6429 13.4495L17.6528 13.4503L17.6611 13.3506ZM19.8517 13.4872C19.2921 13.4872 18.5739 13.4271 17.6611 13.3506L17.6528 13.4503C18.5639 13.5266 19.2869 13.5872 19.8517 13.5872V13.4872Z" fill="white"/>
<path fill-rule="evenodd" clip-rule="evenodd" d="M10 3H14C14.5523 3 15 3.44766 15 4V5C15 5.55234 14.5523 6 14 6H10C9.44766 6 9 5.55234 9 5V4C9 3.44766 9.44766 3 10 3ZM10 5H14V4H10V5Z" fill="white"/>
</g>
<defs>
<clipPath id="clip0">
<rect width="24" height="24" fill="white"/>
</clipPath>
</defs>
</svg>
