<svg width="15" height="24" viewBox="0 0 15 24" fill="none" xmlns="http://www.w3.org/2000/svg">
<path fill-rule="evenodd" clip-rule="evenodd" d="M0.42501 23.2C0.152518 22.9273 -0.000569344 22.5574 -1.90735e-06 22.1717L-1.90735e-06 1.82569C-0.000569344 1.44004 0.152518 1.0701 0.42501 0.797415C0.697691 0.524923 1.06763 0.371838 1.45329 0.372404H12.5467C12.9324 0.371838 13.3023 0.524923 13.575 0.797415C13.8475 1.0701 14.0006 1.44004 14 1.82569L14 22.1717C14.0006 22.5574 13.8475 22.9273 13.575 23.2C13.3023 23.4725 12.9324 23.6256 12.5467 23.625H1.45329C1.06763 23.6256 0.697691 23.4725 0.42501 23.2ZM1.41941 22.6561H12.5321C12.8022 22.6565 13.0236 22.4417 13.0311 22.1717V20.5731H0.920414V22.1717C0.927983 22.4417 1.14938 22.6565 1.41941 22.6561ZM0.920403 19.6042L0.920403 4.17423H13.0311L13.0311 19.6042H0.920403ZM12.5321 1.34125H1.4194C1.14937 1.34088 0.927973 1.55565 0.920403 1.82568L0.920403 4.15094H13.0311L13.0311 1.82568C13.0236 1.55565 12.8022 1.34088 12.5321 1.34125Z" fill="white"/>
<path d="M-1.90735e-06 22.1717L0.149998 22.1719V22.1717H-1.90735e-06ZM0.42501 23.2L0.318907 23.306L0.31898 23.3061L0.42501 23.2ZM-1.90735e-06 1.82569H0.149998V1.82547L-1.90735e-06 1.82569ZM0.42501 0.797415L0.31898 0.691311L0.318907 0.691385L0.42501 0.797415ZM1.45329 0.372404L1.45306 0.522404H1.45329V0.372404ZM12.5467 0.372404V0.522404H12.5469L12.5467 0.372404ZM13.575 0.797415L13.6811 0.691385L13.681 0.691311L13.575 0.797415ZM14 1.82569L13.85 1.82547V1.82569H14ZM14 22.1717H13.85L13.85 22.1719L14 22.1717ZM13.575 23.2L13.681 23.3061L13.6811 23.306L13.575 23.2ZM12.5467 23.625L12.5469 23.475H12.5467V23.625ZM1.45329 23.625V23.475L1.45306 23.475L1.45329 23.625ZM12.5321 22.6561L12.5324 22.5061H12.5321V22.6561ZM1.41941 22.6561V22.5061L1.4192 22.5061L1.41941 22.6561ZM13.0311 22.1717L13.1811 22.1759V22.1717H13.0311ZM13.0311 20.5731H13.1811V20.4231H13.0311V20.5731ZM0.920414 20.5731V20.4231H0.770413V20.5731H0.920414ZM0.920414 22.1717H0.770354L0.770473 22.1759L0.920414 22.1717ZM0.920403 4.17423V4.02423H0.770403V4.17423H0.920403ZM0.920403 19.6042H0.770403V19.7542H0.920403V19.6042ZM13.0311 4.17423H13.1811V4.02423H13.0311V4.17423ZM13.0311 19.6042V19.7542H13.1811V19.6042H13.0311ZM1.4194 1.34125L1.41919 1.49125H1.4194V1.34125ZM12.5321 1.34125V1.49125H12.5323L12.5321 1.34125ZM0.920403 1.82568L0.770403 1.82148V1.82568H0.920403ZM0.920403 4.15094H0.770403V4.30094H0.920403V4.15094ZM13.0311 4.15094V4.30094H13.1811V4.15094H13.0311ZM13.0311 1.82568H13.1812L13.1811 1.82148L13.0311 1.82568ZM-0.150002 22.1715C-0.150628 22.597 0.0182934 23.0052 0.318907 23.306L0.531113 23.094C0.286743 22.8494 0.149488 22.5177 0.149998 22.1719L-0.150002 22.1715ZM-0.150002 1.82569L-0.150002 22.1717H0.149998L0.149998 1.82569H-0.150002ZM0.318907 0.691385C0.0182924 0.992207 -0.150628 1.40036 -0.150002 1.82591L0.149998 1.82547C0.149488 1.47972 0.286743 1.14798 0.531112 0.903444L0.318907 0.691385ZM1.45351 0.222404C1.02796 0.221779 0.619803 0.390697 0.31898 0.691311L0.531038 0.903517C0.775578 0.659149 1.10731 0.521896 1.45306 0.522404L1.45351 0.222404ZM12.5467 0.222404H1.45329V0.522404H12.5467V0.222404ZM13.681 0.691311C13.3802 0.390697 12.972 0.221779 12.5465 0.222404L12.5469 0.522404C12.8927 0.521896 13.2244 0.659149 13.469 0.903517L13.681 0.691311ZM14.15 1.82591C14.1506 1.40036 13.9817 0.992207 13.6811 0.691385L13.4689 0.903444C13.7133 1.14798 13.8505 1.47972 13.85 1.82547L14.15 1.82591ZM14.15 22.1717L14.15 1.82569H13.85L13.85 22.1717H14.15ZM13.6811 23.306C13.9817 23.0052 14.1506 22.597 14.15 22.1715L13.85 22.1719C13.8505 22.5177 13.7133 22.8494 13.4689 23.094L13.6811 23.306ZM12.5465 23.775C12.972 23.7756 13.3802 23.6067 13.681 23.3061L13.469 23.0939C13.2244 23.3383 12.8927 23.4755 12.5469 23.475L12.5465 23.775ZM1.45329 23.775H12.5467V23.475H1.45329V23.775ZM0.31898 23.3061C0.619803 23.6067 1.02796 23.7756 1.45351 23.775L1.45306 23.475C1.10731 23.4755 0.775578 23.3383 0.531038 23.0939L0.31898 23.3061ZM12.5321 22.5061H1.41941V22.8061H12.5321V22.5061ZM12.8812 22.1675C12.8759 22.3562 12.7212 22.5064 12.5324 22.5061L12.5319 22.8061C12.8832 22.8066 13.1712 22.5273 13.1811 22.1759L12.8812 22.1675ZM12.8811 20.5731V22.1717H13.1811V20.5731H12.8811ZM0.920414 20.7231H13.0311V20.4231H0.920414V20.7231ZM1.07041 22.1717V20.5731H0.770413V22.1717H1.07041ZM1.4192 22.5061C1.2304 22.5064 1.07564 22.3562 1.07035 22.1675L0.770473 22.1759C0.780321 22.5273 1.06837 22.8066 1.41962 22.8061L1.4192 22.5061ZM0.770403 4.17423L0.770403 19.6042H1.0704L1.0704 4.17423H0.770403ZM13.0311 4.02423H0.920403V4.32423H13.0311V4.02423ZM13.1811 19.6042L13.1811 4.17423H12.8811L12.8811 19.6042H13.1811ZM0.920403 19.7542H13.0311V19.4542H0.920403V19.7542ZM1.4194 1.49125H12.5321V1.19125H1.4194V1.49125ZM1.07034 1.82988C1.07563 1.64117 1.23039 1.49099 1.41919 1.49125L1.41961 1.19125C1.06836 1.19076 0.780311 1.47013 0.770462 1.82148L1.07034 1.82988ZM1.0704 4.15094L1.0704 1.82568H0.770403L0.770403 4.15094H1.0704ZM13.0311 4.00094H0.920403V4.30094H13.0311V4.00094ZM12.8811 1.82568L12.8811 4.15094H13.1811L13.1811 1.82568H12.8811ZM12.5323 1.49125C12.7211 1.49099 12.8759 1.64117 12.8812 1.82988L13.1811 1.82148C13.1712 1.47013 12.8832 1.19076 12.5319 1.19125L12.5323 1.49125Z" fill="white"/>
<path d="M4.59237 3.06885L9.35908 3.06885C9.62665 3.06885 9.84351 2.85199 9.84351 2.58442C9.84351 2.31685 9.62665 2.09999 9.35908 2.09999L4.59237 2.09999C4.3248 2.09999 4.10794 2.31685 4.10794 2.58442C4.10794 2.85199 4.3248 3.06885 4.59237 3.06885Z" fill="white"/>
</svg>
