<svg width="218" height="217" viewBox="0 0 218 217" fill="none" xmlns="http://www.w3.org/2000/svg">
<path opacity="0.11" d="M109 217C169.199 217 218 168.423 218 108.5C218 48.5771 169.199 0 109 0C48.801 0 0 48.5771 0 108.5C0 168.423 48.801 217 109 217Z" fill="#F7F9FD"/>
<path opacity="0.3325" d="M109.225 5.2627C137.797 5.2627 163.669 16.7957 182.398 35.4389C201.127 54.0821 212.713 79.8354 212.713 108.276C212.713 136.717 201.127 162.47 182.398 181.113C163.669 199.757 137.797 211.29 109.225 211.29C52.0815 211.29 5.73682 165.157 5.73682 108.276C5.73682 79.8354 17.323 54.0821 36.0521 35.4389C54.7812 16.7957 80.6532 5.2627 109.225 5.2627Z" fill="#F7EBC3" stroke="#242930" stroke-width="0.5" stroke-miterlimit="10"/>
<path opacity="0.555" d="M109.45 10.5253C136.503 10.5253 161.025 21.4425 178.742 39.0779C196.459 56.7134 207.426 81.123 207.426 108.052C207.426 134.981 196.459 159.391 178.742 177.026C161.025 194.662 136.503 205.579 109.45 205.579C55.3436 205.579 11.4736 161.91 11.4736 108.052C11.4736 81.123 22.4411 56.7134 40.1578 39.0779C57.8746 21.4425 82.3968 10.5253 109.45 10.5253Z" fill="#F6DE92" stroke="#242930" stroke-miterlimit="10"/>
<path opacity="0.7775" d="M109.731 15.7879C135.266 15.7879 158.382 26.0892 175.086 42.717C191.791 59.3447 202.139 82.3547 202.139 107.772C202.139 133.19 191.791 156.2 175.086 172.827C158.382 189.455 135.266 199.868 109.731 199.868C58.6621 199.868 17.2668 158.663 17.2668 107.828C17.2668 82.4107 27.6157 59.4007 44.32 42.7729C61.0243 26.1452 84.1967 15.7879 109.731 15.7879Z" fill="#F5D369" stroke="#242930" stroke-width="1.5" stroke-miterlimit="10"/>
<path d="M196.909 107.604C196.909 131.51 187.179 153.12 171.43 168.796C155.682 184.472 133.972 194.158 109.956 194.158C61.9242 194.158 23.0037 155.416 23.0037 107.604C23.0037 83.6984 32.7338 62.0879 48.482 46.412C64.2302 30.736 85.9402 21.0505 109.956 21.0505C133.972 21.0505 155.682 30.736 171.43 46.412C187.179 62.032 196.909 83.6984 196.909 107.604Z" fill="#F4C944" stroke="#242930" stroke-width="2" stroke-miterlimit="10"/>
<path d="M52.363 50.1635C66.7613 35.1034 87.2902 25.6978 109.956 25.6978C132.623 25.6978 153.151 35.1034 167.55 50.1635C176.774 59.849 183.354 71.7179 186.729 84.6506C188.922 91.8727 190.16 100.439 190.16 108.332C190.16 115.051 189.429 122.273 187.854 128.487C184.31 142.596 177.167 156.872 167.156 166.837C152.758 181.17 131.948 190.071 109.956 190.071C100.564 190.071 90.6648 188.448 82.2846 185.481C64.7366 179.266 50.282 165.438 40.8893 149.762C33.7464 137.837 29.8093 122.609 29.8093 107.773C29.8093 103.686 30.1468 99.3188 30.7655 95.3998C32.8465 78.1563 40.6081 62.3684 52.363 50.1635Z" fill="#D3B147"/>
<path d="M109.956 25.6414C132.622 25.6414 153.151 35.0469 167.55 50.1071C176.774 59.7926 183.354 71.6615 186.729 84.5942C188.922 91.8163 190.16 100.382 190.16 108.276C190.16 114.994 189.428 122.216 187.854 128.431C184.31 142.539 177.167 156.816 167.156 166.781C152.758 181.113 131.947 190.015 109.956 190.015C100.564 190.015 90.6647 188.391 82.2844 185.424C64.7364 179.21 50.2818 165.381 40.8891 149.705C33.7462 137.836 29.8092 122.608 29.8092 107.772C29.8092 103.685 30.1466 99.3184 30.7653 95.3994C32.9026 78.1558 40.6079 62.3679 52.3628 50.1071C66.7612 35.1029 87.2338 25.6414 109.956 25.6414ZM109.956 25.5854C98.8763 25.5854 88.1337 27.8248 78.0099 32.1917C68.2798 36.4466 59.6183 42.437 52.3066 50.1071C46.401 56.2655 41.5641 63.2637 37.9082 70.8777C34.1962 78.6597 31.7777 86.8896 30.7091 95.4554C30.0904 99.4863 29.7529 103.909 29.7529 107.828C29.7529 122.776 33.8025 138.116 40.8329 149.817C45.6699 157.879 51.8004 165.269 58.4934 171.26C65.8613 177.81 73.8479 182.625 82.2844 185.592C90.6647 188.559 100.451 190.183 109.956 190.183C131.498 190.183 152.364 181.729 167.212 166.893C176.605 157.543 184.141 143.547 187.966 128.487C189.428 122.608 190.272 115.442 190.272 108.276C190.272 100.494 189.035 91.8723 186.785 84.5382C183.41 71.6055 176.83 59.6806 167.606 50.0511C160.294 42.3811 151.633 36.3906 141.903 32.1357C131.835 27.7688 121.036 25.5854 109.956 25.5854Z" fill="url(#paint0_linear)"/>
<path d="M52.363 50.1635C66.7613 35.1034 87.2902 25.6978 109.956 25.6978C132.623 25.6978 153.151 35.1034 167.55 50.1635C176.774 59.849 183.354 71.7179 186.729 84.6506C188.922 91.8727 190.16 100.439 190.16 108.332C190.16 115.051 189.429 122.273 187.854 128.487C184.31 142.596 177.167 156.872 167.156 166.837C152.758 181.17 131.948 190.071 109.956 190.071C100.564 190.071 90.6648 188.448 82.2846 185.481C64.7366 179.266 50.282 165.438 40.8893 149.762C33.7464 137.837 29.8093 122.609 29.8093 107.773C29.8093 103.686 30.1468 99.3188 30.7655 95.3998C32.8465 78.1563 40.6081 62.3683 52.363 50.1635Z" stroke="#242930" stroke-width="1.8333" stroke-miterlimit="10"/>
<path d="M56.2436 53.8589C69.3483 39.4706 88.5836 30.2889 109.956 30.2889C131.329 30.2889 150.62 39.4146 163.669 53.8589C172.105 63.2084 177.673 74.5735 180.148 86.4984C182.117 93.0487 183.41 101.838 183.41 109.005C183.41 115.107 182.848 122.553 181.442 128.152C178.18 140.972 171.937 155.753 162.825 164.822C149.72 177.867 129.923 185.929 109.9 185.929C101.351 185.929 91.4521 184.473 83.8592 181.73C67.9423 176.075 55.0062 161.687 46.4572 147.411C39.9892 136.605 36.5583 121.377 36.5583 107.829C36.5583 104.134 36.9521 99.767 37.4582 96.1839C38.9206 80.452 45.5573 65.6158 56.2436 53.8589Z" fill="#BA9D4A"/>
<path d="M109.956 30.2882C131.329 30.2882 150.62 39.4138 163.669 53.8581C172.105 63.2077 177.673 74.5728 180.148 86.4977C182.116 93.048 183.41 101.838 183.41 109.004C183.41 115.106 182.848 122.552 181.442 128.151C178.179 140.972 171.936 155.752 162.825 164.821C149.72 177.866 129.922 185.928 109.9 185.928C101.351 185.928 91.4519 184.472 83.859 181.729C67.9421 176.075 55.0061 161.686 46.4571 147.41C39.9891 136.605 36.5582 121.377 36.5582 107.828C36.5582 104.133 36.9519 99.7663 37.4581 96.1832C38.8642 80.2833 45.5009 65.4471 56.1872 53.7461C69.3482 39.4698 88.5835 30.2882 109.956 30.2882ZM109.956 30.1202C89.4271 30.1202 69.7981 38.742 56.1309 53.7461C45.3884 65.5031 38.7517 80.6192 37.4018 96.2952C36.8394 100.102 36.502 104.413 36.502 107.94C36.502 122.44 40.214 137.277 46.4008 147.578C52.4189 157.599 65.2424 175.347 83.9153 181.953C91.2832 184.584 101.07 186.152 110.012 186.152C129.922 186.152 149.72 178.258 163.05 164.989C174.355 153.736 179.867 135.541 181.667 128.207C183.466 121.097 183.635 112.419 183.635 109.004C183.635 101.894 182.341 93.048 180.373 86.4417C177.786 74.2369 172.105 62.9278 163.837 53.7461C150.283 38.742 130.654 30.1202 109.956 30.1202Z" fill="url(#paint1_linear)"/>
<path d="M56.2436 53.8589C69.3483 39.4706 88.5836 30.2889 109.956 30.2889C131.329 30.2889 150.62 39.4146 163.669 53.8589C172.105 63.2084 177.673 74.5735 180.148 86.4984C182.117 93.0487 183.41 101.838 183.41 109.005C183.41 115.107 182.848 122.553 181.442 128.152C178.18 140.972 171.937 155.753 162.825 164.822C149.72 177.867 129.923 185.929 109.9 185.929C101.351 185.929 91.4521 184.473 83.8592 181.73C67.9423 176.075 55.0062 161.687 46.4572 147.411C39.9892 136.605 36.5583 121.377 36.5583 107.829C36.5583 104.134 36.9521 99.767 37.4582 96.1839C38.9206 80.452 45.5573 65.6158 56.2436 53.8589Z" stroke="#242930" stroke-width="1.6667" stroke-miterlimit="10"/>
<path d="M60.1243 57.6092C71.9354 43.8367 89.8771 34.879 109.956 34.879C130.035 34.879 148.089 43.6688 159.788 57.6092C167.381 66.6788 171.936 77.428 173.624 88.3452C175.424 94.2797 176.717 103.237 176.717 109.676C176.717 115.162 176.323 122.776 175.03 127.815C172.105 139.348 166.762 154.688 158.55 162.806C146.739 174.563 127.954 181.841 109.956 181.841C102.251 181.841 92.3518 180.497 85.4901 178.09C71.148 172.995 59.7868 158.047 52.0814 145.227C46.2321 135.485 43.4199 120.201 43.4199 108.052C43.4199 104.693 43.8136 100.326 44.3198 97.1349C44.9385 82.7467 50.5066 68.8063 60.1243 57.6092Z" fill="#A38C4B"/>
<path d="M109.956 34.935C130.035 34.935 148.089 43.7247 159.788 57.6652C167.381 66.7348 171.936 77.484 173.624 88.4012C175.424 94.3357 176.717 103.293 176.717 109.732C176.717 115.218 176.323 122.832 175.03 127.871C172.105 139.404 166.762 154.744 158.55 162.862C146.739 174.619 127.954 181.897 109.956 181.897C102.251 181.897 92.3518 180.553 85.4901 178.146C71.148 173.051 59.7868 158.103 52.0814 145.283C46.2321 135.541 43.4199 120.257 43.4199 108.108C43.4199 104.749 43.8136 100.382 44.3198 97.191C44.9947 82.6907 50.5628 68.8063 60.1242 57.6092C71.9354 43.8367 89.8771 34.935 109.956 34.935ZM109.956 34.6551C90.552 34.6551 72.3291 42.9969 59.8993 57.4412C50.3378 68.6383 44.6573 82.7467 44.0386 97.191C43.4761 100.718 43.1387 105.029 43.1387 108.108C43.1387 118.633 45.4447 134.701 51.8564 145.395C62.5427 163.142 73.7914 174.283 85.3776 178.37C91.7331 180.609 101.576 182.177 109.9 182.177C128.179 182.177 146.908 174.843 158.719 163.086C167.606 154.24 172.893 137.277 175.255 127.927C176.773 121.993 176.942 113.203 176.942 109.676C176.942 103.237 175.648 94.2237 173.849 88.2892C172.105 76.8122 167.324 66.119 159.957 57.3852C154.107 50.443 146.571 44.6765 138.078 40.7575C129.304 36.7266 119.799 34.6551 109.956 34.6551Z" fill="url(#paint2_linear)"/>
<path d="M60.1243 57.6092C71.9354 43.8367 89.8771 34.879 109.956 34.879C130.035 34.879 148.089 43.6688 159.788 57.6092C167.381 66.6788 171.936 77.428 173.624 88.3452C175.424 94.2797 176.717 103.237 176.717 109.676C176.717 115.162 176.323 122.776 175.03 127.815C172.105 139.348 166.762 154.688 158.55 162.806C146.739 174.563 127.954 181.841 109.956 181.841C102.251 181.841 92.3518 180.497 85.4901 178.09C71.148 172.995 59.7868 158.047 52.0814 145.227C46.2321 135.485 43.4199 120.201 43.4199 108.052C43.4199 104.693 43.8136 100.326 44.3198 97.1349C44.9385 82.7467 50.5066 68.8063 60.1243 57.6092Z" stroke="#242930" stroke-width="1.5" stroke-miterlimit="10"/>
<path d="M64.005 61.3601C74.4663 48.2035 91.2269 39.5258 109.956 39.5258C128.685 39.5258 145.558 48.0915 155.907 61.3601C162.712 70.0939 166.256 80.3392 167.043 90.2487C168.618 95.5113 169.968 104.637 169.968 110.403C169.968 115.274 169.743 123.056 168.618 127.591C166.031 137.836 161.588 153.68 154.276 160.902C143.815 171.316 125.929 177.81 109.956 177.81C103.094 177.81 93.1954 176.634 87.1211 174.451C74.3538 169.916 64.5674 154.408 57.7057 143.043C52.5313 134.421 50.2253 119.081 50.2253 108.276C50.2253 105.309 50.619 100.942 51.069 98.0866C51.0128 85.042 55.456 72.0534 64.005 61.3601Z" fill="#8F7D4B"/>
<path d="M109.956 39.5258C128.685 39.5258 145.558 48.0916 155.907 61.3602C162.713 70.0939 166.256 80.3393 167.043 90.2487C168.618 95.5113 169.968 104.637 169.968 110.404C169.968 115.274 169.743 123.056 168.618 127.591C166.031 137.836 161.588 153.68 154.276 160.902C143.815 171.316 125.929 177.81 109.956 177.81C103.094 177.81 93.1955 176.634 87.1212 174.451C74.3539 169.916 64.5675 154.408 57.7058 143.043C52.5314 134.421 50.2254 119.081 50.2254 108.276C50.2254 105.309 50.6191 100.942 51.0691 98.0867C51.0128 84.9861 55.4561 71.9974 64.0051 61.3602C74.4664 48.2036 91.1707 39.5258 109.956 39.5258ZM109.956 39.1899C100.732 39.1899 91.9019 41.2054 83.7466 45.1803C75.9287 48.9874 69.0108 54.4739 63.7239 61.1362C55.2873 71.7175 50.6191 84.8181 50.7316 98.0867C50.2816 100.886 49.8879 105.309 49.8879 108.276C49.8879 119.417 52.1939 134.533 57.4246 143.211C63.0489 152.561 73.5102 170.028 87.0087 174.787C93.2517 176.97 103.263 178.146 110.012 178.146C117.999 178.146 126.435 176.578 134.366 173.611C142.465 170.588 149.495 166.277 154.613 161.182C161.756 154.072 166.256 138.676 169.068 127.703C170.193 123.28 170.418 115.89 170.418 110.459C170.418 104.749 169.068 95.5113 167.493 90.1927C166.593 79.4995 162.713 69.4221 156.244 61.1362C145.502 47.3638 128.179 39.1899 109.956 39.1899Z" fill="url(#paint3_linear)"/>
<path d="M64.005 61.3601C74.4663 48.2035 91.2269 39.5258 109.956 39.5258C128.685 39.5258 145.558 48.0915 155.907 61.3601C162.712 70.0939 166.256 80.3392 167.043 90.2487C168.618 95.5113 169.968 104.637 169.968 110.403C169.968 115.274 169.743 123.056 168.618 127.591C166.031 137.836 161.588 153.68 154.276 160.902C143.815 171.316 125.929 177.81 109.956 177.81C103.094 177.81 93.1954 176.634 87.1211 174.451C74.3538 169.916 64.5674 154.408 57.7057 143.043C52.5313 134.421 50.2253 119.081 50.2253 108.276C50.2253 105.309 50.619 100.942 51.069 98.0866C51.0128 85.042 55.456 72.0534 64.005 61.3601Z" stroke="#242930" stroke-width="1.3333" stroke-miterlimit="10"/>
<path d="M67.8858 65.1112C77.0535 52.5704 92.5204 44.1726 109.956 44.1726C127.391 44.1726 143.027 52.4585 152.026 65.1112C158.044 73.565 160.519 83.2505 160.519 92.1522C161.925 96.7431 163.219 106.093 163.219 111.131C163.219 115.386 163.219 123.336 162.206 127.311C159.956 136.269 156.357 152.617 150.001 158.999C140.834 168.125 123.961 173.779 109.956 173.779C103.994 173.779 94.039 172.771 88.6959 170.868C77.5597 166.893 69.2919 150.825 63.33 140.86C58.7743 133.302 57.0308 117.962 57.0308 108.5C57.0308 105.925 57.4807 101.502 57.8744 99.0385C57.0308 87.3375 60.4054 75.3006 67.8858 65.1112Z" fill="#7C6F4B"/>
<path d="M109.956 44.1726C127.392 44.1726 143.027 52.4585 152.026 65.1112C158.044 73.565 160.519 83.2505 160.519 92.1522C161.925 96.743 163.219 106.093 163.219 111.131C163.219 115.386 163.219 123.336 162.206 127.311C159.957 136.269 156.357 152.617 150.001 158.999C140.834 168.125 123.961 173.779 109.956 173.779C103.994 173.779 94.0391 172.771 88.696 170.868C77.5597 166.893 69.2919 150.825 63.3301 140.86C58.7744 133.302 57.0309 117.962 57.0309 108.5C57.0309 105.925 57.4808 101.502 57.8745 99.0384C57.0871 87.3375 60.4617 75.3006 67.9421 65.1112C77.0536 52.5704 92.5205 44.1726 109.956 44.1726ZM109.956 43.7247C93.083 43.7247 77.2223 51.6187 67.4921 64.8873C60.1242 74.9087 56.5247 87.0016 57.3683 99.0384C56.9746 101.67 56.5247 105.981 56.5247 108.5C56.5247 119.081 58.4932 133.805 62.8802 141.084C63.5551 142.259 64.2863 143.491 65.0737 144.779C70.7543 154.464 78.5159 167.733 88.5272 171.26C93.7579 173.107 103.488 174.227 109.956 174.227C124.917 174.227 141.509 168.069 150.339 159.279C156.244 153.4 159.732 139.292 162.038 129.942C162.263 129.047 162.488 128.207 162.656 127.367C163.669 123.28 163.669 115.05 163.669 111.075C163.669 106.037 162.319 96.6311 160.969 91.9843C160.969 85.098 159.507 74.7407 152.364 64.7193C147.864 58.337 141.621 53.0183 134.309 49.3233C126.885 45.6842 118.449 43.7247 109.956 43.7247Z" fill="url(#paint4_linear)"/>
<path d="M67.8858 65.1112C77.0535 52.5704 92.5204 44.1726 109.956 44.1726C127.391 44.1726 143.027 52.4585 152.026 65.1112C158.044 73.565 160.519 83.2505 160.519 92.1522C161.925 96.7431 163.219 106.093 163.219 111.131C163.219 115.386 163.219 123.336 162.206 127.311C159.956 136.269 156.357 152.617 150.001 158.999C140.834 168.125 123.961 173.779 109.956 173.779C103.994 173.779 94.039 172.771 88.6959 170.868C77.5597 166.893 69.2919 150.825 63.33 140.86C58.7743 133.302 57.0308 117.962 57.0308 108.5C57.0308 105.925 57.4807 101.502 57.8744 99.0385C57.0308 87.3375 60.4054 75.3006 67.8858 65.1112Z" stroke="#242930" stroke-width="1.1667" stroke-miterlimit="10"/>
<path d="M71.7667 68.8622C79.6408 56.9373 93.8141 48.7634 109.956 48.7634C126.042 48.7634 140.496 56.7693 148.145 68.8622C153.32 77.0361 154.838 86.1057 153.995 94.0557C155.176 97.9747 156.526 107.548 156.526 111.915C156.526 115.554 156.694 123.672 155.851 127.087C153.882 134.757 151.239 151.665 145.783 157.095C137.909 164.933 122.048 169.748 110.012 169.748C104.894 169.748 94.939 168.852 90.3833 167.229C80.8219 163.814 74.1289 147.242 69.0107 138.676C65.1299 132.182 63.8926 116.842 63.8926 108.724C63.8926 106.484 64.3425 102.118 64.68 99.9901C63.0489 89.6328 65.3549 78.4917 71.7667 68.8622Z" fill="#6B6248"/>
<path d="M109.956 48.8194C126.042 48.8194 140.496 56.8253 148.145 68.9182C153.32 77.0921 154.838 86.1617 153.995 94.1117C155.176 98.0307 156.526 107.604 156.526 111.971C156.526 115.61 156.694 123.728 155.851 127.143C153.882 134.813 151.239 151.721 145.783 157.151C137.909 164.989 122.048 169.804 110.012 169.804C104.894 169.804 94.939 168.908 90.3833 167.285C80.8219 163.87 74.1289 147.298 69.0108 138.732C65.13 132.238 63.8926 116.898 63.8926 108.78C63.8926 106.54 64.3426 102.174 64.68 100.046C63.1614 89.7448 65.4112 78.6037 71.8229 68.9742C79.6408 56.9373 93.8142 48.8194 109.956 48.8194ZM109.956 48.2595C102.082 48.2595 94.3204 50.219 87.5149 53.9141C80.9344 57.4971 75.31 62.5358 71.3168 68.5823C65.0737 77.9878 62.4865 89.129 64.0613 99.9902C63.7239 102.174 63.2739 106.54 63.2739 108.724C63.2739 116.226 64.3426 132.182 68.4483 138.956C69.5732 140.804 70.7543 143.043 71.9917 145.394C76.6599 154.128 82.3967 164.989 90.1021 167.733C94.7141 169.356 104.782 170.252 109.956 170.252C121.261 170.252 137.74 165.773 146.121 157.431C150.62 152.952 153.207 141.14 155.12 132.518C155.57 130.502 155.963 128.655 156.357 127.143C157.144 124.12 157.088 117.346 157.088 113.371C157.088 112.811 157.088 112.307 157.088 111.859C157.088 107.492 155.738 98.0307 154.557 93.9997C155.513 85.098 153.376 76.0843 148.652 68.5823C140.665 56.0415 125.817 48.2595 109.956 48.2595Z" fill="url(#paint5_linear)"/>
<path d="M71.7667 68.8622C79.6408 56.9373 93.8141 48.7634 109.956 48.7634C126.042 48.7634 140.496 56.7693 148.145 68.8622C153.32 77.0361 154.838 86.1057 153.995 94.0557C155.176 97.9747 156.526 107.548 156.526 111.915C156.526 115.554 156.694 123.672 155.851 127.087C153.882 134.757 151.239 151.665 145.783 157.095C137.909 164.933 122.048 169.748 110.012 169.748C104.894 169.748 94.939 168.852 90.3833 167.229C80.8219 163.814 74.1289 147.242 69.0107 138.676C65.1299 132.182 63.8926 116.842 63.8926 108.724C63.8926 106.484 64.3425 102.118 64.68 99.9901C63.0489 89.6328 65.3549 78.4917 71.7667 68.8622Z" stroke="#242930" stroke-miterlimit="10"/>
<path d="M75.6479 72.6133C82.2284 61.3042 95.1644 53.4102 109.956 53.4102C124.749 53.4102 137.966 61.1922 144.265 72.6133C148.596 80.5072 149.158 89.017 147.415 95.9592C148.427 99.2624 149.777 109.004 149.777 112.643C149.777 115.666 150.114 123.952 149.383 126.807C147.752 133.246 145.952 150.601 141.397 155.136C134.816 161.686 119.912 165.717 109.9 165.717C105.626 165.717 95.6706 164.989 91.8461 163.646C83.8595 160.791 78.7413 143.659 74.4668 136.493C71.2047 131.062 70.586 115.666 70.586 108.948C70.586 107.1 71.0922 102.733 71.3172 100.942C69.1237 91.9283 70.3048 81.7389 75.6479 72.6133Z" fill="#5C5645"/>
<path d="M109.956 53.4102C124.748 53.4102 137.966 61.1922 144.265 72.6133C148.596 80.5072 149.158 89.017 147.414 95.9592C148.427 99.2624 149.777 109.004 149.777 112.643C149.777 115.666 150.114 123.952 149.383 126.807C147.752 133.246 145.952 150.601 141.396 155.136C134.816 161.686 119.911 165.717 109.9 165.717C105.626 165.717 95.6704 164.989 91.8458 163.646C83.8593 160.79 78.7411 143.659 74.4666 136.493C71.2045 131.062 70.5858 115.666 70.5858 108.948C70.5858 107.1 71.092 102.733 71.317 100.942C69.0672 92.0402 70.2483 81.8509 75.5915 72.7252C82.2282 61.3042 95.1642 53.4102 109.956 53.4102ZM109.956 52.7944C95.4454 52.7944 82.0595 60.2964 75.0853 72.3333C69.9109 81.235 68.336 91.3684 70.6983 100.942C70.4171 102.789 69.9671 107.044 69.9671 108.948C69.9671 111.131 70.0796 130.39 73.9604 136.829C75.1415 138.844 76.4351 141.699 77.8412 144.723C81.3283 152.449 85.7153 162.134 91.6771 164.262C95.6142 165.661 105.682 166.389 109.956 166.389C120.136 166.389 135.21 162.302 141.903 155.64C145.39 152.169 147.246 141.979 148.708 133.861C149.214 131.118 149.608 128.711 150.058 127.031C150.62 124.68 150.564 118.969 150.508 115.162C150.508 114.211 150.452 113.371 150.452 112.755C150.452 109.06 149.102 99.5423 148.089 96.0712C150.002 88.1213 148.821 79.7234 144.827 72.4453C138.247 60.4644 124.58 52.7944 109.956 52.7944Z" fill="url(#paint6_linear)"/>
<path d="M75.6479 72.6133C82.2284 61.3042 95.1644 53.4102 109.956 53.4102C124.749 53.4102 137.966 61.1922 144.265 72.6133C148.596 80.5072 149.158 89.017 147.415 95.9592C148.427 99.2624 149.777 109.004 149.777 112.643C149.777 115.666 150.114 123.952 149.383 126.807C147.752 133.246 145.952 150.601 141.397 155.136C134.816 161.686 119.912 165.717 109.9 165.717C105.626 165.717 95.6706 164.989 91.8461 163.646C83.8595 160.791 78.7413 143.659 74.4668 136.493C71.2047 131.062 70.586 115.666 70.586 108.948C70.586 107.1 71.0922 102.733 71.3172 100.942C69.1237 91.9283 70.3048 81.7389 75.6479 72.6133Z" stroke="#242930" stroke-width="0.8333" stroke-miterlimit="10"/>
<path d="M79.5288 76.3643C84.7594 65.671 96.4581 58.057 109.957 58.057C123.455 58.057 135.379 65.6151 140.384 76.3643C143.928 83.9783 143.421 91.8723 140.89 97.8627C141.678 100.494 143.084 110.459 143.084 113.371C143.084 115.778 143.59 124.288 143.028 126.527C141.734 131.678 140.834 149.537 137.178 153.176C131.948 158.383 117.999 161.63 110.013 161.63C106.582 161.63 96.6268 161.014 93.5897 159.951C87.2341 157.711 83.6346 139.964 80.2037 134.253C77.6165 129.942 77.504 114.49 77.504 109.116C77.504 107.66 78.0102 103.237 78.2352 101.838C75.1418 94.2237 75.2543 84.9861 79.5288 76.3643Z" fill="#4F4C41"/>
<path d="M109.956 58.057C123.455 58.057 135.378 65.615 140.384 76.3643C143.927 83.9783 143.421 91.8723 140.89 97.8627C141.678 100.494 143.084 110.459 143.084 113.371C143.084 115.778 143.59 124.288 143.028 126.527C141.734 131.678 140.834 149.537 137.178 153.176C131.948 158.383 117.999 161.63 110.013 161.63C106.582 161.63 96.6266 161.014 93.5895 159.951C87.2339 157.711 83.6344 139.964 80.2035 134.253C77.6163 129.942 77.5038 114.49 77.5038 109.116C77.5038 107.66 78.01 103.237 78.235 101.838C75.2541 94.3356 75.3666 85.042 79.6411 76.4202C84.7592 65.671 96.4579 58.057 109.956 58.057ZM109.956 57.2732C96.6829 57.2732 84.478 64.6073 78.8537 76.0284C74.7479 84.3142 74.1854 93.7198 77.3913 101.838C77.1664 103.405 76.7164 107.548 76.7164 109.06C76.7164 122.888 77.6725 131.51 79.5286 134.589C80.6534 136.437 81.7783 139.684 83.0157 143.155C85.6591 150.601 88.6963 158.999 93.252 160.623C96.4579 161.742 106.413 162.358 109.956 162.358C117.718 162.358 132.06 159.279 137.684 153.68C140.384 150.993 141.565 141.699 142.578 134.197C142.971 131.006 143.365 128.207 143.759 126.695C144.209 124.904 144.04 119.921 143.927 116.282C143.871 115.05 143.871 113.987 143.871 113.371C143.871 110.403 142.578 100.942 141.734 97.9187C144.602 91.0325 144.377 83.0825 141.115 76.0843C138.584 70.5977 134.31 65.895 128.798 62.5358C123.117 59.1207 116.649 57.2732 109.956 57.2732Z" fill="url(#paint7_linear)"/>
<path d="M79.5288 76.3643C84.7594 65.671 96.4581 58.057 109.957 58.057C123.455 58.057 135.379 65.6151 140.384 76.3643C143.928 83.9783 143.421 91.8723 140.89 97.8627C141.678 100.494 143.084 110.459 143.084 113.371C143.084 115.778 143.59 124.288 143.028 126.527C141.734 131.678 140.834 149.537 137.178 153.176C131.948 158.383 117.999 161.63 110.013 161.63C106.582 161.63 96.6268 161.014 93.5897 159.951C87.2341 157.711 83.6346 139.964 80.2037 134.253C77.6165 129.942 77.504 114.49 77.504 109.116C77.504 107.66 78.0102 103.237 78.2352 101.838C75.1418 94.2237 75.2543 84.9861 79.5288 76.3643Z" stroke="#242930" stroke-width="0.6667" stroke-miterlimit="10"/>
<path d="M83.4089 80.1153C87.346 70.0379 97.751 62.6478 109.956 62.6478C122.105 62.6478 132.791 69.9819 136.503 80.1153C139.203 87.4494 137.74 94.7835 134.366 99.7103C134.984 101.67 136.334 111.859 136.334 114.043C136.334 115.89 137.009 124.512 136.615 126.191C135.659 130.054 135.659 148.418 132.903 151.161C128.966 155.08 115.974 157.487 110.012 157.487C107.425 157.487 97.4698 157.039 95.1638 156.256C90.3831 154.576 88.3584 136.269 85.8274 132.014C83.8589 128.767 84.3088 113.315 84.3088 109.228C84.3088 108.108 84.815 103.741 84.9838 102.677C81.2155 96.5191 80.2031 88.2332 83.4089 80.1153Z" fill="#43423C"/>
<path d="M109.956 62.6478C122.105 62.6478 132.791 69.9819 136.503 80.1153C139.203 87.4494 137.74 94.7835 134.366 99.7103C134.984 101.67 136.334 111.859 136.334 114.043C136.334 115.89 137.009 124.512 136.615 126.191C135.659 130.054 135.659 148.418 132.903 151.161C128.966 155.08 115.974 157.487 110.012 157.487C107.425 157.487 97.4698 157.039 95.1639 156.256C90.3832 154.576 88.3584 136.269 85.8274 132.014C83.8589 128.767 84.3089 113.315 84.3089 109.228C84.3089 108.108 84.8151 103.741 84.9838 102.677C81.2717 96.5191 80.2593 88.2332 83.4652 80.1153C87.346 70.0939 97.7511 62.6478 109.956 62.6478ZM109.956 61.808C97.8073 61.808 86.8398 69.0302 82.6216 79.7794C79.5844 87.5054 80.0906 96.1272 84.0276 102.845C83.8589 104.189 83.3527 108.108 83.3527 109.228C83.3527 109.732 83.3527 110.403 83.3527 111.243C83.2402 120.649 83.409 129.774 84.9838 132.406C85.8837 133.861 86.7273 137.389 87.6835 141.14C89.4833 148.362 91.3393 155.808 94.7702 157.039C97.2449 157.935 107.65 158.327 109.9 158.327C115.637 158.327 129.135 155.976 133.409 151.721C135.265 149.873 135.94 142.931 136.559 134.085C136.784 130.614 137.009 127.591 137.347 126.359C137.628 125.128 137.459 121.433 137.234 117.122C137.178 115.722 137.122 114.546 137.122 113.987C137.122 111.747 135.828 102.51 135.209 99.8222C138.978 94.0557 139.765 86.6096 137.234 79.7794C135.378 74.6847 131.666 70.0939 126.829 66.8467C121.88 63.5996 116.03 61.808 109.956 61.808Z" fill="url(#paint8_linear)"/>
<path d="M83.4089 80.1153C87.346 70.0379 97.751 62.6478 109.956 62.6478C122.105 62.6478 132.791 69.9819 136.503 80.1153C139.203 87.4494 137.74 94.7835 134.366 99.7103C134.984 101.67 136.334 111.859 136.334 114.043C136.334 115.89 137.009 124.512 136.615 126.191C135.659 130.054 135.659 148.418 132.903 151.161C128.966 155.08 115.974 157.487 110.012 157.487C107.425 157.487 97.4698 157.039 95.1638 156.256C90.3831 154.576 88.3584 136.269 85.8274 132.014C83.8589 128.767 84.3088 113.315 84.3088 109.228C84.3088 108.108 84.815 103.741 84.9838 102.677C81.2155 96.5191 80.2031 88.2332 83.4089 80.1153Z" stroke="#242930" stroke-width="0.5" stroke-miterlimit="10"/>
<path d="M87.29 83.8664C89.9334 74.4608 99.1011 67.2947 109.956 67.2947C120.811 67.2947 130.148 74.4048 132.622 83.8664C134.422 90.9206 132.004 97.6948 127.785 101.614C128.179 102.901 129.585 113.315 129.585 114.77C129.585 116.002 130.429 124.792 130.148 125.912C129.473 128.487 130.373 147.41 128.573 149.202C125.929 151.833 113.949 153.4 109.956 153.4C108.269 153.4 98.2575 153.121 96.6827 152.561C93.4768 151.441 93.0268 132.574 91.3395 129.719C90.0459 127.535 91.0021 112.083 91.0021 109.34C91.0021 108.612 91.5645 104.189 91.677 103.517C87.2338 98.8145 85.1527 91.4245 87.29 83.8664Z" fill="#383938"/>
<path d="M109.956 67.2946C120.811 67.2946 130.147 74.4048 132.622 83.8664C134.422 90.9206 132.004 97.6948 127.785 101.614C128.179 102.901 129.585 113.315 129.585 114.77C129.585 116.002 130.429 124.792 130.147 125.912C129.473 128.487 130.372 147.41 128.573 149.202C125.929 151.833 113.949 153.4 109.956 153.4C108.269 153.4 98.2574 153.121 96.6826 152.561C93.4767 151.441 93.0267 132.574 91.3394 129.719C90.0458 127.535 91.002 112.083 91.002 109.34C91.002 108.612 91.5644 104.189 91.6769 103.517C87.2336 98.7585 85.1526 91.3684 87.2899 83.8104C89.9333 74.4608 99.101 67.2946 109.956 67.2946ZM109.956 66.3429C98.9323 66.3429 89.2584 73.4531 86.39 83.5864C84.309 90.8646 85.9963 98.5906 90.6645 103.853C90.4958 105.197 90.0458 108.668 90.0458 109.396C90.0458 109.956 89.9896 111.131 89.9333 112.643C89.5396 122.552 89.5396 128.599 90.4958 130.222C91.0582 131.174 91.5644 135.037 92.0706 138.788C93.1955 147.354 94.0391 152.673 96.3451 153.456C98.2011 154.128 109.056 154.352 109.9 154.352C113.668 154.352 126.21 152.785 129.191 149.873C130.429 148.642 130.654 144.163 130.766 133.805C130.822 130.446 130.822 126.975 131.047 126.135C131.216 125.352 131.104 122.888 130.71 117.85C130.597 116.45 130.485 115.106 130.485 114.714C130.485 113.315 129.304 104.469 128.741 101.894C133.297 97.3589 135.153 90.2487 133.466 83.5864C130.935 73.621 121.036 66.3429 109.956 66.3429Z" fill="url(#paint9_linear)"/>
<path d="M87.29 83.8664C89.9334 74.4608 99.1011 67.2947 109.956 67.2947C120.811 67.2947 130.148 74.4048 132.622 83.8664C134.422 90.9206 132.004 97.6948 127.785 101.614C128.179 102.901 129.585 113.315 129.585 114.77C129.585 116.002 130.429 124.792 130.148 125.912C129.473 128.487 130.373 147.41 128.573 149.202C125.929 151.833 113.949 153.4 109.956 153.4C108.269 153.4 98.2575 153.121 96.6827 152.561C93.4768 151.441 93.0268 132.574 91.3395 129.719C90.0459 127.535 91.0021 112.083 91.0021 109.34C91.0021 108.612 91.5645 104.189 91.677 103.517C87.2338 98.8145 85.1527 91.4245 87.29 83.8664Z" stroke="#242930" stroke-width="0.3333" stroke-miterlimit="10"/>
<path d="M91.1709 87.6174C92.4645 78.8276 100.395 71.9414 109.956 71.9414C119.461 71.9414 127.504 78.8276 128.742 87.6174C129.641 94.4476 126.323 100.55 121.261 103.517C121.486 104.189 122.892 114.77 122.892 115.498C122.892 116.114 123.961 125.072 123.792 125.632C123.455 126.919 125.254 146.346 124.355 147.242C123.061 148.53 112.037 149.369 110.012 149.369C109.169 149.369 99.1012 149.201 98.37 148.978C96.7952 148.418 97.8638 128.991 97.0202 127.591C96.3453 126.527 97.9201 110.963 97.9201 109.62C97.9201 109.228 98.4825 104.861 98.5388 104.525C93.2519 101.166 90.1022 94.6715 91.1709 87.6174Z" fill="#2D3134"/>
<path d="M109.956 71.9414C119.462 71.9414 127.504 78.8276 128.742 87.6174C129.642 94.4476 126.323 100.55 121.261 103.517C121.486 104.189 122.892 114.77 122.892 115.498C122.892 116.114 123.961 125.072 123.792 125.632C123.455 126.919 125.255 146.346 124.355 147.242C123.061 148.53 112.037 149.369 110.013 149.369C109.169 149.369 99.1013 149.201 98.3702 148.978C96.7953 148.418 97.864 128.991 97.0203 127.591C96.3454 126.527 97.9202 110.963 97.9202 109.62C97.9202 109.228 98.4827 104.861 98.5389 104.525C93.3645 101.166 90.2148 94.6715 91.2835 87.6174C92.4646 78.8276 100.395 71.9414 109.956 71.9414ZM109.956 70.8777C100.114 70.8777 91.5647 77.9878 90.1586 87.4494C89.09 94.3356 91.9022 101.166 97.3578 104.973C97.1891 106.317 96.7953 109.172 96.7953 109.62C96.7953 109.956 96.6829 111.523 96.5141 113.315C95.558 124.848 95.6142 127.255 96.0079 128.039C96.2329 128.767 96.2892 132.91 96.2892 136.213C96.3454 147.242 96.5704 149.425 97.9202 149.929C98.9888 150.321 109.788 150.433 109.9 150.433C110.013 150.433 123.061 149.929 124.973 148.026C125.705 147.298 125.761 145.506 125.03 133.302C124.861 130.11 124.636 126.527 124.692 125.911C124.805 125.464 124.692 124.4 124.13 118.521C123.961 117.122 123.848 115.722 123.848 115.498C123.848 114.77 122.78 106.708 122.33 104.021C127.729 100.55 130.598 94.1117 129.698 87.4494C128.46 78.0438 119.911 70.8777 109.956 70.8777Z" fill="url(#paint10_linear)"/>
<path d="M91.1709 87.6174C92.4645 78.8276 100.395 71.9414 109.956 71.9414C119.461 71.9414 127.504 78.8276 128.742 87.6174C129.641 94.4476 126.323 100.55 121.261 103.517C121.486 104.189 122.892 114.77 122.892 115.498C122.892 116.114 123.961 125.072 123.792 125.632C123.455 126.919 125.254 146.346 124.355 147.242C123.061 148.53 112.037 149.369 110.012 149.369C109.169 149.369 99.1012 149.201 98.37 148.978C96.7952 148.418 97.8638 128.991 97.0202 127.591C96.3453 126.527 97.9201 110.963 97.9201 109.62C97.9201 109.228 98.4825 104.861 98.5388 104.525C93.2519 101.166 90.1022 94.6715 91.1709 87.6174Z" stroke="#242930" stroke-width="0.1667" stroke-miterlimit="10"/>
<path d="M124.804 91.3684C124.804 83.1945 118.167 76.5322 109.9 76.5322C101.688 76.5322 94.9951 83.1385 94.9951 91.3684C94.9951 97.9187 99.2696 103.461 105.175 105.421L102.532 125.352L99.8883 145.282H109.956H120.024L117.38 125.352L114.737 105.421C120.586 103.461 124.804 97.9187 124.804 91.3684Z" fill="#242930"/>
<path d="M109.956 76.5322C118.168 76.5322 124.861 83.1385 124.861 91.3684C124.861 97.9187 120.586 103.461 114.681 105.421L117.324 125.352L119.968 145.283H109.9H99.8323L102.476 125.352L105.119 105.421C99.2136 103.461 94.9391 97.9187 94.9391 91.3684C95.0516 83.1945 101.745 76.5322 109.956 76.5322ZM109.956 75.4125C101.126 75.4125 93.9268 82.5787 93.9268 91.3684C93.9268 97.9187 97.92 103.741 103.994 106.149L101.463 125.24L98.8199 145.171L98.6512 146.458H99.9448H110.012H120.08H121.374L121.205 145.171L118.561 125.24L116.03 106.149C122.105 103.741 126.098 97.9187 126.098 91.3684C125.929 82.5787 118.786 75.4125 109.956 75.4125Z" fill="url(#paint11_linear)"/>
<defs>
<linearGradient id="paint0_linear" x1="29.7065" y1="107.865" x2="190.246" y2="107.865" gradientUnits="userSpaceOnUse">
<stop stop-color="#F4C944"/>
<stop offset="1" stop-color="#F4C944"/>
</linearGradient>
<linearGradient id="paint1_linear" x1="36.4156" y1="108.143" x2="183.607" y2="108.143" gradientUnits="userSpaceOnUse">
<stop stop-color="#F4C944"/>
<stop offset="1" stop-color="#F4C944"/>
</linearGradient>
<linearGradient id="paint2_linear" x1="43.1249" y1="108.422" x2="176.97" y2="108.422" gradientUnits="userSpaceOnUse">
<stop stop-color="#F4C944"/>
<stop offset="1" stop-color="#F4C944"/>
</linearGradient>
<linearGradient id="paint3_linear" x1="49.8342" y1="108.701" x2="170.332" y2="108.701" gradientUnits="userSpaceOnUse">
<stop stop-color="#F4C944"/>
<stop offset="1" stop-color="#F4C944"/>
</linearGradient>
<linearGradient id="paint4_linear" x1="56.5435" y1="108.98" x2="163.694" y2="108.98" gradientUnits="userSpaceOnUse">
<stop stop-color="#F4C944"/>
<stop offset="1" stop-color="#F4C944"/>
</linearGradient>
<linearGradient id="paint5_linear" x1="63.2529" y1="109.258" x2="157.067" y2="109.258" gradientUnits="userSpaceOnUse">
<stop stop-color="#F4C944"/>
<stop offset="1" stop-color="#F4C944"/>
</linearGradient>
<linearGradient id="paint6_linear" x1="69.6153" y1="109.537" x2="150.496" y2="109.537" gradientUnits="userSpaceOnUse">
<stop stop-color="#F4C944"/>
<stop offset="1" stop-color="#F4C944"/>
</linearGradient>
<linearGradient id="paint7_linear" x1="75.3345" y1="109.816" x2="143.991" y2="109.816" gradientUnits="userSpaceOnUse">
<stop stop-color="#F4C944"/>
<stop offset="1" stop-color="#F4C944"/>
</linearGradient>
<linearGradient id="paint8_linear" x1="80.6523" y1="110.095" x2="138.708" y2="110.095" gradientUnits="userSpaceOnUse">
<stop stop-color="#F4C944"/>
<stop offset="1" stop-color="#F4C944"/>
</linearGradient>
<linearGradient id="paint9_linear" x1="85.5239" y1="110.373" x2="134.116" y2="110.373" gradientUnits="userSpaceOnUse">
<stop stop-color="#F4C944"/>
<stop offset="1" stop-color="#F4C944"/>
</linearGradient>
<linearGradient id="paint10_linear" x1="89.9443" y1="110.652" x2="129.887" y2="110.652" gradientUnits="userSpaceOnUse">
<stop stop-color="#F4C944"/>
<stop offset="1" stop-color="#F4C944"/>
</linearGradient>
<linearGradient id="paint11_linear" x1="93.9376" y1="110.931" x2="125.943" y2="110.931" gradientUnits="userSpaceOnUse">
<stop stop-color="#F4C944"/>
<stop offset="1" stop-color="#F4C944"/>
</linearGradient>
</defs>
</svg>
