<svg width="447" height="322" viewBox="0 0 447 322" fill="none" xmlns="http://www.w3.org/2000/svg">
<g clip-path="url(#clip0)">
<path d="M221.452 247.304C203.312 247.304 186.092 244.939 170.237 240.236C154.382 235.561 140.979 228.911 130.418 220.479L130.474 219.338L138.666 214.162L139.474 214.19C148.948 221.481 161.013 227.185 175.28 231.192C189.603 235.199 205.123 237.231 221.452 237.231C234.214 237.231 245.889 235.645 256.171 232.528C266.426 229.411 274.98 225.07 281.612 219.616C288.216 214.19 293.399 207.79 296.937 200.638C300.504 193.487 302.287 185.667 302.287 177.402C302.287 166.438 299.668 156.393 294.485 147.544C289.302 138.695 281.305 131.404 270.717 125.894C260.1 120.357 247.366 117.574 232.876 117.574H215.795C208.383 117.574 202.95 115.904 199.634 112.621C196.318 109.337 194.646 104.94 194.646 99.5697C194.646 87.6319 205.095 81.5656 225.687 81.5656C244.691 81.5656 259.236 84.0143 268.878 88.8563L268.933 90.0528L260.741 95.34L260.1 95.3957C253.608 92.8634 242.016 91.6112 225.632 91.6112C217.69 91.6112 212.34 92.3625 209.665 93.8095C207.102 95.2009 205.876 97.0931 205.876 99.5697C205.876 102.13 206.544 104.05 207.938 105.441C209.303 106.833 211.922 107.528 215.768 107.528H233.267C245.973 107.528 257.62 109.393 267.847 113.094C278.101 116.795 286.655 121.915 293.287 128.315C299.919 134.715 305.046 142.201 308.557 150.521C312.068 158.869 313.823 167.913 313.823 177.402C313.823 185.138 312.514 192.568 309.978 199.497C307.415 206.426 303.513 212.882 298.359 218.698C293.204 224.486 286.934 229.578 279.689 233.78C272.472 237.982 263.778 241.321 253.831 243.715C243.911 246.08 233.016 247.304 221.452 247.304Z" fill="#FFCC00"/>
<path d="M225.687 82.2891C244.691 82.2891 258.986 84.6822 268.571 89.4963L260.379 94.7835C253.803 92.2234 242.211 90.9433 225.66 90.9433C217.579 90.9433 212.145 91.6947 209.359 93.2252C206.572 94.7556 205.207 96.8705 205.207 99.5976C205.207 102.325 205.959 104.44 207.464 105.97C208.969 107.501 211.755 108.252 215.795 108.252H233.294C246.001 108.252 257.453 110.088 267.652 113.789C277.85 117.49 286.265 122.499 292.841 128.872C299.417 135.244 304.461 142.563 307.944 150.855C311.427 159.148 313.155 168.025 313.155 177.458C313.155 185.138 311.873 192.429 309.337 199.33C306.801 206.231 302.956 212.548 297.829 218.308C292.702 224.069 286.544 229.05 279.355 233.279C272.166 237.481 263.611 240.765 253.664 243.13C243.744 245.496 232.988 246.664 221.424 246.664C203.256 246.664 186.259 244.327 170.404 239.624C154.549 234.921 141.369 228.382 130.836 219.978L139.028 214.802C148.614 222.176 160.651 227.881 175.085 231.916C189.519 235.951 204.984 237.982 221.424 237.982C234.298 237.982 245.945 236.396 256.339 233.252C266.732 230.079 275.287 225.738 282.03 220.228C288.745 214.691 293.928 208.291 297.55 201C301.173 193.709 302.984 185.862 302.984 177.458C302.984 166.327 300.337 156.254 295.07 147.238C289.804 138.222 281.779 130.931 271.023 125.31C260.24 119.717 247.533 116.906 232.849 116.906H215.768C208.523 116.906 203.312 115.32 200.108 112.175C196.903 109.003 195.315 104.829 195.315 99.6254C195.343 88.0493 205.458 82.2891 225.687 82.2891ZM225.687 80.8977C215.377 80.8977 207.492 82.4004 202.253 85.4057C196.764 88.5502 193.977 93.3086 193.977 99.5976C193.977 105.163 195.733 109.727 199.188 113.149C202.643 116.572 208.244 118.297 215.823 118.297H232.904C247.283 118.297 259.905 121.08 270.41 126.562C280.887 132.016 288.801 139.224 293.9 147.961C299.027 156.699 301.619 166.633 301.619 177.458C301.619 185.611 299.835 193.32 296.324 200.388C292.813 207.456 287.714 213.773 281.166 219.143C274.618 224.514 266.147 228.827 255.976 231.916C245.778 235.033 234.158 236.591 221.452 236.591C205.179 236.591 189.714 234.559 175.475 230.58C161.264 226.601 149.31 220.924 139.892 213.689L138.304 213.606L130.139 218.754L130 221.008C140.616 229.495 154.103 236.173 170.042 240.904C185.952 245.607 203.256 248 221.452 248C233.072 248 244.022 246.803 253.998 244.41C264.029 242.017 272.779 238.65 280.051 234.42C287.324 230.163 293.677 225.043 298.888 219.199C304.099 213.327 308.055 206.788 310.647 199.775C313.238 192.763 314.548 185.25 314.548 177.43C314.548 167.83 312.765 158.703 309.226 150.299C305.687 141.867 300.504 134.326 293.817 127.87C287.129 121.386 278.491 116.21 268.125 112.482C257.815 108.753 246.084 106.86 233.294 106.86H215.795C212.201 106.86 209.665 106.22 208.467 104.996C207.213 103.744 206.628 101.963 206.628 99.5976C206.628 97.3992 207.743 95.7296 210.055 94.4495C212.619 93.0582 217.857 92.3347 225.687 92.3347C241.988 92.3347 253.496 93.5869 259.877 96.0914L261.131 95.9522L269.323 90.6651L269.184 88.2441C259.459 83.3743 244.803 80.8977 225.687 80.8977Z" fill="#F7F9FE"/>
<g opacity="0.8">
<path d="M221.452 195.407C202.337 195.407 187.736 192.958 178.094 188.116L178.039 186.919L186.231 181.632L186.872 181.576C193.336 184.109 204.984 185.361 221.48 185.361C229.421 185.361 234.771 184.61 237.446 183.163C240.01 181.771 241.236 179.879 241.236 177.402C241.236 174.926 240.539 173.034 239.118 171.587C237.697 170.167 234.994 169.444 231.065 169.444H215.823C202.81 169.444 190.912 167.607 180.407 163.99C169.874 160.372 161.097 155.308 154.326 148.935C147.555 142.563 142.316 135.105 138.722 126.729C135.127 118.353 133.316 109.226 133.316 99.5419C133.316 91.806 134.626 84.3761 137.161 77.4471C139.725 70.5182 143.626 64.0344 148.781 58.2464C153.936 52.4583 160.205 47.3659 167.422 43.164C174.639 38.9621 183.333 35.6229 193.281 33.2297C203.228 30.8644 214.124 29.6678 225.687 29.6678C243.827 29.6678 261.02 32.0332 276.819 36.736C292.646 41.4387 306.021 48.0894 316.554 56.4933L316.498 57.6342L308.306 62.81L307.498 62.7822C298.024 55.4915 285.987 49.7869 271.748 45.7798C257.481 41.7727 241.988 39.7413 225.66 39.7413C212.897 39.7413 201.222 41.3274 190.94 44.4441C180.686 47.5607 172.131 51.9018 165.5 57.3559C158.868 62.7822 153.713 69.1825 150.146 76.334C146.58 83.4856 144.796 91.3051 144.796 99.5698C144.796 110.701 147.471 120.83 152.738 129.734C158.004 138.611 166.168 145.874 177.008 151.273C187.847 156.671 200.916 159.426 215.768 159.426H231.288C238.672 159.426 244.106 161.124 247.45 164.435C250.766 167.774 252.438 172.143 252.438 177.43C252.493 189.34 242.044 195.407 221.452 195.407Z" fill="#222831"/>
<path d="M225.687 30.3914C243.827 30.3914 260.825 32.7288 276.624 37.4316C292.423 42.1066 305.603 48.6738 316.136 57.0776L307.944 62.2535C298.358 54.8793 286.349 49.1747 271.971 45.1398C257.565 41.1048 242.155 39.0734 225.687 39.0734C212.786 39.0734 201.166 40.6596 190.773 43.8041C180.379 46.9764 171.825 51.3174 165.082 56.8272C158.366 62.3648 153.183 68.7651 149.561 76.0558C145.939 83.3465 144.127 91.1938 144.127 99.5976C144.127 110.895 146.802 121.052 152.18 130.096C157.53 139.14 165.722 146.403 176.729 151.885C187.736 157.367 200.776 160.122 215.823 160.122H231.344C238.589 160.122 243.799 161.736 247.004 164.936C250.208 168.136 251.797 172.31 251.797 177.43C251.797 188.951 241.682 194.739 221.452 194.739C202.365 194.739 188.014 192.346 178.429 187.532L186.621 182.244C193.197 184.804 204.817 186.085 221.48 186.085C229.56 186.085 234.994 185.333 237.781 183.803C240.567 182.272 241.932 180.157 241.932 177.43C241.932 174.787 241.152 172.7 239.592 171.113C238.031 169.555 235.189 168.776 231.065 168.776H215.823C202.838 168.776 191.107 166.967 180.63 163.378C170.125 159.76 161.515 154.779 154.799 148.462C148.084 142.145 142.929 134.799 139.335 126.479C135.768 118.158 133.985 109.17 133.985 99.5698C133.985 91.8895 135.238 84.5987 137.802 77.6976C140.338 70.7964 144.183 64.4797 149.31 58.7194C154.437 52.9592 160.595 47.9781 167.784 43.7762C174.974 39.5743 183.528 36.2907 193.476 33.9254C203.368 31.5879 214.123 30.3914 225.687 30.3914ZM225.687 29C214.068 29 203.117 30.1966 193.113 32.5897C183.11 34.9828 174.333 38.3499 167.06 42.5797C159.759 46.8372 153.434 51.9574 148.251 57.8011C143.041 63.6727 139.084 70.2121 136.492 77.2245C133.901 84.237 132.591 91.7503 132.591 99.5698C132.591 109.337 134.43 118.576 138.053 127.035C141.675 135.495 146.997 143.064 153.824 149.492C160.651 155.92 169.512 161.04 180.156 164.685C190.745 168.331 202.727 170.167 215.823 170.167H231.065C234.743 170.167 237.363 170.835 238.617 172.087C239.898 173.395 240.539 175.121 240.539 177.402C240.539 179.601 239.425 181.27 237.112 182.55C234.548 183.942 229.31 184.665 221.48 184.665C205.067 184.665 193.504 183.413 187.123 180.909L185.869 181.048L177.676 186.335L177.816 188.756C182.72 191.205 188.878 193.069 196.151 194.294C203.368 195.49 211.866 196.102 221.452 196.102C231.762 196.102 239.647 194.6 244.886 191.594C250.375 188.45 253.162 183.691 253.162 177.402C253.162 171.92 251.406 167.385 247.951 163.934C244.496 160.483 238.895 158.73 231.316 158.73H215.795C201.027 158.73 188.098 156.003 177.342 150.66C166.642 145.318 158.561 138.166 153.378 129.401C148.168 120.607 145.521 110.589 145.521 99.5976C145.521 91.4442 147.304 83.7361 150.815 76.668C154.326 69.5999 159.425 63.2831 165.973 57.9125C172.521 52.514 180.992 48.2008 191.163 45.1119C201.389 41.9953 212.981 40.437 225.687 40.437C241.932 40.437 257.369 42.4684 271.58 46.4477C285.736 50.4269 297.662 56.1037 307.08 63.3388L308.668 63.4222L316.861 58.2464L316.972 55.9924C306.356 47.5051 292.897 40.8266 276.986 36.0959C261.159 31.3931 243.883 29 225.687 29Z" fill="#F7F9FE"/>
</g>
<g opacity="0.75">
<path opacity="0.75" d="M221.452 229.996C206.405 229.996 192.166 228.215 179.07 224.681C165.973 221.147 154.939 216.11 146.245 209.682L146.273 208.541L154.187 203.143H154.967C162.574 208.43 172.299 212.604 183.862 215.526C195.454 218.448 208.105 219.95 221.424 219.95C241.013 219.95 256.171 215.915 266.509 207.957C276.763 200.054 281.974 189.758 281.974 177.402C281.974 165.158 277.599 154.918 269.017 146.932C260.407 138.917 247.868 134.855 231.762 134.855H215.823C201.975 134.855 191.414 131.571 184.448 125.06C177.481 118.548 173.943 109.977 173.943 99.5698C173.943 89.1346 178.317 80.536 186.983 74.0244C195.594 67.5685 208.606 64.2849 225.715 64.2849C237.641 64.2849 248.899 65.4815 259.153 67.8468C269.435 70.2121 278.073 73.6627 284.788 78.0872V79.2559L276.736 84.5431L276.011 84.5709C264.419 77.7811 247.478 74.3305 225.715 74.3305C211.727 74.3305 201.389 76.6958 195.008 81.343C188.683 85.9345 185.479 92.0843 185.479 99.5698C185.479 107.194 187.847 113.372 192.528 117.936C197.21 122.499 205.04 124.837 215.823 124.837H231.901C251.072 124.837 266.314 129.901 277.154 139.919C288.021 149.937 293.538 162.571 293.538 177.43C293.538 192.568 287.129 205.257 274.506 215.164C261.939 224.987 244.078 229.996 221.452 229.996Z" fill="#FDEAB2"/>
<path opacity="0.75" d="M225.687 64.9806C237.641 64.9806 248.731 66.1772 258.986 68.5146C269.24 70.88 277.711 74.2749 284.398 78.6716L276.345 83.9587C264.587 77.0576 247.701 73.6348 225.687 73.6348C211.476 73.6348 201.111 76.028 194.563 80.7864C188.014 85.5449 184.754 91.806 184.754 99.5698C184.754 107.417 187.178 113.706 192.027 118.437C196.875 123.167 204.789 125.533 215.795 125.533H231.873C250.961 125.533 265.896 130.486 276.68 140.42C287.463 150.354 292.841 162.682 292.841 177.402C292.841 192.373 286.572 204.757 274.088 214.58C261.577 224.403 244.022 229.3 221.452 229.3C206.405 229.3 192.333 227.547 179.265 224.013C166.196 220.479 155.329 215.526 146.663 209.125L154.577 203.727C162.295 209.098 171.992 213.272 183.723 216.221C195.426 219.199 208.021 220.674 221.48 220.674C241.319 220.674 256.478 216.639 266.983 208.541C277.488 200.443 282.699 190.064 282.699 177.402C282.699 164.908 278.296 154.584 269.519 146.403C260.741 138.222 248.146 134.159 231.762 134.159H215.823C202.086 134.159 191.776 130.959 184.921 124.559C178.067 118.158 174.611 109.838 174.611 99.5698C174.611 89.3294 178.875 81.0091 187.373 74.581C195.9 68.1807 208.662 64.9806 225.687 64.9806ZM225.687 63.5892C217.105 63.5892 209.47 64.4241 203.006 66.038C196.457 67.6798 190.94 70.1843 186.537 73.4957C177.704 80.1464 173.218 88.9398 173.218 99.5976C173.218 110.2 176.841 118.938 183.946 125.588C187.513 128.927 192.027 131.46 197.349 133.102C202.615 134.743 208.801 135.578 215.795 135.578H231.734C247.645 135.578 260.045 139.585 268.515 147.46C276.986 155.308 281.25 165.409 281.25 177.43C281.25 189.563 276.15 199.664 266.063 207.428C255.865 215.275 240.846 219.282 221.424 219.282C208.133 219.282 195.566 217.808 184.03 214.886C172.549 211.992 162.88 207.845 155.357 202.614H153.769L145.883 207.985L145.827 210.239C154.577 216.722 165.695 221.815 178.875 225.349C191.999 228.883 206.321 230.692 221.424 230.692C232.793 230.692 243.019 229.439 251.88 226.963C260.797 224.486 268.543 220.674 274.896 215.693C281.277 210.684 286.154 204.924 289.358 198.579C292.563 192.207 294.207 185.111 294.207 177.43C294.207 169.917 292.813 162.904 290.055 156.588C287.296 150.271 283.117 144.511 277.599 139.418C272.082 134.354 265.45 130.486 257.815 127.954C250.236 125.421 241.515 124.169 231.845 124.169H215.768C205.179 124.169 197.516 121.915 192.974 117.491C188.432 113.066 186.12 107.055 186.12 99.6255C186.12 92.2512 189.129 86.491 195.343 81.9552C201.612 77.3915 211.811 75.0819 225.632 75.0819C247.283 75.0819 264.085 78.5046 275.593 85.211L277.07 85.1831L285.123 79.896V77.5863C278.324 73.1061 269.63 69.6277 259.264 67.2346C248.982 64.7858 237.669 63.5892 225.687 63.5892Z" fill="#F7F9FE"/>
</g>
<g opacity="0.25">
<path opacity="0.75" d="M221.452 212.687C209.498 212.687 198.213 211.491 187.931 209.125C177.593 206.76 168.955 203.309 162.239 198.885V197.716L170.292 192.429L171.017 192.401C182.608 199.191 199.578 202.642 221.452 202.642C235.44 202.642 245.778 200.276 252.159 195.629C258.484 191.01 261.689 184.888 261.689 177.402C261.689 169.861 259.292 163.711 254.555 159.092C249.818 154.473 241.96 152.135 231.205 152.135H215.823C196.457 152.135 181.076 147.126 170.125 137.248C159.146 127.341 153.601 114.68 153.601 99.5697C153.601 84.4317 160.01 71.7425 172.633 61.836C185.2 51.9852 203.061 46.9763 225.687 46.9763C240.706 46.9763 254.945 48.7573 267.986 52.2913C281.027 55.8254 292.061 60.8621 300.755 67.2902L300.727 68.4311L292.813 73.8296H292.033C284.426 68.5424 274.729 64.3683 263.193 61.4465C251.629 58.5246 239.007 57.0219 225.687 57.0219C206.098 57.0219 190.912 61.0569 180.602 69.0155C170.348 76.9184 165.137 87.2144 165.137 99.5697C165.137 111.869 169.512 122.165 178.178 130.096C186.844 138.055 199.494 142.117 215.795 142.117H231.316C245.165 142.117 255.725 145.457 262.692 152.052C269.658 158.647 273.224 167.19 273.224 177.43C273.224 187.865 268.822 196.464 260.184 202.976C251.574 209.431 238.561 212.687 221.452 212.687Z" fill="#F7F9FE"/>
<path opacity="0.75" d="M225.687 47.6998C240.734 47.6998 254.778 49.4529 267.791 52.987C280.804 56.521 291.671 61.4743 300.309 67.8745L292.395 73.273C284.677 67.9024 274.98 63.7561 263.333 60.7786C251.657 57.8289 239.118 56.3263 225.66 56.3263C205.82 56.3263 190.634 60.3612 180.156 68.4589C169.679 76.5566 164.413 86.9083 164.413 99.5697C164.413 112.148 168.843 122.499 177.677 130.625C186.565 138.75 199.244 142.813 215.795 142.813H231.316C245.053 142.813 255.335 146.069 262.218 152.553C269.073 159.036 272.528 167.329 272.528 177.402C272.528 187.643 268.265 195.991 259.766 202.391C251.239 208.791 238.477 211.992 221.452 211.992C209.498 211.992 198.38 210.823 188.07 208.458C177.76 206.092 169.289 202.725 162.602 198.301L170.655 193.013C182.414 199.915 199.355 203.337 221.452 203.337C235.663 203.337 246.029 200.972 252.549 196.186C259.097 191.427 262.357 185.166 262.357 177.375C262.357 169.611 259.905 163.35 255.029 158.591C250.125 153.833 242.183 151.44 231.177 151.44H215.795C196.513 151.44 181.438 146.542 170.571 136.719C159.704 126.896 154.27 114.513 154.27 99.5419C154.27 84.5709 160.512 72.1878 173.023 62.3648C185.562 52.5974 203.117 47.6998 225.687 47.6998ZM225.687 46.3085C214.319 46.3085 204.064 47.5607 195.231 50.0373C186.315 52.5139 178.568 56.3263 172.215 61.3073C165.834 66.3162 160.958 72.0765 157.753 78.4211C154.549 84.7935 152.905 91.8894 152.905 99.5697C152.905 107.222 154.326 114.318 157.084 120.663C159.871 127.007 164.106 132.768 169.651 137.776C175.197 142.785 181.912 146.598 189.603 149.102C197.238 151.579 206.071 152.859 215.795 152.859H231.177C241.737 152.859 249.456 155.141 254.054 159.621C258.651 164.101 260.964 170.084 260.964 177.43C260.964 184.804 257.955 190.565 251.741 195.1C245.471 199.664 235.301 201.974 221.452 201.974C199.69 201.974 182.831 198.551 171.351 191.845L169.874 191.872L161.821 197.16V199.469C168.62 203.949 177.342 207.428 187.736 209.821C198.073 212.186 209.414 213.411 221.424 213.411C230.006 213.411 237.641 212.576 244.106 210.962C250.654 209.32 256.171 206.816 260.574 203.504C269.407 196.854 273.893 188.06 273.893 177.402C273.893 166.967 270.271 158.257 263.165 151.523C259.599 148.156 255.085 145.596 249.762 143.898C244.496 142.229 238.31 141.394 231.316 141.394H215.795C199.662 141.394 187.178 137.415 178.652 129.567C170.153 121.748 165.834 111.647 165.834 99.5419C165.834 87.4092 170.933 77.308 181.02 69.5442C191.219 61.6969 206.238 57.6898 225.66 57.6898C238.923 57.6898 251.49 59.1646 262.998 62.0865C274.451 65.0083 284.064 69.1268 291.615 74.3583H293.204L301.117 68.9598L301.173 66.7058C292.423 60.2221 281.305 55.1297 268.181 51.5956C255.057 48.0894 240.762 46.3085 225.687 46.3085Z" fill="#F7F9FE"/>
</g>
</g>
<defs>
<clipPath id="clip0">
<rect width="187" height="219" fill="white" transform="translate(130 29)"/>
</clipPath>
</defs>
</svg>
