<svg width="187" height="219" viewBox="0 0 187 219" fill="none" xmlns="http://www.w3.org/2000/svg">
<g clip-path="url(#clip0)">
<path d="M91.4519 218.304C73.312 218.304 56.0916 215.939 40.2366 211.236C24.3816 206.561 10.9787 199.911 0.417969 191.479L0.473698 190.338L8.66592 185.162L9.474 185.19C18.948 192.481 31.0134 198.185 45.2801 202.192C59.6026 206.199 75.1232 208.231 91.4519 208.231C104.214 208.231 115.889 206.645 126.171 203.528C136.426 200.411 144.98 196.07 151.612 190.616C158.216 185.19 163.399 178.79 166.937 171.638C170.504 164.487 172.287 156.667 172.287 148.402C172.287 137.438 169.668 127.393 164.485 118.544C159.302 109.695 151.305 102.404 140.717 96.8943C130.1 91.3567 117.366 88.5739 102.876 88.5739H85.7954C78.3834 88.5739 72.9498 86.9043 69.6339 83.6207C66.318 80.3371 64.6461 75.9404 64.6461 70.5697C64.6461 58.6319 75.0954 52.5656 95.6874 52.5656C114.691 52.5656 129.236 55.0143 138.878 59.8563L138.933 61.0528L130.741 66.34L130.1 66.3957C123.608 63.8634 112.016 62.6112 95.6316 62.6112C87.6902 62.6112 82.3402 63.3625 79.6652 64.8095C77.1016 66.2009 75.8756 68.0931 75.8756 70.5697C75.8756 73.1298 76.5443 75.0499 77.9376 76.4413C79.3029 77.8326 81.9222 78.5283 85.7675 78.5283H103.267C115.973 78.5283 127.62 80.3927 137.847 84.0938C148.101 87.7948 156.655 92.915 163.287 99.3152C169.919 105.715 175.046 113.201 178.557 121.521C182.068 129.869 183.823 138.913 183.823 148.402C183.823 156.138 182.514 163.568 179.978 170.497C177.415 177.426 173.513 183.882 168.359 189.698C163.204 195.486 156.934 200.578 149.689 204.78C142.472 208.982 133.778 212.321 123.831 214.715C113.911 217.08 103.016 218.304 91.4519 218.304Z" fill="#FFCC00"/>
<path d="M95.6874 53.2891C114.691 53.2891 128.986 55.6822 138.571 60.4963L130.379 65.7835C123.803 63.2234 112.211 61.9433 95.6595 61.9433C87.5787 61.9433 82.1451 62.6947 79.3587 64.2252C76.5722 65.7556 75.2068 67.8705 75.2068 70.5976C75.2068 73.3246 75.9592 75.4395 77.4639 76.97C78.9686 78.5005 81.755 79.2518 85.7954 79.2518H103.294C116.001 79.2518 127.453 81.0884 137.652 84.7895C147.85 88.4905 156.265 93.4994 162.841 99.8718C169.417 106.244 174.461 113.563 177.944 121.855C181.427 130.148 183.155 139.025 183.155 148.458C183.155 156.138 181.873 163.429 179.337 170.33C176.801 177.231 172.956 183.548 167.829 189.308C162.702 195.069 156.544 200.05 149.355 204.279C142.166 208.481 133.611 211.765 123.664 214.13C113.744 216.496 102.988 217.664 91.4241 217.664C73.2563 217.664 56.2588 215.327 40.4038 210.624C24.5488 205.921 11.3688 199.382 0.835941 190.978L9.02816 185.802C18.6136 193.176 30.6512 198.881 45.0851 202.916C59.519 206.951 74.9839 208.982 91.4241 208.982C104.298 208.982 115.945 207.396 126.339 204.252C136.732 201.079 145.287 196.738 152.03 191.228C158.745 185.691 163.928 179.291 167.55 172C171.173 164.709 172.984 156.862 172.984 148.458C172.984 137.327 170.337 127.254 165.07 118.238C159.804 109.222 151.779 101.931 141.023 96.3099C130.24 90.7166 117.533 87.9061 102.849 87.9061H85.7675C78.5227 87.9061 73.312 86.3199 70.1076 83.1755C66.9031 80.0032 65.3148 75.8291 65.3148 70.6254C65.3427 59.0493 75.4576 53.2891 95.6874 53.2891ZM95.6874 51.8977C85.3774 51.8977 77.4917 53.4004 72.2532 56.4057C66.7638 59.5502 63.9773 64.3086 63.9773 70.5976C63.9773 76.163 65.7328 80.7267 69.188 84.1494C72.6433 87.5722 78.2441 89.2975 85.8233 89.2975H102.904C117.283 89.2975 129.905 92.0802 140.41 97.5621C150.887 103.016 158.801 110.224 163.9 118.961C169.027 127.699 171.619 137.633 171.619 148.458C171.619 156.611 169.835 164.32 166.324 171.388C162.813 178.456 157.714 184.773 151.166 190.143C144.618 195.514 136.147 199.827 125.976 202.916C115.778 206.033 104.158 207.591 91.4519 207.591C75.179 207.591 59.714 205.559 45.4752 201.58C31.2642 197.601 19.3102 191.924 9.89197 184.689L8.30368 184.606L0.139323 189.754L0 192.008C10.6164 200.495 24.103 207.173 40.0416 211.904C55.9523 216.607 73.2563 219 91.4519 219C103.072 219 114.022 217.803 123.998 215.41C134.029 213.017 142.779 209.65 150.051 205.42C157.324 201.163 163.677 196.043 168.888 190.199C174.099 184.327 178.055 177.788 180.647 170.775C183.238 163.763 184.548 156.25 184.548 148.43C184.548 138.83 182.765 129.703 179.226 121.299C175.687 112.867 170.504 105.326 163.817 98.87C157.129 92.3863 148.491 87.2104 138.125 83.4816C127.815 79.7527 116.084 77.8605 103.294 77.8605H85.7954C82.2009 77.8605 79.6652 77.2205 78.467 75.9961C77.2131 74.7438 76.6279 72.9629 76.6279 70.5976C76.6279 68.3992 77.7425 66.7296 80.0553 65.4495C82.6188 64.0582 87.8574 63.3347 95.6874 63.3347C111.988 63.3347 123.496 64.5869 129.877 67.0914L131.131 66.9522L139.323 61.6651L139.184 59.2441C129.459 54.3743 114.803 51.8977 95.6874 51.8977Z" fill="#F7F9FE"/>
<g opacity="0.8">
<path d="M91.452 166.407C72.3368 166.407 57.7357 163.958 48.0945 159.116L48.0388 157.919L56.231 152.632L56.8719 152.576C63.3365 155.109 74.9839 156.361 91.4798 156.361C99.4213 156.361 104.771 155.61 107.446 154.163C110.01 152.771 111.236 150.879 111.236 148.402C111.236 145.926 110.539 144.034 109.118 142.587C107.697 141.167 104.994 140.444 101.065 140.444H85.8233C72.8105 140.444 60.9123 138.607 50.4073 134.99C39.8744 131.372 31.097 126.308 24.3259 119.935C17.5548 113.563 12.3162 106.105 8.72167 97.7291C5.12712 89.3531 3.31592 80.2258 3.31592 70.5419C3.31592 62.806 4.62556 55.3761 7.16125 48.4471C9.7248 41.5182 13.6259 35.0344 18.7808 29.2464C23.9358 23.4583 30.2054 18.3659 37.4223 14.164C44.6393 9.96213 53.3331 6.62287 63.2808 4.22973C73.2285 1.86442 84.1236 0.667847 95.6874 0.667847C113.827 0.667847 131.02 3.03316 146.819 7.73595C162.646 12.4387 176.021 19.0894 186.554 27.4933L186.498 28.6342L178.306 33.81L177.498 33.7822C168.024 26.4915 155.987 20.7869 141.748 16.7798C127.481 12.7727 111.988 10.7413 95.6595 10.7413C82.8975 10.7413 71.2222 12.3274 60.9401 15.4441C50.6859 18.5607 42.1314 22.9018 35.4996 28.3559C28.8678 33.7822 23.7129 40.1825 20.1462 47.334C16.5795 54.4856 14.7962 62.3051 14.7962 70.5698C14.7962 81.7006 17.4712 91.8297 22.7376 100.734C28.004 109.611 36.1684 116.874 47.0078 122.273C57.8471 127.671 70.9157 130.426 85.7676 130.426H101.288C108.672 130.426 114.106 132.124 117.45 135.435C120.766 138.774 122.438 143.143 122.438 148.43C122.493 160.34 112.044 166.407 91.452 166.407Z" fill="#222831"/>
<path d="M95.6873 1.39136C113.827 1.39136 130.825 3.72884 146.624 8.43164C162.423 13.1066 175.603 19.6738 186.136 28.0776L177.944 33.2535C168.358 25.8793 156.349 20.1747 141.971 16.1398C127.565 12.1048 112.155 10.0734 95.6873 10.0734C82.7859 10.0734 71.1663 11.6596 60.7728 14.8041C50.3793 17.9764 41.8248 22.3174 35.0816 27.8272C28.3662 33.3648 23.1833 39.7651 19.5609 47.0558C15.9385 54.3465 14.1273 62.1938 14.1273 70.5976C14.1273 81.8954 16.8023 92.0524 22.1802 101.096C27.5302 110.14 35.7224 117.403 46.729 122.885C57.7356 128.367 70.7762 131.122 85.8232 131.122H101.344C108.589 131.122 113.799 132.736 117.004 135.936C120.208 139.136 121.797 143.31 121.797 148.43C121.797 159.951 111.682 165.739 91.4519 165.739C72.3645 165.739 58.0142 163.346 48.4287 158.532L56.621 153.244C63.197 155.804 74.8166 157.085 91.4797 157.085C99.5605 157.085 104.994 156.333 107.781 154.803C110.567 153.272 111.932 151.157 111.932 148.43C111.932 145.787 111.152 143.7 109.592 142.113C108.031 140.555 105.189 139.776 101.065 139.776H85.8232C72.8382 139.776 61.1072 137.967 50.6301 134.378C40.1251 130.76 31.5149 125.779 24.7995 119.462C18.0841 113.145 12.9291 105.799 9.33457 97.4787C5.76788 89.1583 3.98454 80.1702 3.98454 70.5698C3.98454 62.8895 5.23846 55.5987 7.80201 48.6976C10.3377 41.7964 14.183 35.4797 19.3101 29.7194C24.4372 23.9592 30.5953 18.9781 37.7844 14.7762C44.9735 10.5743 53.528 7.29073 63.4757 4.92541C73.3677 2.58793 84.1234 1.39136 95.6873 1.39136ZM95.6873 0C84.0677 0 73.1169 1.19657 63.1134 3.58971C53.11 5.98285 44.3326 9.34994 37.0599 13.5797C29.7594 17.8372 23.4341 22.9574 18.2513 28.8011C13.0406 34.6727 9.08378 41.2121 6.49237 48.2245C3.90095 55.237 2.59131 62.7503 2.59131 70.5698C2.59131 80.3371 4.43038 89.5757 8.05279 98.0352C11.6752 106.495 16.9974 114.064 23.8242 120.492C30.6511 126.92 39.512 132.04 50.1564 135.685C60.7449 139.331 72.7268 141.167 85.8232 141.167H101.065C104.743 141.167 107.363 141.835 108.617 143.087C109.898 144.395 110.539 146.121 110.539 148.402C110.539 150.601 109.425 152.27 107.112 153.55C104.548 154.942 99.3097 155.665 91.4797 155.665C75.0674 155.665 63.5035 154.413 57.1225 151.909L55.8686 152.048L47.6764 157.335L47.8157 159.756C52.7199 162.205 58.878 164.069 66.1507 165.294C73.3677 166.49 81.8664 167.102 91.4519 167.102C101.762 167.102 109.647 165.6 114.886 162.594C120.375 159.45 123.162 154.691 123.162 148.402C123.162 142.92 121.406 138.385 117.951 134.934C114.496 131.483 108.895 129.73 101.316 129.73H85.7953C71.027 129.73 58.0978 127.003 47.342 121.66C36.642 116.318 28.5612 109.166 23.3784 100.401C18.1677 91.6071 15.5205 81.5893 15.5205 70.5976C15.5205 62.4442 17.3039 54.7361 20.8148 47.668C24.3258 40.5999 29.425 34.2831 35.9732 28.9125C42.5214 23.514 50.9923 19.2008 61.1629 16.1119C71.3893 12.9953 82.981 11.437 95.6873 11.437C111.932 11.437 127.369 13.4684 141.58 17.4477C155.736 21.4269 167.662 27.1037 177.08 34.3388L178.668 34.4222L186.861 29.2464L186.972 26.9924C176.356 18.5051 162.897 11.8266 146.986 7.09593C131.159 2.39314 113.883 0 95.6873 0Z" fill="#F7F9FE"/>
</g>
<g opacity="0.75">
<path opacity="0.75" d="M91.452 200.996C76.405 200.996 62.1662 199.215 49.0697 195.681C35.9733 192.147 24.9389 187.11 16.2451 180.682L16.273 179.541L24.1866 174.143H24.9668C32.5738 179.43 42.2986 183.604 53.8625 186.526C65.4542 189.448 78.1048 190.95 91.4241 190.95C111.013 190.95 126.171 186.915 136.509 178.957C146.763 171.054 151.974 160.758 151.974 148.402C151.974 136.158 147.599 125.918 139.017 117.932C130.407 109.917 117.868 105.855 101.762 105.855H85.8233C71.9745 105.855 61.4138 102.571 54.4476 96.0595C47.4815 89.5479 43.9426 80.9772 43.9426 70.5698C43.9426 60.1346 48.3174 51.536 56.9833 45.0244C65.5935 38.5685 78.6063 35.2849 95.7153 35.2849C107.641 35.2849 118.899 36.4815 129.153 38.8468C139.435 41.2121 148.073 44.6627 154.788 49.0872V50.2559L146.736 55.5431L146.011 55.5709C134.419 48.7811 117.478 45.3305 95.7153 45.3305C81.7272 45.3305 71.3894 47.6958 65.0084 52.343C58.6831 56.9345 55.4786 63.0843 55.4786 70.5698C55.4786 78.1944 57.8471 84.3721 62.5284 88.9357C67.2097 93.4994 75.0396 95.8369 85.8233 95.8369H101.901C121.072 95.8369 136.314 100.901 147.154 110.919C158.021 120.937 163.538 133.571 163.538 148.43C163.538 163.568 157.129 176.257 144.506 186.164C131.939 195.987 114.078 200.996 91.452 200.996Z" fill="#FDEAB2"/>
<path opacity="0.75" d="M95.6874 35.9806C107.641 35.9806 118.731 37.1772 128.986 39.5146C139.24 41.88 147.711 45.2749 154.398 49.6716L146.345 54.9587C134.587 48.0576 117.701 44.6348 95.6874 44.6348C81.4764 44.6348 71.1107 47.028 64.5625 51.7864C58.0143 56.5449 54.7541 62.806 54.7541 70.5698C54.7541 78.4171 57.1784 84.706 62.0268 89.4366C66.8753 94.1673 74.7889 96.5326 85.7954 96.5326H101.873C120.961 96.5326 135.896 101.486 146.68 111.42C157.463 121.354 162.841 133.682 162.841 148.402C162.841 163.373 156.572 175.757 144.088 185.58C131.577 195.403 114.022 200.3 91.452 200.3C76.405 200.3 62.3333 198.547 49.2648 195.013C36.1962 191.479 25.329 186.526 16.6631 180.125L24.5767 174.727C32.2952 180.098 41.9921 184.272 53.7231 187.221C65.4263 190.199 78.0212 191.674 91.4798 191.674C111.319 191.674 126.478 187.639 136.983 179.541C147.488 171.443 152.699 161.064 152.699 148.402C152.699 135.908 148.296 125.584 139.519 117.403C130.741 109.222 118.146 105.159 101.762 105.159H85.8233C72.086 105.159 61.776 101.959 54.9213 95.5586C48.0666 89.1584 44.6114 80.838 44.6114 70.5698C44.6114 60.3294 48.8747 52.0091 57.3734 45.581C65.9 39.1807 78.6621 35.9806 95.6874 35.9806ZM95.6874 34.5892C87.1051 34.5892 79.4701 35.4241 73.0055 37.038C66.4573 38.6798 60.9401 41.1843 56.5375 44.4957C47.7044 51.1464 43.2182 59.9398 43.2182 70.5976C43.2182 81.1998 46.8406 89.9375 53.9461 96.5882C57.5127 99.9275 62.0268 102.46 67.349 104.102C72.6154 105.743 78.8014 106.578 85.7954 106.578H101.734C117.645 106.578 130.045 110.585 138.515 118.46C146.986 126.308 151.25 136.409 151.25 148.43C151.25 160.563 146.15 170.664 136.063 178.428C125.865 186.275 110.846 190.282 91.4241 190.282C78.1326 190.282 65.5656 188.808 54.0297 185.886C42.5494 182.992 32.8803 178.845 25.3569 173.614H23.7686L15.8829 178.985L15.8271 181.239C24.5767 187.722 35.6947 192.815 48.8747 196.349C61.999 199.883 76.3214 201.692 91.4241 201.692C102.793 201.692 113.019 200.439 121.88 197.963C130.797 195.486 138.543 191.674 144.896 186.693C151.277 181.684 156.154 175.924 159.358 169.579C162.563 163.207 164.207 156.111 164.207 148.43C164.207 140.917 162.813 133.904 160.055 127.588C157.296 121.271 153.117 115.511 147.599 110.418C142.082 105.354 135.45 101.486 127.815 98.9535C120.236 96.4213 111.515 95.169 101.845 95.169H85.7675C75.179 95.169 67.5162 92.915 62.9742 88.4905C58.4323 84.066 56.1195 78.0553 56.1195 70.6255C56.1195 63.2512 59.1289 57.491 65.3427 52.9552C71.6123 48.3915 81.8108 46.0819 95.6317 46.0819C117.283 46.0819 134.085 49.5046 145.593 56.211L147.07 56.1831L155.123 50.896V48.5863C148.324 44.1061 139.63 40.6277 129.264 38.2346C118.982 35.7858 107.669 34.5892 95.6874 34.5892Z" fill="#F7F9FE"/>
</g>
<g opacity="0.25">
<path opacity="0.75" d="M91.4519 183.687C79.4979 183.687 68.2127 182.491 57.9306 180.125C47.5928 177.76 38.9548 174.309 32.2394 169.885V168.716L40.2923 163.429L41.0168 163.401C52.6085 170.191 69.5781 173.642 91.4519 173.642C105.44 173.642 115.778 171.276 122.159 166.629C128.484 162.01 131.689 155.888 131.689 148.402C131.689 140.861 129.292 134.711 124.555 130.092C119.818 125.473 111.96 123.135 101.205 123.135H85.8232C66.4572 123.135 51.0759 118.126 40.1251 108.248C29.1464 98.3412 23.6013 85.6799 23.6013 70.5697C23.6013 55.4317 30.0102 42.7425 42.6329 32.836C55.1999 22.9852 73.0612 17.9763 95.6873 17.9763C110.706 17.9763 124.945 19.7573 137.986 23.2913C151.027 26.8254 162.061 31.8621 170.755 38.2902L170.727 39.4311L162.813 44.8296H162.033C154.426 39.5424 144.729 35.3683 133.193 32.4465C121.629 29.5246 109.007 28.0219 95.6873 28.0219C76.0984 28.0219 60.9122 32.0569 50.6022 40.0155C40.348 47.9184 35.1373 58.2144 35.1373 70.5697C35.1373 82.8693 39.5121 93.1654 48.178 101.096C56.8439 109.055 69.4945 113.117 85.7953 113.117H101.316C115.165 113.117 125.725 116.457 132.692 123.052C139.658 129.647 143.224 138.19 143.224 148.43C143.224 158.865 138.822 167.464 130.184 173.976C121.574 180.431 108.561 183.687 91.4519 183.687Z" fill="#F7F9FE"/>
<path opacity="0.75" d="M95.6874 18.6998C110.734 18.6998 124.778 20.4529 137.791 23.987C150.804 27.521 161.671 32.4743 170.309 38.8745L162.395 44.273C154.677 38.9024 144.98 34.7561 133.333 31.7786C121.657 28.8289 109.118 27.3263 95.6595 27.3263C75.8198 27.3263 60.6336 31.3612 50.1565 39.4589C39.6793 47.5566 34.4129 57.9083 34.4129 70.5697C34.4129 83.1476 38.8434 93.4993 47.6765 101.625C56.5653 109.75 69.2438 113.813 85.7954 113.813H101.316C115.053 113.813 125.335 117.069 132.218 123.553C139.073 130.036 142.528 138.329 142.528 148.402C142.528 158.643 138.265 166.991 129.766 173.391C121.239 179.791 108.477 182.992 91.452 182.992C79.498 182.992 68.38 181.823 58.07 179.458C47.7601 177.092 39.2892 173.725 32.6017 169.301L40.6546 164.013C52.4135 170.915 69.3552 174.337 91.452 174.337C105.663 174.337 116.029 171.972 122.549 167.186C129.097 162.427 132.357 156.166 132.357 148.375C132.357 140.611 129.905 134.35 125.029 129.591C120.125 124.833 112.183 122.44 101.177 122.44H85.7954C66.513 122.44 51.4382 117.542 40.571 107.719C29.7038 97.896 24.2702 85.5129 24.2702 70.5419C24.2702 55.5709 30.5118 43.1878 43.0231 33.3648C55.5622 23.5974 73.117 18.6998 95.6874 18.6998ZM95.6874 17.3085C84.3186 17.3085 74.0644 18.5607 65.2313 21.0373C56.3146 23.5139 48.5682 27.3263 42.215 32.3073C35.834 37.3162 30.9577 43.0765 27.7532 49.4211C24.5488 55.7935 22.9048 62.8894 22.9048 70.5697C22.9048 78.2222 24.3259 85.3181 27.0845 91.6627C29.871 98.0073 34.1064 103.768 39.6515 108.776C45.1965 113.785 51.9119 117.598 59.6026 120.102C67.2375 122.579 76.0706 123.859 85.7954 123.859H101.177C111.737 123.859 119.456 126.141 124.054 130.621C128.651 135.101 130.964 141.084 130.964 148.43C130.964 155.804 127.955 161.565 121.741 166.1C115.471 170.664 105.301 172.974 91.452 172.974C69.6896 172.974 52.8315 169.551 41.3512 162.845L39.8744 162.872L31.8215 168.16V170.469C38.6205 174.949 47.3421 178.428 57.7357 180.821C68.0735 183.186 79.4144 184.411 91.4241 184.411C100.006 184.411 107.641 183.576 114.106 181.962C120.654 180.32 126.171 177.816 130.574 174.504C139.407 167.854 143.893 159.06 143.893 148.402C143.893 137.967 140.271 129.257 133.165 122.523C129.599 119.156 125.085 116.596 119.762 114.898C114.496 113.229 108.31 112.394 101.316 112.394H85.7954C69.6618 112.394 57.1784 108.415 48.6518 100.567C40.153 92.748 35.834 82.6467 35.834 70.5419C35.834 58.4092 40.9332 48.308 51.0203 40.5442C61.2188 32.6969 76.2378 28.6898 95.6595 28.6898C108.923 28.6898 121.49 30.1646 132.998 33.0865C144.451 36.0083 154.064 40.1268 161.615 45.3583H163.204L171.117 39.9598L171.173 37.7058C162.423 31.2221 151.305 26.1297 138.181 22.5956C125.057 19.0894 110.762 17.3085 95.6874 17.3085Z" fill="#F7F9FE"/>
</g>
</g>
<defs>
<clipPath id="clip0">
<rect width="187" height="219" fill="white"/>
</clipPath>
</defs>
</svg>
