<svg width="24" height="19" viewBox="0 0 24 19" fill="none" xmlns="http://www.w3.org/2000/svg">
<path fill-rule="evenodd" clip-rule="evenodd" d="M23.25 13.68H22.875V13.3C22.875 7.38359 18.323 2.68841 12.75 2.30622V1.52H13.5C13.9142 1.52 14.25 1.17976 14.25 0.76C14.25 0.340243 13.9142 0 13.5 0H10.5C10.0858 0 9.75 0.340243 9.75 0.76C9.75 1.17976 10.0858 1.52 10.5 1.52H11.25V2.30622C5.67361 2.68864 1.125 7.38663 1.125 13.3V13.68H0.75C0.335813 13.68 0 14.0202 0 14.44C0 14.8598 0.335813 15.2 0.75 15.2H0.99225L2.30367 18.5222C2.41753 18.8108 2.69334 19 3 19H21C21.3067 19 21.5825 18.8108 21.6963 18.5222L23.0077 15.2H23.25C23.6642 15.2 24 14.8598 24 14.44C24 14.0202 23.6642 13.68 23.25 13.68ZM2.625 13.3C2.625 8.0617 6.83063 3.8 12 3.8C17.1694 3.8 21.375 8.0617 21.375 13.3V13.68H2.625V13.3ZM2.6078 15.2L3.5078 17.48H20.4922L21.3923 15.2H2.6078Z" fill="white"/>
</svg>
