<svg width="32" height="32" viewBox="0 0 32 32" fill="none" xmlns="http://www.w3.org/2000/svg">
<path d="M16.0001 21.6774C14.5771 21.6774 13.4194 22.8351 13.4194 24.2581C13.4194 25.0648 13.8086 25.8276 14.4517 26.3118V29.9355H17.5485V26.3118C18.1916 25.8271 18.5807 25.0648 18.5807 24.2581C18.5807 22.8351 17.423 21.6774 16.0001 21.6774ZM16.7727 25.5902L16.5162 25.7394V28.9032H15.484V25.7394L15.2274 25.5902C14.7418 25.3074 14.4517 24.8093 14.4517 24.2581C14.4517 23.4044 15.1464 22.7097 16.0001 22.7097C16.8538 22.7097 17.5485 23.4044 17.5485 24.2581C17.5485 24.8093 17.2584 25.3074 16.7727 25.5902Z" fill="url(#paint0_linear)"/>
<path d="M6.70967 6.70969C5.28671 6.70969 4.12903 7.86736 4.12903 9.29033C4.12903 10.7133 5.28671 11.871 6.70967 11.871C8.13264 11.871 9.29032 10.7133 9.29032 9.29033C9.29032 7.86736 8.13264 6.70969 6.70967 6.70969ZM6.70967 10.8387C5.856 10.8387 5.16129 10.144 5.16129 9.29033C5.16129 8.43665 5.856 7.74194 6.70967 7.74194C7.56335 7.74194 8.25806 8.43665 8.25806 9.29033C8.25806 10.144 7.56335 10.8387 6.70967 10.8387Z" fill="url(#paint1_linear)"/>
<path d="M25.2904 11.871C26.7133 11.871 27.871 10.7133 27.871 9.29033C27.871 7.86736 26.7133 6.70969 25.2904 6.70969C23.8674 6.70969 22.7097 7.86736 22.7097 9.29033C22.7097 10.7133 23.8674 11.871 25.2904 11.871ZM25.2904 7.74194C26.144 7.74194 26.8387 8.43665 26.8387 9.29033C26.8387 10.144 26.144 10.8387 25.2904 10.8387C24.4367 10.8387 23.742 10.144 23.742 9.29033C23.742 8.43665 24.4367 7.74194 25.2904 7.74194Z" fill="url(#paint2_linear)"/>
<path d="M16.0001 6.70969C14.5771 6.70969 13.4194 7.86736 13.4194 9.29033C13.4194 10.7133 14.5771 11.871 16.0001 11.871C17.423 11.871 18.5807 10.7133 18.5807 9.29033C18.5807 7.86736 17.423 6.70969 16.0001 6.70969ZM16.0001 10.8387C15.1464 10.8387 14.4517 10.144 14.4517 9.29033C14.4517 8.43665 15.1464 7.74194 16.0001 7.74194C16.8538 7.74194 17.5485 8.43665 17.5485 9.29033C17.5485 10.144 16.8538 10.8387 16.0001 10.8387Z" fill="url(#paint3_linear)"/>
<path d="M22.7097 18.5806C27.8323 18.5806 32 14.4129 32 9.29032C32 4.16774 27.8323 0 22.7097 0H9.29032C4.16774 0 0 4.16774 0 9.29032C0 11.4106 0.731871 13.4746 2.06452 15.1241V21.6346C2.06452 22.512 2.77884 23.2258 3.65626 23.2258C4.10116 23.2258 4.52852 23.0374 4.8289 22.7097L8.63587 18.5564C8.85935 18.5724 9.07871 18.5806 9.29032 18.5806H10.3226V19.8317C9.41265 20.2312 8.77419 21.1381 8.77419 22.1935V29.4194C8.77419 30.8423 9.93187 32 11.3548 32H20.6452C22.0681 32 23.2258 30.8423 23.2258 29.4194V22.1935C23.2258 21.1381 22.5874 20.2312 21.6774 19.8317V18.5806H22.7097ZM22.1935 22.1935V29.4194C22.1935 30.273 21.4988 30.9677 20.6452 30.9677H11.3548C10.5012 30.9677 9.80645 30.273 9.80645 29.4194V22.1935C9.80645 21.3399 10.5012 20.6452 11.3548 20.6452H20.6452C21.4988 20.6452 22.1935 21.3399 22.1935 22.1935ZM16 14.4516C14.0083 14.4516 12.3871 16.0723 12.3871 18.0645V19.6129H11.3548V18.0645C11.3548 15.5035 13.4385 13.4194 16 13.4194C18.5615 13.4194 20.6452 15.5035 20.6452 18.0645V19.6129H19.6129V18.0645C19.6129 16.0723 17.9917 14.4516 16 14.4516ZM18.5806 18.5806V19.6129H13.4194V18.5806H18.5806ZM13.4715 17.5484C13.7115 16.3721 14.7535 15.4839 16 15.4839C17.2465 15.4839 18.2885 16.3721 18.5285 17.5484H13.4715ZM21.6511 17.5484C21.3894 14.6591 18.9564 12.3871 16 12.3871C13.0436 12.3871 10.6106 14.6591 10.3489 17.5484H9.29032C9.0271 17.5484 8.76129 17.535 8.4769 17.5071L8.2209 17.4818L4.06813 22.0119C3.96284 22.1275 3.81265 22.1935 3.65626 22.1935C3.34761 22.1935 3.09677 21.9427 3.09677 21.6346V14.7499L2.97548 14.6059C1.72232 13.119 1.03226 11.231 1.03226 9.29032C1.03226 4.73703 4.73703 1.03226 9.29032 1.03226H22.7097C27.263 1.03226 30.9677 4.73703 30.9677 9.29032C30.9677 13.8436 27.263 17.5484 22.7097 17.5484H21.6511Z" fill="url(#paint4_linear)"/>
<defs>
<linearGradient id="paint0_linear" x1="16.0001" y1="21.6774" x2="16.0001" y2="29.9355" gradientUnits="userSpaceOnUse">
<stop stop-color="#FFDA44"/>
<stop offset="1" stop-color="#FFCC00"/>
</linearGradient>
<linearGradient id="paint1_linear" x1="6.70967" y1="6.70969" x2="6.70967" y2="11.871" gradientUnits="userSpaceOnUse">
<stop stop-color="#FFDA44"/>
<stop offset="1" stop-color="#FFCC00"/>
</linearGradient>
<linearGradient id="paint2_linear" x1="25.2904" y1="6.70969" x2="25.2904" y2="11.871" gradientUnits="userSpaceOnUse">
<stop stop-color="#FFDA44"/>
<stop offset="1" stop-color="#FFCC00"/>
</linearGradient>
<linearGradient id="paint3_linear" x1="16.0001" y1="6.70969" x2="16.0001" y2="11.871" gradientUnits="userSpaceOnUse">
<stop stop-color="#FFDA44"/>
<stop offset="1" stop-color="#FFCC00"/>
</linearGradient>
<linearGradient id="paint4_linear" x1="16" y1="0" x2="16" y2="32" gradientUnits="userSpaceOnUse">
<stop stop-color="#FFDA44"/>
<stop offset="1" stop-color="#FFCC00"/>
</linearGradient>
</defs>
</svg>
