<svg width="447" height="322" viewBox="0 0 447 322" fill="none" xmlns="http://www.w3.org/2000/svg">
<path opacity="0.11" d="M223 246C283.199 246 332 197.423 332 137.5C332 77.5771 283.199 29 223 29C162.801 29 114 77.5771 114 137.5C114 197.423 162.801 246 223 246Z" fill="#F7F9FD"/>
<path opacity="0.3325" d="M223.225 34.2627C251.797 34.2627 277.669 45.7957 296.398 64.4389C315.127 83.0821 326.713 108.835 326.713 137.276C326.713 165.717 315.127 191.47 296.398 210.113C277.669 228.757 251.797 240.29 223.225 240.29C166.082 240.29 119.737 194.157 119.737 137.276C119.737 108.835 131.323 83.0821 150.052 64.4389C168.781 45.7957 194.653 34.2627 223.225 34.2627Z" fill="#F7EBC3" stroke="#242930" stroke-width="0.5" stroke-miterlimit="10"/>
<path opacity="0.555" d="M223.45 39.5253C250.503 39.5253 275.025 50.4425 292.742 68.0779C310.459 85.7134 321.426 110.123 321.426 137.052C321.426 163.981 310.459 188.391 292.742 206.026C275.025 223.662 250.503 234.579 223.45 234.579C169.344 234.579 125.474 190.91 125.474 137.052C125.474 110.123 136.441 85.7134 154.158 68.0779C171.875 50.4425 196.397 39.5253 223.45 39.5253Z" fill="#F6DE92" stroke="#242930" stroke-miterlimit="10"/>
<path opacity="0.7775" d="M223.731 44.7879C249.266 44.7879 272.382 55.0892 289.086 71.717C305.791 88.3447 316.139 111.355 316.139 136.772C316.139 162.19 305.791 185.2 289.086 201.827C272.382 218.455 249.266 228.868 223.731 228.868C172.662 228.868 131.267 187.663 131.267 136.828C131.267 111.411 141.616 88.4007 158.32 71.7729C175.024 55.1452 198.197 44.7879 223.731 44.7879Z" fill="#F5D369" stroke="#242930" stroke-width="1.5" stroke-miterlimit="10"/>
<path d="M310.909 136.604C310.909 160.51 301.179 182.12 285.43 197.796C269.682 213.472 247.972 223.158 223.956 223.158C175.924 223.158 137.004 184.416 137.004 136.604C137.004 112.698 146.734 91.0879 162.482 75.412C178.23 59.736 199.94 50.0505 223.956 50.0505C247.972 50.0505 269.682 59.736 285.43 75.412C301.179 91.032 310.909 112.698 310.909 136.604Z" fill="#F4C944" stroke="#242930" stroke-width="2" stroke-miterlimit="10"/>
<path d="M166.363 79.1635C180.761 64.1034 201.29 54.6978 223.956 54.6978C246.623 54.6978 267.151 64.1034 281.55 79.1635C290.774 88.849 297.354 100.718 300.729 113.651C302.922 120.873 304.16 129.439 304.16 137.332C304.16 144.051 303.429 151.273 301.854 157.487C298.31 171.596 291.167 185.872 281.156 195.837C266.758 210.17 245.948 219.071 223.956 219.071C214.564 219.071 204.665 217.448 196.285 214.481C178.737 208.266 164.282 194.438 154.889 178.762C147.746 166.837 143.809 151.609 143.809 136.773C143.809 132.686 144.147 128.319 144.765 124.4C146.846 107.156 154.608 91.3684 166.363 79.1635Z" fill="#D3B147"/>
<path d="M223.956 54.6414C246.622 54.6414 267.151 64.0469 281.55 79.1071C290.774 88.7926 297.354 100.662 300.729 113.594C302.922 120.816 304.16 129.382 304.16 137.276C304.16 143.994 303.428 151.216 301.854 157.431C298.31 171.539 291.167 185.816 281.156 195.781C266.758 210.113 245.947 219.015 223.956 219.015C214.564 219.015 204.665 217.391 196.284 214.424C178.736 208.21 164.282 194.381 154.889 178.705C147.746 166.836 143.809 151.608 143.809 136.772C143.809 132.685 144.147 128.318 144.765 124.399C146.903 107.156 154.608 91.3679 166.363 79.1071C180.761 64.1029 201.234 54.6414 223.956 54.6414ZM223.956 54.5854C212.876 54.5854 202.134 56.8248 192.01 61.1917C182.28 65.4466 173.618 71.437 166.307 79.1071C160.401 85.2655 155.564 92.2637 151.908 99.8777C148.196 107.66 145.778 115.89 144.709 124.455C144.09 128.486 143.753 132.909 143.753 136.828C143.753 151.776 147.802 167.116 154.833 178.817C159.67 186.879 165.8 194.269 172.493 200.26C179.861 206.81 187.848 211.625 196.284 214.592C204.665 217.559 214.451 219.183 223.956 219.183C245.498 219.183 266.364 210.729 281.212 195.893C290.605 186.543 298.141 172.547 301.966 157.487C303.428 151.608 304.272 144.442 304.272 137.276C304.272 129.494 303.035 120.872 300.785 113.538C297.41 100.606 290.83 88.6806 281.606 79.0511C274.294 71.3811 265.633 65.3906 255.903 61.1357C245.835 56.7688 235.036 54.5854 223.956 54.5854Z" fill="url(#paint0_linear)"/>
<path d="M166.363 79.1635C180.761 64.1034 201.29 54.6978 223.956 54.6978C246.623 54.6978 267.151 64.1034 281.55 79.1635C290.774 88.849 297.354 100.718 300.729 113.651C302.922 120.873 304.16 129.439 304.16 137.332C304.16 144.051 303.429 151.273 301.854 157.487C298.31 171.596 291.167 185.872 281.156 195.837C266.758 210.17 245.948 219.071 223.956 219.071C214.564 219.071 204.665 217.448 196.285 214.481C178.737 208.266 164.282 194.438 154.889 178.762C147.746 166.837 143.809 151.609 143.809 136.773C143.809 132.686 144.147 128.319 144.765 124.4C146.846 107.156 154.608 91.3683 166.363 79.1635Z" stroke="#242930" stroke-width="1.8333" stroke-miterlimit="10"/>
<path d="M170.244 82.8589C183.348 68.4706 202.584 59.2889 223.956 59.2889C245.329 59.2889 264.62 68.4146 277.669 82.8589C286.105 92.2084 291.673 103.574 294.148 115.498C296.117 122.049 297.41 130.838 297.41 138.005C297.41 144.107 296.848 151.553 295.442 157.152C292.18 169.972 285.937 184.753 276.825 193.822C263.72 206.867 243.923 214.929 223.9 214.929C215.351 214.929 205.452 213.473 197.859 210.73C181.942 205.075 169.006 190.687 160.457 176.411C153.989 165.605 150.558 150.377 150.558 136.829C150.558 133.134 150.952 128.767 151.458 125.184C152.921 109.452 159.557 94.6158 170.244 82.8589Z" fill="#BA9D4A"/>
<path d="M223.956 59.2882C245.329 59.2882 264.62 68.4138 277.669 82.8581C286.105 92.2077 291.673 103.573 294.148 115.498C296.116 122.048 297.41 130.838 297.41 138.004C297.41 144.106 296.848 151.552 295.442 157.151C292.179 169.972 285.936 184.752 276.825 193.821C263.72 206.866 243.922 214.928 223.9 214.928C215.351 214.928 205.452 213.472 197.859 210.729C181.942 205.075 169.006 190.686 160.457 176.41C153.989 165.605 150.558 150.377 150.558 136.828C150.558 133.133 150.952 128.766 151.458 125.183C152.864 109.283 159.501 94.4471 170.187 82.7461C183.348 68.4698 202.583 59.2882 223.956 59.2882ZM223.956 59.1202C203.427 59.1202 183.798 67.742 170.131 82.7461C159.388 94.5031 152.752 109.619 151.402 125.295C150.839 129.102 150.502 133.413 150.502 136.94C150.502 151.44 154.214 166.277 160.401 176.578C166.419 186.599 179.242 204.347 197.915 210.953C205.283 213.584 215.07 215.152 224.012 215.152C243.922 215.152 263.72 207.258 277.05 193.989C288.355 182.736 293.867 164.541 295.667 157.207C297.466 150.097 297.635 141.419 297.635 138.004C297.635 130.894 296.341 122.048 294.373 115.442C291.786 103.237 286.105 91.9278 277.837 82.7461C264.283 67.742 244.654 59.1202 223.956 59.1202Z" fill="url(#paint1_linear)"/>
<path d="M170.244 82.8589C183.348 68.4706 202.584 59.2889 223.956 59.2889C245.329 59.2889 264.62 68.4146 277.669 82.8589C286.105 92.2084 291.673 103.574 294.148 115.498C296.117 122.049 297.41 130.838 297.41 138.005C297.41 144.107 296.848 151.553 295.442 157.152C292.18 169.972 285.937 184.753 276.825 193.822C263.72 206.867 243.923 214.929 223.9 214.929C215.351 214.929 205.452 213.473 197.859 210.73C181.942 205.075 169.006 190.687 160.457 176.411C153.989 165.605 150.558 150.377 150.558 136.829C150.558 133.134 150.952 128.767 151.458 125.184C152.921 109.452 159.557 94.6158 170.244 82.8589Z" stroke="#242930" stroke-width="1.6667" stroke-miterlimit="10"/>
<path d="M174.124 86.6092C185.935 72.8367 203.877 63.879 223.956 63.879C244.035 63.879 262.089 72.6688 273.788 86.6092C281.381 95.6788 285.936 106.428 287.624 117.345C289.424 123.28 290.717 132.237 290.717 138.676C290.717 144.162 290.323 151.776 289.03 156.815C286.105 168.348 280.762 183.688 272.55 191.806C260.739 203.563 241.954 210.841 223.956 210.841C216.251 210.841 206.352 209.497 199.49 207.09C185.148 201.995 173.787 187.047 166.081 174.227C160.232 164.485 157.42 149.201 157.42 137.052C157.42 133.693 157.814 129.326 158.32 126.135C158.939 111.747 164.507 97.8063 174.124 86.6092Z" fill="#A38C4B"/>
<path d="M223.956 63.935C244.035 63.935 262.089 72.7247 273.788 86.6652C281.381 95.7348 285.936 106.484 287.624 117.401C289.424 123.336 290.717 132.293 290.717 138.732C290.717 144.218 290.323 151.832 289.03 156.871C286.105 168.404 280.762 183.744 272.55 191.862C260.739 203.619 241.954 210.897 223.956 210.897C216.251 210.897 206.352 209.553 199.49 207.146C185.148 202.051 173.787 187.103 166.081 174.283C160.232 164.541 157.42 149.257 157.42 137.108C157.42 133.749 157.814 129.382 158.32 126.191C158.995 111.691 164.563 97.8063 174.124 86.6092C185.935 72.8367 203.877 63.935 223.956 63.935ZM223.956 63.6551C204.552 63.6551 186.329 71.9969 173.899 86.4412C164.338 97.6383 158.657 111.747 158.039 126.191C157.476 129.718 157.139 134.029 157.139 137.108C157.139 147.633 159.445 163.701 165.856 174.395C176.543 192.142 187.791 203.283 199.378 207.37C205.733 209.609 215.576 211.177 223.9 211.177C242.179 211.177 260.908 203.843 272.719 192.086C281.606 183.24 286.893 166.277 289.255 156.927C290.773 150.993 290.942 142.203 290.942 138.676C290.942 132.237 289.648 123.224 287.849 117.289C286.105 105.812 281.324 95.119 273.957 86.3852C268.107 79.443 260.571 73.6765 252.078 69.7575C243.304 65.7266 233.799 63.6551 223.956 63.6551Z" fill="url(#paint2_linear)"/>
<path d="M174.124 86.6092C185.935 72.8367 203.877 63.879 223.956 63.879C244.035 63.879 262.089 72.6688 273.788 86.6092C281.381 95.6788 285.936 106.428 287.624 117.345C289.424 123.28 290.717 132.237 290.717 138.676C290.717 144.162 290.323 151.776 289.03 156.815C286.105 168.348 280.762 183.688 272.55 191.806C260.739 203.563 241.954 210.841 223.956 210.841C216.251 210.841 206.352 209.497 199.49 207.09C185.148 201.995 173.787 187.047 166.081 174.227C160.232 164.485 157.42 149.201 157.42 137.052C157.42 133.693 157.814 129.326 158.32 126.135C158.939 111.747 164.507 97.8063 174.124 86.6092Z" stroke="#242930" stroke-width="1.5" stroke-miterlimit="10"/>
<path d="M178.005 90.3601C188.466 77.2035 205.227 68.5258 223.956 68.5258C242.685 68.5258 259.558 77.0915 269.907 90.3601C276.712 99.0939 280.256 109.339 281.043 119.249C282.618 124.511 283.968 133.637 283.968 139.403C283.968 144.274 283.743 152.056 282.618 156.591C280.031 166.836 275.588 182.68 268.276 189.902C257.815 200.316 239.929 206.81 223.956 206.81C217.094 206.81 207.195 205.634 201.121 203.451C188.354 198.916 178.567 183.408 171.706 172.043C166.531 163.421 164.225 148.081 164.225 137.276C164.225 134.309 164.619 129.942 165.069 127.087C165.013 114.042 169.456 101.053 178.005 90.3601Z" fill="#8F7D4B"/>
<path d="M223.956 68.5258C242.685 68.5258 259.558 77.0916 269.907 90.3602C276.713 99.0939 280.256 109.339 281.043 119.249C282.618 124.511 283.968 133.637 283.968 139.404C283.968 144.274 283.743 152.056 282.618 156.591C280.031 166.836 275.588 182.68 268.276 189.902C257.815 200.316 239.929 206.81 223.956 206.81C217.094 206.81 207.195 205.634 201.121 203.451C188.354 198.916 178.568 183.408 171.706 172.043C166.531 163.421 164.225 148.081 164.225 137.276C164.225 134.309 164.619 129.942 165.069 127.087C165.013 113.986 169.456 100.997 178.005 90.3602C188.466 77.2036 205.171 68.5258 223.956 68.5258ZM223.956 68.1899C214.732 68.1899 205.902 70.2054 197.747 74.1803C189.929 77.9874 183.011 83.4739 177.724 90.1362C169.287 100.717 164.619 113.818 164.732 127.087C164.282 129.886 163.888 134.309 163.888 137.276C163.888 148.417 166.194 163.533 171.425 172.211C177.049 181.561 187.51 199.028 201.009 203.787C207.252 205.97 217.263 207.146 224.012 207.146C231.999 207.146 240.435 205.578 248.366 202.611C256.465 199.588 263.495 195.277 268.613 190.182C275.756 183.072 280.256 167.676 283.068 156.703C284.193 152.28 284.418 144.89 284.418 139.459C284.418 133.749 283.068 124.511 281.493 119.193C280.593 108.499 276.713 98.4221 270.244 90.1362C259.502 76.3638 242.179 68.1899 223.956 68.1899Z" fill="url(#paint3_linear)"/>
<path d="M178.005 90.3601C188.466 77.2035 205.227 68.5258 223.956 68.5258C242.685 68.5258 259.558 77.0915 269.907 90.3601C276.712 99.0939 280.256 109.339 281.043 119.249C282.618 124.511 283.968 133.637 283.968 139.403C283.968 144.274 283.743 152.056 282.618 156.591C280.031 166.836 275.588 182.68 268.276 189.902C257.815 200.316 239.929 206.81 223.956 206.81C217.094 206.81 207.195 205.634 201.121 203.451C188.354 198.916 178.567 183.408 171.706 172.043C166.531 163.421 164.225 148.081 164.225 137.276C164.225 134.309 164.619 129.942 165.069 127.087C165.013 114.042 169.456 101.053 178.005 90.3601Z" stroke="#242930" stroke-width="1.3333" stroke-miterlimit="10"/>
<path d="M181.886 94.1112C191.053 81.5704 206.52 73.1726 223.956 73.1726C241.391 73.1726 257.027 81.4585 266.026 94.1112C272.044 102.565 274.519 112.251 274.519 121.152C275.925 125.743 277.219 135.093 277.219 140.131C277.219 144.386 277.219 152.336 276.206 156.311C273.956 165.269 270.357 181.617 264.001 187.999C254.834 197.125 237.961 202.779 223.956 202.779C217.994 202.779 208.039 201.771 202.696 199.868C191.56 195.893 183.292 179.825 177.33 169.86C172.774 162.302 171.031 146.962 171.031 137.5C171.031 134.925 171.481 130.502 171.874 128.038C171.031 116.337 174.405 104.301 181.886 94.1112Z" fill="#7C6F4B"/>
<path d="M223.956 73.1726C241.392 73.1726 257.027 81.4585 266.026 94.1112C272.044 102.565 274.519 112.251 274.519 121.152C275.925 125.743 277.219 135.093 277.219 140.131C277.219 144.386 277.219 152.336 276.206 156.311C273.957 165.269 270.357 181.617 264.001 187.999C254.834 197.125 237.961 202.779 223.956 202.779C217.994 202.779 208.039 201.771 202.696 199.868C191.56 195.893 183.292 179.825 177.33 169.86C172.774 162.302 171.031 146.962 171.031 137.5C171.031 134.925 171.481 130.502 171.875 128.038C171.087 116.337 174.462 104.301 181.942 94.1112C191.054 81.5704 206.521 73.1726 223.956 73.1726ZM223.956 72.7247C207.083 72.7247 191.222 80.6187 181.492 93.8873C174.124 103.909 170.525 116.002 171.368 128.038C170.975 130.67 170.525 134.981 170.525 137.5C170.525 148.081 172.493 162.805 176.88 170.084C177.555 171.259 178.286 172.491 179.074 173.779C184.754 183.464 192.516 196.733 202.527 200.26C207.758 202.107 217.488 203.227 223.956 203.227C238.917 203.227 255.509 197.069 264.339 188.279C270.244 182.4 273.732 168.292 276.038 158.942C276.263 158.047 276.488 157.207 276.656 156.367C277.669 152.28 277.669 144.05 277.669 140.075C277.669 135.037 276.319 125.631 274.969 120.984C274.969 114.098 273.507 103.741 266.364 93.7193C261.864 87.337 255.621 82.0183 248.309 78.3233C240.885 74.6842 232.449 72.7247 223.956 72.7247Z" fill="url(#paint4_linear)"/>
<path d="M181.886 94.1112C191.053 81.5704 206.52 73.1726 223.956 73.1726C241.391 73.1726 257.027 81.4585 266.026 94.1112C272.044 102.565 274.519 112.251 274.519 121.152C275.925 125.743 277.219 135.093 277.219 140.131C277.219 144.386 277.219 152.336 276.206 156.311C273.956 165.269 270.357 181.617 264.001 187.999C254.834 197.125 237.961 202.779 223.956 202.779C217.994 202.779 208.039 201.771 202.696 199.868C191.56 195.893 183.292 179.825 177.33 169.86C172.774 162.302 171.031 146.962 171.031 137.5C171.031 134.925 171.481 130.502 171.874 128.038C171.031 116.337 174.405 104.301 181.886 94.1112Z" stroke="#242930" stroke-width="1.1667" stroke-miterlimit="10"/>
<path d="M185.767 97.8622C193.641 85.9373 207.814 77.7634 223.956 77.7634C240.042 77.7634 254.496 85.7693 262.145 97.8622C267.32 106.036 268.838 115.106 267.995 123.056C269.176 126.975 270.526 136.548 270.526 140.915C270.526 144.554 270.694 152.672 269.851 156.087C267.882 163.757 265.239 180.665 259.783 186.095C251.909 193.933 236.048 198.748 224.012 198.748C218.894 198.748 208.939 197.852 204.383 196.229C194.822 192.814 188.129 176.242 183.011 167.676C179.13 161.182 177.893 145.842 177.893 137.724C177.893 135.484 178.343 131.118 178.68 128.99C177.049 118.633 179.355 107.492 185.767 97.8622Z" fill="#6B6248"/>
<path d="M223.956 77.8194C240.042 77.8194 254.496 85.8253 262.145 97.9182C267.32 106.092 268.838 115.162 267.995 123.112C269.176 127.031 270.526 136.604 270.526 140.971C270.526 144.61 270.694 152.728 269.851 156.143C267.882 163.813 265.239 180.721 259.783 186.151C251.909 193.989 236.048 198.804 224.012 198.804C218.894 198.804 208.939 197.908 204.383 196.285C194.822 192.87 188.129 176.298 183.011 167.732C179.13 161.238 177.893 145.898 177.893 137.78C177.893 135.54 178.343 131.174 178.68 129.046C177.161 118.745 179.411 107.604 185.823 97.9742C193.641 85.9373 207.814 77.8194 223.956 77.8194ZM223.956 77.2595C216.082 77.2595 208.32 79.219 201.515 82.9141C194.934 86.4971 189.31 91.5358 185.317 97.5823C179.074 106.988 176.487 118.129 178.061 128.99C177.724 131.174 177.274 135.54 177.274 137.724C177.274 145.226 178.343 161.182 182.448 167.956C183.573 169.804 184.754 172.043 185.992 174.394C190.66 183.128 196.397 193.989 204.102 196.733C208.714 198.356 218.782 199.252 223.956 199.252C235.261 199.252 251.74 194.773 260.121 186.431C264.62 181.952 267.207 170.14 269.12 161.518C269.57 159.502 269.963 157.655 270.357 156.143C271.144 153.12 271.088 146.346 271.088 142.371C271.088 141.811 271.088 141.307 271.088 140.859C271.088 136.492 269.738 127.031 268.557 123C269.513 114.098 267.376 105.084 262.652 97.5823C254.665 85.0415 239.817 77.2595 223.956 77.2595Z" fill="url(#paint5_linear)"/>
<path d="M185.767 97.8622C193.641 85.9373 207.814 77.7634 223.956 77.7634C240.042 77.7634 254.496 85.7693 262.145 97.8622C267.32 106.036 268.838 115.106 267.995 123.056C269.176 126.975 270.526 136.548 270.526 140.915C270.526 144.554 270.694 152.672 269.851 156.087C267.882 163.757 265.239 180.665 259.783 186.095C251.909 193.933 236.048 198.748 224.012 198.748C218.894 198.748 208.939 197.852 204.383 196.229C194.822 192.814 188.129 176.242 183.011 167.676C179.13 161.182 177.893 145.842 177.893 137.724C177.893 135.484 178.343 131.118 178.68 128.99C177.049 118.633 179.355 107.492 185.767 97.8622Z" stroke="#242930" stroke-miterlimit="10"/>
<path d="M189.648 101.613C196.228 90.3042 209.164 82.4102 223.956 82.4102C238.749 82.4102 251.966 90.1922 258.265 101.613C262.596 109.507 263.158 118.017 261.415 124.959C262.427 128.262 263.777 138.004 263.777 141.643C263.777 144.666 264.114 152.952 263.383 155.807C261.752 162.246 259.952 179.601 255.397 184.136C248.816 190.686 233.912 194.717 223.9 194.717C219.626 194.717 209.671 193.989 205.846 192.646C197.859 189.791 192.741 172.659 188.467 165.493C185.205 160.062 184.586 144.666 184.586 137.948C184.586 136.1 185.092 131.733 185.317 129.942C183.124 120.928 184.305 110.739 189.648 101.613Z" fill="#5C5645"/>
<path d="M223.956 82.4102C238.748 82.4102 251.966 90.1922 258.265 101.613C262.596 109.507 263.158 118.017 261.414 124.959C262.427 128.262 263.777 138.004 263.777 141.643C263.777 144.666 264.114 152.952 263.383 155.807C261.752 162.246 259.952 179.601 255.396 184.136C248.816 190.686 233.911 194.717 223.9 194.717C219.626 194.717 209.67 193.989 205.846 192.646C197.859 189.79 192.741 172.659 188.467 165.493C185.204 160.062 184.586 144.666 184.586 137.948C184.586 136.1 185.092 131.733 185.317 129.942C183.067 121.04 184.248 110.851 189.591 101.725C196.228 90.3042 209.164 82.4102 223.956 82.4102ZM223.956 81.7944C209.445 81.7944 196.059 89.2964 189.085 101.333C183.911 110.235 182.336 120.368 184.698 129.942C184.417 131.789 183.967 136.044 183.967 137.948C183.967 140.131 184.08 159.39 187.96 165.829C189.142 167.844 190.435 170.699 191.841 173.723C195.328 181.449 199.715 191.134 205.677 193.262C209.614 194.661 219.682 195.389 223.956 195.389C234.136 195.389 249.21 191.302 255.903 184.64C259.39 181.169 261.246 170.979 262.708 162.861C263.214 160.118 263.608 157.711 264.058 156.031C264.62 153.68 264.564 147.969 264.508 144.162C264.508 143.211 264.452 142.371 264.452 141.755C264.452 138.06 263.102 128.542 262.089 125.071C264.002 117.121 262.821 108.723 258.827 101.445C252.247 89.4644 238.58 81.7944 223.956 81.7944Z" fill="url(#paint6_linear)"/>
<path d="M189.648 101.613C196.228 90.3042 209.164 82.4102 223.956 82.4102C238.749 82.4102 251.966 90.1922 258.265 101.613C262.596 109.507 263.158 118.017 261.415 124.959C262.427 128.262 263.777 138.004 263.777 141.643C263.777 144.666 264.114 152.952 263.383 155.807C261.752 162.246 259.952 179.601 255.397 184.136C248.816 190.686 233.912 194.717 223.9 194.717C219.626 194.717 209.671 193.989 205.846 192.646C197.859 189.791 192.741 172.659 188.467 165.493C185.205 160.062 184.586 144.666 184.586 137.948C184.586 136.1 185.092 131.733 185.317 129.942C183.124 120.928 184.305 110.739 189.648 101.613Z" stroke="#242930" stroke-width="0.8333" stroke-miterlimit="10"/>
<path d="M193.529 105.364C198.759 94.671 210.458 87.057 223.957 87.057C237.455 87.057 249.379 94.6151 254.384 105.364C257.928 112.978 257.421 120.872 254.89 126.863C255.678 129.494 257.084 139.459 257.084 142.371C257.084 144.778 257.59 153.288 257.028 155.527C255.734 160.678 254.834 178.537 251.178 182.176C245.948 187.383 231.999 190.63 224.013 190.63C220.582 190.63 210.627 190.014 207.59 188.951C201.234 186.711 197.635 168.964 194.204 163.253C191.616 158.942 191.504 143.49 191.504 138.116C191.504 136.66 192.01 132.237 192.235 130.838C189.142 123.224 189.254 113.986 193.529 105.364Z" fill="#4F4C41"/>
<path d="M223.956 87.057C237.455 87.057 249.378 94.615 254.384 105.364C257.927 112.978 257.421 120.872 254.89 126.863C255.678 129.494 257.084 139.459 257.084 142.371C257.084 144.778 257.59 153.288 257.028 155.527C255.734 160.678 254.834 178.537 251.178 182.176C245.948 187.383 231.999 190.63 224.013 190.63C220.582 190.63 210.627 190.014 207.589 188.951C201.234 186.711 197.634 168.964 194.204 163.253C191.616 158.942 191.504 143.49 191.504 138.116C191.504 136.66 192.01 132.237 192.235 130.838C189.254 123.336 189.367 114.042 193.641 105.42C198.759 94.671 210.458 87.057 223.956 87.057ZM223.956 86.2732C210.683 86.2732 198.478 93.6073 192.854 105.028C188.748 113.314 188.185 122.72 191.391 130.838C191.166 132.405 190.716 136.548 190.716 138.06C190.716 151.888 191.673 160.51 193.529 163.589C194.653 165.437 195.778 168.684 197.016 172.155C199.659 179.601 202.696 187.999 207.252 189.623C210.458 190.742 220.413 191.358 223.956 191.358C231.718 191.358 246.06 188.279 251.684 182.68C254.384 179.993 255.565 170.699 256.578 163.197C256.971 160.006 257.365 157.207 257.759 155.695C258.209 153.904 258.04 148.921 257.927 145.282C257.871 144.05 257.871 142.987 257.871 142.371C257.871 139.403 256.578 129.942 255.734 126.919C258.602 120.032 258.377 112.083 255.115 105.084C252.584 99.5977 248.31 94.895 242.798 91.5358C237.117 88.1207 230.649 86.2732 223.956 86.2732Z" fill="url(#paint7_linear)"/>
<path d="M193.529 105.364C198.759 94.671 210.458 87.057 223.957 87.057C237.455 87.057 249.379 94.6151 254.384 105.364C257.928 112.978 257.421 120.872 254.89 126.863C255.678 129.494 257.084 139.459 257.084 142.371C257.084 144.778 257.59 153.288 257.028 155.527C255.734 160.678 254.834 178.537 251.178 182.176C245.948 187.383 231.999 190.63 224.013 190.63C220.582 190.63 210.627 190.014 207.59 188.951C201.234 186.711 197.635 168.964 194.204 163.253C191.616 158.942 191.504 143.49 191.504 138.116C191.504 136.66 192.01 132.237 192.235 130.838C189.142 123.224 189.254 113.986 193.529 105.364Z" stroke="#242930" stroke-width="0.6667" stroke-miterlimit="10"/>
<path d="M197.409 109.115C201.346 99.0379 211.751 91.6478 223.956 91.6478C236.105 91.6478 246.791 98.9819 250.503 109.115C253.203 116.449 251.74 123.784 248.366 128.71C248.984 130.67 250.334 140.859 250.334 143.043C250.334 144.89 251.009 153.512 250.615 155.191C249.659 159.054 249.659 177.418 246.903 180.161C242.966 184.08 229.974 186.487 224.012 186.487C221.425 186.487 211.47 186.039 209.164 185.256C204.383 183.576 202.358 165.269 199.827 161.014C197.859 157.767 198.309 142.315 198.309 138.228C198.309 137.108 198.815 132.741 198.984 131.677C195.215 125.519 194.203 117.233 197.409 109.115Z" fill="#43423C"/>
<path d="M223.956 91.6478C236.105 91.6478 246.791 98.9819 250.503 109.115C253.203 116.449 251.74 123.784 248.366 128.71C248.984 130.67 250.334 140.859 250.334 143.043C250.334 144.89 251.009 153.512 250.615 155.191C249.659 159.054 249.659 177.418 246.903 180.161C242.966 184.08 229.974 186.487 224.012 186.487C221.425 186.487 211.47 186.039 209.164 185.256C204.383 183.576 202.358 165.269 199.827 161.014C197.859 157.767 198.309 142.315 198.309 138.228C198.309 137.108 198.815 132.741 198.984 131.677C195.272 125.519 194.259 117.233 197.465 109.115C201.346 99.0939 211.751 91.6478 223.956 91.6478ZM223.956 90.808C211.807 90.808 200.84 98.0302 196.622 108.779C193.584 116.505 194.091 125.127 198.028 131.845C197.859 133.189 197.353 137.108 197.353 138.228C197.353 138.732 197.353 139.403 197.353 140.243C197.24 149.649 197.409 158.774 198.984 161.406C199.884 162.861 200.727 166.389 201.683 170.14C203.483 177.362 205.339 184.808 208.77 186.039C211.245 186.935 221.65 187.327 223.9 187.327C229.637 187.327 243.135 184.976 247.409 180.721C249.265 178.873 249.94 171.931 250.559 163.085C250.784 159.614 251.009 156.591 251.347 155.359C251.628 154.128 251.459 150.433 251.234 146.122C251.178 144.722 251.122 143.546 251.122 142.987C251.122 140.747 249.828 131.51 249.209 128.822C252.978 123.056 253.765 115.61 251.234 108.779C249.378 103.685 245.666 99.0939 240.829 95.8467C235.88 92.5996 230.03 90.808 223.956 90.808Z" fill="url(#paint8_linear)"/>
<path d="M197.409 109.115C201.346 99.0379 211.751 91.6478 223.956 91.6478C236.105 91.6478 246.791 98.9819 250.503 109.115C253.203 116.449 251.74 123.784 248.366 128.71C248.984 130.67 250.334 140.859 250.334 143.043C250.334 144.89 251.009 153.512 250.615 155.191C249.659 159.054 249.659 177.418 246.903 180.161C242.966 184.08 229.974 186.487 224.012 186.487C221.425 186.487 211.47 186.039 209.164 185.256C204.383 183.576 202.358 165.269 199.827 161.014C197.859 157.767 198.309 142.315 198.309 138.228C198.309 137.108 198.815 132.741 198.984 131.677C195.215 125.519 194.203 117.233 197.409 109.115Z" stroke="#242930" stroke-width="0.5" stroke-miterlimit="10"/>
<path d="M201.29 112.866C203.933 103.461 213.101 96.2947 223.956 96.2947C234.811 96.2947 244.148 103.405 246.622 112.866C248.422 119.921 246.004 126.695 241.785 130.614C242.179 131.901 243.585 142.315 243.585 143.77C243.585 145.002 244.429 153.792 244.148 154.912C243.473 157.487 244.373 176.41 242.573 178.202C239.929 180.833 227.949 182.4 223.956 182.4C222.269 182.4 212.257 182.121 210.683 181.561C207.477 180.441 207.027 161.574 205.34 158.719C204.046 156.535 205.002 141.083 205.002 138.34C205.002 137.612 205.565 133.189 205.677 132.517C201.234 127.815 199.153 120.424 201.29 112.866Z" fill="#383938"/>
<path d="M223.956 96.2946C234.811 96.2946 244.147 103.405 246.622 112.866C248.422 119.921 246.004 126.695 241.785 130.614C242.179 131.901 243.585 142.315 243.585 143.77C243.585 145.002 244.429 153.792 244.147 154.912C243.473 157.487 244.372 176.41 242.573 178.202C239.929 180.833 227.949 182.4 223.956 182.4C222.269 182.4 212.257 182.121 210.683 181.561C207.477 180.441 207.027 161.574 205.339 158.719C204.046 156.535 205.002 141.083 205.002 138.34C205.002 137.612 205.564 133.189 205.677 132.517C201.234 127.759 199.153 120.368 201.29 112.81C203.933 103.461 213.101 96.2946 223.956 96.2946ZM223.956 95.3429C212.932 95.3429 203.258 102.453 200.39 112.586C198.309 119.865 199.996 127.591 204.664 132.853C204.496 134.197 204.046 137.668 204.046 138.396C204.046 138.956 203.99 140.131 203.933 141.643C203.54 151.552 203.54 157.599 204.496 159.222C205.058 160.174 205.564 164.037 206.071 167.788C207.195 176.354 208.039 181.673 210.345 182.456C212.201 183.128 223.056 183.352 223.9 183.352C227.668 183.352 240.21 181.785 243.191 178.873C244.429 177.642 244.654 173.163 244.766 162.805C244.822 159.446 244.822 155.975 245.047 155.135C245.216 154.352 245.104 151.888 244.71 146.85C244.597 145.45 244.485 144.106 244.485 143.714C244.485 142.315 243.304 133.469 242.741 130.894C247.297 126.359 249.153 119.249 247.466 112.586C244.935 102.621 235.036 95.3429 223.956 95.3429Z" fill="url(#paint9_linear)"/>
<path d="M201.29 112.866C203.933 103.461 213.101 96.2947 223.956 96.2947C234.811 96.2947 244.148 103.405 246.622 112.866C248.422 119.921 246.004 126.695 241.785 130.614C242.179 131.901 243.585 142.315 243.585 143.77C243.585 145.002 244.429 153.792 244.148 154.912C243.473 157.487 244.373 176.41 242.573 178.202C239.929 180.833 227.949 182.4 223.956 182.4C222.269 182.4 212.257 182.121 210.683 181.561C207.477 180.441 207.027 161.574 205.34 158.719C204.046 156.535 205.002 141.083 205.002 138.34C205.002 137.612 205.565 133.189 205.677 132.517C201.234 127.815 199.153 120.424 201.29 112.866Z" stroke="#242930" stroke-width="0.3333" stroke-miterlimit="10"/>
<path d="M205.171 116.617C206.464 107.828 214.395 100.941 223.956 100.941C233.461 100.941 241.504 107.828 242.742 116.617C243.641 123.448 240.323 129.55 235.261 132.517C235.486 133.189 236.892 143.77 236.892 144.498C236.892 145.114 237.961 154.072 237.792 154.632C237.455 155.919 239.254 175.346 238.355 176.242C237.061 177.53 226.037 178.369 224.012 178.369C223.169 178.369 213.101 178.201 212.37 177.978C210.795 177.418 211.864 157.991 211.02 156.591C210.345 155.527 211.92 139.963 211.92 138.62C211.92 138.228 212.483 133.861 212.539 133.525C207.252 130.166 204.102 123.672 205.171 116.617Z" fill="#2D3134"/>
<path d="M223.956 100.941C233.462 100.941 241.504 107.828 242.742 116.617C243.642 123.448 240.323 129.55 235.261 132.517C235.486 133.189 236.892 143.77 236.892 144.498C236.892 145.114 237.961 154.072 237.792 154.632C237.455 155.919 239.255 175.346 238.355 176.242C237.061 177.53 226.037 178.369 224.013 178.369C223.169 178.369 213.101 178.201 212.37 177.978C210.795 177.418 211.864 157.991 211.02 156.591C210.345 155.527 211.92 139.963 211.92 138.62C211.92 138.228 212.483 133.861 212.539 133.525C207.364 130.166 204.215 123.672 205.283 116.617C206.465 107.828 214.395 100.941 223.956 100.941ZM223.956 99.8777C214.114 99.8777 205.565 106.988 204.159 116.449C203.09 123.336 205.902 130.166 211.358 133.973C211.189 135.317 210.795 138.172 210.795 138.62C210.795 138.956 210.683 140.523 210.514 142.315C209.558 153.848 209.614 156.255 210.008 157.039C210.233 157.767 210.289 161.91 210.289 165.213C210.345 176.242 210.57 178.425 211.92 178.929C212.989 179.321 223.788 179.433 223.9 179.433C224.013 179.433 237.061 178.929 238.973 177.026C239.705 176.298 239.761 174.506 239.03 162.302C238.861 159.11 238.636 155.527 238.692 154.911C238.805 154.464 238.692 153.4 238.13 147.521C237.961 146.122 237.848 144.722 237.848 144.498C237.848 143.77 236.78 135.708 236.33 133.021C241.729 129.55 244.598 123.112 243.698 116.449C242.46 107.044 233.911 99.8777 223.956 99.8777Z" fill="url(#paint10_linear)"/>
<path d="M205.171 116.617C206.464 107.828 214.395 100.941 223.956 100.941C233.461 100.941 241.504 107.828 242.742 116.617C243.641 123.448 240.323 129.55 235.261 132.517C235.486 133.189 236.892 143.77 236.892 144.498C236.892 145.114 237.961 154.072 237.792 154.632C237.455 155.919 239.254 175.346 238.355 176.242C237.061 177.53 226.037 178.369 224.012 178.369C223.169 178.369 213.101 178.201 212.37 177.978C210.795 177.418 211.864 157.991 211.02 156.591C210.345 155.527 211.92 139.963 211.92 138.62C211.92 138.228 212.483 133.861 212.539 133.525C207.252 130.166 204.102 123.672 205.171 116.617Z" stroke="#242930" stroke-width="0.1667" stroke-miterlimit="10"/>
<path d="M238.804 120.368C238.804 112.195 232.167 105.532 223.9 105.532C215.688 105.532 208.995 112.139 208.995 120.368C208.995 126.919 213.27 132.461 219.175 134.421L216.532 154.352L213.888 174.282H223.956H234.024L231.38 154.352L228.737 134.421C234.586 132.461 238.804 126.919 238.804 120.368Z" fill="#242930"/>
<path d="M223.956 105.532C232.168 105.532 238.861 112.139 238.861 120.368C238.861 126.919 234.586 132.461 228.681 134.421L231.324 154.352L233.968 174.283H223.9H213.832L216.476 154.352L219.119 134.421C213.214 132.461 208.939 126.919 208.939 120.368C209.052 112.195 215.745 105.532 223.956 105.532ZM223.956 104.413C215.126 104.413 207.927 111.579 207.927 120.368C207.927 126.919 211.92 132.741 217.994 135.149L215.463 154.24L212.82 174.171L212.651 175.458H213.945H224.012H234.08H235.374L235.205 174.171L232.561 154.24L230.03 135.149C236.105 132.741 240.098 126.919 240.098 120.368C239.929 111.579 232.786 104.413 223.956 104.413Z" fill="url(#paint11_linear)"/>
<defs>
<linearGradient id="paint0_linear" x1="143.706" y1="136.865" x2="304.246" y2="136.865" gradientUnits="userSpaceOnUse">
<stop stop-color="#F4C944"/>
<stop offset="1" stop-color="#F4C944"/>
</linearGradient>
<linearGradient id="paint1_linear" x1="150.416" y1="137.143" x2="297.607" y2="137.143" gradientUnits="userSpaceOnUse">
<stop stop-color="#F4C944"/>
<stop offset="1" stop-color="#F4C944"/>
</linearGradient>
<linearGradient id="paint2_linear" x1="157.125" y1="137.422" x2="290.97" y2="137.422" gradientUnits="userSpaceOnUse">
<stop stop-color="#F4C944"/>
<stop offset="1" stop-color="#F4C944"/>
</linearGradient>
<linearGradient id="paint3_linear" x1="163.834" y1="137.701" x2="284.332" y2="137.701" gradientUnits="userSpaceOnUse">
<stop stop-color="#F4C944"/>
<stop offset="1" stop-color="#F4C944"/>
</linearGradient>
<linearGradient id="paint4_linear" x1="170.543" y1="137.98" x2="277.694" y2="137.98" gradientUnits="userSpaceOnUse">
<stop stop-color="#F4C944"/>
<stop offset="1" stop-color="#F4C944"/>
</linearGradient>
<linearGradient id="paint5_linear" x1="177.253" y1="138.258" x2="271.067" y2="138.258" gradientUnits="userSpaceOnUse">
<stop stop-color="#F4C944"/>
<stop offset="1" stop-color="#F4C944"/>
</linearGradient>
<linearGradient id="paint6_linear" x1="183.615" y1="138.537" x2="264.496" y2="138.537" gradientUnits="userSpaceOnUse">
<stop stop-color="#F4C944"/>
<stop offset="1" stop-color="#F4C944"/>
</linearGradient>
<linearGradient id="paint7_linear" x1="189.334" y1="138.816" x2="257.991" y2="138.816" gradientUnits="userSpaceOnUse">
<stop stop-color="#F4C944"/>
<stop offset="1" stop-color="#F4C944"/>
</linearGradient>
<linearGradient id="paint8_linear" x1="194.652" y1="139.095" x2="252.708" y2="139.095" gradientUnits="userSpaceOnUse">
<stop stop-color="#F4C944"/>
<stop offset="1" stop-color="#F4C944"/>
</linearGradient>
<linearGradient id="paint9_linear" x1="199.524" y1="139.373" x2="248.116" y2="139.373" gradientUnits="userSpaceOnUse">
<stop stop-color="#F4C944"/>
<stop offset="1" stop-color="#F4C944"/>
</linearGradient>
<linearGradient id="paint10_linear" x1="203.944" y1="139.652" x2="243.887" y2="139.652" gradientUnits="userSpaceOnUse">
<stop stop-color="#F4C944"/>
<stop offset="1" stop-color="#F4C944"/>
</linearGradient>
<linearGradient id="paint11_linear" x1="207.938" y1="139.931" x2="239.943" y2="139.931" gradientUnits="userSpaceOnUse">
<stop stop-color="#F4C944"/>
<stop offset="1" stop-color="#F4C944"/>
</linearGradient>
</defs>
</svg>
