<svg width="146" height="146" viewBox="0 0 146 146" fill="none" xmlns="http://www.w3.org/2000/svg">
<g filter="url(#filter0_d)">
<rect x="40" y="18.0001" width="66" height="66" rx="24" fill="url(#paint0_linear)"/>
</g>
<g clip-path="url(#clip0)">
<path d="M71.6055 71.8667C68.1133 71.8667 64.7981 71.4131 61.7458 70.5112C58.6935 69.6146 56.1133 68.3392 54.0802 66.7221L54.0909 66.5033L55.668 65.5107L55.8236 65.5161C57.6475 66.9143 59.9702 68.0083 62.7168 68.7768C65.474 69.5453 68.462 69.9349 71.6055 69.9349C74.0623 69.9349 76.31 69.6307 78.2894 69.0329C80.2635 68.4352 81.9103 67.6027 83.187 66.5567C84.4584 65.5161 85.4561 64.2886 86.1374 62.9171C86.8241 61.5455 87.1674 60.0459 87.1674 58.4609C87.1674 56.3582 86.6631 54.4317 85.6654 52.7346C84.6676 51.0375 83.128 49.6393 81.0896 48.5826C79.0458 47.5206 76.5943 46.987 73.8048 46.987H70.5165C69.0896 46.987 68.0435 46.6668 67.4052 46.037C66.7668 45.4073 66.445 44.5641 66.445 43.5341C66.445 41.2446 68.4566 40.0812 72.4208 40.0812C76.0793 40.0812 78.8795 40.5509 80.7355 41.4795L80.7463 41.7089L79.1692 42.7229L79.0458 42.7336C77.7959 42.2479 75.5643 42.0078 72.4101 42.0078C70.8813 42.0078 69.8513 42.1519 69.3363 42.4294C68.8428 42.6962 68.6068 43.0591 68.6068 43.5341C68.6068 44.0251 68.7355 44.3933 69.0038 44.6601C69.2666 44.927 69.7709 45.0604 70.5111 45.0604H73.8799C76.3261 45.0604 78.5684 45.418 80.5371 46.1277C82.5111 46.8375 84.158 47.8195 85.4347 49.0469C86.7114 50.2744 87.6984 51.71 88.3743 53.3056C89.0502 54.9066 89.3882 56.6411 89.3882 58.4609C89.3882 59.9445 89.1361 61.3694 88.6479 62.6983C88.1544 64.0271 87.4034 65.2652 86.411 66.3806C85.4186 67.4906 84.2116 68.4673 82.8169 69.2731C81.4275 70.0789 79.7539 70.7193 77.8388 71.1783C75.9291 71.6319 73.8317 71.8667 71.6055 71.8667Z" fill="white"/>
<path d="M72.4211 40.22C76.0796 40.22 78.8315 40.6789 80.6768 41.6022L79.0997 42.6161C77.8337 42.1252 75.6021 41.8797 72.4157 41.8797C70.8601 41.8797 69.814 42.0238 69.2776 42.3173C68.7412 42.6108 68.4783 43.0164 68.4783 43.5394C68.4783 44.0624 68.6232 44.468 68.9128 44.7615C69.2025 45.055 69.7389 45.1991 70.5168 45.1991H73.8856C76.3317 45.1991 78.5364 45.5513 80.4998 46.2611C82.4631 46.9709 84.0831 47.9315 85.3491 49.1536C86.6151 50.3757 87.586 51.7793 88.2566 53.3696C88.9271 54.96 89.2597 56.6624 89.2597 58.4715C89.2597 59.9445 89.013 61.3427 88.5248 62.6662C88.0367 63.9897 87.2964 65.2012 86.3093 66.3059C85.3223 67.4106 84.1368 68.3658 82.7528 69.177C81.3688 69.9829 79.7219 70.6126 77.8069 71.0662C75.8972 71.5198 73.8266 71.744 71.6004 71.744C68.1028 71.744 64.8306 71.2957 61.7783 70.3938C58.726 69.4919 56.1886 68.2377 54.1609 66.6261L55.738 65.6334C57.5834 67.0477 59.9008 68.1417 62.6795 68.9155C65.4582 69.6893 68.4354 70.0789 71.6004 70.0789C74.0787 70.0789 76.321 69.7747 78.3219 69.1717C80.3228 68.5633 81.9696 67.7308 83.2678 66.6741C84.5606 65.6121 85.5583 64.3846 86.2557 62.9864C86.9531 61.5882 87.3017 60.0832 87.3017 58.4715C87.3017 56.3369 86.7921 54.405 85.7783 52.6759C84.7644 50.9468 83.2195 49.5486 81.1489 48.4705C79.0729 47.3979 76.6267 46.8588 73.7997 46.8588H70.5114C69.1167 46.8588 68.1135 46.5546 67.4966 45.9516C66.8797 45.3432 66.574 44.5427 66.574 43.5447C66.5793 41.3247 68.5266 40.22 72.4211 40.22ZM72.4211 39.9531C70.4363 39.9531 68.9182 40.2413 67.9097 40.8177C66.8529 41.4207 66.3165 42.3333 66.3165 43.5394C66.3165 44.6067 66.6544 45.482 67.3196 46.1384C67.9848 46.7948 69.063 47.1257 70.5221 47.1257H73.8105C76.5785 47.1257 79.0085 47.6594 81.0308 48.7107C83.0478 49.7567 84.5713 51.1389 85.553 52.8146C86.54 54.4904 87.0389 56.3956 87.0389 58.4715C87.0389 60.0352 86.6956 61.5135 86.0197 62.869C85.3438 64.2245 84.3621 65.436 83.1015 66.466C81.8409 67.4959 80.2101 68.3231 78.2521 68.9155C76.2888 69.5132 74.0519 69.8121 71.6057 69.8121C68.473 69.8121 65.4958 69.4225 62.7546 68.6594C60.0188 67.8962 57.7175 66.8075 55.9043 65.42L55.5986 65.404L54.0268 66.3912L54 66.8235C56.0438 68.4512 58.6401 69.732 61.7085 70.6393C64.7716 71.5412 68.1028 72.0001 71.6057 72.0001C73.8426 72.0001 75.9508 71.7707 77.8713 71.3117C79.8024 70.8527 81.4868 70.207 82.8869 69.3958C84.287 68.5793 85.5101 67.5973 86.5132 66.4766C87.5163 65.3506 88.278 64.0965 88.7769 62.7516C89.2758 61.4067 89.5279 59.9658 89.5279 58.4662C89.5279 56.625 89.1846 54.8746 88.5033 53.2629C87.8221 51.6459 86.8243 50.1996 85.5369 48.9615C84.2494 47.7181 82.5865 46.7254 80.591 46.0103C78.6062 45.2952 76.3478 44.9323 73.8856 44.9323H70.5168C69.8248 44.9323 69.3366 44.8095 69.1059 44.5747C68.8645 44.3346 68.7519 43.993 68.7519 43.5394C68.7519 43.1178 68.9665 42.7976 69.4117 42.5521C69.9052 42.2853 70.9137 42.1465 72.4211 42.1465C75.5592 42.1465 77.7747 42.3867 79.0031 42.867L79.2445 42.8403L80.8216 41.8263L80.7948 41.362C78.9227 40.4281 76.101 39.9531 72.4211 39.9531Z" fill="#F7F9FE"/>
<g opacity="0.8">
<path d="M71.6052 61.9137C67.9253 61.9137 65.1143 61.4441 63.2583 60.5155L63.2476 60.286L64.8247 59.272L64.9481 59.2613C66.1926 59.747 68.4349 59.9871 71.6105 59.9871C73.1394 59.9871 74.1693 59.843 74.6843 59.5655C75.1778 59.2987 75.4139 58.9358 75.4139 58.4608C75.4139 57.9859 75.2797 57.623 75.0062 57.3455C74.7326 57.0733 74.2122 56.9345 73.4559 56.9345H70.5216C68.0164 56.9345 65.7259 56.5823 63.7035 55.8885C61.6758 55.1948 59.9861 54.2235 58.6825 53.0014C57.379 51.7793 56.3705 50.349 55.6785 48.7427C54.9865 47.1363 54.6378 45.3859 54.6378 43.5287C54.6378 42.0451 54.8899 40.6202 55.3781 39.2913C55.8716 37.9625 56.6226 36.719 57.615 35.609C58.6074 34.4989 59.8144 33.5223 61.2038 32.7165C62.5931 31.9106 64.2668 31.2702 66.1819 30.8113C68.0969 30.3577 70.1944 30.1282 72.4206 30.1282C75.9127 30.1282 79.2225 30.5818 82.2641 31.4837C85.311 32.3856 87.8859 33.6611 89.9136 35.2728L89.9029 35.4916L88.3258 36.4842L88.1702 36.4789C86.3464 35.0807 84.029 33.9866 81.2878 33.2181C78.5413 32.4496 75.5587 32.0601 72.4152 32.0601C69.9583 32.0601 67.7107 32.3643 65.7312 32.962C63.7572 33.5597 62.1103 34.3922 60.8336 35.4382C59.5569 36.4789 58.5645 37.7063 57.8779 39.0779C57.1912 40.4494 56.8479 41.949 56.8479 43.534C56.8479 45.6687 57.3629 47.6113 58.3768 49.319C59.3906 51.0214 60.9624 52.4143 63.0491 53.4496C65.1358 54.485 67.6517 55.0133 70.5109 55.0133H73.4988C74.9203 55.0133 75.9664 55.3388 76.6101 55.9739C77.2485 56.6143 77.5703 57.4522 77.5703 58.4662C77.581 60.7503 75.5694 61.9137 71.6052 61.9137Z" fill="#222831"/>
<path d="M72.4211 30.267C75.9133 30.267 79.1855 30.7152 82.2271 31.6171C85.2687 32.5137 87.806 33.7732 89.8337 35.3849L88.2566 36.3775C86.4113 34.9633 84.0993 33.8692 81.3313 33.0954C78.5579 32.3216 75.5914 31.932 72.4211 31.932C69.9374 31.932 67.7005 32.2362 65.6996 32.8393C63.6987 33.4476 62.0519 34.2802 60.7537 35.3368C59.4609 36.3989 58.4631 37.6263 57.7658 39.0245C57.0684 40.4227 56.7197 41.9277 56.7197 43.5394C56.7197 45.7061 57.2347 47.654 58.27 49.3884C59.3 51.1229 60.8771 52.5158 62.996 53.5671C65.1149 54.6184 67.6254 55.1468 70.5222 55.1468H73.5101C74.9048 55.1468 75.9079 55.4563 76.5248 56.07C77.1417 56.6837 77.4475 57.4842 77.4475 58.4662C77.4475 60.6756 75.5002 61.7856 71.6057 61.7856C67.9312 61.7856 65.1686 61.3267 63.3232 60.4034L64.9003 59.3895C66.1663 59.8804 68.4032 60.1259 71.6111 60.1259C73.1668 60.1259 74.2128 59.9818 74.7492 59.6883C75.2857 59.3948 75.5485 58.9892 75.5485 58.4662C75.5485 57.9592 75.3983 57.559 75.0979 57.2548C74.7975 56.9559 74.2504 56.8065 73.4564 56.8065H70.5222C68.0224 56.8065 65.764 56.4596 63.747 55.7712C61.7247 55.0774 60.0671 54.1221 58.7743 52.9107C57.4815 51.6992 56.4891 50.2903 55.7971 48.6947C55.1104 47.099 54.7671 45.3752 54.7671 43.534C54.7671 42.0611 55.0085 40.6629 55.502 39.3394C55.9902 38.0159 56.7305 36.8044 57.7175 35.6997C58.7045 34.595 59.8901 33.6398 61.274 32.8339C62.658 32.0281 64.3049 31.3983 66.22 30.9447C68.1243 30.4964 70.1949 30.267 72.4211 30.267ZM72.4211 30.0001C70.1842 30.0001 68.076 30.2296 66.1502 30.6886C64.2244 31.1475 62.5347 31.7933 61.1346 32.6044C59.7291 33.421 58.5114 34.4029 57.5137 35.5236C56.5105 36.6497 55.7488 37.9038 55.2499 39.2487C54.751 40.5935 54.4989 42.0344 54.4989 43.534C54.4989 45.4072 54.8529 47.179 55.5503 48.8014C56.2477 50.4238 57.2723 51.8753 58.5865 53.1081C59.9008 54.3409 61.6066 55.3229 63.6558 56.022C65.6943 56.7211 68.0009 57.0733 70.5222 57.0733H73.4564C74.1645 57.0733 74.6688 57.2014 74.9102 57.4415C75.1569 57.6924 75.2803 58.0232 75.2803 58.4609C75.2803 58.8825 75.0657 59.2027 74.6205 59.4482C74.127 59.715 73.1185 59.8537 71.6111 59.8537C68.4515 59.8537 66.2253 59.6136 64.9969 59.1333L64.7555 59.16L63.1784 60.174L63.2052 60.6382C64.1493 61.1079 65.3348 61.4654 66.7349 61.7003C68.1243 61.9297 69.7604 62.0471 71.6057 62.0471C73.5905 62.0471 75.1087 61.759 76.1171 61.1826C77.1739 60.5795 77.7104 59.667 77.7104 58.4609C77.7104 57.4095 77.3724 56.5396 76.7072 55.8779C76.042 55.2161 74.9638 54.8799 73.5047 54.8799H70.5168C67.6737 54.8799 65.1846 54.3569 63.114 53.3323C61.0541 52.3076 59.4985 50.9361 58.5007 49.255C57.4976 47.5686 56.988 45.6474 56.988 43.5394C56.988 41.9757 57.3313 40.4975 58.0072 39.1419C58.6831 37.7864 59.6648 36.575 60.9254 35.545C62.186 34.5097 63.8167 33.6825 65.7747 33.0901C67.7434 32.4924 69.975 32.1935 72.4211 32.1935C75.5485 32.1935 78.5204 32.5831 81.2562 33.3462C83.9813 34.1094 86.2772 35.1981 88.0903 36.5856L88.3961 36.6016L89.9732 35.609L89.9947 35.1767C87.9509 33.549 85.3599 32.2682 82.2969 31.361C79.2499 30.4591 75.924 30.0001 72.4211 30.0001Z" fill="#224552"/>
</g>
<g opacity="0.75">
<path opacity="0.75" d="M71.6055 68.5473C68.7088 68.5473 65.9676 68.2057 63.4464 67.528C60.9251 66.8502 58.8009 65.8842 57.1272 64.6515L57.1326 64.4327L58.656 63.3973H58.8062C60.2707 64.4113 62.1428 65.2118 64.369 65.7722C66.6006 66.3325 69.036 66.6207 71.6002 66.6207C75.3713 66.6207 78.2895 65.8469 80.2796 64.3206C82.2537 62.805 83.2568 60.8304 83.2568 58.4609C83.2568 56.1127 82.4146 54.1488 80.7624 52.6172C79.1049 51.0802 76.6909 50.301 73.5903 50.301H70.5219C67.8559 50.301 65.8228 49.6713 64.4817 48.4225C63.1406 47.1737 62.4593 45.53 62.4593 43.5341C62.4593 41.5328 63.3015 39.8837 64.9698 38.6349C66.6274 37.3968 69.1326 36.7671 72.4263 36.7671C74.7222 36.7671 76.8894 36.9966 78.8635 37.4502C80.8429 37.9038 82.5058 38.5656 83.7986 39.4141V39.6382L82.2484 40.6522L82.1089 40.6576C79.8773 39.3554 76.6158 38.6936 72.4263 38.6936C69.7334 38.6936 67.7432 39.1473 66.5148 40.0385C65.2971 40.9191 64.6802 42.0985 64.6802 43.5341C64.6802 44.9963 65.1361 46.1811 66.0373 47.0563C66.9386 47.9315 68.4459 48.3798 70.5219 48.3798H73.6171C77.3078 48.3798 80.2421 49.3511 82.3288 51.2723C84.4209 53.1935 85.483 55.6164 85.483 58.4662C85.483 61.3694 84.2492 63.8029 81.8192 65.7028C79.3999 67.5867 75.9614 68.5473 71.6055 68.5473Z" fill="white"/>
<path opacity="0.75" d="M72.4212 36.9005C74.7225 36.9005 76.8575 37.13 78.8315 37.5783C80.8056 38.0319 82.4364 38.683 83.7238 39.5262L82.1735 40.5401C79.9098 39.2166 76.659 38.5602 72.4212 38.5602C69.6854 38.5602 67.6898 39.0192 66.4292 39.9318C65.1686 40.8443 64.541 42.0451 64.541 43.534C64.541 45.039 65.0077 46.2451 65.9411 47.1523C66.8744 48.0596 68.3979 48.5132 70.5168 48.5132H73.612C77.2866 48.5132 80.1619 49.4631 82.2379 51.3684C84.3139 53.2736 85.3492 55.6377 85.3492 58.4609C85.3492 61.332 84.1422 63.7069 81.739 65.5907C79.3304 67.4746 75.9509 68.4138 71.6058 68.4138C68.7091 68.4138 66.0001 68.0776 63.4842 67.3999C60.9683 66.7221 58.8762 65.7722 57.2079 64.5447L58.7314 63.5094C60.2173 64.5394 62.0841 65.3399 64.3425 65.9056C66.5955 66.4766 69.0202 66.7595 71.6112 66.7595C75.4306 66.7595 78.3488 65.9856 80.3711 64.4327C82.3935 62.8797 83.3966 60.8891 83.3966 58.4609C83.3966 56.0647 82.549 54.0847 80.8593 52.5157C79.1695 50.9468 76.7448 50.1676 73.5906 50.1676H70.5222C67.8776 50.1676 65.8928 49.5539 64.5732 48.3264C63.2535 47.099 62.5883 45.5033 62.5883 43.534C62.5883 41.5701 63.4091 39.9745 65.0452 38.7417C66.6867 37.5142 69.1436 36.9005 72.4212 36.9005ZM72.4212 36.6337C70.769 36.6337 69.2991 36.7938 68.0546 37.1033C66.794 37.4182 65.7318 37.8985 64.8843 38.5335C63.1838 39.809 62.3201 41.4954 62.3201 43.5394C62.3201 45.5727 63.0175 47.2484 64.3854 48.5239C65.072 49.1643 65.9411 49.6499 66.9656 49.9648C67.9795 50.2797 69.1704 50.4398 70.5168 50.4398H73.5852C76.6483 50.4398 79.0354 51.2083 80.6661 52.7185C82.2969 54.2235 83.1176 56.1607 83.1176 58.4662C83.1176 60.793 82.136 62.7302 80.1941 64.2192C78.2307 65.7241 75.3394 66.4926 71.6004 66.4926C69.0416 66.4926 66.6223 66.2098 64.4015 65.6494C62.1914 65.0944 60.33 64.2992 58.8816 63.2959H58.5758L57.0577 64.3259L57.047 64.7582C58.7314 66.0016 60.8718 66.9783 63.4091 67.656C65.9357 68.3338 68.693 68.6807 71.6004 68.6807C73.7891 68.6807 75.7578 68.4405 77.4636 67.9656C79.1802 67.4906 80.6715 66.7595 81.8946 65.8042C83.123 64.8436 84.0618 63.7389 84.6787 62.5221C85.2956 61.3 85.6121 59.9391 85.6121 58.4662C85.6121 57.0253 85.3438 55.6804 84.8128 54.469C84.2817 53.2576 83.4771 52.1529 82.4149 51.1762C81.3528 50.205 80.0761 49.4631 78.6062 48.9775C77.1471 48.4919 75.4681 48.2517 73.6067 48.2517H70.5115C68.473 48.2517 66.9978 47.8194 66.1234 46.9709C65.2491 46.1224 64.8038 44.9696 64.8038 43.5447C64.8038 42.1305 65.3832 41.0258 66.5794 40.1559C67.7864 39.2807 69.7497 38.8377 72.4104 38.8377C76.5785 38.8377 79.8132 39.4941 82.0287 40.7803L82.313 40.775L83.8633 39.761V39.318C82.5544 38.4588 80.8807 37.7917 78.8852 37.3328C76.9057 36.8631 74.7278 36.6337 72.4212 36.6337Z" fill="#F7F9FE"/>
</g>
<g opacity="0.25">
<path opacity="0.75" d="M71.6051 65.2279C69.3038 65.2279 67.1313 64.9984 65.1518 64.5448C63.1617 64.0911 61.4987 63.4294 60.2059 62.5809V62.3567L61.7562 61.3427L61.8957 61.3374C64.1272 62.6396 67.3941 63.3013 71.6051 63.3013C74.298 63.3013 76.2882 62.8477 77.5166 61.9565C78.7343 61.0706 79.3512 59.8965 79.3512 58.4609C79.3512 57.0147 78.8899 55.8352 77.9779 54.9493C77.066 54.0634 75.5533 53.6152 73.4826 53.6152H70.5215C66.7933 53.6152 63.8322 52.6546 61.724 50.76C59.6105 48.8601 58.543 46.4319 58.543 43.5341C58.543 40.6309 59.7768 38.1974 62.2068 36.2975C64.6261 34.4083 68.0647 33.4477 72.4205 33.4477C75.3119 33.4477 78.053 33.7892 80.5635 34.467C83.074 35.1448 85.1983 36.1107 86.872 37.3435L86.8666 37.5623L85.3432 38.5976H85.193C83.7285 37.5837 81.8617 36.7831 79.6409 36.2228C77.4147 35.6624 74.9846 35.3742 72.4205 35.3742C68.6494 35.3742 65.7258 36.1481 63.741 37.6744C61.7669 39.19 60.7638 41.1646 60.7638 43.5341C60.7638 45.8929 61.606 47.8675 63.2743 49.3885C64.9426 50.9148 67.378 51.6939 70.5162 51.6939H73.5041C76.1702 51.6939 78.2032 52.3343 79.5443 53.5992C80.8854 54.864 81.572 56.5023 81.572 58.4662C81.572 60.4675 80.7245 62.1166 79.0615 63.3654C77.404 64.6035 74.8988 65.2279 71.6051 65.2279Z" fill="#F7F9FE"/>
<path opacity="0.75" d="M72.4211 33.5864C75.3178 33.5864 78.0214 33.9226 80.5265 34.6004C83.0317 35.2782 85.1238 36.2281 86.7867 37.4555L85.2633 38.4909C83.7773 37.4609 81.9105 36.6657 79.6683 36.0947C77.4206 35.529 75.0067 35.2408 72.4157 35.2408C68.5963 35.2408 65.6727 36.0146 63.6557 37.5676C61.6387 39.1206 60.6249 41.1059 60.6249 43.5341C60.6249 45.9463 61.4778 47.9315 63.1783 49.4898C64.8895 51.0482 67.3303 51.8273 70.5167 51.8273H73.5046C76.1493 51.8273 78.1287 52.4517 79.4537 53.6952C80.7733 54.9386 81.4385 56.529 81.4385 58.4609C81.4385 60.4248 80.6177 62.0258 78.9816 63.2533C77.3401 64.4807 74.8833 65.0944 71.6057 65.0944C69.3044 65.0944 67.164 64.8703 65.1792 64.4167C63.1944 63.963 61.5636 63.3173 60.2762 62.4688L61.8265 61.4548C64.0902 62.7783 67.3518 63.4347 71.6057 63.4347C74.3415 63.4347 76.337 62.9811 77.5923 62.0632C78.8529 61.1506 79.4805 59.9498 79.4805 58.4555C79.4805 56.9666 79.0084 55.7658 78.0697 54.8533C77.1256 53.9407 75.5967 53.4817 73.4778 53.4817H70.5167C66.8046 53.4817 63.9025 52.5425 61.8104 50.6586C59.7183 48.7747 58.6723 46.3999 58.6723 43.5287C58.6723 40.6576 59.8739 38.2827 62.2825 36.3989C64.6964 34.5257 68.0759 33.5864 72.4211 33.5864ZM72.4211 33.3196C70.2324 33.3196 68.2583 33.5597 66.5578 34.0347C64.8413 34.5097 63.35 35.2408 62.1269 36.1961C60.8985 37.1567 59.9597 38.2614 59.3428 39.4782C58.7259 40.7003 58.4094 42.0611 58.4094 43.5341C58.4094 45.0017 58.683 46.3625 59.2141 47.5793C59.7505 48.7961 60.5659 49.9008 61.6334 50.8614C62.7009 51.822 63.9937 52.5531 65.4742 53.0334C66.9441 53.5084 68.6446 53.7539 70.5167 53.7539H73.4778C75.5109 53.7539 76.9968 54.1915 77.8819 55.0507C78.767 55.9099 79.2123 57.0573 79.2123 58.4662C79.2123 59.8804 78.6329 60.9851 77.4367 61.855C76.2297 62.7303 74.2717 63.1732 71.6057 63.1732C67.4161 63.1732 64.1707 62.5168 61.9606 61.2306L61.6763 61.236L60.126 62.2499V62.6929C61.4349 63.5521 63.1139 64.2192 65.1148 64.6782C67.105 65.1318 69.2883 65.3666 71.6003 65.3666C73.2525 65.3666 74.7223 65.2065 75.9669 64.897C77.2275 64.5821 78.2896 64.1018 79.1372 63.4667C80.8377 62.1912 81.7013 60.5048 81.7013 58.4609C81.7013 56.4596 81.004 54.7892 79.6361 53.4977C78.9494 52.852 78.0804 52.361 77.0558 52.0355C76.042 51.7153 74.8511 51.5552 73.5046 51.5552H70.5167C67.4108 51.5552 65.0075 50.792 63.3661 49.2871C61.7299 47.7874 60.8985 45.8502 60.8985 43.5287C60.8985 41.2019 61.8801 39.2647 63.822 37.7757C65.7854 36.2708 68.6767 35.5023 72.4157 35.5023C74.9691 35.5023 77.3884 35.7851 79.6039 36.3455C81.8086 36.9059 83.6593 37.6957 85.113 38.699H85.4188L86.9423 37.6637L86.953 37.2314C85.2686 35.9879 83.1282 35.0113 80.6017 34.3336C78.0751 33.6611 75.3232 33.3196 72.4211 33.3196Z" fill="#F7F9FE"/>
</g>
</g>
<defs>
<filter id="filter0_d" x="0" y="0.00012207" width="146" height="146" filterUnits="userSpaceOnUse" color-interpolation-filters="sRGB">
<feFlood flood-opacity="0" result="BackgroundImageFix"/>
<feColorMatrix in="SourceAlpha" type="matrix" values="0 0 0 0 0 0 0 0 0 0 0 0 0 0 0 0 0 0 127 0"/>
<feOffset dy="22"/>
<feGaussianBlur stdDeviation="20"/>
<feColorMatrix type="matrix" values="0 0 0 0 0 0 0 0 0 0 0 0 0 0 0 0 0 0 0.0744373 0"/>
<feBlend mode="normal" in2="BackgroundImageFix" result="effect1_dropShadow"/>
<feBlend mode="normal" in="SourceGraphic" in2="effect1_dropShadow" result="shape"/>
</filter>
<linearGradient id="paint0_linear" x1="73" y1="18.0001" x2="73" y2="84.0001" gradientUnits="userSpaceOnUse">
<stop stop-color="#FFDA44"/>
<stop offset="1" stop-color="#FFCC00"/>
</linearGradient>
<clipPath id="clip0">
<rect width="36" height="42" fill="white" transform="translate(54 30.0001)"/>
</clipPath>
</defs>
</svg>
