<svg width="41" height="40" viewBox="0 0 41 40" fill="none" xmlns="http://www.w3.org/2000/svg"><rect x=".633" width="40" height="40" rx="20" fill="#A60311" fill-opacity=".8"/><path fill-rule="evenodd" clip-rule="evenodd" d="M29.383 15.993c0 1.013-.127 1.772-.363 2.353.985.655 1.613 1.48 1.613 2.495 0 1.294-.47 1.759-1.554 1.867C28.694 27.913 25.071 32 20.633 32c-4.437 0-8.06-4.087-8.445-9.292-1.085-.108-1.555-.573-1.555-1.867 0-1.015.628-1.84 1.614-2.495-.237-.581-.364-1.34-.364-2.353 0-5.15 3.113-7.993 8.75-7.993 5.638 0 8.75 2.843 8.75 7.993zm-1.25 0c0-4.508-2.523-6.793-7.5-6.793-4.976 0-7.5 2.285-7.5 6.793 0 .78.072 1.333.212 1.75 2.041-.916 4.888-1.343 7.288-1.343 2.4 0 5.248.427 7.29 1.344.139-.418.21-.97.21-1.751zm-7.5 14.807c-3.746 0-6.82-3.552-7.194-8.082.482-.025 1.033-.07 1.659-.123 1.434-.12 3.258-.274 5.535-.274 2.28 0 4.106.153 5.541.274.624.052 1.173.098 1.654.123-.373 4.53-3.448 8.082-7.195 8.082zm7.852-9.263c.627 0 .803-.08.833-.096-.001-.001 0-.008.004-.021.015-.055.061-.222.062-.58 0-1.91-4.612-3.24-8.75-3.24-4.14 0-8.75 1.33-8.75 3.24 0 .486.084.62.085.622v-.002l.018.004c.057.016.265.073.795.073.562 0 1.284-.06 2.197-.137h.008l.012-.001c1.475-.124 3.309-.277 5.634-.277 2.333 0 4.17.154 5.648.278h.01c.911.077 1.632.137 2.194.137z" fill="#fff"/><path d="M29.02 18.346l-.046-.018-.016.037.034.023.028-.042zm.06 4.362l-.006-.05-.042.004-.003.042.05.004zm-16.892 0l.05-.004-.004-.042-.041-.004-.005.05zm.059-4.362l.027.042.035-.023-.016-.037-.046.018zm1.098-.602l-.048.015.018.053.05-.023-.02-.045zm14.577 0l-.02.045.05.023.018-.053-.048-.015zM13.44 22.718l-.003-.05-.051.003.004.051.05-.004zm1.659-.123l-.005-.05.005.05zm11.076 0l-.004.05.004-.05zm1.654.123l.05.004.004-.051-.051-.003-.003.05zm1.49-1.277l.024.044.067-.037-.06-.047-.031.04zm.004-.021l-.048-.014.048.014zm.062-.58h.05-.05zm-17.415.622l-.041.028.085-.052-.044.024zm.018.002l.013-.048-.014.048zm2.992-.064l-.004-.05.004.05zm.008 0l-.004-.05.004.05zm.012-.001l.004.05-.004-.05zm11.281 0l-.004.05.005-.05zm.01.002l.005-.05-.005.05zm2.776-3.036c.24-.59.367-1.355.367-2.372h-.1c0 1.01-.126 1.761-.36 2.335l.093.037zm1.617 2.476c0-1.04-.643-1.877-1.635-2.536l-.056.083c.979.65 1.591 1.46 1.591 2.453h.1zm-1.599 1.917c.547-.055.951-.2 1.217-.506.265-.305.382-.76.382-1.411h-.1c0 .642-.117 1.067-.358 1.345-.24.278-.614.419-1.15.472l.01.1zm-8.45 9.292c4.47 0 8.109-4.116 8.495-9.338l-.1-.008c-.383 5.187-3.992 9.246-8.396 9.246v.1zm-8.496-9.338c.386 5.222 4.024 9.338 8.495 9.338v-.1c-4.403 0-8.012-4.059-8.396-9.246l-.1.008zm-1.555-1.871c0 .651.118 1.106.383 1.41.265.307.67.452 1.217.507l.01-.1c-.538-.053-.91-.194-1.151-.472-.242-.278-.359-.703-.359-1.345h-.1zm1.636-2.536c-.992.659-1.636 1.497-1.636 2.536h.1c0-.992.613-1.803 1.591-2.453l-.055-.083zm-.386-2.312c0 1.017.127 1.783.367 2.372l.093-.037c-.233-.574-.36-1.326-.36-2.335h-.1zm8.8-8.043c-2.826 0-5.028.713-6.522 2.078-1.496 1.366-2.278 3.38-2.278 5.965h.1c0-2.565.775-4.548 2.245-5.89 1.47-1.344 3.644-2.053 6.455-2.053v-.1zm8.8 8.043c0-2.585-.781-4.599-2.277-5.965-1.494-1.365-3.696-2.078-6.523-2.078v.1c2.812 0 4.985.709 6.456 2.052 1.47 1.343 2.244 3.326 2.244 5.89h.1zm-8.8-6.743c2.482 0 4.343.57 5.583 1.693 1.24 1.123 1.867 2.805 1.867 5.05h.1c0-2.263-.633-3.977-1.9-5.124-1.265-1.146-3.155-1.719-5.65-1.719v.1zm-7.45 6.743c0-2.245.628-3.928 1.868-5.05 1.24-1.123 3.1-1.693 5.582-1.693v-.1c-2.495 0-4.384.573-5.65 1.719-1.266 1.147-1.9 2.86-1.9 5.124h.1zm.21 1.735c-.138-.41-.21-.957-.21-1.735h-.1c0 .783.072 1.342.214 1.766l.095-.031zm7.24-1.378c-2.404 0-5.258.428-7.309 1.348l.041.091c2.033-.912 4.873-1.339 7.268-1.339v-.1zm7.31 1.348c-2.05-.92-4.905-1.348-7.31-1.348v.1c2.396 0 5.236.427 7.269 1.34l.04-.092zm.14-1.705c0 .778-.071 1.325-.208 1.735l.095.031c.142-.424.213-.983.213-1.766h-.1zm-14.694 6.73c.375 4.546 3.463 8.127 7.244 8.127v-.1c-3.711 0-6.772-3.522-7.144-8.036l-.1.008zm1.704-.178c-.625.052-1.175.098-1.657.123l.005.1a55.477 55.477 0 0 0 1.66-.123l-.008-.1zm5.54-.274c-2.279 0-4.105.153-5.54.274l.009.1c1.434-.12 3.257-.274 5.531-.274v-.1zm5.546.274c-1.435-.12-3.263-.274-5.546-.274v.1c2.278 0 4.102.153 5.537.274l.009-.1zm1.652.123c-.48-.025-1.029-.07-1.652-.123l-.009.1c.623.052 1.173.098 1.655.123l.006-.1zm-7.198 8.182c3.782 0 6.87-3.581 7.245-8.128l-.1-.008c-.372 4.514-3.433 8.036-7.145 8.036v.1zm8.66-9.453c-.017.01-.183.09-.808.09v.1c.63 0 .816-.08.857-.102l-.048-.088zm-.019.01a.4.4 0 0 0-.005.017l-.001.012v.014a.05.05 0 0 0 .02.03l.06-.079a.048.048 0 0 1 .02.04v.005c0-.002 0-.006.003-.013l-.097-.027zm.06-.566c0 .352-.046.514-.06.565l.096.027c.017-.058.063-.23.063-.592h-.1zm-8.7-3.191c2.064 0 4.246.332 5.91.902.833.284 1.532.627 2.023 1.016.492.389.767.817.767 1.273h.1c0-.5-.302-.954-.805-1.352-.503-.398-1.214-.745-2.052-1.032-1.677-.574-3.87-.907-5.944-.907v.1zm-8.7 3.19c0-.455.274-.883.766-1.272.49-.389 1.19-.732 2.023-1.017 1.664-.569 3.846-.901 5.91-.901v-.1c-2.073 0-4.267.333-5.943.907-.838.287-1.55.634-2.052 1.032-.503.398-.804.852-.804 1.352h.1zm.076.593c.008.012-.076-.11-.076-.592h-.1c0 .49.084.635.094.649l.082-.056zm-.04-.023a.05.05 0 0 0-.05.064l.005.012.088-.049.004.01a.05.05 0 0 1-.034.061c-.006.002-.012.002-.013.002v-.1zm.03.006l-.013-.003c-.001 0-.009-.003-.017-.003v.1h-.007l.01.003.027-.097zm.782.071c-.526 0-.73-.056-.782-.07l-.027.096c.062.017.275.074.809.074v-.1zm2.193-.136c-.914.076-1.633.136-2.193.136v.1c.565 0 1.289-.06 2.2-.137l-.007-.1zm.008-.001h-.008l.008.1h.008l-.008-.1zm.012-.001h-.012l.008.1h.012l-.008-.1zm5.638-.277c-2.327 0-4.163.153-5.638.277l.008.1c1.475-.124 3.307-.277 5.63-.277v-.1zm5.652.278c-1.477-.124-3.317-.278-5.652-.278v.1c2.33 0 4.167.154 5.643.277l.009-.1zm.01 0h-.01l-.009.1h.01l.008-.1zm2.19.137c-.56 0-1.278-.06-2.19-.136l-.009.1c.911.076 1.634.136 2.2.136v-.1z" fill="#fff"/><path fill-rule="evenodd" clip-rule="evenodd" d="M18.633 11h4a1 1 0 0 1 1 1v1a1 1 0 0 1-1 1h-4a1 1 0 0 1-1-1v-1a1 1 0 0 1 1-1zm0 2h4v-1h-4v1z" fill="#fff"/></svg>