<svg width="41" height="40" viewBox="0 0 41 40" fill="none" xmlns="http://www.w3.org/2000/svg"><rect x=".633" width="40" height="40" rx="20" fill="#A60311" fill-opacity=".8"/><path fill-rule="evenodd" clip-rule="evenodd" d="M14.058 31.2a1.452 1.452 0 0 1-.425-1.028V9.826a1.452 1.452 0 0 1 1.454-1.454H26.18a1.452 1.452 0 0 1 1.453 1.454v20.346a1.452 1.452 0 0 1-1.453 1.453H15.087c-.386 0-.756-.152-1.029-.425zm.995-.544h11.113c.27 0 .491-.214.499-.484v-1.599H14.554v1.599c.007.27.229.485.499.484zm-.5-3.052v-15.43h12.112v15.43H14.554zM26.167 9.341H15.053a.499.499 0 0 0-.5.485v2.325h12.112V9.826a.499.499 0 0 0-.5-.485z" fill="#fff"/><path d="M13.633 30.172h.15-.15zm.425 1.028l-.106.106.106-.106zm-.425-21.374h.15-.15zm.425-1.029l-.106-.106.106.106zm1.029-.425v.15-.15zm11.093 0v.15-.15zm1.028.425l.107-.106-.107.106zm.425 1.029h-.15.15zm0 20.346h-.15.15zm-.425 1.028l.106.106-.106-.106zm-1.028.425v-.15.15zm-11.093 0v-.15.15zm11.079-.969v-.15.15zm-11.113 0v-.15.15zm11.612-.484l.15.004v-.004h-.15zm0-1.599h.15v-.15h-.15v.15zm-12.111 0v-.15h-.15v.15h.15zm0 1.599h-.15v.004l.15-.004zm0-17.998v-.15h-.15v.15h.15zm0 15.43h-.15v.15h.15v-.15zm12.11-15.43h.15v-.15h-.15v.15zm0 15.43v.15h.15v-.15h-.15zM15.054 9.341v.15-.15zm11.113 0v.15-.15zm-11.612.485l-.15-.005v.005h.15zm0 2.325h-.15v.15h.15v-.15zm12.11 0v.15h.15v-.15h-.15zm0-2.325h.15V9.82l-.15.005zm-13.18 20.346c-.001.425.168.833.468 1.134l.213-.212a1.302 1.302 0 0 1-.382-.922h-.3zm0-20.346v20.346h.3V9.826h-.3zm.468-1.135c-.3.301-.47.71-.469 1.135h.3c0-.346.137-.678.382-.923l-.213-.212zm1.135-.469c-.426 0-.834.169-1.135.47l.213.212a1.3 1.3 0 0 1 .921-.382v-.3zm11.093 0H15.087v.3H26.18v-.3zm1.134.47c-.3-.301-.709-.47-1.134-.47v.3a1.3 1.3 0 0 1 .922.382l.212-.213zm.47 1.134c0-.426-.169-.834-.47-1.135l-.212.212a1.3 1.3 0 0 1 .381.922h.3zm0 20.346V9.826h-.3v20.346h.3zm-.47 1.134c.301-.3.47-.709.47-1.134h-.3c0 .346-.137.677-.382.922l.212.212zm-1.134.469c.425 0 .834-.168 1.134-.469l-.212-.212a1.302 1.302 0 0 1-.922.381v.3zm-11.093 0H26.18v-.3H15.087v.3zm-1.135-.469c.301.3.71.47 1.135.469v-.3c-.346 0-.678-.137-.922-.381l-.213.212zm12.214-.8H15.053v.3h11.113v-.3zm.349-.338a.348.348 0 0 1-.35.338v.3a.65.65 0 0 0 .65-.63l-.3-.008zm0-1.595v1.599h.3v-1.599h-.3zm-11.961.15h12.11v-.3h-12.11v.3zm.15 1.449v-1.599h-.3v1.599h.3zm.349.334a.348.348 0 0 1-.35-.338l-.3.008a.65.65 0 0 0 .65.63v-.3zm-.65-18.332v15.43h.3v-15.43h-.3zm12.262-.15H14.554v.3h12.11v-.3zm.15 15.58v-15.43h-.3v15.43h.3zm-12.261.15h12.11v-.3h-12.11v.3zm.499-18.263h11.113v-.3H15.053v.3zm-.35.339a.348.348 0 0 1 .35-.339v-.3a.648.648 0 0 0-.65.63l.3.009zm0 2.32V9.827h-.3v2.325h.3zM26.666 12H14.554v.3h12.11V12zm-.15-2.174v2.325h.3V9.826h-.3zm-.35-.335c.19 0 .344.15.35.339l.3-.009a.649.649 0 0 0-.65-.63v.3zm-7.94 1.578h4.767a.484.484 0 1 0 0-.969h-4.767a.484.484 0 1 0 0 .969z" fill="#fff"/></svg>