<svg width="41" height="40" viewBox="0 0 41 40" fill="none" xmlns="http://www.w3.org/2000/svg"><rect x=".633" width="40" height="40" rx="20" fill="#A60311" fill-opacity=".8"/><path fill-rule="evenodd" clip-rule="evenodd" d="M31.883 22.68h-.375v-.38c0-5.916-4.552-10.612-10.125-10.994v-.786h.75c.415 0 .75-.34.75-.76s-.335-.76-.75-.76h-3c-.414 0-.75.34-.75.76s.336.76.75.76h.75v.786c-5.576.383-10.125 5.08-10.125 10.994v.38h-.375c-.414 0-.75.34-.75.76s.336.76.75.76h.243l1.311 3.322a.75.75 0 0 0 .696.478h18a.75.75 0 0 0 .697-.478l1.31-3.322h.242c.415 0 .75-.34.75-.76s-.335-.76-.75-.76zm-20.625-.38c0-5.238 4.206-9.5 9.375-9.5 5.17 0 9.375 4.262 9.375 9.5v.38h-18.75v-.38zm-.017 1.9l.9 2.28h16.985l.9-2.28H11.24z" fill="#fff"/></svg>