<svg width="121" height="43" viewBox="0 0 121 43" fill="none" xmlns="http://www.w3.org/2000/svg"><path d="M27.564 14.624l-.407-.15a.4.4 0 0 0-.415.09L14.23 26.72 1.683 14.563a.4.4 0 0 0-.428-.084l-.37.15a.406.406 0 0 0-.252.376v27.429c0 .224.18.405.402.405h4.25a.404.404 0 0 0 .403-.405V25.397l8.265 8a.398.398 0 0 0 .556 0l8.265-8v17.037c0 .224.18.405.402.405h4.25a.404.404 0 0 0 .402-.405V15.005a.405.405 0 0 0-.264-.381zm20.473-.055H31.884a.404.404 0 0 0-.402.406v27.428c0 .224.18.406.402.406h4.288a.404.404 0 0 0 .402-.406v-11.61h10.132a.403.403 0 0 0 .402-.406v-3.695a.404.404 0 0 0-.402-.405H36.574v-7.175h11.463a.404.404 0 0 0 .402-.406v-3.731a.404.404 0 0 0-.402-.406zm66.871 17.769a9.332 9.332 0 0 1-1.93 2.951 8.861 8.861 0 0 1-2.901 1.964c-1.114.474-2.337.714-3.633.714h-2.777V19.411h2.777c1.27 0 2.48.24 3.596.714a9.254 9.254 0 0 1 2.924 1.949 8.98 8.98 0 0 1 1.944 2.929c.47 1.126.708 2.36.708 3.667s-.238 2.541-.708 3.668zm4.62-9.148a14.489 14.489 0 0 0-3.004-4.472 14.352 14.352 0 0 0-4.43-3.033c-1.683-.74-3.509-1.116-5.428-1.116h-7.688a.404.404 0 0 0-.402.406v27.428c0 .224.18.406.402.406h7.688c1.92 0 3.747-.376 5.428-1.116a14.328 14.328 0 0 0 4.43-3.033 14.426 14.426 0 0 0 3.004-4.492c.734-1.71 1.105-3.56 1.105-5.498 0-1.937-.372-3.78-1.105-5.48zm-53.405 16.7zm-1.74-4.738a6.004 6.004 0 0 1-1.201 1.828 5.31 5.31 0 0 1-1.787 1.208 5.734 5.734 0 0 1-2.221.434 5.73 5.73 0 0 1-2.221-.434 5.308 5.308 0 0 1-1.787-1.208 5.989 5.989 0 0 1-1.201-1.828 5.758 5.758 0 0 1-.447-2.278c0-.816.15-1.583.447-2.277a6.01 6.01 0 0 1 1.2-1.828 5.317 5.317 0 0 1 1.788-1.208 5.73 5.73 0 0 1 2.22-.434c.785 0 1.532.146 2.222.434a5.321 5.321 0 0 1 1.787 1.208c.498.516.902 1.13 1.2 1.828a5.77 5.77 0 0 1 .447 2.277 5.76 5.76 0 0 1-.447 2.278zM52.224 39.89zm15.59-6.763l1.217-1.853a10.056 10.056 0 0 0-2.779-5.547 9.944 9.944 0 0 0-3.182-2.148 9.882 9.882 0 0 0-3.897-.78 9.879 9.879 0 0 0-3.898.78 9.938 9.938 0 0 0-3.182 2.148 10.04 10.04 0 0 0-2.128 3.213 10.132 10.132 0 0 0-.772 3.934 10.13 10.13 0 0 0 2.9 7.148 9.933 9.933 0 0 0 7.08 2.928 9.875 9.875 0 0 0 3.897-.78 9.94 9.94 0 0 0 3.182-2.148 10.03 10.03 0 0 0 2.069-3.08c-1.032-1.03-1.277-2.643-.507-3.815zm23.195 2.025a6.003 6.003 0 0 1-1.201 1.828 5.31 5.31 0 0 1-1.787 1.208 5.734 5.734 0 0 1-2.22.434 5.73 5.73 0 0 1-2.222-.434 5.304 5.304 0 0 1-1.787-1.208 5.988 5.988 0 0 1-1.2-1.828 5.758 5.758 0 0 1-.448-2.278c0-.816.15-1.583.447-2.277a6.008 6.008 0 0 1 1.201-1.828 5.317 5.317 0 0 1 1.787-1.208 5.731 5.731 0 0 1 2.221-.434c.785 0 1.532.146 2.221.434a5.32 5.32 0 0 1 1.787 1.208c.498.516.903 1.13 1.2 1.828.297.696.448 1.462.448 2.277a5.77 5.77 0 0 1-.447 2.278zm3.998-6.212a10.059 10.059 0 0 0-2.127-3.213 9.944 9.944 0 0 0-3.182-2.148 9.883 9.883 0 0 0-3.898-.78 9.879 9.879 0 0 0-3.897.78 10.04 10.04 0 0 0-2.519 1.54c.151.757.014 1.524-.394 2.143l-3.134 4.771c-.022.278-.036.558-.036.841a10.126 10.126 0 0 0 2.9 7.148 9.934 9.934 0 0 0 7.08 2.928 9.875 9.875 0 0 0 3.898-.78 9.94 9.94 0 0 0 3.182-2.148c.9-.909 1.615-1.99 2.127-3.213.513-1.224.773-2.548.773-3.934 0-1.386-.26-2.71-.773-3.935z" fill="#fff"/><path d="M85.064 17.832l-6.176-.284-.338-3.166-.01-.204c-.082-1.623-.104-2.06-.835-2.89l-1.078-1.227c-.715-.812-1.696-1.236-2.644-1.236-.705 0-1.39.234-1.936.716l-7.662 6.769c-.92.813-1.469 2.005-1.467 3.189 0 .776.235 1.906 1.344 2.882.602.529 5.329 2.751 8.36 4.116l.433.195-3.856 5.87-.66 1.007c-.495.751-.4 1.762.16 2.514.15.2.33.382.542.535a2.25 2.25 0 0 0 1.59.431 1.84 1.84 0 0 0 1.341-.822l4.085-6.219 2.104-3.201a1.98 1.98 0 0 0 .316-.997 2.254 2.254 0 0 0-.093-.756 2.457 2.457 0 0 0-1.4-1.565l-5.504-2.323 3.824-3.378.153 1.42c.093.864.897 1.652 1.757 1.722.393.023 7.763.388 8.165.364.787-.098 1.343-.776 1.308-1.611-.042-.977-.86-1.807-1.823-1.85zm-2.322-9.403a4.37 4.37 0 0 0 .133-6.139 4.27 4.27 0 0 0-6.08-.135 4.37 4.37 0 0 0-.133 6.137 4.271 4.271 0 0 0 6.08.137zm-12.89-3.334h-6.24c-2.231 0-4.043.855-4.886 2.255l-4.483 7.516c-.41.68.24 2.691 1.517 2.691h4.309c.405 0 .75-.103.958-.287l10.56-9.324c1.149-1.014.102-2.851-1.735-2.851zm-17.927 3.73H27.418c-.864 0-1.566.71-1.566 1.58 0 .872.702 1.581 1.566 1.581h24.508c.863 0 1.565-.709 1.565-1.58 0-.872-.702-1.58-1.566-1.58zm3.754-5.151H31.171c-.863 0-1.566.709-1.566 1.58 0 .872.703 1.58 1.566 1.58h24.508c.863 0 1.565-.708 1.565-1.58 0-.871-.702-1.58-1.565-1.58z" fill="#fff"/></svg>