<svg width="55" height="60" viewBox="0 0 55 60" fill="none" xmlns="http://www.w3.org/2000/svg"><path fill-rule="evenodd" clip-rule="evenodd" d="M33.104 1.868l-.353.14a47.01 47.01 0 0 0-15.677 10.343A47.142 47.142 0 0 0 6.93 27.382l-.02.046a3.223 3.223 0 0 0 1.708 4.217l2.375 1.008a3.216 3.216 0 0 0 2.478.02v-.001a3.218 3.218 0 0 0 1.77-1.737l.018-.042c.145-.34.413-.602.757-.741l.015-.007a1.397 1.397 0 0 1 1.091.028l4.902 2.213a1.995 1.995 0 0 0 1.559.04l.021-.008a1.993 1.993 0 0 0 1.096-1.079 2.08 2.08 0 0 0-1.053-2.694l-3.53-1.592c-.314-.142-.474-.503-.354-.804a.614.614 0 0 1 .343-.347.614.614 0 0 1 .486.009l1.111.501c1.013.458 2.194.055 2.688-.916a2.022 2.022 0 0 0 .108-1.602 2.047 2.047 0 0 0-1.085-1.182l-.806-.364a1.392 1.392 0 0 1-.798-.995 1.378 1.378 0 0 1 .331-1.22c3.885-4.283 8.593-7.561 13.995-9.744l.315-.125a3.175 3.175 0 0 0 1.772-1.719 3.198 3.198 0 0 0 .027-2.478l-.975-2.412a3.232 3.232 0 0 0-4.172-1.787zm3.83 4.731c.181.449.176.94-.015 1.385a1.76 1.76 0 0 1-.987.957l-.327.13c-5.602 2.264-10.486 5.665-14.515 10.108a2.783 2.783 0 0 0-.67 2.463 2.797 2.797 0 0 0 1.605 2l.806.364c.155.07.272.198.329.359a.614.614 0 0 1-.033.486c-.147.29-.524.409-.839.267l-1.11-.502a2.049 2.049 0 0 0-1.603-.032l-.002.001a2.022 2.022 0 0 0-1.13 1.14c-.401 1.013.078 2.165 1.092 2.622l3.528 1.592a.66.66 0 0 1 .33.845.588.588 0 0 1-.785.307l-4.901-2.212a2.807 2.807 0 0 0-2.192-.057l-.03.013a2.782 2.782 0 0 0-1.53 1.5l-.007.014-.004.009-.01.023a1.806 1.806 0 0 1-.994.974c-.452.183-.946.18-1.39-.01l-2.377-1.008a1.801 1.801 0 0 1-.953-2.358l.02-.043a45.72 45.72 0 0 1 9.837-14.58A45.59 45.59 0 0 1 33.624 3.19a1.81 1.81 0 0 1 2.335.997l.975 2.413z" fill="#A60311" fill-opacity=".6" opacity=".8" filter="url(#a)"/><path fill-rule="evenodd" clip-rule="evenodd" d="M38.133 11.523a.71.71 0 0 0-.393.925l13.114 32.458a.527.527 0 0 1-.121.585.527.527 0 0 1-.587.111L17.642 31.805a.71.71 0 0 0-.555 1.308L49.591 46.91a1.93 1.93 0 0 0 2.137-.406 1.927 1.927 0 0 0 .443-2.13L39.057 11.915a.71.71 0 0 0-.925-.392z" fill="#A60311" fill-opacity=".6" opacity=".8" filter="url(#b)"/><path fill-rule="evenodd" clip-rule="evenodd" d="M32.8 12.696a3.1 3.1 0 0 0-1.711 4.032 3.1 3.1 0 0 0 4.032 1.71 3.1 3.1 0 0 0 1.711-4.03 3.1 3.1 0 0 0-4.031-1.712zm1.789 4.426a1.679 1.679 0 0 1-2.183-.926 1.678 1.678 0 0 1 .927-2.183 1.678 1.678 0 0 1 2.182.927 1.679 1.679 0 0 1-.926 2.182z" fill="#A60311" fill-opacity=".6" opacity=".8" filter="url(#c)"/><path fill-rule="evenodd" clip-rule="evenodd" d="M28.348 34.258a2.871 2.871 0 0 0 3.734 1.585 2.871 2.871 0 0 0 1.585-3.734 2.871 2.871 0 0 0-3.734-1.585 2.871 2.871 0 0 0-1.585 3.734zm2.117-2.417a1.45 1.45 0 0 1 1.085 2.685 1.45 1.45 0 0 1-1.885-.8c-.3-.74.06-1.586.8-1.885z" fill="#A60311" fill-opacity=".6" opacity=".8" filter="url(#d)"/><path fill-rule="evenodd" clip-rule="evenodd" d="M39.378 26.249a2.973 2.973 0 0 0-1.64 3.865 2.973 2.973 0 0 0 3.865 1.64 2.972 2.972 0 0 0 1.64-3.864 2.973 2.973 0 0 0-3.865-1.641zm1.693 4.189a1.55 1.55 0 0 1-2.017-.856 1.55 1.55 0 0 1 .856-2.017 1.55 1.55 0 0 1 2.017.857 1.55 1.55 0 0 1-.856 2.016z" fill="#A60311" fill-opacity=".6" opacity=".8" filter="url(#e)"/><path fill-rule="evenodd" clip-rule="evenodd" d="M45.934 36.063a3.168 3.168 0 0 0-4.119-1.748l-.484.195a3.168 3.168 0 0 0-1.748 4.119 1.374 1.374 0 0 0 1.787.759l.172-.07.181.526a1.27 1.27 0 0 0 1.672.763l1.17-.474a1.27 1.27 0 0 0 .705-.71 1.273 1.273 0 0 0-.032-1l-.235-.504.173-.07a1.374 1.374 0 0 0 .758-1.786zm-1.904.718a.974.974 0 0 0-.539.544.974.974 0 0 0 .024.765l.368.787-.87.352-.282-.822a.973.973 0 0 0-1.28-.584l-.568.23a1.745 1.745 0 0 1 .98-2.226l.484-.195a1.745 1.745 0 0 1 2.252.92l-.569.229z" fill="#A60311" fill-opacity=".6" opacity=".8" filter="url(#f)"/><path fill-rule="evenodd" clip-rule="evenodd" d="M28.793 19.982a3.606 3.606 0 0 0-1.99 4.69l.23.57a3.606 3.606 0 0 0 4.689 1.99 1.493 1.493 0 0 0 .824-1.94l-.132-.328.746-.257a1.367 1.367 0 0 0 .823-1.802l-.558-1.38a1.371 1.371 0 0 0-.766-.76 1.372 1.372 0 0 0-1.078.034l-.715.334-.132-.327a1.493 1.493 0 0 0-1.941-.824zm3.337 2.128l.514 1.273-1.095.376a1.022 1.022 0 0 0-.594.539 1.021 1.021 0 0 0-.018.803l.292.722a.07.07 0 0 1-.039.092 2.184 2.184 0 0 1-2.84-1.206l-.23-.57a2.184 2.184 0 0 1 1.205-2.84.07.07 0 0 1 .092.039l.292.722a1.018 1.018 0 0 0 1.372.54l1.049-.49z" fill="#A60311" fill-opacity=".6" opacity=".8" filter="url(#g)"/><defs><filter id="a" x="-45.372" y="-45.543" width="136.93" height="129.621" filterUnits="userSpaceOnUse" color-interpolation-filters="sRGB"><feFlood flood-opacity="0" result="BackgroundImageFix"/><feGaussianBlur in="BackgroundImage" stdDeviation="23.105"/><feComposite in2="SourceAlpha" operator="in" result="effect1_backgroundBlur"/><feBlend in="SourceGraphic" in2="effect1_backgroundBlur" result="shape"/></filter><filter id="b" x="-33.861" y="-34.954" width="132.978" height="138.041" filterUnits="userSpaceOnUse" color-interpolation-filters="sRGB"><feFlood flood-opacity="0" result="BackgroundImageFix"/><feGaussianBlur in="BackgroundImage" stdDeviation="23.105"/><feComposite in2="SourceAlpha" operator="in" result="effect1_backgroundBlur"/><feBlend in="SourceGraphic" in2="effect1_backgroundBlur" result="shape"/></filter><filter id="c" x="-16.282" y="-34.675" width="100.485" height="100.485" filterUnits="userSpaceOnUse" color-interpolation-filters="sRGB"><feFlood flood-opacity="0" result="BackgroundImageFix"/><feGaussianBlur in="BackgroundImage" stdDeviation="23.105"/><feComposite in2="SourceAlpha" operator="in" result="effect1_backgroundBlur"/><feBlend in="SourceGraphic" in2="effect1_backgroundBlur" result="shape"/></filter><filter id="d" x="-18.937" y="-16.761" width="99.889" height="99.889" filterUnits="userSpaceOnUse" color-interpolation-filters="sRGB"><feFlood flood-opacity="0" result="BackgroundImageFix"/><feGaussianBlur in="BackgroundImage" stdDeviation="23.105"/><feComposite in2="SourceAlpha" operator="in" result="effect1_backgroundBlur"/><feBlend in="SourceGraphic" in2="effect1_backgroundBlur" result="shape"/></filter><filter id="e" x="-9.586" y="-21.074" width="100.152" height="100.152" filterUnits="userSpaceOnUse" color-interpolation-filters="sRGB"><feFlood flood-opacity="0" result="BackgroundImageFix"/><feGaussianBlur in="BackgroundImage" stdDeviation="23.105"/><feComposite in2="SourceAlpha" operator="in" result="effect1_backgroundBlur"/><feBlend in="SourceGraphic" in2="effect1_backgroundBlur" result="shape"/></filter><filter id="f" x="-7.813" y="-13.081" width="101.18" height="100.945" filterUnits="userSpaceOnUse" color-interpolation-filters="sRGB"><feFlood flood-opacity="0" result="BackgroundImageFix"/><feGaussianBlur in="BackgroundImage" stdDeviation="23.105"/><feComposite in2="SourceAlpha" operator="in" result="effect1_backgroundBlur"/><feBlend in="SourceGraphic" in2="effect1_backgroundBlur" result="shape"/></filter><filter id="g" x="-20.758" y="-27.621" width="102.137" height="102.413" filterUnits="userSpaceOnUse" color-interpolation-filters="sRGB"><feFlood flood-opacity="0" result="BackgroundImageFix"/><feGaussianBlur in="BackgroundImage" stdDeviation="23.105"/><feComposite in2="SourceAlpha" operator="in" result="effect1_backgroundBlur"/><feBlend in="SourceGraphic" in2="effect1_backgroundBlur" result="shape"/></filter></defs></svg>