<svg width="62" height="57" viewBox="0 0 62 57" fill="none" xmlns="http://www.w3.org/2000/svg"><path fill-rule="evenodd" clip-rule="evenodd" d="M59.717 30.44c-.06-.11-.12-.222-.182-.333a46.998 46.998 0 0 0-12.177-14.3 47.143 47.143 0 0 0-16.154-8.235l-.049-.013a3.223 3.223 0 0 0-3.977 2.208l-.711 2.48a3.216 3.216 0 0 0 .283 2.462 3.218 3.218 0 0 0 1.94 1.546l.044.012c.355.102.648.336.828.66l.008.015c.181.336.218.722.105 1.086l-1.598 5.136a1.995 1.995 0 0 0 .15 1.551l.01.02c.26.47.687.808 1.204.957a2.08 2.08 0 0 0 2.546-1.374l1.15-3.697c.103-.33.442-.532.755-.45a.613.613 0 0 1 .436.782l-.362 1.164c-.33 1.061.214 2.184 1.237 2.556.53.193 1.1.162 1.603-.088a2.047 2.047 0 0 0 1.042-1.221l.262-.844c.136-.434.46-.767.89-.913.428-.146.884-.08 1.252.18 4.725 3.333 8.553 7.607 11.377 12.703.055.099.11.197.163.297a3.175 3.175 0 0 0 1.922 1.549 3.197 3.197 0 0 0 2.462-.276l2.276-1.261a3.232 3.232 0 0 0 1.265-4.359zm-4.229 4.378c-.423.235-.912.29-1.376.154a1.76 1.76 0 0 1-1.07-.863 34.532 34.532 0 0 0-.17-.308c-2.93-5.285-6.9-9.718-11.801-13.175a2.783 2.783 0 0 0-2.526-.364 2.797 2.797 0 0 0-1.79 1.835l-.263.845a.615.615 0 0 1-.803.396c-.305-.11-.469-.47-.366-.8l.362-1.163a2.048 2.048 0 0 0-.164-1.594v-.002a2.022 2.022 0 0 0-1.27-.983c-1.055-.274-2.14.342-2.47 1.403l-1.15 3.696a.66.66 0 0 1-.798.431.587.587 0 0 1-.4-.741l1.598-5.135a2.806 2.806 0 0 0-.21-2.182l-.017-.03a2.782 2.782 0 0 0-1.675-1.335l-.015-.005-.01-.003-.023-.006a1.805 1.805 0 0 1-1.088-.868 1.805 1.805 0 0 1-.16-1.382l.71-2.481a1.801 1.801 0 0 1 2.225-1.233l.046.013a45.72 45.72 0 0 1 15.67 7.987A45.587 45.587 0 0 1 58.47 31.117a1.809 1.809 0 0 1-.706 2.44l-2.276 1.261z" fill="#A60311" fill-opacity=".6" opacity=".8" filter="url(#a)"/><path fill-rule="evenodd" clip-rule="evenodd" d="M50.747 36.608a.71.71 0 0 0-.966-.277L19.163 53.304a.527.527 0 0 1-.595-.05.526.526 0 0 1-.182-.568l9.733-33.943a.71.71 0 0 0-1.366-.392L17.02 52.294a1.93 1.93 0 0 0 .664 2.072 1.927 1.927 0 0 0 2.167.18L50.47 37.572a.71.71 0 0 0 .277-.965z" fill="#A60311" fill-opacity=".6" opacity=".8" filter="url(#b)"/><path fill-rule="evenodd" clip-rule="evenodd" d="M48.933 31.459a3.1 3.1 0 0 0-4.21-1.207 3.1 3.1 0 0 0-1.207 4.21 3.1 3.1 0 0 0 4.21 1.207 3.1 3.1 0 0 0 1.207-4.21zm-4.175 2.314a1.679 1.679 0 0 1 .653-2.28 1.678 1.678 0 0 1 2.28.655 1.68 1.68 0 0 1-.654 2.279 1.679 1.679 0 0 1-2.28-.654z" fill="#A60311" fill-opacity=".6" opacity=".8" filter="url(#c)"/><path fill-rule="evenodd" clip-rule="evenodd" d="M26.989 29.668a2.871 2.871 0 0 0-1.118 3.899 2.871 2.871 0 0 0 3.899 1.118 2.871 2.871 0 0 0 1.118-3.9 2.871 2.871 0 0 0-3.9-1.117zm2.657 1.806a1.45 1.45 0 0 1-.565 1.969 1.45 1.45 0 0 1-1.968-.565 1.45 1.45 0 0 1 .564-1.969 1.45 1.45 0 0 1 1.969.565z" fill="#A60311" fill-opacity=".6" opacity=".8" filter="url(#d)"/><path fill-rule="evenodd" clip-rule="evenodd" d="M36.283 39.639a2.973 2.973 0 0 0-4.037-1.158 2.973 2.973 0 0 0-1.157 4.037 2.972 2.972 0 0 0 4.036 1.157 2.973 2.973 0 0 0 1.158-4.036zm-3.952 2.19a1.55 1.55 0 0 1 .604-2.105 1.55 1.55 0 0 1 2.106.604 1.55 1.55 0 0 1-.604 2.105 1.55 1.55 0 0 1-2.106-.603z" fill="#A60311" fill-opacity=".6" opacity=".8" filter="url(#e)"/><path fill-rule="evenodd" clip-rule="evenodd" d="M27.34 47.342a3.168 3.168 0 0 0 1.234-4.3l-.253-.457a3.168 3.168 0 0 0-4.301-1.234 1.374 1.374 0 0 0-.535 1.866l.09.163-.5.243c-.311.152-.55.428-.654.757-.104.33-.067.693.1.995l.613 1.105a1.267 1.267 0 0 0 1.779.46l.471-.296.09.163a1.374 1.374 0 0 0 1.867.535zm-.944-1.802a.974.974 0 0 0-1.363-.352l-.736.461-.454-.82.78-.38a.972.972 0 0 0 .424-1.342l-.297-.536a1.745 1.745 0 0 1 2.329.702l.253.457a1.745 1.745 0 0 1-.639 2.346l-.297-.536z" fill="#A60311" fill-opacity=".6" opacity=".8" filter="url(#f)"/><path fill-rule="evenodd" clip-rule="evenodd" d="M41.213 28.369a3.606 3.606 0 0 0-4.897-1.404l-.538.298a3.606 3.606 0 0 0-1.404 4.897c.398.719 1.307.98 2.026.581l.31-.171.345.71a1.368 1.368 0 0 0 1.889.596l1.302-.722a1.368 1.368 0 0 0 .496-1.918l-.42-.669.31-.171c.719-.399.98-1.308.58-2.027zm-1.706 3.572l-1.2.665-.507-1.04a1.021 1.021 0 0 0-.608-.525 1.02 1.02 0 0 0-.798.08l-.682.378a.07.07 0 0 1-.096-.027 2.184 2.184 0 0 1 .85-2.967l.539-.298a2.184 2.184 0 0 1 2.966.85.07.07 0 0 1-.028.096l-.681.378a1.02 1.02 0 0 0-.492.635 1.02 1.02 0 0 0 .123.793l.614.982z" fill="#A60311" fill-opacity=".6" opacity=".8" filter="url(#g)"/><defs><filter id="a" x="-25.026" y="-46.206" width="132.506" height="137.662" filterUnits="userSpaceOnUse" color-interpolation-filters="sRGB"><feFlood flood-opacity="0" result="BackgroundImageFix"/><feGaussianBlur in="BackgroundImage" stdDeviation="23.105"/><feComposite in2="SourceAlpha" operator="in" result="effect1_backgroundBlur"/><feBlend in="SourceGraphic" in2="effect1_backgroundBlur" result="shape"/></filter><filter id="b" x="-41.902" y="-33.924" width="139.204" height="135.632" filterUnits="userSpaceOnUse" color-interpolation-filters="sRGB"><feFlood flood-opacity="0" result="BackgroundImageFix"/><feGaussianBlur in="BackgroundImage" stdDeviation="23.105"/><feComposite in2="SourceAlpha" operator="in" result="effect1_backgroundBlur"/><feBlend in="SourceGraphic" in2="effect1_backgroundBlur" result="shape"/></filter><filter id="c" x="-4.197" y="-17.461" width="100.842" height="100.842" filterUnits="userSpaceOnUse" color-interpolation-filters="sRGB"><feFlood flood-opacity="0" result="BackgroundImageFix"/><feGaussianBlur in="BackgroundImage" stdDeviation="23.105"/><feComposite in2="SourceAlpha" operator="in" result="effect1_backgroundBlur"/><feBlend in="SourceGraphic" in2="effect1_backgroundBlur" result="shape"/></filter><filter id="d" x="-21.731" y="-17.934" width="100.22" height="100.22" filterUnits="userSpaceOnUse" color-interpolation-filters="sRGB"><feFlood flood-opacity="0" result="BackgroundImageFix"/><feGaussianBlur in="BackgroundImage" stdDeviation="23.105"/><feComposite in2="SourceAlpha" operator="in" result="effect1_backgroundBlur"/><feBlend in="SourceGraphic" in2="effect1_backgroundBlur" result="shape"/></filter><filter id="e" x="-16.562" y="-9.169" width="100.495" height="100.495" filterUnits="userSpaceOnUse" color-interpolation-filters="sRGB"><feFlood flood-opacity="0" result="BackgroundImageFix"/><feGaussianBlur in="BackgroundImage" stdDeviation="23.105"/><feComposite in2="SourceAlpha" operator="in" result="effect1_backgroundBlur"/><feBlend in="SourceGraphic" in2="effect1_backgroundBlur" result="shape"/></filter><filter id="f" x="-25.044" y="-6.394" width="101.362" height="101.528" filterUnits="userSpaceOnUse" color-interpolation-filters="sRGB"><feFlood flood-opacity="0" result="BackgroundImageFix"/><feGaussianBlur in="BackgroundImage" stdDeviation="23.105"/><feComposite in2="SourceAlpha" operator="in" result="effect1_backgroundBlur"/><feBlend in="SourceGraphic" in2="effect1_backgroundBlur" result="shape"/></filter><filter id="g" x="-13.583" y="-20.992" width="102.809" height="102.614" filterUnits="userSpaceOnUse" color-interpolation-filters="sRGB"><feFlood flood-opacity="0" result="BackgroundImageFix"/><feGaussianBlur in="BackgroundImage" stdDeviation="23.105"/><feComposite in2="SourceAlpha" operator="in" result="effect1_backgroundBlur"/><feBlend in="SourceGraphic" in2="effect1_backgroundBlur" result="shape"/></filter></defs></svg>