<svg width="45" height="44" viewBox="0 0 45 44" fill="none" xmlns="http://www.w3.org/2000/svg"><path fill-rule="evenodd" clip-rule="evenodd" d="M4.517.944a.591.591 0 0 0-.058.273v9.317a.715.715 0 0 0 .21.508l1.074 1.068L.21 23.112a.715.715 0 0 0 .318.96l9.615 4.78a3.15 3.15 0 0 0 2.236 2.15c.562.135 1.013.55 1.19 1.097l.267.76a3.135 3.135 0 0 0 3.96 1.963l1.443-.487.152.595c.514 2.038 2.595 3.276 4.647 2.765.268-.067.529-.163.777-.286.43-.22.92-.301 1.4-.229l.959.136a3.799 3.799 0 0 0 2.885-.716c.058-.043.108-.1.159-.144l6.91 6.837a.724.724 0 0 0 .786.15.716.716 0 0 0 .448-.658v-7.346l.974-.273c2.34-.661 3.7-3.083 3.034-5.41l-.005-.015a2.964 2.964 0 0 1 .281-2.28l.837-1.433a4.363 4.363 0 0 0-.44-4.98l-.137-.165a2.945 2.945 0 0 1-.137-3.584l.577-.795a4.4 4.4 0 0 0 .786-2.61c0-.754-.2-1.495-.577-2.15l-1.226-2.15a2.96 2.96 0 0 1-.39-1.433v-.53a4.41 4.41 0 0 0-2.163-3.763l-1.443-.874V1.217A.72.72 0 0 0 37.612.5H5.18a.721.721 0 0 0-.663.444zm1.385 9.296V7.96l1.284 1.284-.722 1.512-.562-.516zm2.344.093l.721.717-1.06.551c-.133.073-.26.155-.382.244l.721-1.512zM1.819 23.14l4.371-8.715c.002.55.151 1.09.433 1.563l.188.315c.278.463.319 1.03.108 1.526l-.787 1.814a3.109 3.109 0 0 0 1.443 4.006l1.212.566c.507.252.853.739.923 1.297l.202 1.606L1.82 23.14zm13.38 9.26v.057l-.26-.781a3.108 3.108 0 0 0-2.214-2.028 1.695 1.695 0 0 1-1.262-1.434l-.36-2.866A3.097 3.097 0 0 0 9.4 22.954l-1.147-.573a1.672 1.672 0 0 1-.793-2.15l.786-1.814a3.129 3.129 0 0 0-.18-2.867l-.195-.315a1.671 1.671 0 0 1 .721-2.365l1.537-.76 1.276 1.29a6.764 6.764 0 0 0 .373 9.602 6.856 6.856 0 0 0 3.393 1.693 6.765 6.765 0 0 0 2.885 8.5l-.721.237A1.698 1.698 0 0 1 15.2 32.4zm-2.726-13.983h2.59l-1.652 1.641 1.017 1.018 1.652-1.648V22h1.204c-.526.407-.988.89-1.37 1.433-2.97-.287-5.144-2.911-4.855-5.862a5.353 5.353 0 0 1 1.37-3.082l2.54 2.494h-2.496v1.433zm5.05 1.097l1.507 1.498a6.694 6.694 0 0 0-1.508.788v-2.286zm3.57 5.733l-1.609-1.627-1.031 1.004 1.63 1.677h-2.56v1.433h2.589l-1.652 1.641 1.017 1.018 1.652-1.648v2.573h1.443v-2.502l1.572 1.57 1.025-1.003-1.638-1.649h1.847v-.423l1.363 1.355a5.375 5.375 0 0 1-5.251 4.085 5.814 5.814 0 0 1-1.162-.143h-.05c-2.91-.676-4.717-3.567-4.037-6.458a5.392 5.392 0 0 1 3.957-3.992l1.284 1.276h-.432l.043 1.813zm1.443-.781l.39.401-.39.402v-.803zm1.399 1.426l.411.402h-.8l.389-.402zm-1.81 10.32a2.355 2.355 0 0 1-1.313-1.576l-.116-.459a6.823 6.823 0 0 0 7.192-4.314l2.424 2.408-.21 1.634a2.37 2.37 0 0 1-2.697 2.05l-.967-.137a3.816 3.816 0 0 0-2.25.366 2.394 2.394 0 0 1-2.063-.029v.058zm14.794 4.845l-5.77-5.762c.21-.395.35-.825.41-1.268l.065-.53 5.295 5.281v2.28zm0-4.3l-5.093-5.06.036-.293-.375-.043-14.044-13.926a.72.72 0 0 0-.411-.394L5.902 5.94V2.944L36.919 33.76v2.996zm2.164-31.692a2.963 2.963 0 0 1 1.443 2.53v.53c.006.755.207 1.495.584 2.15l1.219 2.15a2.946 2.946 0 0 1-.159 3.183l-.57.795a4.37 4.37 0 0 0 .195 5.361l.137.165c.794.946.915 2.282.303 3.354l-.844 1.433a4.397 4.397 0 0 0-.41 3.383 2.957 2.957 0 0 1-2.042 3.655l-.577.158V4.599l.721.466zm-2.164-3.132V31.74l-30-29.807h30z" fill="#A60311" fill-opacity=".6" opacity=".8" filter="url(#a)"/><defs><filter id="a" x="-46.077" y="-45.711" width="136.422" height="135.422" filterUnits="userSpaceOnUse" color-interpolation-filters="sRGB"><feFlood flood-opacity="0" result="BackgroundImageFix"/><feGaussianBlur in="BackgroundImage" stdDeviation="23.105"/><feComposite in2="SourceAlpha" operator="in" result="effect1_backgroundBlur"/><feBlend in="SourceGraphic" in2="effect1_backgroundBlur" result="shape"/></filter></defs></svg>