<svg width="45" height="44" viewBox="0 0 45 44" fill="none" xmlns="http://www.w3.org/2000/svg"><path fill-rule="evenodd" clip-rule="evenodd" d="M39.75 43.056a.592.592 0 0 0 .058-.273v-9.317a.715.715 0 0 0-.21-.508l-1.074-1.068 5.532-11.002a.715.715 0 0 0-.317-.96l-9.615-4.78a3.15 3.15 0 0 0-2.236-2.15 1.655 1.655 0 0 1-1.19-1.097l-.268-.76a3.135 3.135 0 0 0-3.96-1.963l-1.442.487-.152-.595c-.514-2.038-2.595-3.276-4.647-2.765-.268.067-.53.163-.777.286-.43.22-.92.301-1.4.229l-.959-.136a3.799 3.799 0 0 0-2.885.716c-.058.043-.108.1-.159.144L7.139.707a.725.725 0 0 0-.787-.15.717.717 0 0 0-.447.658v7.346l-.974.273c-2.341.661-3.7 3.083-3.034 5.41l.005.015a2.965 2.965 0 0 1-.282 2.28l-.836 1.433a4.363 4.363 0 0 0 .44 4.98l.137.165a2.945 2.945 0 0 1 .137 3.584l-.577.795a4.401 4.401 0 0 0-.786 2.61c0 .753.2 1.495.577 2.15l1.226 2.15c.25.437.384.93.39 1.433v.53a4.41 4.41 0 0 0 2.163 3.763l1.443.874v1.777a.72.72 0 0 0 .721.717h32.432a.721.721 0 0 0 .663-.444zm-1.385-9.296v2.28l-1.284-1.284.722-1.512.562.516zm-2.344-.093l-.721-.717 1.06-.552c.133-.072.26-.154.382-.243l-.721 1.512zm6.427-12.807l-4.371 8.715a3.073 3.073 0 0 0-.433-1.563l-.188-.315a1.682 1.682 0 0 1-.108-1.526l.786-1.814a3.109 3.109 0 0 0-1.442-4.006l-1.212-.566a1.684 1.684 0 0 1-.923-1.297l-.202-1.606 8.093 3.978zm-13.38-9.26v-.057l.259.781a3.109 3.109 0 0 0 2.214 2.028 1.695 1.695 0 0 1 1.263 1.434l.36 2.866a3.097 3.097 0 0 0 1.703 2.394l1.147.573a1.672 1.672 0 0 1 .793 2.15l-.786 1.814a3.129 3.129 0 0 0 .18 2.867l.195.315a1.671 1.671 0 0 1-.721 2.365l-1.537.76-1.277-1.29a6.763 6.763 0 0 0-.372-9.602 6.855 6.855 0 0 0-3.393-1.693 6.766 6.766 0 0 0-2.885-8.5l.721-.237a1.698 1.698 0 0 1 2.135 1.032zm2.726 13.983h-2.59l1.652-1.641-1.017-1.018-1.652 1.648V22h-1.204c.526-.407.988-.89 1.37-1.433 2.97.287 5.144 2.911 4.855 5.862a5.351 5.351 0 0 1-1.37 3.082l-2.54-2.494h2.496v-1.433zm-5.05-1.097l-1.507-1.498a6.692 6.692 0 0 0 1.508-.788v2.286zm-3.57-5.733l1.608 1.627 1.032-1.004-1.63-1.677h2.56v-1.433h-2.59l1.653-1.641-1.017-1.018-1.652 1.648v-2.573h-1.443v2.502l-1.572-1.57-1.025 1.003 1.638 1.649h-1.847v.423l-1.363-1.355a5.375 5.375 0 0 1 5.251-4.085c.391.009.78.057 1.162.143h.05c2.91.676 4.717 3.567 4.037 6.458a5.392 5.392 0 0 1-3.958 3.992l-1.284-1.276h.433l-.043-1.813zm-1.443.781l-.39-.401.39-.402v.803zm-1.4-1.426l-.41-.402h.8l-.39.402zm1.811-10.32c.657.298 1.14.879 1.313 1.576l.116.459a6.823 6.823 0 0 0-7.192 4.314l-2.424-2.408.21-1.634a2.37 2.37 0 0 1 2.697-2.05l.967.137c.77.11 1.556-.018 2.25-.366a2.394 2.394 0 0 1 2.063.029v-.058zM7.348 2.942l5.77 5.762c-.21.395-.35.825-.41 1.268l-.066.53-5.294-5.281v-2.28zm0 4.3l5.093 5.06-.037.293.376.043 14.044 13.926a.72.72 0 0 0 .411.394l11.13 11.101v2.996L7.348 10.24V7.243zM5.184 38.935a2.963 2.963 0 0 1-1.443-2.53v-.53a4.385 4.385 0 0 0-.584-2.15l-1.22-2.15a2.948 2.948 0 0 1 .16-3.183l.57-.795a4.37 4.37 0 0 0-.195-5.361l-.137-.165a2.945 2.945 0 0 1-.303-3.354l.844-1.433a4.397 4.397 0 0 0 .41-3.383 2.957 2.957 0 0 1 2.042-3.655l.577-.158v29.313l-.721-.466zm2.164 3.132V12.26l30 29.807h-30z" fill="#A60311" fill-opacity=".6" filter="url(#a)"/><defs><filter id="a" x="-46.077" y="-45.711" width="136.422" height="135.422" filterUnits="userSpaceOnUse" color-interpolation-filters="sRGB"><feFlood flood-opacity="0" result="BackgroundImageFix"/><feGaussianBlur in="BackgroundImage" stdDeviation="23.105"/><feComposite in2="SourceAlpha" operator="in" result="effect1_backgroundBlur"/><feBlend in="SourceGraphic" in2="effect1_backgroundBlur" result="shape"/></filter></defs></svg>