<svg width="24" height="24" viewBox="0 0 24 24" fill="none" xmlns="http://www.w3.org/2000/svg"><path fill-rule="evenodd" clip-rule="evenodd" d="M11.936 14.707l9.005 8.91c.25.247.583.383.938.383.356 0 .689-.136.939-.383l.794-.787c.25-.247.388-.576.388-.928 0-.352-.138-.681-.387-.928l-9.075-8.979 9.064-8.968a1.305 1.305 0 0 0 0-1.857l-.794-.787A1.324 1.324 0 0 0 21.869 0c-.355 0-.688.136-.938.383l-8.995 8.9-8.9-8.9A1.303 1.303 0 0 0 2.109 0c-.351 0-.681.136-.928.383l-.787.787a1.315 1.315 0 0 0 0 1.857l8.969 8.968-8.979 8.979a1.304 1.304 0 0 0-.383.928c0 .351.136.681.383.928l.787.787c.247.247.577.383.928.383.352 0 .682-.136.929-.383l8.91-8.91z" fill="#E7E7E7"/></svg>