<svg width="129" height="40" viewBox="0 0 129 40" fill="none" xmlns="http://www.w3.org/2000/svg">
<path opacity="0.198289" d="M124.2 40H4.20001C2.00001 40 0.200012 38.2 0.200012 36V4C0.200012 1.8 2.00001 0 4.20001 0H124.2C126.4 0 128.2 1.8 128.2 4V36C128.2 38.2 126.4 40 124.2 40Z" fill="white"/>
<path d="M27.2 19.8C27.2 16.7 29.8 15.2 29.9 15.1C28.4 13 26.2 12.7 25.4 12.6C23.5 12.4 21.6 13.7 20.7 13.7C19.7 13.7 18.2 12.6 16.6 12.6C14.5 12.6 12.6 13.8 11.5 15.7C9.30002 19.5 10.9 25.1 13 28.2C14.1 29.7 15.3 31.4 16.9 31.3C18.5 31.2 19.1 30.3 21 30.3C22.9 30.3 23.4 31.3 25.1 31.3C26.8 31.3 27.9 29.8 28.9 28.3C30.1 26.6 30.6 24.9 30.6 24.8C30.5 24.7 27.2 23.5 27.2 19.8Z" fill="white"/>
<path d="M24.1 10.6C24.9 9.49998 25.5 8.09998 25.4 6.59998C24.2 6.69998 22.6 7.39998 21.8 8.49998C21 9.39998 20.3 10.9 20.5 12.3C21.8 12.4 23.2 11.6 24.1 10.6Z" fill="white"/>
<path fill-rule="evenodd" clip-rule="evenodd" d="M47.8 31.1H50L46 18.2H43.4L39.2 31.1H41.3L42.4 27.3H46.6L47.8 31.1ZM45.1 22.3L46.2 25.7H42.7L43.8 22.3C44.1 21.3 44.3 20.4 44.4 19.9C44.6667 20.7 44.8445 21.3667 44.963 21.8111C45.0222 22.0333 45.0667 22.2 45.1 22.3Z" fill="white"/>
<path fill-rule="evenodd" clip-rule="evenodd" d="M59.4 30.2C60.3 29.2 60.7 28 60.7 26.4C60.7 24.9 60.3 23.8 59.4 23C58.7 22.1 57.8 21.7 56.7 21.7C55.3 21.7 54.3 22.3 53.6 23.4L53.5 21.9H51.7C51.8 23 51.8 24 51.8 25V35H53.9V30.1C54.4 31 55.3 31.4 56.5 31.4C57.7 31.4 58.6 31 59.4 30.2ZM58 24.2C58.4 24.7 58.6 25.5 58.6 26.4C58.6 27.4 58.4 28.2 57.9 28.8C57.5 29.4 56.9 29.7 56.1 29.7C55.5 29.7 54.9 29.5 54.5 29C54.1 28.5 53.9 28 53.9 27.3V25.7C53.9 25.6 53.9 25.4 54 25.1C54.1 24.6 54.4 24.1 54.8 23.8C55.2 23.5 55.7 23.3 56.2 23.3C57 23.3 57.6 23.6 58 24.2Z" fill="white"/>
<path fill-rule="evenodd" clip-rule="evenodd" d="M70.1 30.2C71 29.2 71.4 28 71.4 26.4C71.4 24.9 71 23.8 70.1 23C69.4 22.1 68.5 21.7 67.4 21.7C66 21.7 65 22.3 64.3 23.4L64.2 21.9H62.4C62.5 23 62.5 24 62.5 25V35H64.6V30.1C65.1 31 66 31.4 67.2 31.4C68.4 31.4 69.3 31 70.1 30.2ZM68.7 24.2C69.1 24.7 69.3 25.5 69.3 26.4C69.3 27.4 69.1 28.2 68.6 28.8C68.2 29.4 67.6 29.7 66.8 29.7C66.2 29.7 65.6 29.5 65.2 29C64.8 28.5 64.6 28 64.6 27.3V25.7C64.6 25.6 64.6 25.4 64.7 25.1C64.8 24.6 65.1 24.1 65.5 23.8C65.9 23.5 66.4 23.3 66.9 23.3C67.7 23.3 68.3 23.6 68.7 24.2Z" fill="white"/>
<path d="M83.4 27.5C83.4 28.6 83 29.5 82.3 30.2C81.5 31 80.3 31.3 78.8 31.3C77.4 31.3 76.3 31 75.5 30.5L76 28.8C76.9 29.3 77.9 29.6 79 29.6C79.8 29.6 80.4 29.4 80.8 29.1C81.2 28.7 81.4 28.3 81.4 27.7C81.4 27.2 81.2 26.7 80.9 26.4C80.5 26 79.9 25.7 79.1 25.4C76.8 24.6 75.7 23.3 75.7 21.7C75.7 20.6 76.1 19.8 76.9 19.1C77.7 18.4 78.7 18.1 80.1 18.1C81.3 18.1 82.2 18.3 83 18.7L82.5 20.4C81.8 20 81 19.8 80 19.8C79.3 19.8 78.7 20 78.3 20.3C78 20.6 77.8 21 77.8 21.5C77.8 22 78 22.4 78.4 22.8C78.7 23.1 79.4 23.4 80.3 23.8C81.4 24.2 82.2 24.8 82.8 25.4C83.1 25.9 83.4 26.6 83.4 27.5Z" fill="white"/>
<path d="M90.2 23.4H87.9V27.9C87.9 29 88.3 29.6 89.1 29.6C89.5 29.6 89.8 29.6 90 29.5L90.1 31.1C89.7 31.3 89.2 31.3 88.5 31.3C87.7 31.3 87 31.1 86.6 30.6C86.1 30.1 85.9 29.3 85.9 28.1V23.4H84.5V21.8H85.9V20.1L87.9 19.5V21.8H90.2V23.4Z" fill="white"/>
<path fill-rule="evenodd" clip-rule="evenodd" d="M99.3 29.9C100.1 29 100.5 27.8 100.5 26.4C100.5 25 100.1 23.9 99.4 23C98.6 22.1 97.5 21.6 96.1 21.6C94.7 21.6 93.5 22.1 92.7 23C91.8 23.9 91.4 25.1 91.4 26.5C91.4 27.9 91.8 29 92.6 29.9C93.4 30.8 94.5 31.3 95.9 31.3C97.3 31.3 98.4 30.8 99.3 29.9ZM97.7 24.3C98.1 24.9 98.3 25.6 98.3 26.5C98.3 27.3 98.1 28.1 97.7 28.7C97.2 29.4 96.6 29.8 95.8 29.8C95 29.8 94.3 29.4 93.9 28.7C93.5 28.1 93.3 27.4 93.3 26.5C93.3 25.7 93.5 24.9 93.9 24.3C94.3 23.6 95 23.2 95.8 23.2C96.6 23.2 97.3 23.6 97.7 24.3Z" fill="white"/>
<path d="M107.2 23.6C107 23.6 106.8 23.5 106.5 23.5C105.8 23.5 105.2 23.8 104.8 24.3C104.5 24.8 104.3 25.4 104.3 26.1V31H102.2V24.6C102.2 23.5 102.2 22.6 102.1 21.7H103.9L104 23.5H104.1C104.3 22.9 104.7 22.4 105.1 22C105.6 21.7 106.1 21.5 106.6 21.5C106.8 21.5 107 21.5 107.1 21.5V23.6H107.2Z" fill="white"/>
<path fill-rule="evenodd" clip-rule="evenodd" d="M116.3 26.9C116.4 26.7 116.4 26.4 116.4 26C116.4 24.9 116.2 23.9 115.5 23.1C114.9 22.1 113.8 21.6 112.5 21.6C111.1 21.6 110 22.1 109.2 23.1C108.5 24 108.1 25.2 108.1 26.6C108.1 28 108.5 29.2 109.3 30C110.1 30.9 111.3 31.3 112.7 31.3C113.9 31.3 114.9 31.1 115.8 30.7L115.5 29.3C114.8 29.6 113.9 29.7 113 29.7C112.2 29.7 111.5 29.4 111 29C110.4 28.5 110.1 27.8 110.1 26.9H116.3ZM114.499 25.4C114.5 25.433 114.5 25.4663 114.5 25.5V25.4H114.499ZM114.499 25.4C114.488 24.8439 114.383 24.3719 114.1 23.9C113.7 23.3 113.2 23 112.5 23C111.8 23 111.3 23.3 110.9 23.8C110.6 24.2 110.4 24.8 110.3 25.4H114.499Z" fill="white"/>
<path fill-rule="evenodd" clip-rule="evenodd" d="M44.6 12.9C45.3 12.3 45.6 11.4 45.6 10.3C45.6 9.29999 45.2 8.49999 44.7 7.99999C44.1 7.49999 43.3 7.29999 42.2 7.29999C41.5 7.29999 40.9 7.29999 40.4 7.39999V13.6C40.8 13.7 41.3 13.7 41.9 13.7C43.1 13.7 44 13.4 44.6 12.9ZM43.9 8.59999C44.3 8.99999 44.5 9.59999 44.5 10.3C44.5 11.1 44.3 11.8 43.9 12.2C43.5 12.6 42.9 12.8 42.1 12.8H41.4V8.09999C41.6 7.99999 41.9 7.99999 42.2 7.99999C42.9 7.99999 43.5 8.19999 43.9 8.59999Z" fill="white"/>
<path fill-rule="evenodd" clip-rule="evenodd" d="M50.6 13C51 12.6 51.2 12 51.2 11.3C51.2 10.6 51 10 50.6 9.60002C50.2 9.10002 49.7 8.90002 49 8.90002C48.3 8.90002 47.7 9.10002 47.3 9.60002C46.9 10 46.7 10.6 46.7 11.3C46.7 12 46.9 12.6 47.3 13C47.7 13.5 48.2 13.7 48.9 13.7C49.6 13.7 50.2 13.5 50.6 13ZM49.9 10.2C50.1 10.5 50.2 10.9 50.2 11.3C50.2 11.7 50.1 12.1 49.9 12.3C49.7 12.7 49.4 12.9 49 12.9C48.6 12.9 48.3 12.8 48.1 12.4C47.9 12.1 47.8 11.7 47.8 11.3C47.8 10.9 47.9 10.5 48.1 10.2C48.3 9.90002 48.6 9.70002 49 9.70002C49.4 9.70002 49.7 9.80002 49.9 10.2Z" fill="white"/>
<path d="M58.9 9L57.5 13.6H56.6L56 11.6C55.8 11.1 55.7 10.6 55.6 10.1C55.5 10.6 55.4 11.1 55.2 11.6L54.6 13.6H53.7L52.2 9H53.2L53.7 11.2C53.8 11.7 53.9 12.2 54 12.7C54.1 12.3 54.2 11.8 54.4 11.2L55 9H55.8L56.4 11.1C56.6 11.6 56.7 12.1 56.8 12.6C56.9 12.1 57 11.6 57.1 11.1L57.7 9H58.9Z" fill="white"/>
<path d="M64.1 13.6H63.1V11C63.1 10.2 62.8 9.79999 62.2 9.79999C61.9 9.79999 61.7 9.89999 61.5 10.1C61.3 10.3 61.2 10.6 61.2 10.9V13.6H60.2V10.3C60.2 9.89999 60.2 9.49999 60.2 8.99999H61.1V9.69999C61.2 9.49999 61.4 9.29999 61.6 9.09999C61.9 8.89999 62.2 8.79999 62.5 8.79999C62.9 8.79999 63.3 8.89999 63.6 9.19999C64 9.49999 64.1 9.99999 64.1 10.7V13.6Z" fill="white"/>
<path d="M66.9 13.6H65.9V6.90002H66.9V13.6Z" fill="white"/>
<path fill-rule="evenodd" clip-rule="evenodd" d="M72.3 13C72.7 12.6 72.9 12 72.9 11.3C72.9 10.6 72.7 10 72.3 9.60002C71.9 9.10002 71.4 8.90002 70.7 8.90002C70 8.90002 69.4 9.20002 69 9.60002C68.6 10 68.4 10.6 68.4 11.3C68.4 12 68.6 12.6 69 13C69.4 13.5 69.9 13.7 70.6 13.7C71.3 13.7 71.9 13.5 72.3 13ZM71.6 10.2C71.8 10.5 71.9 10.9 71.9 11.3C71.9 11.7 71.8 12.1 71.6 12.3C71.4 12.7 71.1 12.9 70.7 12.9C70.3 12.9 70 12.8 69.8 12.4C69.6 12.1 69.5 11.7 69.5 11.3C69.5 10.9 69.6 10.5 69.8 10.2C70 9.90002 70.3 9.70002 70.7 9.70002C71.1 9.70002 71.4 9.80002 71.6 10.2Z" fill="white"/>
<path fill-rule="evenodd" clip-rule="evenodd" d="M76.9 13.6H77.8C77.8 13.3 77.8 13 77.9 12.5V10.8C77.9 9.50002 77.3 8.90002 76.1 8.90002C75.4 8.90002 74.9 9.00002 74.5 9.30002L74.7 10C75.1 9.80002 75.4 9.70002 75.9 9.70002C76.5 9.70002 76.8 10 76.8 10.6V10.7C75.9 10.7 75.3 10.8 74.8 11.1C74.3 11.4 74.1 11.8 74.1 12.4C74.1 12.7 74.3 13 74.5 13.3C74.7 13.6 75.1 13.7 75.5 13.7C76 13.7 76.5 13.5 76.8 13.1L76.9 13.6ZM76.8 11.3V12V12.2C76.7 12.4 76.6 12.6 76.4 12.7C76.2 12.8 76 12.9 75.8 12.9C75.6 12.9 75.4 12.8 75.3 12.7C75.2 12.6 75.1 12.4 75.1 12.2C75.1 11.6 75.7 11.3 76.8 11.3Z" fill="white"/>
<path fill-rule="evenodd" clip-rule="evenodd" d="M82.7 13.6H83.6V12.4V7H82.6V9.6C82.3 9.2 81.9 9 81.3 9C80.8 9 80.3 9.2 79.9 9.6C79.5 10.1 79.3 10.7 79.3 11.4C79.3 12.1 79.4 12.7 79.8 13.1C80.2 13.5 80.6 13.7 81.2 13.7C81.9 13.7 82.4 13.5 82.7 12.9V13.6ZM82.6 10.9V11.7C82.6 12 82.5 12.3 82.3 12.7C82.1 13 81.8 13.1 81.5 13.1C81.1 13.1 80.8 12.9 80.6 12.6C80.4 12.3 80.3 12 80.3 11.5C80.3 11 80.4 10.6 80.6 10.3C80.8 10 81.1 9.8 81.5 9.8C81.8 9.8 82 9.8 82.2 10C82.4 10.2 82.5 10.4 82.6 10.6V10.9Z" fill="white"/>
<path fill-rule="evenodd" clip-rule="evenodd" d="M91.7 13C92.1 12.6 92.3 12 92.3 11.3C92.3 10.6 92.1 10 91.7 9.60002C91.3 9.10002 90.8 8.90002 90.1 8.90002C89.4 8.90002 88.8 9.10002 88.4 9.60002C88 10 87.8 10.6 87.8 11.3C87.8 12 88 12.6 88.4 13C88.8 13.5 89.3 13.7 90 13.7C90.7 13.7 91.3 13.5 91.7 13ZM90.9 10.2C91.1 10.5 91.2 10.9 91.2 11.3C91.2 11.7 91.1 12.1 90.9 12.3C90.7 12.7 90.4 12.9 90 12.9C89.6 12.9 89.3 12.8 89.1 12.4C88.9 12.1 88.8 11.7 88.8 11.3C88.8 10.9 88.9 10.5 89.1 10.2C89.3 9.90002 89.6 9.70002 90 9.70002C90.4 9.70002 90.7 9.80002 90.9 10.2Z" fill="white"/>
<path d="M97.8 13.6H96.8V11C96.8 10.2 96.5 9.79999 95.9 9.79999C95.6 9.79999 95.4 9.89999 95.2 10.1C95 10.3 94.9 10.6 94.9 10.9V13.6H93.9V10.3C93.9 9.89999 93.9 9.49999 93.9 8.99999H94.8V9.69999C94.9 9.49999 95.1 9.29999 95.3 9.09999C95.6 8.89999 95.9 8.79999 96.2 8.79999C96.6 8.79999 97 8.89999 97.3 9.19999C97.7 9.49999 97.8 9.99999 97.8 10.7V13.6Z" fill="white"/>
<path d="M104.6 9.80002H103.5V12C103.5 12.6 103.7 12.8 104.1 12.8C104.3 12.8 104.4 12.8 104.6 12.8V13.6C104.4 13.7 104.1 13.7 103.8 13.7C103.4 13.7 103.1 13.6 102.9 13.3C102.7 13.1 102.6 12.6 102.6 12.1V9.80002H101.9V9.00002H102.6V8.20002L103.6 7.90002V9.00002H104.7V9.80002H104.6Z" fill="white"/>
<path d="M110 13.6H109V11C109 10.2 108.7 9.80002 108.1 9.80002C107.6 9.80002 107.3 10 107.1 10.5C107.1 10.6 107.1 10.7 107.1 10.9V13.6H106.1V6.90002H107.1V9.70002C107.4 9.20002 107.9 8.90002 108.5 8.90002C108.9 8.90002 109.3 9.00002 109.5 9.30002C109.8 9.60002 110 10.2 110 10.8V13.6Z" fill="white"/>
<path fill-rule="evenodd" clip-rule="evenodd" d="M115.5 11.6V11.1C115.5 10.5 115.4 10 115.2 9.7C114.9 9.2 114.4 9 113.7 9C113 9 112.5 9.2 112.1 9.7C111.7 10.1 111.5 10.7 111.5 11.4C111.5 12.1 111.7 12.7 112.1 13.1C112.5 13.5 113.1 13.7 113.8 13.7C114.4 13.7 114.9 13.6 115.3 13.4L115.1 12.7C114.8 12.8 114.4 12.9 113.9 12.9C113.5 12.9 113.2 12.8 112.9 12.6C112.7 12.4 112.5 12.1 112.5 11.6H115.5ZM114.4 10C114.5 10.2 114.6 10.5 114.6 10.8H112.5C112.5 10.5 112.6 10.2 112.8 10C113 9.7 113.3 9.6 113.6 9.6C114 9.6 114.2 9.7 114.4 10Z" fill="white"/>
</svg>
