<svg width="32" height="32" viewBox="0 0 32 32" fill="none" xmlns="http://www.w3.org/2000/svg"><path d="M31.367 15.978A3.87 3.87 0 0 1 32 18.091a3.883 3.883 0 0 1-1.825 3.287 4.24 4.24 0 0 1 .462 1.927c0 1.944-1.295 3.61-3.146 4.145-.033 1.778-1.515 3.214-3.332 3.214a3.36 3.36 0 0 1-1.35-.28A3.336 3.336 0 0 1 19.936 32c-1.837 0-3.332-1.47-3.332-3.276v-4.005c0-.608.157-1.194.458-1.715a3.635 3.635 0 0 1-.458-1.771v-5.151c0-1.056.454-2.043 1.225-2.736a3.486 3.486 0 0 1-1.225-2.635v-8.37c0-1.29 1.068-2.34 2.38-2.34a2.4 2.4 0 0 1 1.867.89 3.038 3.038 0 0 1 3.617 1.579c1.64.148 2.94 1.47 3.02 3.1 1.558.275 2.744 1.617 2.744 3.226 0 .39-.071.774-.207 1.137a4.547 4.547 0 0 1 1.974 3.741c0 .817-.217 1.606-.632 2.304zm-5.043 2.641c.851.045 2.48.328 3.295 1.715a2.72 2.72 0 0 0 1.197-2.243 2.686 2.686 0 0 0-.632-1.742l-.007-.012-.013-.016a.158.158 0 0 1-.018-.022c-.271-.436-.606-.61-.87-.679a2.734 2.734 0 0 1-1.293 1.777.593.593 0 0 1-.811-.203.576.576 0 0 1 .206-.796c.493-.288.792-.817.78-1.38a1.57 1.57 0 0 0-1.106-1.459.58.58 0 0 1-.384-.73.596.596 0 0 1 .744-.376 2.742 2.742 0 0 1 1.85 1.985 2.51 2.51 0 0 1 1.277.548c.176-.414.276-.854.276-1.31a3.402 3.402 0 0 0-1.83-3.008c-.007-.004-.013-.01-.019-.015a.087.087 0 0 0-.015-.013l-.02-.01a.082.082 0 0 1-.024-.01c-.07-.053-1.577-1.122-3.47-.03.62.992.557 2.301-.263 3.223a.594.594 0 0 1-.835.055.575.575 0 0 1-.056-.821 1.549 1.549 0 0 0-.149-2.21 1.607 1.607 0 0 0-1.154-.384 1.588 1.588 0 0 0-1.092.53.599.599 0 0 1-.835.055.575.575 0 0 1-.056-.82 2.776 2.776 0 0 1 1.905-.926 2.802 2.802 0 0 1 1.69.444c1.715-1.11 3.369-.873 4.387-.416a2.08 2.08 0 0 0 .069-.524c0-.996-.708-1.828-1.653-2.05-.117.508-.373 1.197-.93 1.551a.596.596 0 0 1-.819-.173.576.576 0 0 1 .176-.804c.275-.175.437-.805.478-1.171a.535.535 0 0 0-.007-.04c-.005-.028-.01-.056-.007-.085.014-.096.022-.194.022-.293 0-1.003-.717-1.841-1.672-2.056-.054.707-.266 1.824-1.02 2.66-.535.59-1.25.928-2.11 1.032a1.874 1.874 0 0 1-2.285.92.58.58 0 0 1-.364-.74.594.594 0 0 1 .754-.358.687.687 0 0 0 .871-.415.672.672 0 0 0-.422-.857.58.58 0 0 1-.364-.741.595.595 0 0 1 .754-.358 1.844 1.844 0 0 1 1.206 1.355c.435-.1.79-.3 1.07-.608.73-.803.75-2.091.743-2.413a1.836 1.836 0 0 0-1.732-1.23c-.21 0-.413.047-.608.115-.13.547-.468 1.574-1.255 2.032a.593.593 0 0 1-.81-.203.576.576 0 0 1 .207-.797c.363-.211.612-.868.717-1.342a1.195 1.195 0 0 0-1.005-.563c-.66 0-1.197.528-1.197 1.177v8.37c0 .786.414 1.52 1.074 1.945.82-.41 2.288-.684 3.651.457a.576.576 0 0 1 .067.82.597.597 0 0 1-.834.067 2.068 2.068 0 0 0-2.535-.197.044.044 0 0 1-.012.006c-.004 0-.008.002-.012.004l-.016.013-.022.015a2.538 2.538 0 0 0-1.361 2.24v5.153c0 .509.154.997.44 1.417.14.138.901.818 2.257.818.043 0 .086 0 .13-.002h.02c.318 0 .58.248.59.563a.585.585 0 0 1-.571.6 4.607 4.607 0 0 1-2.708-.73c-.1.26-.158.536-.158.822v4.004c0 1.165.964 2.113 2.148 2.113a2.14 2.14 0 0 0 2.042-1.455.063.063 0 0 1 .014-.024.095.095 0 0 0 .013-.02l.011-.026c.016-.038.031-.075.058-.108.074-.096.6-.858-.14-1.942a1.967 1.967 0 0 1-2.363-.633.576.576 0 0 1 .133-.813.598.598 0 0 1 .827.13c.25.34.735.417 1.08.171a.753.753 0 0 0 .173-1.06.576.576 0 0 1 .133-.813.598.598 0 0 1 .827.13 1.9 1.9 0 0 1 .089 2.12c.81 1.109.764 2.147.501 2.838.26.107.538.169.826.169 1.185 0 2.149-.948 2.149-2.113 0-.104-.008-.207-.024-.307a.15.15 0 0 1 .001-.043.155.155 0 0 0 .003-.031c0-.01-.002-.02-.004-.03a.139.139 0 0 1-.003-.043c.108-1.02-.655-1.762-.663-1.77a.576.576 0 0 1-.022-.823.6.6 0 0 1 .837-.021c.04.037.8.777.99 1.916 1.206-.468 2.03-1.609 2.03-2.931 0-.656-.203-1.285-.588-1.82l-.002-.006a.568.568 0 0 1-.078-.153c-.387-1.199-1.667-1.475-2.396-1.535-.204 1.63-1.619 2.898-3.33 2.898-1.853 0-3.36-1.482-3.36-3.304 0-.561.153-1.107.425-1.593a2.376 2.376 0 0 1-1.308-1.342.579.579 0 0 1 .347-.748.594.594 0 0 1 .761.341c.236.622.942.94 1.576.708a1.2 1.2 0 0 0 .72-1.549.58.58 0 0 1 .347-.749.598.598 0 0 1 .762.342c.463 1.223-.172 2.589-1.416 3.046a2.431 2.431 0 0 1-.487.118c-.004.004-.006.01-.008.014a.066.066 0 0 1-.009.015 2.122 2.122 0 0 0-.526 1.396c0 1.18.976 2.14 2.175 2.14 1.2 0 2.176-.96 2.176-2.14 0-.642-.29-1.244-.794-1.653a.574.574 0 0 1-.08-.819.598.598 0 0 1 .832-.079 3.287 3.287 0 0 1 1.133 1.784zM15.396 2.34v8.371c0 1.019-.462 1.98-1.225 2.634a3.677 3.677 0 0 1 1.225 2.736v5.151a3.64 3.64 0 0 1-.458 1.772c.3.52.458 1.107.458 1.715v4.005C15.396 30.53 13.9 32 12.064 32a3.336 3.336 0 0 1-2.874-1.615 3.36 3.36 0 0 1-1.35.28c-1.816 0-3.298-1.436-3.332-3.214-1.85-.535-3.145-2.202-3.145-4.145 0-.677.159-1.332.462-1.928A3.884 3.884 0 0 1 0 18.09c0-.75.223-1.486.633-2.113A4.485 4.485 0 0 1 0 13.674c0-1.502.745-2.89 1.975-3.741a3.229 3.229 0 0 1-.208-1.137c0-1.61 1.187-2.951 2.745-3.225.08-1.631 1.38-2.953 3.02-3.102A3.038 3.038 0 0 1 11.148.89 2.402 2.402 0 0 1 13.015 0c1.313 0 2.38 1.05 2.38 2.34zm-1.184 8.371v-8.37c0-.65-.536-1.177-1.197-1.177-.414 0-.787.221-1.004.563.105.474.354 1.13.717 1.341.281.164.374.52.207.797a.594.594 0 0 1-.81.204c-.787-.458-1.126-1.486-1.255-2.032a1.852 1.852 0 0 0-.608-.115c-.784 0-1.485.503-1.732 1.23-.007.322.013 1.61.743 2.413a2 2 0 0 0 1.07.608 1.844 1.844 0 0 1 1.206-1.355.595.595 0 0 1 .754.358.58.58 0 0 1-.364.74.672.672 0 0 0-.422.858.686.686 0 0 0 .871.415.594.594 0 0 1 .754.358.58.58 0 0 1-.364.74 1.874 1.874 0 0 1-2.285-.92c-.86-.105-1.574-.442-2.108-1.032-.755-.836-.967-1.953-1.021-2.66-.955.215-1.672 1.053-1.672 2.056 0 .1.008.197.021.293a.269.269 0 0 1-.006.085l-.007.04c.041.366.203.996.478 1.17a.576.576 0 0 1 .176.805.594.594 0 0 1-.819.173c-.557-.354-.814-1.043-.931-1.55-.945.22-1.653 1.053-1.653 2.05 0 .177.025.353.07.523 1.018-.457 2.67-.694 4.386.416.5-.32 1.085-.482 1.69-.444.74.048 1.416.376 1.904.925a.575.575 0 0 1-.056.821.599.599 0 0 1-.835-.055 1.59 1.59 0 0 0-1.091-.53 1.605 1.605 0 0 0-1.155.385 1.549 1.549 0 0 0-.148 2.209.575.575 0 0 1-.056.82.594.594 0 0 1-.835-.055 2.688 2.688 0 0 1-.263-3.222c-1.894-1.092-3.4-.023-3.47.029a.095.095 0 0 1-.024.011.114.114 0 0 0-.02.01c-.006.003-.01.008-.016.012a.08.08 0 0 1-.019.015 3.402 3.402 0 0 0-1.83 3.007c0 .456.101.897.277 1.31a2.512 2.512 0 0 1 1.276-.548 2.743 2.743 0 0 1 1.85-1.985.596.596 0 0 1 .744.377.579.579 0 0 1-.383.73 1.572 1.572 0 0 0-1.106 1.462 1.564 1.564 0 0 0 .78 1.379.576.576 0 0 1 .206.797.593.593 0 0 1-.81.202 2.735 2.735 0 0 1-1.293-1.777c-.265.07-.6.242-.87.679l-.018.022a.203.203 0 0 0-.014.016.064.064 0 0 0-.007.012 2.685 2.685 0 0 0-.632 1.742c0 .91.459 1.737 1.197 2.243.814-1.387 2.443-1.67 3.295-1.715a3.287 3.287 0 0 1 1.133-1.784.598.598 0 0 1 .833.08.574.574 0 0 1-.08.818 2.122 2.122 0 0 0-.795 1.653c0 1.18.976 2.14 2.175 2.14 1.2 0 2.176-.96 2.176-2.14 0-.512-.188-1.008-.527-1.396-.004-.004-.006-.01-.008-.015a.068.068 0 0 0-.008-.014 2.43 2.43 0 0 1-.488-.118c-1.244-.457-1.879-1.822-1.415-3.046a.598.598 0 0 1 .761-.342.58.58 0 0 1 .348.75 1.2 1.2 0 0 0 .72 1.547 1.233 1.233 0 0 0 1.575-.707.595.595 0 0 1 .761-.342.578.578 0 0 1 .348.748 2.374 2.374 0 0 1-1.308 1.342c.272.486.424 1.032.424 1.593 0 1.822-1.507 3.304-3.36 3.304-1.711 0-3.126-1.267-3.33-2.898-.73.06-2.01.336-2.396 1.535a.568.568 0 0 1-.078.153 3.1 3.1 0 0 0-.59 1.826c0 1.322.825 2.463 2.03 2.93a3.7 3.7 0 0 1 .99-1.915.6.6 0 0 1 .837.021.575.575 0 0 1-.022.823c-.009.007-.77.75-.663 1.77a.142.142 0 0 1-.003.042l-.004.03c0 .01.001.021.003.031.001.014.003.028 0 .043-.015.1-.023.203-.023.308 0 1.165.964 2.112 2.15 2.112.287 0 .565-.061.825-.168-.263-.691-.31-1.73.501-2.839a1.9 1.9 0 0 1 .09-2.12.599.599 0 0 1 .826-.13.576.576 0 0 1 .133.812.753.753 0 0 0 .174 1.06c.344.246.83.17 1.08-.17a.599.599 0 0 1 .826-.13.575.575 0 0 1 .133.812 1.967 1.967 0 0 1-2.363.633c-.74 1.085-.214 1.846-.14 1.942.027.034.042.071.058.108l.01.027.014.02a.082.082 0 0 1 .014.024 2.14 2.14 0 0 0 2.042 1.454c1.184 0 2.148-.948 2.148-2.112V24.72c0-.285-.057-.56-.158-.821a4.607 4.607 0 0 1-2.708.73.585.585 0 0 1-.572-.6.587.587 0 0 1 .59-.564h.02c.044.002.087.002.13.002 1.356 0 2.117-.68 2.257-.817a2.5 2.5 0 0 0 .44-1.417v-5.151c0-.937-.521-1.796-1.36-2.24a.136.136 0 0 1-.024-.017l-.015-.011c-.003-.003-.008-.004-.012-.006a2.067 2.067 0 0 0-2.546.191.596.596 0 0 1-.834-.065.576.576 0 0 1 .067-.82c1.363-1.142 2.83-.868 3.65-.458a2.328 2.328 0 0 0 1.075-1.945z" fill-rule="evenodd" clip-rule="evenodd" fill="#fff"/></svg>