<svg width="126" height="140" viewBox="0 0 126 140" fill="none" xmlns="http://www.w3.org/2000/svg"><path opacity=".051" fill-rule="evenodd" clip-rule="evenodd" d="M63 17l45.899 26.5v53L63 123 17.1 96.5v-53L63 17z" fill="#1A65FD" stroke="#1A65FD" stroke-width="34" stroke-linejoin="round"/><g fill="#0062FF"><path d="M63 51.13a1.22 1.22 0 0 0 1.217-1.217v-.609A1.22 1.22 0 0 0 63 48.087a1.22 1.22 0 0 0-1.217 1.217v.609c0 .67.547 1.217 1.217 1.217zm0 37.74a1.22 1.22 0 0 0-1.217 1.217v.609c0 .67.547 1.217 1.217 1.217s1.217-.548 1.217-1.217v-.61A1.22 1.22 0 0 0 63 88.87zM42.913 68.783h-.609A1.22 1.22 0 0 0 41.087 70c0 .67.548 1.217 1.217 1.217h.61c.669 0 1.216-.547 1.216-1.217s-.547-1.217-1.217-1.217zm40.783 0h-.609A1.22 1.22 0 0 0 81.87 70c0 .67.547 1.217 1.217 1.217h.609A1.22 1.22 0 0 0 84.913 70a1.22 1.22 0 0 0-1.217-1.217zM49.243 54.54a1.177 1.177 0 0 0-1.704 0 1.177 1.177 0 0 0 0 1.703l.426.427c.244.243.548.365.852.365a1.2 1.2 0 0 0 .852-.365 1.177 1.177 0 0 0 0-1.705l-.425-.426zm-1.278 28.79l-.426.427a1.177 1.177 0 0 0 0 1.704c.244.243.548.365.852.365.305 0 .609-.122.852-.365l.426-.426a1.177 1.177 0 0 0 0-1.705 1.177 1.177 0 0 0-1.704 0zm28.792-28.79l-.427.425a1.177 1.177 0 0 0 0 1.705c.244.243.548.365.853.365.304 0 .608-.122.852-.365l.426-.427a1.177 1.177 0 0 0 0-1.704 1.177 1.177 0 0 0-1.704 0zm-12.54 14.973V58.435A1.22 1.22 0 0 0 63 57.217a1.22 1.22 0 0 0-1.217 1.218V70c0 .304.121.609.365.852l13.33 13.33c.244.244.548.366.852.366.305 0 .61-.122.853-.365a1.177 1.177 0 0 0 0-1.705L64.217 69.513z"/><path fill-rule="evenodd" clip-rule="evenodd" d="M35 70c0-15.46 12.54-28 28-28s28 12.54 28 28-12.54 28-28 28-28-12.54-28-28zm2.435 0c0 14.122 11.443 25.565 25.565 25.565 14.122 0 25.565-11.443 25.565-25.565 0-14.122-11.443-25.565-25.565-25.565-14.122 0-25.565 11.443-25.565 25.565z"/></g></svg>