<svg width="19" height="32" viewBox="0 0 19 32" fill="none" xmlns="http://www.w3.org/2000/svg"><path fill-rule="evenodd" clip-rule="evenodd" d="M15.644 12.8a2.4 2.4 0 0 0-1.195.325 2.402 2.402 0 0 0-3.25-.813 2.39 2.39 0 0 0-2.869-.988v-.813a4.876 4.876 0 1 0-4.876 0v4.064a2.41 2.41 0 0 0-.813-.15 2.438 2.438 0 0 0-2.438 2.438v5.69a8.94 8.94 0 1 0 17.88 0v-7.315a2.438 2.438 0 0 0-2.439-2.438zM2.641 6.298a3.25 3.25 0 1 1 5.69 2.148V7.111a2.45 2.45 0 0 0-2.439-2.438 2.438 2.438 0 0 0-2.438 2.438v1.335a3.25 3.25 0 0 1-.813-2.148zm6.502 23.569a7.314 7.314 0 0 0 7.314-7.315v-7.314a.813.813 0 1 0-1.625 0v2.438a.813.813 0 1 1-1.626 0v-3.25a.813.813 0 1 0-1.625 0v2.437a.813.813 0 1 1-1.625 0v-3.25a.813.813 0 1 0-1.626 0v2.438a.813.813 0 0 1-1.625 0V7.11a.784.784 0 0 0-.234-.564.795.795 0 0 0-.579-.249.813.813 0 0 0-.813.813V19.3a.813.813 0 1 1-1.625 0v-2.438a.813.813 0 0 0-1.625 0v5.69a7.314 7.314 0 0 0 7.314 7.314z" fill="#fff"/><path d="M14.449 13.125l-.17.105.102.166.168-.098-.1-.173zm1.195-.325v-.2.2zm-4.446-.488l-.17.105.102.167.169-.099-.1-.173zm-2.868-.988h-.2v.288l.27-.1-.07-.188zm0-.813l-.1-.173-.1.058v.115h.2zM3.454 2.066l.1.173-.1-.173zm-1.785 6.66l-.173.1.173-.1zm1.785 1.785h.2v-.115l-.1-.058-.1.174zm0 4.064l-.07.188.27.1v-.288h-.2zm-.813-.15l.002-.2h-.002v.2zM5.89 3.045v-.2.2zM2.64 6.298h.2-.2zm6.502-.004h.2-.2zM8.33 8.446h-.2v.53l.35-.397-.15-.133zm0-1.335h.2-.2zM5.892 4.673l.001-.2h-.001v.2zM3.454 8.446l-.15.133.35.397v-.53h-.2zm3.25-1.335l-.2-.001v.001h.2zm-.233-.564l-.145.138.005.004.14-.142zm-.579-.249v.2-.2zm8.657 7A2.212 2.212 0 0 1 15.646 13l-.003-.4a2.612 2.612 0 0 0-1.294.352l.2.346zm-3.25-.813a2.202 2.202 0 0 1 2.98.745l.34-.21a2.601 2.601 0 0 0-3.521-.88l.2.345zm-2.9-.973a2.19 2.19 0 0 1 2.629.905l.34-.21a2.59 2.59 0 0 0-3.108-1.07l.14.375zm-.269-1v.812h.4v-.813h-.4zM9.942 3.95a4.676 4.676 0 0 1-1.712 6.387l.2.347a5.076 5.076 0 0 0 1.858-6.934l-.346.2zM3.554 2.239A4.676 4.676 0 0 1 9.942 3.95l.346-.2a5.076 5.076 0 0 0-6.934-1.858l.2.346zM1.842 8.627a4.676 4.676 0 0 1 1.712-6.388l-.2-.346a5.076 5.076 0 0 0-1.858 6.934l.346-.2zm1.712 1.711c-.711-.41-1.301-1-1.712-1.711l-.346.2a5.076 5.076 0 0 0 1.858 1.858l.2-.347zm.1 4.237v-4.063h-.4v4.063h.4zm-1.015.05c.255.003.507.05.746.138l.138-.376a2.609 2.609 0 0 0-.88-.162l-.004.4zM.403 16.863a2.238 2.238 0 0 1 2.238-2.237v-.4a2.638 2.638 0 0 0-2.638 2.637h.4zm0 5.69v-5.69h-.4v5.69h.4zm8.74 8.74a8.74 8.74 0 0 1-8.74-8.74h-.4a9.14 9.14 0 0 0 9.14 9.14v-.4zm8.74-8.74a8.74 8.74 0 0 1-8.74 8.74v.4a9.14 9.14 0 0 0 9.14-9.14h-.4zm0-7.315v7.314h.4v-7.314h-.4zM15.643 13a2.238 2.238 0 0 1 2.239 2.238h.4a2.638 2.638 0 0 0-2.639-2.638v.4zM5.89 2.845A3.45 3.45 0 0 0 2.44 6.3h.4a3.05 3.05 0 0 1 3.05-3.056v-.4zm3.453 3.449A3.45 3.45 0 0 0 5.89 2.845v.4a3.05 3.05 0 0 1 3.053 3.05l.4-.001zM8.48 8.579a3.451 3.451 0 0 0 .863-2.285h-.4c0 .744-.27 1.462-.763 2.02l.3.265zM8.13 7.11v1.335h.4V7.111h-.4zM5.891 4.873a2.25 2.25 0 0 1 2.24 2.24l.4-.003a2.65 2.65 0 0 0-2.638-2.637l-.002.4zM3.654 7.111a2.238 2.238 0 0 1 2.238-2.238v-.4a2.638 2.638 0 0 0-2.638 2.638h.4zm0 1.335V7.111h-.4v1.335h.4zM2.44 6.3c0 .84.308 1.65.863 2.28l.3-.265a3.05 3.05 0 0 1-.763-2.016h-.4zm13.816 16.253a7.114 7.114 0 0 1-7.114 7.115v.4a7.514 7.514 0 0 0 7.514-7.515h-.4zm0-7.314v7.314h.4v-7.314h-.4zm-.613-.612c.339 0 .613.274.613.612h.4c0-.56-.453-1.012-1.013-1.012v.4zm-.612.612c0-.338.274-.612.612-.612v-.4c-.559 0-1.012.453-1.012 1.012h.4zm0 2.438v-2.438h-.4v2.438h.4zm-1.013 1.013c.56 0 1.013-.454 1.013-1.013h-.4a.613.613 0 0 1-.613.613v.4zm-1.013-1.013c0 .56.454 1.013 1.013 1.013v-.4a.613.613 0 0 1-.613-.613h-.4zm0-3.25v3.25h.4v-3.25h-.4zm-.612-.613c.338 0 .612.274.612.612h.4c0-.559-.453-1.012-1.012-1.012v.4zm-.613.612c0-.338.274-.612.613-.612v-.4c-.56 0-1.013.453-1.013 1.012h.4zm0 2.438v-2.438h-.4v2.438h.4zm-1.013 1.013c.56 0 1.013-.453 1.013-1.013h-.4a.613.613 0 0 1-.613.613v.4zm-1.012-1.013c0 .56.453 1.013 1.012 1.013v-.4a.613.613 0 0 1-.613-.613h-.4zm0-3.25v3.25h.4v-3.25h-.4zM9.143 13c.338 0 .613.274.613.613h.4c0-.56-.454-1.013-1.013-1.013v.4zm-.613.613c0-.339.274-.613.613-.613v-.4c-.56 0-1.013.454-1.013 1.013h.4zm0 2.438v-2.438h-.4v2.438h.4zm-1.013 1.013c.56 0 1.013-.454 1.013-1.013h-.4a.613.613 0 0 1-.613.613v.4zM6.505 16.05c0 .56.453 1.013 1.012 1.013v-.4a.613.613 0 0 1-.612-.613h-.4zm0-8.94v8.94h.4V7.11h-.4zm-.175-.42a.588.588 0 0 1 .174.42l.4.004a.984.984 0 0 0-.293-.708l-.281.284zm-.439-.19c.165 0 .322.066.434.186l.29-.275a.995.995 0 0 0-.724-.312v.4zm-.613.612c0-.338.275-.613.613-.613v-.4c-.56 0-1.013.454-1.013 1.013h.4zm0 12.19V7.112h-.4v12.19h.4zm-1.012 1.013c.559 0 1.012-.453 1.012-1.012h-.4a.613.613 0 0 1-.612.612v.4zm-1.013-1.012c0 .559.453 1.012 1.013 1.012v-.4a.613.613 0 0 1-.613-.612h-.4zm0-2.439v2.439h.4v-2.439h-.4zm-.613-.612c.339 0 .613.274.613.612h.4c0-.559-.454-1.012-1.013-1.012v.4zm-.612.612c0-.338.274-.612.612-.612v-.4c-.559 0-1.012.453-1.012 1.012h.4zm0 5.69v-5.69h-.4v5.69h.4zm7.114 7.114a7.114 7.114 0 0 1-7.114-7.115h-.4a7.514 7.514 0 0 0 7.514 7.515v-.4z" fill="#232332"/></svg>