<svg width="129" height="41" viewBox="0 0 129 41" fill="none" xmlns="http://www.w3.org/2000/svg"><path d="M124.5 40.5H4.5c-2.2 0-4-1.8-4-4v-32c0-2.2 1.8-4 4-4h120c2.2 0 4 1.8 4 4v32c0 2.2-1.8 4-4 4z" fill="#000"/><path fill-rule="evenodd" clip-rule="evenodd" d="M10.3 20.1V9.6c0-.6.5-1.1 1-1.1s.7.1 1 .3l19.3 10.6c.4.2.6.5.6.8 0 .3-.2.6-.6.8L12.3 31.6c-.2.1-.5.3-1 .3s-1-.5-1-1.1V20.1z" fill="url(#a)"/><path fill-rule="evenodd" clip-rule="evenodd" d="M22.8 20.2L11.1 8.5h.2c.5 0 .7.1 1 .3l14.2 7.8-3.7 3.6z" fill="url(#b)"/><path fill-rule="evenodd" clip-rule="evenodd" d="M26.4 23.7l-3.6-3.6 3.7-3.7 5.1 2.8c.4.2.6.5.6.8 0 .3-.2.6-.6.8l-5.2 2.9z" fill="url(#c)"/><path fill-rule="evenodd" clip-rule="evenodd" d="M11.2 31.7l11.6-11.6 3.6 3.6-14.1 7.7c-.3.2-.5.3-1.1.3.1 0 .1 0 0 0z" fill="url(#d)"/><path fill-rule="evenodd" clip-rule="evenodd" d="M71.6 34.4c-.5-.4-.9-1.1-1.1-1.5l1.6-.7c.1.2.3.5.5.8.4.4 1 .8 1.6.8.6 0 1.3-.3 1.7-.8.3-.5.5-1 .5-1.7v-.6c-1.2 1.5-3.7 1.3-5.1-.3-1.5-1.6-1.5-4.3 0-5.9 1.5-1.5 3.7-1.7 5-.3v-.7H78V31c0 1.9-.7 3-1.6 3.7-.6.5-1.5.7-2.3.7-.9-.1-1.8-.4-2.5-1zm41.9.4l1.7-4-3-6.9h1.7l2.1 4.9 2.1-4.9h1.7l-4.6 10.9h-1.7zm-8.1-3.8c-.5-.5-.7-1.2-.7-1.9 0-.6.2-1.2.6-1.6.7-.7 1.7-1 2.8-1 .7 0 1.3.1 1.8.4 0-1.2-1-1.7-1.8-1.7-.7 0-1.4.4-1.7 1.1l-1.5-.6c.3-.7 1.1-2 3.1-2 1 0 2 .3 2.6 1 .6.7.8 1.5.8 2.6v4.2h-1.7v-.7c-.2.3-.6.5-.9.7-.4.2-.9.3-1.4.3-.6-.1-1.5-.3-2-.8zm-53.3-3.6c0-2 1.5-4.2 4.2-4.2 2.6 0 4.2 2.2 4.2 4.2s-1.5 4.2-4.2 4.2-4.2-2.2-4.2-4.2zm9 0c0-2 1.5-4.2 4.2-4.2 2.6 0 4.2 2.2 4.2 4.2s-1.5 4.2-4.2 4.2c-2.6 0-4.2-2.2-4.2-4.2zm-20.3 2.2c-2.5-2.5-2.4-6.6.1-9.2 1.3-1.3 2.9-1.9 4.6-1.9 1.6 0 3.2.6 4.4 1.8l-1.2 1.3c-1.8-1.8-4.7-1.7-6.4.1-1.8 1.9-1.8 4.8 0 6.7 1.8 1.9 4.8 2 6.6.1.6-.6.8-1.4.9-2.2h-4.2v-1.8h5.9c.1.4.1.9.1 1.4 0 1.5-.6 3-1.6 4-1.1 1.1-2.7 1.7-4.3 1.7-1.8-.1-3.6-.7-4.9-2zm42.3.7c-1.5-1.6-1.5-4.3 0-6 1.5-1.6 4-1.6 5.4 0 .5.5.8 1.2 1.1 1.9l-5.5 2.3c.3.7 1 1.3 2 1.3.9 0 1.5-.3 2.1-1.2l1.5 1c-.2.2-.4.4-.5.6-1.7 1.7-4.6 1.7-6.1.1zm10.4 1.2V20.4h3.6c2.1 0 3.8 1.5 3.8 3.3 0 1.8-1.5 3.3-3.4 3.3h-2.2v4.4h-1.8v.1zm8.4 0V20.4h1.7v11.1h-1.7zm-22.6-.2V18.9h1.8v12.4h-1.8zm30.5-3.1c-.4-.3-1-.4-1.6-.4-1.2 0-1.9.6-1.9 1.3 0 .7.7 1.1 1.4 1.1 1 0 2.1-.8 2.1-2zm-51.2-.8c0-1.2-.8-2.5-2.3-2.5-1.5 0-2.3 1.3-2.3 2.5s.8 2.5 2.3 2.5c1.4 0 2.3-1.3 2.3-2.5zm9 0c0-1.2-.8-2.5-2.3-2.5-1.5 0-2.3 1.3-2.3 2.5s.8 2.5 2.3 2.5c1.5 0 2.3-1.3 2.3-2.5zm8.9.7c0-.1 0-.2.1-.3v-.9c0-.1-.1-.3-.1-.4-.3-1-1.2-1.7-2.1-1.7-1.2 0-2.2 1.2-2.2 2.5 0 1.4 1 2.5 2.3 2.5.8.1 1.6-.6 2-1.7zm7.3-.9l3.7-1.6c-.4-.7-1-.9-1.5-.9-1.5.1-2.4 1.7-2.2 2.5zm15.3-3.4c0-1-.8-1.7-1.9-1.7h-2v3.5h2.1c1 0 1.8-.8 1.8-1.8z" fill="#fff"/><path fill-rule="evenodd" clip-rule="evenodd" d="M114.8 32.8h-.1v-.1h.1-.1v.1h.1zm.3-.1h-.1.1v.1-.1z" fill="#fff"/><path d="M39.4 10.6c0-1.8 1.3-2.9 2.9-2.9 1.1 0 1.8.5 2.3 1.2l-.8.5c-.3-.4-.8-.7-1.5-.7-1.1 0-1.9.8-1.9 2s.8 2 1.9 2c.6 0 1.1-.3 1.3-.5v-.9H42v-.9h2.7v2.1c-.5.6-1.3 1-2.3 1-1.7 0-3-1.2-3-2.9zm6.5 2.8V7.8h3.8v.9h-2.9v1.4h2.8v.9h-2.8v1.6h2.9v.9l-3.8-.1zm6.6 0V8.7h-1.7v-.9h4.4v.9h-1.7v4.7h-1zm6.1 0V7.8h1v5.6h-1zm3.7 0V8.7h-1.7v-.9H65v.9h-1.7v4.7h-1z" fill="#fff"/><path fill-rule="evenodd" clip-rule="evenodd" d="M71.1 7.7c-1.7 0-2.9 1.2-2.9 2.9 0 1.6 1.2 2.9 2.9 2.9s2.9-1.2 2.9-2.9-1.2-2.9-2.9-2.9zm-.1.9c1.2 0 1.9.8 1.9 2 0 1.1-.7 2-1.9 2s-1.9-.8-1.9-2c0-1.1.8-2 1.9-2z" fill="#fff"/><path d="M79 13.4l-2.9-4v4h-1V7.8h1l2.9 3.9V7.8h1v5.6h-1z" fill="#fff"/><defs><linearGradient id="a" x1="6.009" y1="10.064" x2="12.343" y2="32.851" gradientUnits="userSpaceOnUse"><stop stop-color="#006884"/><stop offset="1" stop-color="#8AD1D0"/></linearGradient><linearGradient id="b" x1="4.513" y1="16.139" x2="16.755" y2="27.605" gradientUnits="userSpaceOnUse"><stop stop-color="#24BBB6"/><stop offset="1" stop-color="#DBE692"/></linearGradient><linearGradient id="c" x1="32.612" y1="24.12" x2="32.612" y2="16.172" gradientUnits="userSpaceOnUse"><stop stop-color="#FCC072"/><stop offset="1" stop-color="#F58A5B"/></linearGradient><linearGradient id="d" x1="20.93" y1="38.368" x2="29.191" y2="23.933" gradientUnits="userSpaceOnUse"><stop stop-color="#712B8F"/><stop offset="1" stop-color="#EA1D27"/></linearGradient></defs></svg>