<svg width="129" height="41" viewBox="0 0 129 41" fill="none" xmlns="http://www.w3.org/2000/svg">
<g id="google-play-badge">
<path id="Path" opacity="0.198289" d="M124.5 40.5H4.5C2.3 40.5 0.5 38.7 0.5 36.5V4.5C0.5 2.3 2.3 0.5 4.5 0.5H124.5C126.7 0.5 128.5 2.3 128.5 4.5V36.5C128.5 38.7 126.7 40.5 124.5 40.5Z" fill="white"/>
<path id="Path_2" fill-rule="evenodd" clip-rule="evenodd" d="M10.3 20.1V9.6C10.3 9 10.8 8.5 11.3 8.5C11.8 8.5 12 8.6 12.3 8.8L31.6 19.4C32 19.6 32.2 19.9 32.2 20.2C32.2 20.5 32 20.8 31.6 21L12.3 31.6C12.1 31.7 11.8 31.9 11.3 31.9C10.8 31.9 10.3 31.4 10.3 30.8V20.1Z" fill="url(#paint0_linear)"/>
<path id="Path_3" fill-rule="evenodd" clip-rule="evenodd" d="M22.8 20.2L11.1 8.5C11.2 8.5 11.2 8.5 11.3 8.5C11.8 8.5 12 8.6 12.3 8.8L26.5 16.6L22.8 20.2Z" fill="url(#paint1_linear)"/>
<path id="Path_4" fill-rule="evenodd" clip-rule="evenodd" d="M26.4 23.7L22.8 20.1L26.5 16.4L31.6 19.2C32 19.4 32.2 19.7 32.2 20C32.2 20.3 32 20.6 31.6 20.8L26.4 23.7Z" fill="url(#paint2_linear)"/>
<path id="Path_5" fill-rule="evenodd" clip-rule="evenodd" d="M11.2 31.7L22.8 20.1L26.4 23.7L12.3 31.4C12 31.6 11.8 31.7 11.2 31.7C11.3 31.7 11.3 31.7 11.2 31.7Z" fill="url(#paint3_linear)"/>
<path id="Shape" fill-rule="evenodd" clip-rule="evenodd" d="M71.6 34.4C71.1 34 70.7 33.3 70.5 32.9L72.1 32.2C72.2 32.4 72.4 32.7 72.6 33C73 33.4 73.6 33.8 74.2 33.8C74.8 33.8 75.5 33.5 75.9 33C76.2 32.5 76.4 32 76.4 31.3V30.7C75.2 32.2 72.7 32 71.3 30.4C69.8 28.8 69.8 26.1 71.3 24.5C72.8 23 75 22.8 76.3 24.2V23.5H78V31C78 32.9 77.3 34 76.4 34.7C75.8 35.2 74.9 35.4 74.1 35.4C73.2 35.3 72.3 35 71.6 34.4ZM113.5 34.8L115.2 30.8L112.2 23.9H113.9L116 28.8L118.1 23.9H119.8L115.2 34.8H113.5ZM105.4 31C104.9 30.5 104.7 29.8 104.7 29.1C104.7 28.5 104.9 27.9 105.3 27.5C106 26.8 107 26.5 108.1 26.5C108.8 26.5 109.4 26.6 109.9 26.9C109.9 25.7 108.9 25.2 108.1 25.2C107.4 25.2 106.7 25.6 106.4 26.3L104.9 25.7C105.2 25 106 23.7 108 23.7C109 23.7 110 24 110.6 24.7C111.2 25.4 111.4 26.2 111.4 27.3V31.5H109.7V30.8C109.5 31.1 109.1 31.3 108.8 31.5C108.4 31.7 107.9 31.8 107.4 31.8C106.8 31.7 105.9 31.5 105.4 31ZM52.1 27.4C52.1 25.4 53.6 23.2 56.3 23.2C58.9 23.2 60.5 25.4 60.5 27.4C60.5 29.4 59 31.6 56.3 31.6C53.6 31.6 52.1 29.4 52.1 27.4ZM61.1 27.4C61.1 25.4 62.6 23.2 65.3 23.2C67.9 23.2 69.5 25.4 69.5 27.4C69.5 29.4 68 31.6 65.3 31.6C62.7 31.6 61.1 29.4 61.1 27.4ZM40.8 29.6C38.3 27.1 38.4 23 40.9 20.4C42.2 19.1 43.8 18.5 45.5 18.5C47.1 18.5 48.7 19.1 49.9 20.3L48.7 21.6C46.9 19.8 44 19.9 42.3 21.7C40.5 23.6 40.5 26.5 42.3 28.4C44.1 30.3 47.1 30.4 48.9 28.5C49.5 27.9 49.7 27.1 49.8 26.3H45.6V24.5H51.5C51.6 24.9 51.6 25.4 51.6 25.9C51.6 27.4 51 28.9 50 29.9C48.9 31 47.3 31.6 45.7 31.6C43.9 31.5 42.1 30.9 40.8 29.6ZM83.1 30.3C81.6 28.7 81.6 26 83.1 24.3C84.6 22.7 87.1 22.7 88.5 24.3C89 24.8 89.3 25.5 89.6 26.2L84.1 28.5C84.4 29.2 85.1 29.8 86.1 29.8C87 29.8 87.6 29.5 88.2 28.6L89.7 29.6C89.5 29.8 89.3 30 89.2 30.2C87.5 31.9 84.6 31.9 83.1 30.3ZM93.5 31.5V20.4H97.1C99.2 20.4 100.9 21.9 100.9 23.7C100.9 25.5 99.4 27 97.5 27H95.3V31.4H93.5V31.5ZM101.9 31.5V20.4H103.6V31.5H101.9ZM79.3 31.3V18.9H81.1V31.3H79.3ZM109.8 28.2C109.4 27.9 108.8 27.8 108.2 27.8C107 27.8 106.3 28.4 106.3 29.1C106.3 29.8 107 30.2 107.7 30.2C108.7 30.2 109.8 29.4 109.8 28.2ZM58.6 27.4C58.6 26.2 57.8 24.9 56.3 24.9C54.8 24.9 54 26.2 54 27.4C54 28.6 54.8 29.9 56.3 29.9C57.7 29.9 58.6 28.6 58.6 27.4ZM67.6 27.4C67.6 26.2 66.8 24.9 65.3 24.9C63.8 24.9 63 26.2 63 27.4C63 28.6 63.8 29.9 65.3 29.9C66.8 29.9 67.6 28.6 67.6 27.4ZM76.5 28.1C76.5 28 76.5 27.9 76.6 27.8C76.6 27.7 76.6 27.5 76.6 27.4C76.6 27.3 76.6 27.1 76.6 27V26.9C76.6 26.8 76.5 26.6 76.5 26.5C76.2 25.5 75.3 24.8 74.4 24.8C73.2 24.8 72.2 26 72.2 27.3C72.2 28.7 73.2 29.8 74.5 29.8C75.3 29.9 76.1 29.2 76.5 28.1ZM83.8 27.2L87.5 25.6C87.1 24.9 86.5 24.7 86 24.7C84.5 24.8 83.6 26.4 83.8 27.2ZM99.1 23.8C99.1 22.8 98.3 22.1 97.2 22.1H95.2V25.6H97.3C98.3 25.6 99.1 24.8 99.1 23.8Z" fill="white"/>
<path id="Path_6" fill-rule="evenodd" clip-rule="evenodd" d="M114.8 32.8H114.7V32.7H114.8H114.7V32.8H114.8Z" fill="white"/>
<path id="Path_7" fill-rule="evenodd" clip-rule="evenodd" d="M115.1 32.7H115H115.1V32.8V32.7Z" fill="white"/>
<path id="Path_8" d="M39.4 10.6C39.4 8.80001 40.7 7.70001 42.3 7.70001C43.4 7.70001 44.1 8.20001 44.6 8.90001L43.8 9.40001C43.5 9.00001 43 8.70001 42.3 8.70001C41.2 8.70001 40.4 9.50001 40.4 10.7C40.4 11.9 41.2 12.7 42.3 12.7C42.9 12.7 43.4 12.4 43.6 12.2V11.3H42V10.4H44.7V12.5C44.2 13.1 43.4 13.5 42.4 13.5C40.7 13.5 39.4 12.3 39.4 10.6Z" fill="white"/>
<path id="Path_9" d="M45.9 13.4V7.79999H49.7V8.69999H46.8V10.1H49.6V11H46.8V12.6H49.7V13.5L45.9 13.4Z" fill="white"/>
<path id="Path_10" d="M52.5 13.4V8.69999H50.8V7.79999H55.2V8.69999H53.5V13.4H52.5Z" fill="white"/>
<path id="Path_11" d="M58.6 13.4V7.79999H59.6V13.4H58.6Z" fill="white"/>
<path id="Path_12" d="M62.3 13.4V8.69999H60.6V7.79999H65V8.69999H63.3V13.4H62.3Z" fill="white"/>
<path id="Shape_2" fill-rule="evenodd" clip-rule="evenodd" d="M71.1 7.70001C69.4 7.70001 68.2 8.90001 68.2 10.6C68.2 12.2 69.4 13.5 71.1 13.5C72.8 13.5 74 12.3 74 10.6C74 8.90001 72.8 7.70001 71.1 7.70001ZM71 8.60001C72.2 8.60001 72.9 9.40001 72.9 10.6C72.9 11.7 72.2 12.6 71 12.6C69.8 12.6 69.1 11.8 69.1 10.6C69.1 9.50001 69.9 8.60001 71 8.60001Z" fill="white"/>
<path id="Path_13" d="M79 13.4L76.1 9.39999V13.4H75.1V7.79999H76.1L79 11.7V7.79999H80V13.4H79Z" fill="white"/>
</g>
<defs>
<linearGradient id="paint0_linear" x1="6.00883" y1="10.0644" x2="12.3433" y2="32.8506" gradientUnits="userSpaceOnUse">
<stop stop-color="#006884"/>
<stop offset="1" stop-color="#8AD1D0"/>
</linearGradient>
<linearGradient id="paint1_linear" x1="4.51283" y1="16.1391" x2="16.7547" y2="27.6048" gradientUnits="userSpaceOnUse">
<stop stop-color="#24BBB6"/>
<stop offset="1" stop-color="#DBE692"/>
</linearGradient>
<linearGradient id="paint2_linear" x1="32.6119" y1="24.1201" x2="32.6119" y2="16.1717" gradientUnits="userSpaceOnUse">
<stop stop-color="#FCC072"/>
<stop offset="1" stop-color="#F58A5B"/>
</linearGradient>
<linearGradient id="paint3_linear" x1="20.9305" y1="38.3678" x2="29.1911" y2="23.933" gradientUnits="userSpaceOnUse">
<stop stop-color="#712B8F"/>
<stop offset="1" stop-color="#EA1D27"/>
</linearGradient>
</defs>
</svg>
