<svg width="126" height="140" viewBox="0 0 126 140" fill="none" xmlns="http://www.w3.org/2000/svg">
<g id="Group 22">
<path id="Polygon Copy 4" opacity="0.0506882" fill-rule="evenodd" clip-rule="evenodd" d="M63 17L108.899 43.5V96.5L63 123L17.1007 96.5V43.5L63 17Z" fill="#1A65FD" stroke="#1A65FD" stroke-width="34" stroke-linejoin="round"/>
<g id="heart (3)">
<g id="Shape">
<path fill-rule="evenodd" clip-rule="evenodd" d="M60.8351 96.0085C61.4341 96.5332 62.2028 96.822 63 96.822C63.7968 96.822 64.5659 96.5332 65.1644 96.0094C67.4318 94.0266 69.6163 92.1646 71.5441 90.5223L71.5449 90.5216C77.1855 85.7145 82.0566 81.5632 85.4462 77.4729C89.2355 72.9009 91 68.5657 91 63.8297C91 59.2282 89.4226 54.9831 86.5579 51.8757C83.6591 48.7316 79.681 47 75.3564 47C72.1238 47 69.1635 48.022 66.5577 50.0373C65.2422 51.0546 64.0506 52.2996 63 53.7518C61.9498 52.2996 60.7578 51.0546 59.4427 50.0373C56.837 48.022 53.8766 47 50.644 47C46.319 47 42.3414 48.7316 39.4425 51.8757C36.5778 54.9831 35 59.2282 35 63.8297C35 68.5657 36.765 72.9009 40.5542 77.4733C43.944 81.5634 48.8159 85.7153 54.4576 90.5231L54.4675 90.5317C56.3918 92.1714 58.5729 94.0304 60.8351 96.0085ZM41.8539 54.0991C44.1247 51.6365 47.2462 50.2804 50.644 50.2804C53.1328 50.2804 55.4181 51.0717 57.436 52.632C59.2347 54.0231 60.4874 55.7816 61.2214 57.0121C61.5991 57.6448 62.2639 58.0225 63 58.0225C63.7361 58.0225 64.4009 57.6448 64.7786 57.0121C65.5131 55.7816 66.7657 54.0231 68.564 52.632C70.5819 51.0717 72.8672 50.2804 75.3564 50.2804C78.7538 50.2804 81.8757 51.6365 84.1461 54.0991C86.4507 56.5989 87.72 60.0545 87.72 63.8297C87.72 67.8129 86.2396 71.3752 82.9208 75.3802C79.7155 79.248 74.9497 83.3099 69.4314 88.0131L69.4164 88.0259C67.481 89.6746 65.2879 91.5438 62.9953 93.5403C60.7164 91.5477 58.5267 89.6815 56.5952 88.0353L56.5849 88.0267L56.5816 88.024C51.0579 83.3165 46.2872 79.2508 43.0797 75.3802C39.7604 71.3752 38.28 67.8129 38.28 63.8297C38.28 60.0545 39.5493 56.5989 41.8539 54.0991Z" fill="#0054FF"/>
<path d="M60.8351 96.0085L61.1646 95.6324L61.1643 95.6321L60.8351 96.0085ZM65.1644 96.0094L64.8353 95.633L64.8352 95.6331L65.1644 96.0094ZM71.5441 90.5223L71.8683 90.9029L71.8695 90.9019L71.5441 90.5223ZM71.5449 90.5216L71.2206 90.141L71.2195 90.142L71.5449 90.5216ZM85.4462 77.4729L85.0613 77.1538L85.0612 77.1539L85.4462 77.4729ZM86.5579 51.8757L86.9255 51.5368L86.9255 51.5368L86.5579 51.8757ZM66.5577 50.0373L66.8635 50.4328L66.8636 50.4328L66.5577 50.0373ZM63 53.7518L62.5948 54.0448L62.9999 54.6049L63.4051 54.0448L63 53.7518ZM59.4427 50.0373L59.7487 49.6418L59.7486 49.6418L59.4427 50.0373ZM39.4425 51.8757L39.0749 51.5368L39.0749 51.5368L39.4425 51.8757ZM40.5542 77.4733L40.1692 77.7924L40.1692 77.7924L40.5542 77.4733ZM54.4576 90.5231L54.7857 90.1458L54.7819 90.1426L54.4576 90.5231ZM54.4675 90.5317L54.1394 90.909L54.1432 90.9122L54.4675 90.5317ZM41.8539 54.0991L41.4863 53.7602L41.4863 53.7602L41.8539 54.0991ZM57.436 52.632L57.7419 52.2364L57.7418 52.2364L57.436 52.632ZM61.2214 57.0121L60.792 57.2682L60.792 57.2684L61.2214 57.0121ZM64.7786 57.0121L65.208 57.2684L65.208 57.2683L64.7786 57.0121ZM68.564 52.632L68.2582 52.2364L68.2581 52.2365L68.564 52.632ZM84.1461 54.0991L84.5137 53.7602L84.5137 53.7602L84.1461 54.0991ZM82.9208 75.3802L83.3058 75.6993L83.3058 75.6993L82.9208 75.3802ZM69.4314 88.0131L69.107 87.6326L69.107 87.6326L69.4314 88.0131ZM69.4164 88.0259L69.7406 88.4065L69.7407 88.4064L69.4164 88.0259ZM62.9953 93.5403L62.6662 93.9167L62.9946 94.2039L63.3237 93.9174L62.9953 93.5403ZM56.5952 88.0353L56.9195 87.6547L56.9152 87.6512L56.5952 88.0353ZM56.5849 88.0267L56.2605 88.4072L56.2648 88.4108L56.5849 88.0267ZM56.5816 88.024L56.906 87.6435L56.906 87.6434L56.5816 88.024ZM43.0797 75.3802L43.4646 75.0612L43.4646 75.0612L43.0797 75.3802ZM63 96.322C62.3238 96.322 61.6723 96.0771 61.1646 95.6324L60.5057 96.3847C61.196 96.9893 62.0817 97.322 63 97.322V96.322ZM64.8352 95.6331C64.3279 96.077 63.6759 96.322 63 96.322V97.322C63.9178 97.322 64.8038 96.9894 65.4937 96.3857L64.8352 95.6331ZM71.2198 90.1417C69.2922 91.7839 67.1054 93.6478 64.8353 95.633L65.4936 96.3858C67.7582 94.4053 69.9404 92.5454 71.8683 90.9029L71.2198 90.1417ZM71.2195 90.142L71.2187 90.1427L71.8695 90.9019L71.8703 90.9012L71.2195 90.142ZM85.0612 77.1539C81.7053 81.2035 76.8724 85.3243 71.2206 90.141L71.8692 90.9021C77.4985 86.1047 82.4079 81.9229 85.8312 77.7919L85.0612 77.1539ZM90.5 63.8297C90.5 68.4221 88.7955 72.6482 85.0613 77.1538L85.8312 77.792C89.6754 73.1537 91.5 68.7093 91.5 63.8297H90.5ZM86.1903 52.2146C88.962 55.2211 90.5 59.3417 90.5 63.8297H91.5C91.5 59.1148 89.8832 54.7451 86.9255 51.5368L86.1903 52.2146ZM75.3564 47.5C79.5431 47.5 83.3873 49.1745 86.1903 52.2147L86.9255 51.5368C83.9308 48.2887 79.8188 46.5 75.3564 46.5V47.5ZM66.8636 50.4328C69.3836 48.4838 72.2368 47.5 75.3564 47.5V46.5C72.0108 46.5 68.9433 47.5601 66.2518 49.6418L66.8636 50.4328ZM63.4051 54.0448C64.43 52.6282 65.5888 51.4186 66.8635 50.4328L66.2518 49.6418C64.8956 50.6906 63.6712 51.9709 62.5949 53.4587L63.4051 54.0448ZM59.1368 50.4328C60.4112 51.4186 61.5705 52.6282 62.5948 54.0448L63.4052 53.4588C62.3292 51.9709 61.1044 50.6905 59.7487 49.6418L59.1368 50.4328ZM50.644 47.5C53.7636 47.5 56.6169 48.4838 59.1369 50.4328L59.7486 49.6418C57.0571 47.5601 53.9896 46.5 50.644 46.5V47.5ZM39.8101 52.2147C42.6131 49.1745 46.4569 47.5 50.644 47.5V46.5C46.1812 46.5 42.0696 48.2887 39.0749 51.5368L39.8101 52.2147ZM35.5 63.8297C35.5 59.3417 37.0384 55.2211 39.8101 52.2146L39.0749 51.5368C36.1172 54.7451 34.5 59.1147 34.5 63.8297H35.5ZM40.9392 77.1543C37.2049 72.6482 35.5 68.422 35.5 63.8297H34.5C34.5 68.7093 36.325 73.1537 40.1692 77.7924L40.9392 77.1543ZM54.7819 90.1426C49.1289 85.3251 44.2952 81.2036 40.9392 77.1543L40.1692 77.7924C43.5927 81.9231 48.5028 86.1055 54.1333 90.9037L54.7819 90.1426ZM54.7956 90.1544L54.7857 90.1458L54.1296 90.9004L54.1394 90.909L54.7956 90.1544ZM61.1643 95.6321C58.8993 93.6516 56.7159 91.7907 54.7918 90.1511L54.1432 90.9122C56.0677 92.5522 58.2465 94.4092 60.506 96.3849L61.1643 95.6321ZM50.644 49.7804C47.1088 49.7804 43.8533 51.1932 41.4863 53.7602L42.2215 54.4381C44.3961 52.0797 47.3835 50.7804 50.644 50.7804V49.7804ZM57.7418 52.2364C55.6387 50.6102 53.2464 49.7804 50.644 49.7804V50.7804C53.0191 50.7804 55.1975 51.5331 57.1301 53.0275L57.7418 52.2364ZM61.6508 56.7559C60.8992 55.496 59.6084 53.68 57.7419 52.2364L57.1301 53.0275C58.8609 54.3661 60.0755 56.0672 60.792 57.2682L61.6508 56.7559ZM63 57.5225C62.4401 57.5225 61.9383 57.2376 61.6507 56.7558L60.792 57.2684C61.2598 58.0521 62.0876 58.5225 63 58.5225V57.5225ZM64.3493 56.7558C64.0617 57.2376 63.5599 57.5225 63 57.5225V58.5225C63.9124 58.5225 64.7402 58.0521 65.208 57.2684L64.3493 56.7558ZM68.2581 52.2365C66.392 53.6801 65.1012 55.496 64.3493 56.7558L65.208 57.2683C65.9249 56.0672 67.1395 54.3661 68.87 53.0274L68.2581 52.2365ZM75.3564 49.7804C72.7536 49.7804 70.3613 50.6102 68.2582 52.2364L68.8699 53.0275C70.8025 51.5331 72.9809 50.7804 75.3564 50.7804V49.7804ZM84.5137 53.7602C82.1471 51.1932 78.8912 49.7804 75.3564 49.7804V50.7804C78.6165 50.7804 81.6043 52.0798 83.7785 54.438L84.5137 53.7602ZM88.22 63.8297C88.22 59.9439 86.9131 56.3628 84.5137 53.7602L83.7785 54.438C85.9883 56.8351 87.22 60.1651 87.22 63.8297H88.22ZM83.3058 75.6993C86.6759 71.6324 88.22 67.961 88.22 63.8297H87.22C87.22 67.6647 85.8033 71.1181 82.5358 75.0612L83.3058 75.6993ZM69.7557 88.3937C75.262 83.7007 80.0666 79.6079 83.3058 75.6993L82.5358 75.0612C79.3644 78.8881 74.6375 82.919 69.107 87.6326L69.7557 88.3937ZM69.7407 88.4064L69.7557 88.3936L69.107 87.6326L69.092 87.6454L69.7407 88.4064ZM63.3237 93.9174C65.614 91.9229 67.8051 90.0553 69.7406 88.4065L69.0921 87.6453C67.1568 89.2939 64.9618 91.1647 62.6669 93.1633L63.3237 93.9174ZM56.2708 88.4158C58.2026 90.0622 60.39 91.9265 62.6662 93.9167L63.3244 93.1639C61.0428 91.1689 58.8508 89.3007 56.9195 87.6547L56.2708 88.4158ZM56.2648 88.4108L56.2751 88.4194L56.9152 87.6512L56.905 87.6426L56.2648 88.4108ZM56.2572 88.4044L56.2605 88.4072L56.9093 87.6463L56.906 87.6435L56.2572 88.4044ZM42.6947 75.6993C45.9361 79.6107 50.7456 83.7073 56.2573 88.4045L56.906 87.6434C51.3701 82.9256 46.6383 78.8909 43.4646 75.0612L42.6947 75.6993ZM37.78 63.8297C37.78 67.961 39.3241 71.6324 42.6947 75.6993L43.4646 75.0612C40.1966 71.1181 38.78 67.6647 38.78 63.8297H37.78ZM41.4863 53.7602C39.0869 56.3628 37.78 59.9439 37.78 63.8297H38.78C38.78 60.1651 40.0117 56.8351 42.2215 54.438L41.4863 53.7602Z" fill="#F3F8FF"/>
</g>
</g>
</g>
</svg>
