<svg width="64" height="70" viewBox="0 0 64 70" fill="none" xmlns="http://www.w3.org/2000/svg"><g fill="#EE8335"><path opacity=".051" fill-rule="evenodd" clip-rule="evenodd" d="M32 11l20.785 12v24L32 59 11.215 47V23L32 11z" stroke="#EE8335" stroke-width="22" stroke-linejoin="round"/><path fill-rule="evenodd" clip-rule="evenodd" d="M31.163 52.827a.688.688 0 0 0 .912.004L44.18 42.27a15.608 15.608 0 0 0 4.909-8.009 9.705 9.705 0 0 0 .301-3.651c-.517-5.57-4.549-9.61-9.594-9.61-3.363.018-6.468 1.767-8.17 4.603-1.616-2.828-4.663-4.587-7.976-4.604-5.045 0-9.076 4.04-9.594 9.61a9.705 9.705 0 0 0 .302 3.652 15.603 15.603 0 0 0 4.908 8.008l11.897 10.557zM15.412 30.755c.443-4.88 3.908-8.422 8.238-8.422 3.265.047 6.172 2.03 7.344 5.01a.682.682 0 0 0 .627.408.682.682 0 0 0 .628-.408c1.254-3.004 4.23-4.978 7.547-5.01 4.33 0 7.795 3.543 8.247 8.485a8.435 8.435 0 0 1-.282 3.138 14.274 14.274 0 0 1-4.493 7.324L31.625 51.437 20.182 41.283a14.277 14.277 0 0 1-4.497-7.327 8.476 8.476 0 0 1-.283-3.134.582.582 0 0 0 .01-.067z"/><path d="M18.654 32.52a.725.725 0 0 1-.506-.204.688.688 0 0 1-.21-.494c.005-3.854 3.208-6.977 7.161-6.982.396 0 .716.313.716.698 0 .386-.32.698-.716.698-3.162.004-5.725 2.503-5.728 5.586a.69.69 0 0 1-.21.494.725.725 0 0 1-.507.204z"/></g></svg>