<svg width="126" height="140" viewBox="0 0 126 140" fill="none" xmlns="http://www.w3.org/2000/svg"><path opacity=".051" fill-rule="evenodd" clip-rule="evenodd" d="M63 17l45.899 26.5v53L63 123 17.1 96.5v-53L63 17z" fill="#1A65FD" stroke="#1A65FD" stroke-width="34" stroke-linejoin="round"/><path fill-rule="evenodd" clip-rule="evenodd" d="M60.835 96.008a3.284 3.284 0 0 0 4.33.001 641.87 641.87 0 0 1 6.38-5.487c5.64-4.808 10.512-8.959 13.901-13.05C89.236 72.902 91 68.567 91 63.83c0-4.602-1.577-8.847-4.442-11.954C83.659 48.732 79.68 47 75.356 47c-3.232 0-6.192 1.022-8.798 3.037C65.242 51.055 64.05 52.3 63 53.752c-1.05-1.452-2.242-2.697-3.557-3.715C56.837 48.022 53.877 47 50.644 47c-4.325 0-8.303 1.732-11.201 4.876C36.578 54.983 35 59.228 35 63.83c0 4.736 1.765 9.07 5.554 13.643 3.39 4.09 8.262 8.242 13.904 13.05l.01.009a648.076 648.076 0 0 1 6.367 5.477zM41.854 54.1c2.27-2.462 5.392-3.819 8.79-3.819 2.489 0 4.774.792 6.792 2.352 1.799 1.391 3.051 3.15 3.785 4.38A2.054 2.054 0 0 0 63 58.022c.736 0 1.4-.377 1.779-1.01.734-1.23 1.987-2.989 3.785-4.38 2.018-1.56 4.303-2.352 6.792-2.352 3.398 0 6.52 1.356 8.79 3.82 2.305 2.499 3.574 5.954 3.574 9.73 0 3.983-1.48 7.545-4.8 11.55-3.204 3.868-7.97 7.93-13.489 12.633l-.015.013a765.521 765.521 0 0 0-6.42 5.514c-2.28-1.992-4.47-3.859-6.4-5.505l-.011-.008-.003-.003c-5.524-4.707-10.295-8.773-13.502-12.644-3.32-4.005-4.8-7.567-4.8-11.55 0-3.776 1.27-7.231 3.574-9.73z" fill="#0054FF"/><path d="M60.835 96.008l.33-.376-.33.376zm4.33.001l-.33-.376.33.376zm6.38-5.487l.323.38h.002l-.326-.38zm0 0l-.324-.381-.002.001.326.38zm13.901-13.05l-.385-.318.385.319zm1.112-25.596l.367-.34-.367.34zm-20-1.839l.305.396-.305-.396zM63 53.752l-.405.293.405.56.405-.56-.405-.293zm-3.557-3.715l.306-.395-.306.395zm-20 1.839l-.368-.34.367.34zm1.111 25.597l-.385.32.385-.32zm13.904 13.05l.328-.377-.004-.003-.324.38zm.01.009l-.329.377.004.003.325-.38zM41.853 54.099l-.368-.339.368.34zm15.582-1.467l.306-.396-.306.396zm3.785 4.38l-.429.256.43-.256zm3.558 0l.429.256-.43-.256zm3.785-4.38l-.306-.396.306.396zm15.582 1.467l.368-.339-.368.34zM82.921 75.38l.385.32-.385-.32zM69.43 88.013l-.324-.38.324.38zm-.015.013l.325.38-.325-.38zm-6.42 5.514l-.33.377.329.287.329-.287-.329-.377zm-6.4-5.505l.324-.38-.005-.004-.32.384zm-.011-.008l-.325.38.005.004.32-.384zm-.003-.003l.324-.38-.324.38zM43.08 75.38l.385-.319-.385.32zM63 96.322a2.784 2.784 0 0 1-1.835-.69l-.66.753a3.79 3.79 0 0 0 2.495.937v-1zm1.835-.689a2.786 2.786 0 0 1-1.835.689v1a3.79 3.79 0 0 0 2.494-.936l-.659-.753zm6.385-5.491a642.804 642.804 0 0 0-6.385 5.491l.659.753c2.264-1.98 4.446-3.84 6.374-5.483l-.648-.761zm0 0h-.001l.65.76h.001l-.65-.76zm13.84-12.988c-3.356 4.05-8.189 8.17-13.84 12.987l.648.761c5.63-4.797 10.539-8.98 13.962-13.11l-.77-.638zM90.5 63.83c0 4.592-1.704 8.818-5.439 13.324l.77.638c3.844-4.638 5.669-9.083 5.669-13.962h-1zm-4.31-11.615c2.772 3.006 4.31 7.127 4.31 11.615h1c0-4.715-1.617-9.085-4.575-12.293l-.735.678zM75.356 47.5c4.187 0 8.031 1.675 10.834 4.715l.736-.678c-2.995-3.248-7.107-5.037-11.57-5.037v1zm-8.492 2.933c2.52-1.95 5.373-2.933 8.492-2.933v-1c-3.345 0-6.413 1.06-9.104 3.142l.612.79zm-3.459 3.612c1.025-1.417 2.184-2.626 3.459-3.612l-.612-.791c-1.356 1.049-2.58 2.329-3.657 3.817l.81.586zm-4.268-3.612c1.274.986 2.434 2.195 3.458 3.612l.81-.586c-1.076-1.488-2.3-2.769-3.656-3.817l-.612.79zM50.644 47.5c3.12 0 5.973.984 8.493 2.933l.612-.791c-2.692-2.082-5.76-3.142-9.105-3.142v1zM39.81 52.215c2.803-3.04 6.647-4.715 10.834-4.715v-1c-4.463 0-8.574 1.789-11.57 5.037l.736.678zM35.5 63.83c0-4.488 1.538-8.609 4.31-11.615l-.735-.678C36.117 54.745 34.5 59.115 34.5 63.83h1zm5.44 13.324c-3.735-4.506-5.44-8.732-5.44-13.324h-1c0 4.88 1.825 9.324 5.67 13.962l.77-.638zm13.842 12.989c-5.653-4.818-10.487-8.94-13.843-12.989l-.77.638c3.424 4.131 8.334 8.314 13.964 13.112l.649-.761zm.014.011l-.01-.008-.656.754.01.009.656-.755zm6.368 5.478a650.136 650.136 0 0 0-6.372-5.48l-.649.76a649.94 649.94 0 0 1 6.363 5.473l.658-.753zM50.644 49.78c-3.535 0-6.79 1.413-9.158 3.98l.736.678c2.174-2.358 5.161-3.658 8.422-3.658v-1zm7.098 2.456c-2.103-1.626-4.496-2.456-7.098-2.456v1c2.375 0 4.553.753 6.486 2.248l.612-.792zm3.909 4.52c-.752-1.26-2.043-3.076-3.91-4.52l-.61.792c1.73 1.338 2.944 3.04 3.661 4.24l.859-.512zm1.349.767c-.56 0-1.062-.285-1.35-.767l-.858.512A2.554 2.554 0 0 0 63 58.523v-1zm1.35-.767c-.288.482-.79.767-1.35.767v1c.912 0 1.74-.47 2.208-1.255l-.859-.512zm3.908-4.52c-1.866 1.444-3.157 3.26-3.909 4.52l.859.512c.717-1.2 1.931-2.902 3.662-4.24l-.612-.791zm7.098-2.456c-2.602 0-4.995.83-7.098 2.456l.612.792c1.932-1.495 4.11-2.248 6.486-2.248v-1zm9.158 3.98c-2.367-2.567-5.623-3.98-9.158-3.98v1c3.26 0 6.248 1.3 8.422 3.658l.736-.678zm3.706 10.07c0-3.886-1.307-7.467-3.706-10.07l-.736.678c2.21 2.397 3.442 5.727 3.442 9.392h1zM83.306 75.7c3.37-4.068 4.914-7.739 4.914-11.87h-1c0 3.835-1.417 7.288-4.684 11.231l.77.638zm-13.55 12.694c5.506-4.693 10.31-8.786 13.55-12.695l-.77-.638c-3.172 3.827-7.898 7.858-13.429 12.572l.649.76zm-.015.012l.015-.012-.649-.761-.015.012.649.761zm-6.417 5.511a765.392 765.392 0 0 1 6.417-5.51l-.649-.762a763.992 763.992 0 0 0-6.425 5.518l.657.754zm-7.053-5.501a648.513 648.513 0 0 1 6.395 5.5l.658-.752a656.808 656.808 0 0 0-6.404-5.51l-.65.762zm-.006-.005l.01.008.64-.768-.01-.008-.64.768zm-.008-.007l.004.003.648-.76-.003-.004-.649.761zM42.695 75.7c3.241 3.912 8.05 8.008 13.562 12.706l.649-.762c-5.536-4.717-10.268-8.752-13.441-12.582l-.77.638zM37.78 63.83c0 4.132 1.544 7.803 4.915 11.87l.77-.638c-3.268-3.943-4.685-7.396-4.685-11.231h-1zm3.706-10.069c-2.4 2.603-3.706 6.184-3.706 10.07h1c0-3.665 1.232-6.995 3.441-9.392l-.735-.678z" fill="#F3F8FF"/></svg>