<svg width="22" height="30" viewBox="0 0 22 30" fill="none" xmlns="http://www.w3.org/2000/svg"><g fill="#fff"><path fill-rule="evenodd" clip-rule="evenodd" d="M21.35 1.824a2.089 2.089 0 0 0-.609-.722 2.085 2.085 0 0 0-1.258-.42 2.11 2.11 0 0 0-1.68.839l-.235.303s-.444.646-.663.887c-.064.07-.148.174-.242.287-.23.28-.51.623-.664.698-.187-.148-.446-.194-.822-.21-.01-.059-.601-.623-.78-.775-.51-.435-1.337-.887-1.337-.887A4.919 4.919 0 0 0 11 1.367c-.72 0-1.422.161-2.06.457 0 0-1.753.842-2.012 1.721 0 0-.506 0-.894.151L4.579 1.824l-.235-.303A2.113 2.113 0 0 0 2.663.682c-.456 0-.891.145-1.258.42-.26.194-.467.441-.61.722 0 0-.213.413-.23.887-.018.474.124.936.41 1.322l4.997 7.418c.193.287.295.622.295.968l.004 15.404c0 1.14.908 2.1 2.024 2.14a2.087 2.087 0 0 0 1.535-.587c.415-.4.643-.937.643-1.513v-7.04c0-.33.245-.607.558-.628a.596.596 0 0 1 .469.175.597.597 0 0 1 .176.425v7.03c0 1.16.926 2.12 2.065 2.139h.037c.56 0 1.087-.217 1.486-.615a2.09 2.09 0 0 0 .615-1.486V12.419c0-.346.102-.68.295-.968l4.997-7.418a2.09 2.09 0 0 0 .41-1.322s-.09-.611-.23-.887zm-7.04 4.525h.72A4.035 4.035 0 0 1 11 10.316 4.035 4.035 0 0 1 6.97 6.35h5.873a.444.444 0 0 0 0-.887H6.67a.512.512 0 0 1 0-1.024h8.66a.512.512 0 0 1 0 1.024h-1.02a.444.444 0 0 0 0 .887zm-.35-2.798A4.055 4.055 0 0 0 11 2.254a4.055 4.055 0 0 0-2.96 1.297h5.92zM1.705 3.529a1.205 1.205 0 0 1-.243-.918 1.215 1.215 0 0 1 2.174-.555l.004.005 1.77 2.285a1.388 1.388 0 0 0-.14.604 1.4 1.4 0 0 0 .813 1.269v.029l-.001.037c0 .465.066.915.187 1.342L5.191 8.704 1.705 3.53zM14.636 28.72c.23-.23.355-.534.355-.858V22.64h-2.427v5.185c0 .678.534 1.24 1.192 1.25.333.006.645-.12.88-.355zm.802-17.765a2.61 2.61 0 0 0-.447 1.463v5.103h-.715a.444.444 0 0 0 0 .887h.715v3.345h-2.427v-.96a1.491 1.491 0 0 0-1.593-1.485c-.777.054-1.385.719-1.385 1.514v.93h-1.52a.444.444 0 1 0 0 .888h1.52v5.222c0 .332-.132.643-.372.874a1.21 1.21 0 0 1-.887.339c-.645-.023-1.169-.585-1.169-1.253l-.003-9.414h5.347a.444.444 0 1 0 0-.887H7.155V12.42a2.61 2.61 0 0 0-.447-1.463L5.697 9.454l.927-.928A4.922 4.922 0 0 0 11 11.204a4.924 4.924 0 0 0 4.447-2.82l1.03 1.03-1.039 1.542zm5.003-7.427a1.215 1.215 0 0 0-1.93-1.473l-.005.005-1.864 2.407a1.39 1.39 0 0 1-.725 1.75v.03l.001.037c0 .404-.05.796-.142 1.172l1.206 1.207 3.459-5.135z"/><path d="M20.741 1.102l.12-.16-.12.16zm-2.939.419l.159.122.001-.002-.16-.12zm-.234.303l-.159-.123-.006.01.165.113zm-.663.887l.148.135-.148-.135zm-.242.287l.155.127-.155-.127zM16 3.696l-.125.157.099.079.114-.056-.088-.18zm-.822-.21l-.197.034.028.158.16.007.01-.2zm-.78-.775l.13-.152-.13.152zm-1.337-.887l.097-.176-.012-.006-.085.182zm-1.71-.444l-.014.2.015-.2zm-2.41.444l-.085-.182-.002.002.087.18zM6.928 3.545v.2h.15l.042-.143-.192-.057zm-.894.151l-.158.123.091.118.14-.054-.073-.187zM4.579 1.824l-.159.122.159-.122zm-.235-.303l-.16.12.002.002.158-.122zm-2.94-.42l-.12-.16.12.16zm-.61.723l.178.091-.178-.091zm-.23.887l.2.007-.2-.007zm.411 1.322l.166-.112-.005-.007-.16.12zm4.997 7.418l-.166.112.166-.112zm.295.968h-.2.2zm.004 15.404h.2-.2zm2.024 2.14l.008-.2-.008.2zm1.535-.587l-.139-.144.14.144zm1.201-9.18l.014.199-.014-.2zm.469.174l.141-.141-.141.141zm2.24 9.594l-.003.2.004-.2zm1.524-.615l.141.141-.141-.141zm.91-17.898l-.166-.112.166.112zm4.997-7.418l-.161-.12-.005.008.166.112zm.41-1.322l.2-.007-.001-.01-.002-.012-.198.03zM15.028 6.35l.2.004.004-.204h-.204v.2zm-8.058 0v-.2h-.204l.004.204.2-.004zm6.989-2.798v.2h.458l-.312-.336-.146.136zm-5.92 0l-.146-.136-.313.336h.46v-.2zm-6.348-.04l-.16.12.002.001.158-.121zm.013.018l.166-.112-.166.112zm-.242-.918l-.198-.029.198.029zm.473-.8l-.12-.16.12.16zm1.7.245l-.16.12.16-.12zm.004.005l-.16.121.002.002.158-.123zm1.77 2.285l.18.087.053-.111-.076-.098-.158.122zm.673 1.873l.2.002.002-.13-.118-.054-.084.182zm0 .029l.2.01v-.004l-.2-.006zm0 0l-.2-.01v.004l.2.006zm.186 1.379l.141.141.084-.083-.033-.113-.192.055zM5.191 8.704l-.166.112.136.201.172-.171-.142-.142zm9.8 19.159h.2v-.2h-.2v.2zm-.355.858l.142.142-.142-.142zm.355-.858h-.2v.2h.2v-.2zm0-5.222h.2v-.2h-.2v.2zm-2.427 0v-.2h-.2v.2h.2zm1.192 6.436l.003-.2-.003.2zm1.682-18.121l-.165-.112.165.112zm-.447 6.566v.2h.2v-.2h-.2zm0 .887h.2v-.2h-.2v.2zm0 3.345v.2h.2v-.2h-.2zm-2.427 0h-.2v.2h.2v-.2zm-.437-2.011l-.141.141.141-.141zm-1.156-.433l-.014-.2.014.2zm-1.385 2.444v.2h.2v-.2h-.2zm0 .887h.2v-.2h-.2v.2zm-.372 6.096l.14.144-.14-.144zm-.887.339l.007-.2-.007.2zm-1.169-1.253h.2-.2zm-.003-9.414v-.2h-.2v.2h.2zm0-.887h-.2v.2h.2v-.2zm-.447-6.566l.166-.112-.166.112zM5.697 9.454l-.142-.141-.116.116.092.137.166-.112zm.927-.928l.178-.091-.125-.244-.194.194.141.141zm8.823-.143l.142-.141-.2-.2-.122.256.18.085zm1.03 1.03l.166.112.092-.137-.116-.116-.142.141zm3.977-5.902l-.16-.12.16.12zm-.013.018l.166.111-.166-.111zm-.232-1.718l.12-.16-.12.16zm-1.699.244l.16.121-.16-.12zm-.004.006l.158.123.001-.002-.16-.12zm-1.864 2.407l-.158-.122-.068.088.038.104.188-.07zm-.725 1.75l-.084-.18-.118.054.002.129.2-.002zm0 .03l.2-.006-.2.006zm-.141 1.21l-.194-.048-.027.11.08.079.141-.142zm1.206 1.206l-.141.14.171.173.136-.202-.166-.111zm3.64-7.402c.239.179.423.404.55.653l.357-.182A2.288 2.288 0 0 0 20.86.94l-.24.32zm-1.139-.38c.413 0 .806.131 1.139.38l.24-.32c-.402-.3-.879-.46-1.379-.46v.4zm-1.52.759a1.913 1.913 0 0 1 1.52-.759v-.4a2.31 2.31 0 0 0-1.84.919l.32.24zm-.237.305l.235-.303-.317-.245-.235.303.317.245zm-.673.9c.118-.13.29-.362.428-.552a21.16 21.16 0 0 0 .231-.328l.015-.021.004-.006.001-.001-.164-.114-.165-.113-.002.001-.003.006-.014.02a19.701 19.701 0 0 1-.228.322 6.746 6.746 0 0 1-.4.517l.297.269zm-.235.279c.095-.115.175-.213.235-.28l-.296-.268a8.883 8.883 0 0 0-.248.294l.31.254zm-.731.751a.827.827 0 0 0 .183-.133 2.86 2.86 0 0 0 .18-.185c.123-.134.254-.294.368-.433l-.31-.254c-.115.141-.24.293-.354.418a2.157 2.157 0 0 1-.154.158.475.475 0 0 1-.09.07l.177.359zm-.919-.191c.376.017.575.063.706.168l.25-.313c-.243-.193-.562-.238-.938-.255l-.018.4zm-.9-.822a11.59 11.59 0 0 1 .662.635c.03.03.05.054.063.07l.01.012-.006-.01a.172.172 0 0 1-.017-.05l.394-.07a.227.227 0 0 0-.04-.093 1.888 1.888 0 0 0-.113-.133 11.928 11.928 0 0 0-.694-.665l-.259.304zm-1.208-1.04L12.965 2l.002.001a.493.493 0 0 0 .032.019 9.554 9.554 0 0 1 .434.255c.268.166.592.382.835.59l.26-.305a7.592 7.592 0 0 0-.885-.625 12.466 12.466 0 0 0-.448-.264l-.028-.016-.008-.004-.002-.001-.097.175zm-1.724-.244a4.719 4.719 0 0 1 1.64.426l.169-.363a5.119 5.119 0 0 0-1.78-.462l-.029.4zM11 1.567c.113 0 .225.004.336.012l.03-.399A5.036 5.036 0 0 0 11 1.167v.4zm-1.976.438A4.704 4.704 0 0 1 11 1.567v-.4c-.75 0-1.481.168-2.145.475l.169.363zM7.12 3.602c.05-.174.182-.363.373-.556.189-.19.421-.37.65-.526a7.756 7.756 0 0 1 .883-.516 76.67 76.67 0 0 1-.173-.36H8.85l-.004.003a2.499 2.499 0 0 0-.074.037 8.152 8.152 0 0 0-.855.506 4.87 4.87 0 0 0-.709.575c-.21.212-.395.458-.473.724l.384.113zm-1.014.28c.17-.065.374-.1.542-.119a3.258 3.258 0 0 1 .276-.018h.003s.001 0 0 0v-.4H6.92a1.774 1.774 0 0 0-.086.003 3.665 3.665 0 0 0-.229.017 2.61 2.61 0 0 0-.644.145l.145.373zM4.421 1.948L5.876 3.82l.316-.245L4.737 1.7l-.316.246zm-.235-.304l.234.303.317-.245-.235-.303-.316.245zM2.663.882c.595 0 1.164.284 1.521.759l.32-.24A2.313 2.313 0 0 0 2.663.482v.4zm-1.139.38c.333-.249.726-.38 1.139-.38v-.4c-.5 0-.977.16-1.378.46l.24.32zm-.552.653c.13-.254.317-.477.552-.653l-.24-.32c-.284.213-.51.483-.668.79l.356.183zm-.208.803c.008-.21.06-.412.111-.564a2.28 2.28 0 0 1 .096-.236l.001-.003-.178-.091-.178-.092v.001a.195.195 0 0 0-.003.007 1.251 1.251 0 0 0-.035.076 2.42 2.42 0 0 0-.213.888l.4.014zm.372 1.196a1.883 1.883 0 0 1-.372-1.196l-.4-.014c-.018.52.138 1.026.45 1.448l.322-.238zm5.002 7.426L1.14 3.92l-.332.224 4.997 7.418.332-.223zm.33 1.08c0-.387-.115-.76-.33-1.08l-.332.223c.171.254.261.55.261.856h.4zm.003 15.403l-.004-15.404h-.4l.004 15.404h.4zm1.831 1.94c-1.005-.036-1.831-.903-1.831-1.94h-.4c0 1.245.99 2.296 2.217 2.34l.014-.4zm1.39-.531c-.375.361-.867.55-1.39.53l-.014.4a2.282 2.282 0 0 0 1.681-.642l-.278-.288zm.581-1.37c0 .522-.206 1.008-.582 1.37l.278.288a2.285 2.285 0 0 0 .704-1.657h-.4zm0-7.04v7.04h.4v-7.04h-.4zm.745-.826c-.427.029-.745.4-.745.827h.4c0-.235.172-.415.372-.428l-.027-.4zm.623.233a.797.797 0 0 0-.623-.233l.027.399a.39.39 0 0 1 .313.117l.283-.283zm.235.566a.797.797 0 0 0-.235-.566l-.283.283a.397.397 0 0 1 .118.283h.4zm0 7.03v-7.03h-.4v7.03h.4zm1.868 1.939c-1.026-.018-1.868-.884-1.868-1.938h-.4c0 1.265 1.01 2.316 2.261 2.338l.007-.4zm.034 0h-.034l-.006.4h.04v-.4zm1.345-.557c-.362.36-.837.557-1.345.557v.4a2.29 2.29 0 0 0 1.627-.674l-.282-.283zm.556-1.344c0 .507-.198.984-.557 1.344l.283.283a2.29 2.29 0 0 0 .674-1.627h-.4zm0-15.444v15.444h.4V12.419h-.4zm.33-1.08c-.216.32-.33.694-.33 1.08h.4c0-.306.09-.602.261-.856l-.332-.223zm4.996-7.418l-4.997 7.418.332.224 4.997-7.418-.332-.224zm.376-1.203a1.89 1.89 0 0 1-.371 1.196l.321.238a2.29 2.29 0 0 0 .45-1.448l-.4.014zm-.208-.803c.057.112.11.31.15.497a5.978 5.978 0 0 1 .056.303l.003.019v.005l.198-.028.198-.029v-.008l-.004-.02a2.669 2.669 0 0 0-.245-.92l-.356.18zm-6.144 4.234h-.719v.4h.72v-.4zM11 10.516a4.235 4.235 0 0 0 4.23-4.163l-.4-.007a3.835 3.835 0 0 1-3.83 3.77v.4zM6.77 6.353A4.235 4.235 0 0 0 11 10.516v-.4a3.835 3.835 0 0 1-3.83-3.77l-.4.007zm6.073-.204H6.971v.4h5.872v-.4zm.244-.243a.244.244 0 0 1-.244.243v.4a.644.644 0 0 0 .644-.643h-.4zm-.244-.244c.135 0 .244.11.244.244h.4a.644.644 0 0 0-.644-.644v.4zm-6.173 0h6.173v-.4H6.67v.4zm-.712-.712c0 .393.319.712.712.712v-.4a.312.312 0 0 1-.312-.312h-.4zm.712-.712a.712.712 0 0 0-.712.712h.4c0-.171.14-.312.312-.312v-.4zm8.66 0H6.67v.4h8.66v-.4zm.712.712a.713.713 0 0 0-.712-.712v.4c.172 0 .312.14.312.312h.4zm-.712.712a.712.712 0 0 0 .712-.712h-.4c0 .172-.14.312-.312.312v.4zm-1.02 0h1.02v-.4h-1.02v.4zm-.243.244c0-.135.109-.244.243-.244v-.4a.644.644 0 0 0-.643.644h.4zm.243.243a.244.244 0 0 1-.243-.243h-.4c0 .355.288.643.643.643v-.4zM11 2.454c1.072 0 2.094.459 2.813 1.233l.293-.272A4.255 4.255 0 0 0 11 2.055v.4zM8.187 3.687A3.855 3.855 0 0 1 11 2.454v-.4a4.255 4.255 0 0 0-3.106 1.36l.293.273zm5.773-.336H8.04v.4h5.92v-.4zm-12.426.281l.006.009.331-.224a.564.564 0 0 0-.02-.028l-.317.243zm-.27-1.05c-.053.374.042.747.268 1.048l.32-.24a1.005 1.005 0 0 1-.191-.75l-.396-.058zm.552-.93a1.406 1.406 0 0 0-.551.93l.396.057c.038-.268.178-.505.395-.667l-.24-.32zm.847-.283c-.307 0-.6.098-.847.283l.24.32c.178-.133.387-.203.607-.203v-.4zm1.133.567a1.405 1.405 0 0 0-1.133-.567v.4c.324 0 .62.148.813.406l.32-.24zm.004.004l-.005-.005-.318.241.004.006.319-.242zm1.767 2.284L3.798 1.939l-.316.245 1.77 2.285.315-.245zm-.097.726c0-.185.044-.36.12-.517l-.361-.173a1.59 1.59 0 0 0-.159.69h.4zm.697 1.087A1.2 1.2 0 0 1 5.47 4.95h-.4A1.6 1.6 0 0 0 6 6.4l.168-.363zm.115.217l.001-.033-.4-.004v.025l.4.012zm0 .005l-.4-.022.4.022zm0 .026v-.031l-.4-.012v.043h.4zm.18 1.287c-.117-.41-.18-.84-.18-1.287h-.4c0 .484.069.952.195 1.396l.384-.11zm-1.13 1.274L6.41 7.768l-.282-.283L5.05 8.563l.283.283zM1.54 3.64l3.485 5.176.332-.223-3.486-5.176-.331.223zm13.25 24.223c0 .27-.105.525-.296.717l.283.282c.266-.266.413-.622.413-1h-.4zm.2.2v-.4.4zm-.2-5.422v5.222h.4V22.64h-.4zm-2.227.2h2.427v-.4h-2.427v.4zm.2 4.985V22.64h-.4v5.185h.4zm.995 1.05c-.542-.009-.995-.475-.995-1.05h-.4c0 .782.616 1.438 1.388 1.45l.007-.4zm.736-.297a1.005 1.005 0 0 1-.736.298l-.007.4a1.41 1.41 0 0 0 1.026-.414l-.283-.284zm.696-16.16c0-.483.143-.95.413-1.352l-.331-.223a2.81 2.81 0 0 0-.482 1.575h.4zm0 5.103V12.42h-.4v5.103h.4zm-.915.2h.715v-.4h-.715v.4zm-.243.244c0-.135.109-.244.243-.244v-.4a.644.644 0 0 0-.643.644h.4zm.243.243a.244.244 0 0 1-.243-.243h-.4c0 .355.288.643.643.643v-.4zm.715 0h-.715v.4h.715v-.4zm.2 3.545v-3.345h-.4v3.345h.4zm-2.627.2h2.427v-.4h-2.427v.4zm-.2-1.16v.96h.4v-.96h-.4zm-.378-.91c.244.244.378.567.378.91h.4c0-.45-.176-.874-.495-1.193l-.283.283zm-1.002-.375a1.29 1.29 0 0 1 1.002.375l.283-.283a1.69 1.69 0 0 0-1.312-.49l.027.398zm-1.198 1.314c0-.694.53-1.268 1.198-1.314l-.027-.399c-.885.061-1.571.816-1.571 1.713h.4zm0 .93v-.93h-.4v.93h.4zm-1.72.2h1.52v-.4h-1.52v.4zm-.244.245c0-.135.109-.244.243-.244v-.4a.644.644 0 0 0-.643.644h.4zm.243.243a.244.244 0 0 1-.243-.243h-.4c0 .355.288.643.643.643v-.4zm1.52 0h-1.52v.4h1.52v-.4zm.2 5.422V22.64h-.4v5.222h.4zm-.432 1.018c.279-.269.433-.631.433-1.018h-.4c0 .278-.11.537-.31.73l.277.288zm-1.033.395a1.41 1.41 0 0 0 1.033-.395l-.277-.288a1.01 1.01 0 0 1-.742.283l-.014.4zm-1.362-1.453c0 .77.604 1.426 1.362 1.453l.014-.4c-.53-.019-.976-.486-.976-1.053h-.4zm-.003-9.413l.003 9.413h.4l-.003-9.414h-.4zm5.547-.2H7.155v.4h5.347v-.4zm.243-.244a.244.244 0 0 1-.243.243v.4a.644.644 0 0 0 .643-.643h-.4zm-.243-.244c.134 0 .243.11.243.244h.4a.644.644 0 0 0-.643-.644v.4zm-5.347 0h5.347v-.4H7.155v.4zm-.2-5.303v5.103h.4V12.42h-.4zm-.413-1.352c.27.402.413.869.413 1.352h.4a2.81 2.81 0 0 0-.481-1.575l-.332.223zM5.53 9.566l1.01 1.501.333-.223-1.012-1.502-.331.224zm.952-1.181l-.928.928.283.283.928-.928-.283-.283zM11 11.004a4.722 4.722 0 0 1-4.198-2.569l-.356.183A5.122 5.122 0 0 0 11 11.404v-.4zm4.267-2.706A4.724 4.724 0 0 1 11 11.004v.4a5.124 5.124 0 0 0 4.628-2.935l-.361-.171zm1.352.974l-1.03-1.03-.283.283 1.03 1.03.283-.283zm-1.015 1.795l1.04-1.542-.333-.223-1.038 1.542.331.223zm4.69-7.676a.628.628 0 0 0-.02.026l.333.223a.33.33 0 0 1 .007-.01l-.32-.24zm-.204-1.42c.447.336.538.973.204 1.42l.32.24a1.415 1.415 0 0 0-.285-1.98l-.24.32zm-.607-.202c.22 0 .43.07.607.203l.24-.32a1.404 1.404 0 0 0-.847-.283v.4zm-.813.406c.194-.258.489-.406.813-.406v-.4c-.45 0-.864.207-1.133.567l.32.24zm-.005.007l.004-.006-.318-.241-.005.005.32.242zM16.8 4.59l1.864-2.408-.317-.244-1.863 2.407.316.245zm.13.36c0-.196-.037-.38-.1-.552l-.375.139c.047.13.074.268.074.412h.4zM16 6.4a1.6 1.6 0 0 0 .928-1.45h-.4a1.2 1.2 0 0 1-.696 1.086L16 6.4zm.116-.159v-.026l-.4.005v.033l.4-.012zm.001.043v-.043l-.4.012v.031h.4zm-.148 1.22c.096-.391.148-.8.148-1.22h-.4c0 .388-.048.764-.136 1.125l.388.095zm1.154 1.017l-1.207-1.206-.282.283 1.206 1.206.283-.283zm3.15-5.105l-3.458 5.135.332.223 3.459-5.135-.332-.223z"/></g></svg>