<svg width="64" height="70" viewBox="0 0 64 70" fill="none" xmlns="http://www.w3.org/2000/svg"><g fill="#EE8335"><path opacity=".051" fill-rule="evenodd" clip-rule="evenodd" d="M32 11l20.785 12v24L32 59 11.215 47V23L32 11z" stroke="#EE8335" stroke-width="22" stroke-linejoin="round"/><path d="M32 24.31a.557.557 0 0 1-.555-.551v-2.207c0-.305.248-.552.555-.552.307 0 .556.247.556.552v2.207a.55.55 0 0 1-.556.551zm14.444 12.138h-2.222a.554.554 0 0 1-.555-.551c0-.305.248-.552.555-.552h2.222c.307 0 .556.247.556.552a.554.554 0 0 1-.556.551zm-26.666 0h-2.223a.554.554 0 0 1-.555-.551c0-.305.249-.552.555-.552h2.223c.307 0 .555.247.555.552a.554.554 0 0 1-.555.551zm20.575-8.276a.575.575 0 0 1-.531-.352.569.569 0 0 1 .124-.623l1.628-1.616a.578.578 0 0 1 .813 0 .569.569 0 0 1 0 .808l-1.627 1.616a.575.575 0 0 1-.407.167zM22.02 46.38a.575.575 0 0 1-.532-.354.568.568 0 0 1 .125-.622l1.627-1.616a.578.578 0 0 1 .963.256.569.569 0 0 1-.15.552l-1.627 1.616a.576.576 0 0 1-.406.167zm19.96 0a.576.576 0 0 1-.406-.168l-1.628-1.616a.569.569 0 0 1 0-.808.578.578 0 0 1 .814 0l1.627 1.616a.567.567 0 0 1 .125.622.575.575 0 0 1-.532.353zM23.647 28.172a.575.575 0 0 1-.407-.167l-1.627-1.616a.568.568 0 0 1 .258-.956.578.578 0 0 1 .556.148l1.627 1.616a.57.57 0 0 1 .124.623.575.575 0 0 1-.531.352z"/><path fill-rule="evenodd" clip-rule="evenodd" d="M30.464 53h3.627c.16 0 .315-.062.428-.172a.58.58 0 0 0 .177-.416v-1.175h.604c.16 0 .315-.062.428-.172a.58.58 0 0 0 .177-.415v-5.348c4.645-1.703 7.373-6.39 6.483-11.139-.89-4.747-5.146-8.197-10.11-8.197-4.965 0-9.22 3.45-10.11 8.197-.89 4.748 1.838 9.436 6.483 11.14v5.347a.58.58 0 0 0 .177.415c.113.11.267.172.427.172h.605v1.175c0 .156.063.306.177.416.113.11.267.172.427.172zm3.023-1.175h-2.418V50.65a.58.58 0 0 0-.177-.416.614.614 0 0 0-.428-.172h-.604v-5.176a.59.59 0 0 0-.416-.558c-4.23-1.353-6.825-5.493-6.12-9.768.705-4.275 4.5-7.42 8.954-7.42 4.454 0 8.248 3.145 8.953 7.42.705 4.275-1.889 8.415-6.12 9.768a.59.59 0 0 0-.415.558v5.176h-.605a.613.613 0 0 0-.427.172.58.58 0 0 0-.177.416v1.175z"/><path d="M34.731 46.931h-6.018c-.332 0-.602-.247-.602-.552 0-.304.27-.551.602-.551h6.018c.333 0 .602.247.602.551 0 .305-.27.552-.602.552zm-9.355-10.483a.592.592 0 0 1-.598-.594c.004-3.936 3.216-7.126 7.18-7.13.33 0 .598.266.598.594a.596.596 0 0 1-.599.594c-3.302.004-5.979 2.662-5.983 5.942a.592.592 0 0 1-.175.42.601.601 0 0 1-.423.174z"/></g></svg>