<svg width="136" height="40" viewBox="0 0 136 40" fill="none" xmlns="http://www.w3.org/2000/svg">
<g id="logo">
<g id="Group">
<path id="Path" d="M14.0059 5C14.601 5.43299 14.8688 5.89692 15.1665 6.36083C17.1009 9.5464 19.571 12.1443 22.5767 14.2475C23.5885 14.9587 24.2134 14.7422 24.9872 13.9381C26.9216 11.9588 28.0228 9.48454 29.1834 7.07217C29.362 6.73196 29.3917 6.26805 29.8976 6.02062C30.1655 7.81443 29.8976 9.48454 29.2131 11.0928C28.5585 12.6701 27.8442 14.2166 27.1895 15.7938C26.8919 16.5361 27.0705 17.3093 27.249 18.0516C27.755 20.1855 27.9037 22.3196 27.3977 24.4536C27.2787 24.9794 27.2193 25.5671 26.7133 26C24.6004 20.9897 20.4935 17.7114 17.1902 13.7526C14.8391 10.9691 13.9166 8.61855 14.0059 5Z" fill="white"/>
<path id="Path_2" d="M18.8797 36.5913C18.3115 37.7176 17.863 38.8737 17.2349 40C16.7266 37.1247 17.0556 34.3682 18.1022 31.6708C19.0292 29.2995 19.9263 26.8986 20.9729 24.5274C21.4514 23.4306 21.5411 22.2746 21.8401 21C23.2457 22.3932 24.0531 23.9642 24.8306 25.5352C25.1894 26.3058 24.9202 27.0765 24.5614 27.8174C23.9334 28.677 23.2755 29.5367 22.6475 30.426C22.5877 30.4852 22.5279 30.6334 22.4681 30.6927C22.4681 30.6927 22.2588 31.078 22.1392 31.2856C22.1392 31.2856 19.8067 34.7536 18.8797 36.5913Z" fill="white"/>
<path id="Path_3" d="M24.9993 10.8268C24.8742 11.8937 24.4368 12.8352 23.187 12.992C22.0935 13.1175 21 11.7368 21 10.3875C21 9.0381 21.9061 7.9398 22.9684 8.00256C24.0619 8.0967 25.0305 9.44605 24.9993 10.8268Z" fill="white"/>
<path id="Path_4" d="M23.0159 39L23.0986 36.9511C23.1262 36.0731 23.2089 35.2243 23.3467 34.3755C23.4845 33.4097 23.6497 32.4731 23.8151 31.5365C23.9253 30.8926 24.2009 29.839 24.3662 29.195L25 27L23.2915 29.4878C22.1342 31.1561 21.7208 33.2634 22.1894 35.2828L23.0159 39Z" fill="url(#paint0_linear)"/>
<path id="Path_5" d="M16 35.527L2.64682 22.1489C2.08176 21.5828 1.78444 20.838 1.78444 20.0336C1.78444 19.2291 2.08176 18.4842 2.64682 17.918L12.1636 8.38361L12.015 6L1.39774 16.6667C0.50552 17.5605 0 18.7523 0 20.0336C0 21.3147 0.50552 22.5066 1.39774 23.4004L15.9703 38L16 35.527Z" fill="url(#paint1_linear)"/>
<path id="Path_6" d="M15.1304 5.19632L17.7586 2.53374C18.2956 1.98977 19.0022 1.70348 19.7652 1.70348C20.5282 1.70348 21.2348 1.98977 21.7718 2.53374L26.1804 7L27 5.39672L22.9586 1.33129C21.2065 -0.443762 18.3239 -0.443762 16.5716 1.33129L14 3.9366L15.1304 5.19632Z" fill="white"/>
<path id="Path_7" d="M38.6582 15.9394L30.0614 7L29.5952 9.09091L37.4051 17.2121C37.9588 17.7879 38.2503 18.5455 38.2503 19.3637C38.2503 20.1819 37.9588 20.9393 37.4051 21.5151L24.2622 35.1819L24 38L38.6291 22.7879C39.5034 21.8789 39.9987 20.6667 39.9987 19.3637C40.0279 18.0606 39.5617 16.8485 38.6582 15.9394Z" fill="white"/>
<path id="Path_8" d="M21.2703 38.0356C20.7298 38.2493 20.1351 38.2493 19.6216 38L19 39.9589C19.4324 39.9945 21.4595 40.0301 22 39.9589L21.2703 38.0356Z" fill="url(#paint2_linear)"/>
</g>
<g id="JoySpring">
<path id="Joy" fill-rule="evenodd" clip-rule="evenodd" d="M64.5859 17.6328C64.5859 19.9531 63.2188 21.2812 60.9531 21.2812C58.7969 21.2812 57.3438 19.9688 57.3438 17.9297H59.3125C59.3281 18.8594 59.9688 19.4688 60.9297 19.4688C61.9844 19.4688 62.5703 18.8281 62.5703 17.6172V9.72656H64.5859V17.6328ZM74.9609 16.7266C74.9609 19.5 73.4062 21.1719 70.8516 21.1719C68.2891 21.1719 66.7422 19.5 66.7422 16.7266C66.7422 13.9688 68.3125 12.2812 70.8516 12.2812C73.3984 12.2812 74.9609 13.9609 74.9609 16.7266ZM70.8516 19.5469C69.5 19.5469 68.7266 18.5156 68.7266 16.7266C68.7266 14.9453 69.5 13.9062 70.8516 13.9062C72.1953 13.9062 72.9688 14.9453 72.9688 16.7266C72.9688 18.5156 72.2031 19.5469 70.8516 19.5469ZM81.4062 21.2734C80.6797 23.3984 79.7656 24.1016 77.8516 24.1016C77.7344 24.1016 77.2109 24.0938 77.0859 24.0703V22.4844C77.1953 22.5078 77.4844 22.5156 77.6172 22.5156C78.4375 22.5156 78.8984 22.2031 79.1484 21.4141L79.25 21.0391L76.1953 12.4531H78.3203L80.3203 19.125H80.4531L82.4453 12.4531H84.4922L81.4062 21.2734Z" fill="#EE8335"/>
<path id="Spring" fill-rule="evenodd" clip-rule="evenodd" d="M115.297 9.875C115.297 10.5234 114.781 11.0391 114.141 11.0391C113.508 11.0391 112.984 10.5234 112.984 9.875C112.984 9.22656 113.508 8.70312 114.141 8.70312C114.781 8.70312 115.297 9.22656 115.297 9.875ZM89.8906 21.2812C92.625 21.2812 94.3203 19.9141 94.3203 17.7188C94.3203 16 93.3594 15.0469 91.0703 14.5312L89.7734 14.2344C88.375 13.9141 87.8047 13.4688 87.8047 12.7109C87.8047 11.75 88.6641 11.125 89.9609 11.125C91.1953 11.125 92.0703 11.75 92.2109 12.7422H94.1406C94.0469 10.8047 92.3359 9.44531 89.9688 9.44531C87.4453 9.44531 85.7734 10.8047 85.7734 12.8516C85.7734 14.5312 86.7344 15.5469 88.7812 16.0078L90.2422 16.3438C91.6875 16.6797 92.3047 17.1562 92.3047 17.9688C92.3047 18.9141 91.3438 19.5938 90.0156 19.5938C88.5859 19.5938 87.5859 18.9453 87.4609 17.9375H85.4922C85.5938 19.9844 87.3047 21.2812 89.8906 21.2812ZM98.3203 23.8438V19.7031H98.4531C98.8906 20.6094 99.8359 21.1406 101.062 21.1406C103.219 21.1406 104.562 19.4531 104.562 16.7266C104.562 13.9844 103.203 12.3125 101.039 12.3125C99.8672 12.3125 98.875 12.8984 98.3828 13.8672H98.25V12.4531H96.3828V23.8438H98.3203ZM98.2812 16.7266C98.2891 18.4375 99.1094 19.4922 100.43 19.4922C101.773 19.4922 102.57 18.4531 102.57 16.7266C102.57 15 101.766 13.9609 100.438 13.9609C99.1172 13.9609 98.2891 15.0234 98.2812 16.7266ZM108.445 21V16.0625C108.445 14.8672 109.32 14.0859 110.578 14.0859C110.906 14.0859 111.422 14.1406 111.57 14.1953V12.3984C111.391 12.3438 111.047 12.3125 110.766 12.3125C109.664 12.3125 108.742 12.9375 108.508 13.7812H108.375V12.4531H106.508V21H108.445ZM115.109 12.4531H113.18V21H115.109V12.4531ZM119.445 16.0234V21H117.508V12.4531H119.375V13.8203H119.508C119.914 12.8672 120.773 12.2812 122.047 12.2812C123.953 12.2812 124.992 13.4297 124.992 15.4688V21H123.055V15.9297C123.055 14.625 122.508 13.9688 121.328 13.9688C120.172 13.9688 119.445 14.7656 119.445 16.0234ZM130.961 24.25C133.453 24.25 135.031 23.0078 135.031 21.0312V12.4531H133.164V13.8203H133.031C132.562 12.8906 131.547 12.3125 130.383 12.3125C128.203 12.3125 126.852 14.0156 126.852 16.6328C126.852 19.2031 128.195 20.875 130.352 20.875C131.539 20.875 132.469 20.375 132.961 19.4609H133.094V21.0781C133.094 22.1484 132.32 22.7734 130.992 22.7734C129.93 22.7734 129.242 22.3984 129.117 21.8125H127.172C127.328 23.2812 128.766 24.25 130.961 24.25ZM128.844 16.6328C128.844 18.2656 129.609 19.2969 130.961 19.2969C132.312 19.2969 133.125 18.2656 133.125 16.6328C133.125 15 132.305 13.9609 130.961 13.9609C129.609 13.9609 128.844 15 128.844 16.6328Z" fill="white"/>
</g>
<path id="meditationapp" fill-rule="evenodd" clip-rule="evenodd" d="M73.6069 28.1328C73.6069 28.4165 73.3813 28.6421 73.1011 28.6421C72.8242 28.6421 72.5952 28.4165 72.5952 28.1328C72.5952 27.8491 72.8242 27.6201 73.1011 27.6201C73.3813 27.6201 73.6069 27.8491 73.6069 28.1328ZM70.7222 32.4087C70.5103 32.8188 70.0796 33.0615 69.5601 33.0615C68.6133 33.0615 68.022 32.3164 68.022 31.127C68.022 29.9443 68.6167 29.1992 69.5601 29.1992C70.0728 29.1992 70.4966 29.4453 70.6948 29.8555H70.7529V27.8149H71.6006V33H70.7803V32.4087H70.7222ZM58.5815 30.7271V33H57.7339V29.2607H58.5508V29.8657H58.6089C58.7695 29.4385 59.1523 29.1855 59.6479 29.1855C60.1641 29.1855 60.5229 29.4453 60.6802 29.8657H60.7383C60.9229 29.4556 61.3535 29.1855 61.873 29.1855C62.6216 29.1855 63.0728 29.6538 63.0728 30.4297V33H62.2285V30.645C62.2285 30.1631 61.9995 29.9238 61.5449 29.9238C61.104 29.9238 60.8135 30.2451 60.8135 30.6724V33H59.9897V30.5835C59.9897 30.1733 59.73 29.9238 59.313 29.9238C58.8926 29.9238 58.5815 30.269 58.5815 30.7271ZM67.3179 31.9712C67.1641 32.6514 66.5386 33.0752 65.6567 33.0752C64.5562 33.0752 63.8931 32.3472 63.8931 31.144C63.8931 29.9409 64.5664 29.1855 65.6499 29.1855C66.7163 29.1855 67.3555 29.8931 67.3555 31.0723V31.3457H64.7441V31.3901C64.7646 32.0122 65.1235 32.4019 65.6807 32.4019C66.1011 32.4019 66.3916 32.248 66.5146 31.9712H67.3179ZM66.5078 30.7681H64.7476C64.7852 30.2212 65.1406 29.8589 65.6465 29.8589C66.1558 29.8589 66.4907 30.2144 66.5078 30.7681ZM69.8232 32.3403C69.2422 32.3403 68.8901 31.8857 68.8901 31.1304C68.8901 30.3784 69.2456 29.9204 69.8232 29.9204C70.4043 29.9204 70.7632 30.3853 70.7632 31.1304C70.7632 31.8823 70.4077 32.3403 69.8232 32.3403ZM73.5249 29.2607H72.6807V33H73.5249V29.2607ZM76.4883 32.9761C76.3652 33 76.208 33.0171 76.0439 33.0171C75.186 33.0171 74.8442 32.7266 74.8442 32.002V29.9614H74.2529V29.2847H74.8442V28.3447H75.6885V29.2847H76.4883V29.9614H75.6885V31.7969C75.6885 32.166 75.8457 32.3301 76.2012 32.3301C76.3175 32.3301 76.3822 32.3236 76.48 32.3138L76.4883 32.313V32.9761ZM78.3647 33.0615C78.8535 33.0615 79.2637 32.8496 79.4722 32.4873H79.5303V33H80.3472V30.4468C80.3472 29.6538 79.8071 29.1855 78.8467 29.1855C77.958 29.1855 77.3394 29.606 77.271 30.2656H78.0708C78.1494 30.0127 78.416 29.876 78.8057 29.876C79.2637 29.876 79.5098 30.0811 79.5098 30.4468V30.7612L78.5459 30.8193C77.6367 30.874 77.1274 31.2637 77.1274 31.9404C77.1274 32.624 77.6436 33.0615 78.3647 33.0615ZM77.9683 31.8926C77.9683 32.207 78.2383 32.395 78.6143 32.395C79.127 32.395 79.5098 32.0635 79.5098 31.6294V31.332L78.6655 31.3867C78.1904 31.4175 77.9683 31.5884 77.9683 31.8926ZM82.8354 33.0171C82.9995 33.0171 83.1567 33 83.2798 32.9761V32.313L83.2715 32.3138C83.1737 32.3236 83.109 32.3301 82.9927 32.3301C82.6372 32.3301 82.48 32.166 82.48 31.7969V29.9614H83.2798V29.2847H82.48V28.3447H81.6357V29.2847H81.0444V29.9614H81.6357V32.002C81.6357 32.7266 81.9775 33.0171 82.8354 33.0171ZM85.064 28.1328C85.064 28.4165 84.8384 28.6421 84.5581 28.6421C84.2812 28.6421 84.0522 28.4165 84.0522 28.1328C84.0522 27.8491 84.2812 27.6201 84.5581 27.6201C84.8384 27.6201 85.064 27.8491 85.064 28.1328ZM84.9819 29.2607H84.1377V33H84.9819V29.2607ZM89.4424 31.1304C89.4424 32.3438 88.7622 33.0752 87.6445 33.0752C86.5234 33.0752 85.8467 32.3438 85.8467 31.1304C85.8467 29.9238 86.5337 29.1855 87.6445 29.1855C88.7588 29.1855 89.4424 29.9204 89.4424 31.1304ZM87.6445 32.3643C87.0532 32.3643 86.7148 31.9131 86.7148 31.1304C86.7148 30.3511 87.0532 29.8965 87.6445 29.8965C88.2324 29.8965 88.5708 30.3511 88.5708 31.1304C88.5708 31.9131 88.2358 32.3643 87.6445 32.3643ZM91.1445 30.8228V33H90.2969V29.2607H91.1138V29.8589H91.1719C91.3496 29.4419 91.7256 29.1855 92.2827 29.1855C93.1167 29.1855 93.5713 29.688 93.5713 30.5801V33H92.7236V30.7817C92.7236 30.2109 92.4844 29.9238 91.9683 29.9238C91.4624 29.9238 91.1445 30.2725 91.1445 30.8228ZM97.4712 33.0615C97.96 33.0615 98.3701 32.8496 98.5786 32.4873H98.6367V33H99.4536V30.4468C99.4536 29.6538 98.9136 29.1855 97.9531 29.1855C97.0645 29.1855 96.4458 29.606 96.3774 30.2656H97.1772C97.2559 30.0127 97.5225 29.876 97.9121 29.876C98.3701 29.876 98.6162 30.0811 98.6162 30.4468V30.7612L97.6523 30.8193C96.7432 30.874 96.2339 31.2637 96.2339 31.9404C96.2339 32.624 96.75 33.0615 97.4712 33.0615ZM97.0747 31.8926C97.0747 32.207 97.3447 32.395 97.7207 32.395C98.2334 32.395 98.6162 32.0635 98.6162 31.6294V31.332L97.772 31.3867C97.2969 31.4175 97.0747 31.5884 97.0747 31.8926ZM101.32 34.2441V32.4326H101.378C101.569 32.8291 101.983 33.0615 102.52 33.0615C103.463 33.0615 104.051 32.3232 104.051 31.1304C104.051 29.9307 103.456 29.1992 102.509 29.1992C101.997 29.1992 101.562 29.4556 101.347 29.8794H101.289V29.2607H100.472V34.2441H101.32ZM101.303 31.1304C101.306 31.8789 101.665 32.3403 102.243 32.3403C102.831 32.3403 103.179 31.8857 103.179 31.1304C103.179 30.375 102.827 29.9204 102.246 29.9204C101.668 29.9204 101.306 30.3853 101.303 31.1304ZM105.75 34.2441V32.4326H105.808C105.999 32.8291 106.413 33.0615 106.949 33.0615C107.893 33.0615 108.48 32.3232 108.48 31.1304C108.48 29.9307 107.886 29.1992 106.939 29.1992C106.426 29.1992 105.992 29.4556 105.777 29.8794H105.719V29.2607H104.902V34.2441H105.75ZM105.732 31.1304C105.736 31.8789 106.095 32.3403 106.672 32.3403C107.26 32.3403 107.609 31.8857 107.609 31.1304C107.609 30.375 107.257 29.9204 106.676 29.9204C106.098 29.9204 105.736 30.3853 105.732 31.1304Z" fill="white"/>
</g>
<defs>
<linearGradient id="paint0_linear" x1="22" y1="27" x2="22" y2="39" gradientUnits="userSpaceOnUse">
<stop stop-color="#F7AF57"/>
<stop offset="1" stop-color="#EC772C"/>
</linearGradient>
<linearGradient id="paint1_linear" x1="0" y1="6" x2="0" y2="38" gradientUnits="userSpaceOnUse">
<stop stop-color="#F7AF57"/>
<stop offset="1" stop-color="#EC772C"/>
</linearGradient>
<linearGradient id="paint2_linear" x1="19" y1="38" x2="19" y2="40" gradientUnits="userSpaceOnUse">
<stop stop-color="#F7AF57"/>
<stop offset="1" stop-color="#EC772C"/>
</linearGradient>
</defs>
</svg>
