<svg width="33" height="33" viewBox="0 0 33 33" fill="none" xmlns="http://www.w3.org/2000/svg"><path fill-rule="evenodd" clip-rule="evenodd" d="M28.22 18.874c4.118-4.424 3.784-11.42 3.767-11.723a.938.938 0 0 0-.884-.884c-.143-.008-2.166-.107-4.697.408-.5-2.564-1.374-4.406-1.415-4.492a.937.937 0 0 0-1.156-.479c-.09.032-2.01.716-4.176 2.175C18.24 1.734 16.744.376 16.625.27a.937.937 0 0 0-1.25 0c-.119.106-1.614 1.464-3.034 3.609-2.165-1.46-4.086-2.143-4.176-2.175a.938.938 0 0 0-1.155.479c-.042.086-.917 1.928-1.416 4.493C3.063 6.16 1.04 6.259.897 6.267a.937.937 0 0 0-.884.884c-.017.302-.35 7.3 3.767 11.723C1.682 20.036.308 21.553.24 21.63a.938.938 0 0 0 0 1.25c.15.167 3.703 4.078 8.23 4.078 1.175 0 2.285-.265 3.287-.659 1.042 3.156 3.502 5.387 3.617 5.491a.937.937 0 0 0 1.251 0c.116-.104 2.575-2.335 3.617-5.49 1.003.393 2.113.658 3.288.658 4.526 0 8.08-3.911 8.23-4.078a.938.938 0 0 0 0-1.25c-.069-.076-1.442-1.594-3.54-2.755zm-1.595-1.046c-2.438 2.439-6.07 3.186-8.38 3.408 1.666-1.99 4.014-5.522 4.014-9.625 0-.459-.03-.91-.085-1.354 2.845-1.758 6.338-2.074 7.943-2.119-.053 1.954-.505 6.703-3.492 9.69zM24.586 7.14a19.812 19.812 0 0 0-.946-3.33c-.722.322-1.841.88-3.022 1.685.456.866.86 1.814 1.155 2.826.923-.507 1.88-.89 2.813-1.181zm-8.585-4.85c1.17 1.236 3.621 4.18 4.239 7.705v.002c.092.526.144 1.066.144 1.614 0 4.21-3.04 7.896-4.384 9.32-1.344-1.424-4.384-5.11-4.384-9.32 0-4.211 3.042-7.898 4.385-9.32zm-4.62 3.205A19.82 19.82 0 0 0 8.36 3.809a19.84 19.84 0 0 0-.946 3.331c.933.29 1.89.674 2.813 1.18.294-1.01.7-1.96 1.155-2.825zm-1.555 4.762c-.055.443-.085.895-.085 1.354 0 4.106 2.35 7.639 4.017 9.628-2.307-.218-5.936-.963-8.384-3.41-2.978-2.979-3.434-7.737-3.49-9.692 1.604.043 5.09.356 7.942 2.12zm-4.55 9.955c-1.307.62-2.367 1.468-2.999 2.04 1.101.995 3.498 2.83 6.192 2.83 1.244 0 2.421-.387 3.437-.902a12.137 12.137 0 0 0 1.709-1.065c-2.24-.207-5.61-.87-8.339-2.903zM16 29.752c-.753-.83-1.982-2.398-2.539-4.288a15.185 15.185 0 0 0 2.54-1.89 15.18 15.18 0 0 0 2.54 1.89c-.557 1.883-1.789 3.456-2.541 4.289zm2.392-6.638c1.266.936 3.119 1.968 5.14 1.968 2.706 0 5.094-1.832 6.192-2.827-.634-.573-1.697-1.424-3-2.043-2.725 2.03-6.092 2.695-8.332 2.902z" fill="#fff"/><path d="M31.987 7.151l.25-.013-.25.013zM28.22 18.874l-.183-.17-.218.234.28.155.121-.219zm2.883-12.607l-.015.25.014-.25zm-4.697.408l-.245.048.048.248.247-.05-.05-.246zm-1.415-4.492l.225-.108-.226.108zm-1.156-.479l.083.236-.083-.236zM19.659 3.88l-.208.138.14.21.208-.14-.14-.208zM16.625.27l-.167.186.167-.186zm-1.25 0l.166.186-.166-.186zM12.34 3.88l-.14.207.209.141.139-.21-.208-.138zM8.165 1.704l.083-.236-.083.236zm-1.155.479l-.226-.108.226.108zM5.594 6.676l-.05.245.247.05.048-.248-.245-.047zM.897 6.267l-.013-.25.013.25zm-.884.884l.25.014-.25-.014zM3.78 18.874l.12.219.28-.155-.217-.234-.183.17zM.24 21.63l-.186-.167.186.166zm0 1.25l-.186.167.186-.167zm11.517 3.42l.238-.079-.083-.25-.246.096.091.233zm3.617 5.49l-.167.186.167-.186zm1.251 0l.167.186-.167-.186zm3.617-5.49l.092-.233-.246-.097-.083.251.237.079zm11.517-3.42l.187.167-.187-.167zm0-1.25l.187-.167-.187.166zm-13.514-.393l-.192-.16-.391.467.607-.058-.024-.249zm3.93-10.98l-.132-.212-.137.084.02.16.248-.031zm7.942-2.118l.25.007.007-.264-.264.007.007.25zM23.64 3.81l.233-.089-.094-.246-.241.107.102.228zm.946 3.331l.074.239.213-.066-.041-.22-.246.047zm-3.968-1.645l-.14-.207-.185.126.104.197.22-.116zm1.155 2.826l-.24.07.087.299.273-.15-.12-.22zM20.24 9.995l-.246.044.002.015.005.015.239-.074zM16 2.29l.181-.171L16 1.927l-.182.192.182.171zm4.239 7.706l.242-.063-.003-.01-.239.073zm0 .001l.247-.043-.002-.01-.003-.01-.242.063zM16 20.931l-.182.171.182.193.182-.193-.182-.171zM8.36 3.809l.102-.228-.241-.108-.095.247.234.09zm3.022 1.686l.221.116.104-.197-.184-.126-.141.207zM7.414 7.14l-.246-.046-.042.219.213.066.075-.239zm2.813 1.18l-.12.22.273.15.087-.3-.24-.07zm-.401 1.937l.248.03.02-.159-.137-.084-.131.213zm3.932 10.982l-.024.25.606.057-.39-.467-.192.16zm-8.384-3.41l-.177.176.177-.177zm-3.49-9.692l.007-.25-.264-.007.007.264.25-.007zm.393 14.116l-.168-.186-.205.186.206.185.167-.185zm3-2.04l.148-.201-.12-.09-.136.064.107.226zm6.628 3.967l.114.223.006-.004.007-.004-.127-.215zm.098-.05l.1.229.008-.004.007-.004-.115-.221zm1.611-1.015l.15.2.525-.39-.652-.06-.023.25zm-.154 2.349l-.127-.215-.168.098.055.188.24-.071zm2.538 4.289l-.185.168.186.204.185-.205-.186-.167zm.002-6.18l.169-.183-.17-.156-.168.156.169.184zm2.54 1.89l.239.072.055-.188-.168-.099-.127.216zm-.149-2.35l-.023-.248-.652.06.527.39.148-.201zm11.332-.858l.168.185.205-.186-.205-.185-.168.186zm-3-2.043l.108-.225-.136-.065-.121.09.15.2zm5.014-13.047c.008.14.095 1.943-.329 4.257-.425 2.316-1.358 5.119-3.37 7.282l.365.34c2.105-2.26 3.064-5.169 3.497-7.532.434-2.366.346-4.212.337-4.374l-.5.027zm-.648-.648c.35.019.63.298.648.648l.5-.028a1.188 1.188 0 0 0-1.12-1.12l-.028.5zm-4.633.403c2.502-.509 4.501-.41 4.633-.403l.028-.5c-.155-.008-2.201-.108-4.76.413l.099.49zm-1.691-4.63c.037.077.902 1.898 1.396 4.433l.49-.095c-.505-2.593-1.389-4.457-1.435-4.553l-.451.216zm-.847-.35a.687.687 0 0 1 .847.351l.45-.216a1.187 1.187 0 0 0-1.463-.607l.166.472zm-4.119 2.146c2.14-1.443 4.039-2.118 4.119-2.146l-.166-.472c-.101.036-2.043.728-4.232 2.203l.28.415zM16.46.456c.11.099 1.588 1.441 2.992 3.56l.417-.275C18.432 1.572 16.919.198 16.792.084l-.334.372zm-.917 0a.687.687 0 0 1 .916 0l.334-.372a1.187 1.187 0 0 0-1.584 0l.334.372zM12.55 4.017c1.404-2.12 2.882-3.462 2.992-3.56l-.333-.373c-.127.114-1.64 1.488-3.076 3.657l.417.276zM8.082 1.94c.08.028 1.978.704 4.119 2.146l.28-.414c-2.19-1.476-4.132-2.168-4.233-2.204l-.166.472zm-.847.351a.688.688 0 0 1 .847-.35l.166-.473c-.571-.2-1.202.06-1.464.607l.45.216zM5.839 6.723c.494-2.535 1.36-4.356 1.396-4.432l-.451-.216c-.046.096-.93 1.96-1.435 4.553l.49.095zM.911 6.517c.131-.008 2.131-.106 4.633.404l.1-.49c-2.56-.521-4.606-.422-4.76-.414l.027.5zm-.648.648a.685.685 0 0 1 .648-.648l-.028-.5a1.187 1.187 0 0 0-1.12 1.12l.5.028zm3.7 11.539C1.95 16.54 1.017 13.738.592 11.422.168 9.108.255 7.305.262 7.165l-.499-.027C-.246 7.3-.334 9.146.1 11.512c.433 2.363 1.392 5.271 3.497 7.532l.366-.34zM.427 21.795c.06-.067 1.411-1.56 3.474-2.702l-.242-.438C1.525 19.836.129 21.377.054 21.462l.373.334zm0 .917a.688.688 0 0 1 0-.917l-.373-.333a1.188 1.188 0 0 0 0 1.584l.373-.334zm8.042 3.995c-2.192 0-4.163-.949-5.615-1.934-1.45-.982-2.36-1.986-2.427-2.06l-.373.333c.082.092 1.023 1.127 2.52 2.141 1.493 1.013 3.562 2.02 5.895 2.02v-.5zm3.197-.641c-.98.385-2.058.64-3.197.64v.5c1.214 0 2.355-.272 3.38-.675l-.183-.465zm3.876 5.537c-.11-.098-2.527-2.293-3.547-5.383l-.475.157c1.063 3.221 3.566 5.489 3.687 5.598l.335-.372zm.458.175a.686.686 0 0 1-.459-.175l-.333.372c.225.202.509.303.792.303v-.5zm.459-.175a.686.686 0 0 1-.459.175v.5c.283 0 .567-.101.792-.302l-.333-.373zm3.546-5.383c-1.02 3.09-3.437 5.285-3.546 5.383l.333.372c.123-.11 2.624-2.377 3.688-5.598l-.475-.157zm3.526.487c-1.139 0-2.218-.256-3.197-.641l-.183.465c1.025.403 2.166.676 3.38.676v-.5zm8.042-3.995c-.067.075-.977 1.079-2.427 2.061-1.452.985-3.423 1.934-5.616 1.934v.5c2.334 0 4.403-1.007 5.897-2.02 1.495-1.014 2.437-2.05 2.519-2.14l-.373-.335zm0-.917a.688.688 0 0 1 0 .917l.373.334a1.188 1.188 0 0 0 0-1.584l-.373.333zM28.1 19.093c2.062 1.141 3.414 2.635 3.474 2.703l.373-.334c-.076-.085-1.472-1.626-3.605-2.807l-.242.438zm-9.83 2.392c2.324-.223 6.03-.977 8.533-3.48l-.354-.353c-2.374 2.374-5.931 3.115-8.227 3.335l.048.498zm3.74-9.874c0 4.014-2.3 7.488-3.956 9.465l.383.32c1.678-2.003 4.073-5.592 4.073-9.785h-.5zm-.083-1.324c.053.434.083.876.083 1.324h.5c0-.47-.031-.932-.087-1.385l-.496.061zm8.184-2.399c-1.617.046-5.165.362-8.067 2.156l.262.425c2.788-1.722 6.226-2.036 7.819-2.08l-.014-.5zm-3.308 10.117c1.535-1.535 2.411-3.514 2.91-5.343.5-1.83.628-3.528.655-4.517l-.5-.013a19.12 19.12 0 0 1-.637 4.398c-.486 1.78-1.33 3.67-2.782 5.122l.354.353zM23.406 3.9c.28.73.672 1.9.934 3.287l.492-.092a20.065 20.065 0 0 0-.959-3.374l-.467.179zM20.76 5.7a19.558 19.558 0 0 1 2.983-1.663l-.204-.457a20.06 20.06 0 0 0-3.06 1.707l.28.413zm1.254 2.55c-.3-1.03-.712-1.994-1.174-2.873l-.442.233c.449.854.847 1.787 1.136 2.78l.48-.14zm2.499-1.35a15.63 15.63 0 0 0-2.86 1.2l.241.439a15.015 15.015 0 0 1 2.767-1.161l-.148-.478zm-4.026 3.051c-.631-3.602-3.127-6.59-4.303-7.833l-.364.343c1.162 1.228 3.57 4.126 4.175 7.577l.492-.087zm-.007-.029l-.478.146.478-.146zm.003.01l-.484.127.484-.127zm.152 1.678c0-.564-.053-1.118-.148-1.657l-.492.086c.09.513.14 1.038.14 1.571h.5zm-4.452 9.491a19.75 19.75 0 0 0 2.731-3.662c.94-1.648 1.72-3.665 1.72-5.829h-.5c0 2.046-.739 3.977-1.654 5.58a19.26 19.26 0 0 1-2.66 3.568l.363.343zm-4.816-9.49c0 2.163.78 4.18 1.72 5.828a19.754 19.754 0 0 0 2.732 3.662l.364-.343a19.259 19.259 0 0 1-2.661-3.567c-.916-1.604-1.655-3.535-1.655-5.58h-.5zm4.453-9.493c-.68.72-1.79 2.013-2.731 3.662-.941 1.648-1.722 3.666-1.722 5.83h.5c0-2.047.74-3.978 1.656-5.582a19.261 19.261 0 0 1 2.66-3.567l-.363-.343zm-7.562 1.92a19.58 19.58 0 0 1 2.983 1.663l.282-.413a20.075 20.075 0 0 0-3.061-1.707l-.204.457zm-.599 3.148a19.72 19.72 0 0 1 .934-3.287l-.467-.179c-.286.748-.689 1.95-.958 3.374l.491.092zm2.688.916a15.515 15.515 0 0 0-2.86-1.2l-.148.477c.921.286 1.862.664 2.768 1.16l.24-.437zm.814-2.724a15.466 15.466 0 0 0-1.174 2.873l.48.14c.289-.993.687-1.926 1.136-2.78l-.442-.233zm-1.17 6.233c0-.448.03-.89.083-1.324l-.496-.06c-.056.452-.087.914-.087 1.384h.5zm3.958 9.468c-1.655-1.976-3.958-5.452-3.958-9.468h-.5c0 4.196 2.397 7.786 4.075 9.789l.383-.321zm-8.752-3.074c2.512 2.511 6.216 3.263 8.537 3.483l.047-.497c-2.292-.218-5.847-.956-8.23-3.34l-.354.354zM1.634 8.144c.029.99.158 2.69.658 4.521.5 1.83 1.375 3.81 2.905 5.34l.354-.353c-1.447-1.448-2.29-3.336-2.776-5.119a19.261 19.261 0 0 1-.64-4.403l-.5.014zm8.323 1.9c-2.91-1.8-6.45-2.113-8.066-2.157l-.014.5c1.592.043 5.023.354 7.817 2.082l.263-.425zM2.445 22.438c.621-.563 1.66-1.394 2.938-2l-.214-.452c-1.337.635-2.418 1.5-3.06 2.081l.336.37zm6.024 2.394c-2.594 0-4.929-1.775-6.024-2.765l-.335.371c1.107 1 3.564 2.894 6.36 2.894v-.5zm3.323-.875c-.992.503-2.13.875-3.323.875v.5c1.296 0 2.512-.403 3.55-.93l-.227-.445zm.111-.057c-.045.02-.086.042-.124.064l.253.431a.676.676 0 0 1 .07-.036l-.199-.459zm1.562-.986c-.455.338-.988.687-1.578.994l.231.443a12.392 12.392 0 0 0 1.645-1.035l-.298-.402zm-8.338-2.501c2.782 2.072 6.206 2.742 8.464 2.95l.046-.497c-2.221-.205-5.537-.862-8.212-2.854l-.298.4zm8.093 5.122c.573 1.943 1.831 3.545 2.593 4.386l.37-.336c-.742-.82-1.942-2.355-2.483-4.192l-.48.142zm2.61-2.145a14.945 14.945 0 0 1-2.496 1.858l.253.431a15.43 15.43 0 0 0 2.582-1.921l-.338-.368zm2.836 1.858a14.937 14.937 0 0 1-2.497-1.858l-.338.368a15.425 15.425 0 0 0 2.581 1.921l.254-.43zm-2.482 4.672c.762-.843 2.023-2.45 2.595-4.386l-.48-.141c-.54 1.83-1.743 3.37-2.486 4.192l.371.335zm7.346-5.088c-1.94 0-3.74-.994-4.99-1.92l-.297.403c1.28.947 3.187 2.017 5.288 2.017v-.5zm6.025-2.762c-1.092.99-3.419 2.762-6.024 2.762v.5c2.806 0 5.256-1.89 6.36-2.892l-.336-.37zm-2.939-1.632c1.273.605 2.316 1.438 2.94 2.002l.335-.37c-.644-.583-1.728-1.45-3.06-2.083l-.215.451zm-8.202 2.925c2.259-.209 5.68-.88 8.459-2.95l-.299-.401c-2.672 1.99-5.984 2.648-8.206 2.853l.046.498z" fill="#141625"/></svg>