<svg width="32" height="32" viewBox="0 0 32 32" fill="none" xmlns="http://www.w3.org/2000/svg"><path fill-rule="evenodd" clip-rule="evenodd" d="M30.608 21.202c.197.195.32.431.37.71.049.277.017.54-.095.79-1.321 2.822-3.314 5.077-5.977 6.765C22.243 31.156 19.338 32 16.19 32c-2.193 0-4.286-.424-6.282-1.271-1.996-.849-3.717-1.988-5.165-3.42-1.447-1.43-2.6-3.133-3.457-5.106A15.428 15.428 0 0 1 0 15.99c0-2.127.404-4.16 1.212-6.098.808-1.938 1.905-3.617 3.289-5.034 1.384-1.418 3.039-2.56 4.964-3.43A16.262 16.262 0 0 1 15.58.003c.618-.028 1.047.243 1.285.813.253.57.148 1.07-.316 1.5A11.094 11.094 0 0 0 13.776 6.1a11.091 11.091 0 0 0-.96 4.555c0 2.057.513 3.954 1.54 5.691a11.367 11.367 0 0 0 4.173 4.128c1.757 1.014 3.675 1.521 5.755 1.521 1.658 0 3.26-.354 4.807-1.063.576-.25 1.082-.16 1.517.271zm-14.418 8.13c2.023 0 3.945-.428 5.765-1.283a13.413 13.413 0 0 0 4.648-3.574c-.759.125-1.532.188-2.319.188-2.558 0-4.925-.625-7.104-1.876a13.934 13.934 0 0 1-5.164-5.107c-1.265-2.155-1.898-4.496-1.898-7.026 0-2.668.731-5.149 2.193-7.442-2.825.834-5.133 2.425-6.925 4.774-1.792 2.349-2.688 5.017-2.688 8.005 0 1.806.359 3.533 1.075 5.18.717 1.647 1.676 3.064 2.878 4.252 1.201 1.189 2.635 2.137 4.3 2.846a13.246 13.246 0 0 0 5.239 1.063z" fill="#fff"/><path d="M30.977 21.912l-.69.121.001.002.69-.123zm-.369-.71l.493-.497-.493.497zm.275 1.5l.634.298.004-.01-.638-.287zm-5.977 6.765l-.375-.591.375.591zM9.908 30.73l-.274.644.274-.645zm-5.165-3.42l-.492.499.492-.498zm-3.457-5.106l-.642.279.642-.28zm-.074-12.31l-.646-.27.646.27zM4.501 4.86l.5.489-.5-.49zm4.964-3.43L9.178.793l.287.638zM15.58.003l.027.7h.004l-.031-.7zm1.285.813l-.645.27.003.007.003.007.64-.284zm-.316 1.5l.468.522.008-.008-.476-.513zM13.776 6.1l-.64-.284.64.284zm.58 10.246l.603-.356-.603.356zm4.173 4.128l.35-.607-.35.607zm10.562.458l-.279-.642-.007.003-.006.003.292.636zm-7.136 7.118l-.297-.633.297.633zm4.648-3.574l.537.45 1.21-1.448-1.86.308.113.69zm-9.423-1.688l-.348.607.348-.607zm-5.164-5.107l-.604.354.604-.354zm.295-14.468l.59.376 1.005-1.577-1.793.53.198.671zM5.386 7.986l-.557-.425.557.425zM3.773 21.17l-.642.28.642-.28zm2.878 4.252l.492-.497-.492.497zm4.3 2.846l-.274.644.274-.644zm20.716-6.479a1.989 1.989 0 0 0-.566-1.085l-.985.995a.59.59 0 0 1 .172.333l1.379-.243zm-.146 1.2a2.02 2.02 0 0 0 .145-1.201l-1.378.245a.621.621 0 0 1-.044.382l1.277.574zm-6.24 7.068c2.774-1.759 4.857-4.115 6.236-7.058l-1.268-.594c-1.264 2.699-3.166 4.852-5.718 6.47l.75 1.182zM16.19 32.7c3.281 0 6.316-.882 9.091-2.642l-.75-1.182c-2.55 1.618-5.326 2.424-8.341 2.424v1.4zm-6.556-1.327A16.607 16.607 0 0 0 16.19 32.7v-1.4c-2.1 0-4.1-.405-6.008-1.216l-.548 1.289zm-5.383-3.565c1.514 1.497 3.311 2.684 5.383 3.565l.548-1.289c-1.92-.816-3.566-1.907-4.947-3.272l-.984.996zM.644 22.482c.89 2.05 2.092 3.828 3.607 5.326l.984-.996c-1.38-1.365-2.483-2.992-3.307-4.888l-1.284.558zM-.7 15.99c0 2.263.448 4.428 1.344 6.49l1.284-.557A14.728 14.728 0 0 1 .7 15.99H-.7zM.566 9.623A16.396 16.396 0 0 0-.7 15.99H.7a15 15 0 0 1 1.158-5.829L.566 9.624zM4 4.37C2.55 5.854 1.406 7.608.566 9.624l1.292.538c.776-1.861 1.825-3.464 3.144-4.814L4 4.37zM9.177.792C7.177 1.694 5.45 2.885 4 4.37l1.002.978c1.319-1.351 2.9-2.445 4.751-3.28L9.177.792zm6.375-1.49A16.962 16.962 0 0 0 9.178.792l.575 1.276A15.562 15.562 0 0 1 15.606.7l-.054-1.399zM17.51.544c-.163-.388-.412-.724-.772-.951-.36-.228-.77-.31-1.19-.29L15.61.7c.198-.009.311.032.38.075.069.044.153.128.229.31L17.51.543zm-.486 2.285c.313-.29.547-.645.636-1.067.09-.423.017-.842-.156-1.231l-1.28.568c.08.18.082.297.066.374-.016.078-.067.189-.218.33l.952 1.026zm-2.608 3.555a10.395 10.395 0 0 1 2.6-3.547l-.935-1.042a11.795 11.795 0 0 0-2.945 4.02l1.28.569zm-.9 4.27c0-1.502.3-2.923.9-4.27l-1.28-.57a11.792 11.792 0 0 0-1.02 4.84h1.4zm1.443 5.335c-.962-1.627-1.442-3.4-1.442-5.335h-1.4c0 2.18.545 4.2 1.636 6.047l1.206-.712zm3.92 3.877a10.667 10.667 0 0 1-3.92-3.877l-1.206.712a12.067 12.067 0 0 0 4.426 4.378l.7-1.213zm5.405 1.428c-1.96 0-3.757-.476-5.404-1.428l-.7 1.213c1.865 1.078 3.905 1.615 6.104 1.615v-1.4zm4.515-1c-1.457.669-2.96 1-4.515 1v1.4a12.11 12.11 0 0 0 5.099-1.127l-.584-1.272zm2.302.41a2.034 2.034 0 0 0-1.075-.582c-.417-.074-.828 0-1.214.167l.558 1.284c.19-.082.32-.089.41-.073.087.016.2.065.336.2l.985-.995zm-9.443 6.712a12.696 12.696 0 0 1-5.468 1.216v1.4c2.126 0 4.15-.45 6.063-1.35l-.595-1.266zm4.408-3.39a12.714 12.714 0 0 1-4.408 3.39l.595 1.267a14.115 14.115 0 0 0 4.887-3.759l-1.074-.898zm-1.782 1.337c.824 0 1.636-.066 2.433-.197l-.228-1.381a13.53 13.53 0 0 1-2.205.178v1.4zm-7.452-1.97c2.286 1.314 4.774 1.97 7.452 1.97v-1.4c-2.438 0-4.685-.595-6.755-1.783l-.697 1.214zm-5.42-5.359a14.633 14.633 0 0 0 5.42 5.36l.697-1.214a13.235 13.235 0 0 1-4.91-4.855l-1.207.71zm-1.994-7.38c0 2.653.665 5.117 1.994 7.38l1.207-.709c-1.2-2.045-1.8-4.264-1.8-6.67h-1.4zm2.303-7.818c-1.532 2.403-2.303 5.014-2.303 7.818h1.4c0-2.532.692-4.883 2.083-7.066l-1.18-.752zM5.942 8.41c1.702-2.23 3.885-3.735 6.567-4.526l-.396-1.343c-2.968.876-5.402 2.554-7.284 5.02l1.113.85zm-2.544 7.58c0-2.836.847-5.354 2.544-7.58L4.83 7.561C2.943 10.034 2 12.851 2 15.991h1.4zm1.017 4.902a12.145 12.145 0 0 1-1.017-4.901h-1.4c0 1.902.378 3.724 1.133 5.46l1.284-.56zm2.728 4.034c-1.134-1.122-2.044-2.464-2.728-4.035l-1.284.56c.75 1.722 1.759 3.215 3.027 4.47l.985-.995zm4.082 2.699c-1.59-.677-2.948-1.578-4.082-2.7l-.985.996c1.27 1.255 2.778 2.251 4.52 2.992l.547-1.288zm4.965 1.007c-1.734 0-3.387-.336-4.965-1.008l-.548 1.289a13.944 13.944 0 0 0 5.513 1.119v-1.4z" fill="#070918"/></svg>