<svg width="126" height="140" viewBox="0 0 126 140" fill="none" xmlns="http://www.w3.org/2000/svg"><path opacity=".051" fill-rule="evenodd" clip-rule="evenodd" d="M63 17l45.899 26.5v53L63 123 17.1 96.5v-53L63 17z" fill="#1A65FD" stroke="#1A65FD" stroke-width="34" stroke-linejoin="round"/><path fill-rule="evenodd" clip-rule="evenodd" d="M88.88 79.043c.34.34.553.753.638 1.239a2.33 2.33 0 0 1-.163 1.383c-2.283 4.928-5.725 8.868-10.326 11.817-4.6 2.95-9.62 4.426-15.059 4.426-3.787 0-7.404-.741-10.852-2.222-3.448-1.482-6.423-3.473-8.923-5.973-2.501-2.5-4.492-5.475-5.973-8.922A27.215 27.215 0 0 1 36 69.937c0-3.715.698-7.265 2.094-10.653 1.396-3.386 3.29-6.319 5.682-8.795 2.391-2.477 5.25-4.474 8.577-5.991 3.326-1.517 6.847-2.35 10.562-2.495 1.068-.048 1.808.425 2.221 1.42.437.996.255 1.87-.547 2.623-2.088 1.894-3.684 4.097-4.789 6.61a19.565 19.565 0 0 0-1.657 7.958c0 3.594.886 6.908 2.659 9.943a19.745 19.745 0 0 0 7.21 7.21c3.035 1.774 6.35 2.659 9.943 2.659 2.865 0 5.633-.619 8.304-1.857.995-.437 1.87-.279 2.622.474zM63.97 93.246c3.497 0 6.817-.747 9.961-2.24a23.21 23.21 0 0 0 8.03-6.245 24.306 24.306 0 0 1-4.006.328c-4.42 0-8.51-1.093-12.273-3.278-3.764-2.186-6.738-5.16-8.923-8.922-2.185-3.764-3.278-7.856-3.278-12.275 0-4.662 1.263-8.996 3.788-13.002-4.88 1.457-8.868 4.237-11.964 8.34-3.096 4.104-4.644 8.765-4.644 13.986 0 3.156.62 6.172 1.858 9.05 1.239 2.877 2.895 5.353 4.971 7.43 2.076 2.076 4.553 3.733 7.43 4.97a22.662 22.662 0 0 0 9.05 1.858z" fill="#0058FF"/><path d="M89.518 80.282l-1.182.206v.002l1.182-.208zm-.637-1.239l.849-.848-.85.848zm.474 2.621l1.089.505.004-.008.003-.008-1.096-.489zm-10.326 11.82l-.647-1.01.647 1.01zm-25.911 2.203l-.474 1.103.474-1.103zm-8.923-5.973l-.849.849.849-.849zm-5.973-8.922l-1.103.473 1.103-.473zm-.128-21.507l-1.11-.457 1.11.457zm5.682-8.795l.863.834-.863-.834zm8.577-5.991l-.498-1.092.498 1.092zm10.562-2.495l.047 1.2h.007l-.054-1.2zm2.221 1.42l-1.108.46.004.011.005.012 1.1-.483zm-.547 2.623l.806.889.008-.007.007-.007-.82-.875zm-4.789 6.61l-1.098-.483 1.098.483zm1.002 17.9l1.036-.604-1.036.605zm7.21 7.212l.606-1.036-.606 1.036zm18.247.8l-.483-1.098-.01.005-.012.005.505 1.089zM73.93 91.006l-.514-1.084.514 1.084zm8.03-6.244l.925.765 2.05-2.478-3.172.53.198 1.183zm-16.279-2.95l-.603 1.038.603-1.038zm-8.923-8.922l-1.038.602 1.038-.602zm.51-25.277l1.015.64 1.704-2.704-3.062.914.343 1.15zm-11.964 8.34l-.958-.723.958.723zM42.52 78.988l-1.102.474 1.102-.474zm4.971 7.43l.849-.85-.849.85zm7.43 4.97l-.474 1.103.474-1.102zM90.7 80.077a3.46 3.46 0 0 0-.97-1.88l-1.698 1.695c.161.161.26.349.304.597l2.364-.412zm-.249 2.077a3.53 3.53 0 0 0 .249-2.08l-2.364.418a1.13 1.13 0 0 1-.077.685l2.192.977zm-10.774 12.34c4.792-3.072 8.388-7.187 10.767-12.324l-2.178-1.009c-2.186 4.72-5.474 8.485-9.884 11.312l1.295 2.02zM63.97 99.108c5.67 0 10.914-1.542 15.707-4.615l-1.295-2.02c-4.409 2.826-9.203 4.235-14.412 4.235v2.4zm-11.326-2.32a28.419 28.419 0 0 0 11.326 2.32v-2.4c-3.626 0-7.082-.709-10.379-2.124l-.947 2.205zm-9.298-6.226c2.615 2.614 5.719 4.689 9.298 6.227l.948-2.205c-3.317-1.426-6.162-3.333-8.549-5.72l-1.697 1.698zm-6.227-9.298c1.538 3.58 3.612 6.683 6.227 9.298l1.697-1.697c-2.387-2.387-4.294-5.232-5.719-8.548l-2.205.947zM34.8 69.937c0 3.95.773 7.728 2.319 11.327l2.205-.947a26.016 26.016 0 0 1-2.124-10.38h-2.4zm2.185-11.11a28.89 28.89 0 0 0-2.185 11.11h2.4c0-3.56.668-6.955 2.004-10.195l-2.22-.915zm5.928-9.172c-2.504 2.593-4.478 5.654-5.928 9.172l2.218.915c1.343-3.256 3.156-6.059 5.436-8.42l-1.727-1.667zm8.942-6.249c-3.455 1.576-6.44 3.658-8.943 6.25l1.727 1.666c2.28-2.362 5.014-4.273 8.212-5.732l-.996-2.184zm11.013-2.602c-3.869.152-7.543 1.02-11.013 2.602l.996 2.184c3.182-1.451 6.55-2.248 10.11-2.388l-.093-2.398zm3.377 2.16c-.28-.673-.708-1.257-1.328-1.653-.62-.397-1.33-.54-2.057-.506l.109 2.397c.341-.015.536.055.656.131.12.077.269.227.403.55l2.216-.92zm-.835 3.957c.539-.506.94-1.121 1.092-1.85.152-.73.03-1.454-.267-2.13l-2.198.965c.14.32.145.531.115.675-.03.145-.121.343-.384.59l1.642 1.75zm-4.51 6.218c1.035-2.355 2.53-4.42 4.496-6.205l-1.612-1.777c-2.21 2.004-3.907 4.345-5.081 7.016l2.197.966zm-1.556 7.475c0-2.629.52-5.117 1.556-7.475l-2.197-.966a20.765 20.765 0 0 0-1.759 8.44h2.4zm2.495 9.337c-1.663-2.847-2.495-5.951-2.495-9.337h-2.4c0 3.801.94 7.325 2.823 10.548l2.072-1.21zm6.78 6.78a18.547 18.547 0 0 1-6.78-6.78l-2.072 1.21a20.946 20.946 0 0 0 7.641 7.643l1.21-2.072zm9.337 2.495c-3.386 0-6.49-.831-9.337-2.494l-1.21 2.072c3.222 1.883 6.746 2.822 10.547 2.822v-2.4zm7.8-1.746c-2.518 1.167-5.114 1.746-7.8 1.746v2.4c3.044 0 5.984-.659 8.809-1.968l-1.01-2.178zm3.975.715c-.515-.515-1.133-.886-1.856-1.016-.72-.13-1.43-.002-2.098.291l.965 2.198c.329-.145.552-.155.706-.128.152.028.347.113.585.351l1.698-1.696zM73.416 89.922a21.726 21.726 0 0 1-9.446 2.124v2.4c3.674 0 7.17-.786 10.476-2.357l-1.03-2.168zm7.62-5.926a22.01 22.01 0 0 1-7.62 5.925l1.03 2.168a24.408 24.408 0 0 0 8.44-6.563l-1.85-1.53zm-3.081 2.293a25.5 25.5 0 0 0 4.204-.344l-.395-2.368a23.11 23.11 0 0 1-3.809.312v2.4zm-12.876-3.44c3.95 2.293 8.248 3.44 12.876 3.44v-2.4c-4.211 0-8.093-1.038-11.67-3.115l-1.206 2.075zm-9.358-9.358c2.29 3.944 5.415 7.067 9.358 9.358l1.206-2.075c-3.584-2.082-6.408-4.906-8.488-8.488l-2.076 1.205zm-3.44-12.877c0 4.628 1.147 8.927 3.44 12.877l2.076-1.205c-2.078-3.578-3.116-7.46-3.116-11.672h-2.4zm3.973-13.642c-2.644 4.195-3.973 8.75-3.973 13.642h2.4c0-4.432 1.197-8.544 3.603-12.362l-2.03-1.28zm-9.991 9.703c2.943-3.901 6.717-6.53 11.35-7.913l-.687-2.3c-5.128 1.531-9.33 4.462-12.579 8.767l1.916 1.446zm-4.402 13.263c0-4.964 1.466-9.371 4.402-13.263l-1.916-1.446c-3.255 4.316-4.886 9.232-4.886 14.709h2.4zm1.76 8.575a21.457 21.457 0 0 1-1.76-8.576h-2.4c0 3.319.652 6.497 1.956 9.525l2.204-.949zm4.718 7.056c-1.962-1.961-3.535-4.309-4.718-7.056l-2.204.95c1.294 3.007 3.034 5.612 5.224 7.803l1.698-1.697zm7.055 4.717c-2.747-1.182-5.094-2.755-7.055-4.717l-1.698 1.697c2.191 2.19 4.797 3.93 7.805 5.225l.948-2.205zm8.576 1.76c-2.994 0-5.85-.587-8.576-1.76l-.948 2.205a23.863 23.863 0 0 0 9.524 1.955v-2.4z" fill="#F3F8FF"/></svg>