<svg width="32" height="22" viewBox="0 0 32 22" fill="none" xmlns="http://www.w3.org/2000/svg"><path fill-rule="evenodd" clip-rule="evenodd" d="M31.023 8.744c.477 1.908.795 3.935.875 5.764.08 2.067-.12 3.537-.557 4.531-.437 1.034-1.113 1.59-1.908 1.829-.755.199-1.63.08-2.544-.278-1.55-.637-3.339-1.988-5.088-3.618-1.232-1.192-3.538-1.789-5.843-1.789-2.306 0-4.612.597-5.844 1.79-1.749 1.629-3.538 2.98-5.088 3.617-.914.397-1.789.477-2.544.278-.835-.239-1.471-.835-1.908-1.789-.438-1.034-.636-2.504-.557-4.532.08-1.828.398-3.856.875-5.764.437-1.828 1.073-3.538 1.789-4.85C5.448-.967 8.45-.208 12.04.7l.06.015.311.075c1.063.258 2.188.532 3.347.64h.397c1.159-.108 2.284-.382 3.347-.64l.31-.075c3.618-.954 6.639-1.71 9.422 3.18.715 1.312 1.311 3.021 1.788 4.85zm-1.987 10.733c.397-.12.715-.438.954-.994.358-.835.517-2.067.437-3.896-.08-1.749-.397-3.657-.835-5.486-.437-1.749-.993-3.3-1.67-4.492-2.166-3.9-4.685-3.27-7.672-2.524l-.079.02c-1.232.318-2.504.636-3.935.755h-.597c-1.39-.119-2.663-.437-3.895-.755C8.723 1.31 6.179.674 3.992 4.609c-.675 1.193-1.232 2.783-1.67 4.492a27.42 27.42 0 0 0-.834 5.486c-.08 1.829.08 3.06.397 3.816.239.557.557.875.955.994.437.159.993.04 1.63-.199 1.35-.517 2.98-1.789 4.61-3.3 1.55-1.43 4.214-2.185 6.877-2.185 2.664 0 5.327.755 6.838 2.265 1.59 1.51 3.22 2.743 4.611 3.3.636.238 1.193.318 1.63.199z" fill="#fff"/><path d="M31.898 14.508l.05-.002-.05.002zm-.875-5.764l.049-.013-.049.013zm.318 10.295l-.045-.02.045.02zm-1.908 1.829l.013.048h.002l-.015-.048zm-2.544-.278l-.019.046h.001l.018-.046zm-5.088-3.618l-.035.036.035-.036zm-11.687 0l.034.037-.034-.037zM5.026 20.59l-.02-.046.02.047zm-2.544.279l-.014.048h.001l.013-.048zm-1.908-1.79l-.046.02.046-.02zm-.557-4.532l-.05-.002.05.002zm.875-5.764l.048.012-.048-.012zm1.789-4.85l-.044-.024.044.025zM12.04.7l-.012.048.013-.048zm.06.015l-.012.048.013-.048zm.311.075l.012-.049-.012.05zm3.347.64l-.005.05h.005v-.05zm.397 0v.05h.005l-.005-.05zm3.347-.64L19.49.74l.012.05zm.31-.075l.012.048h.001l-.013-.048zm9.422 3.18l.043-.024-.043.024zm.755 14.589l-.046-.02.046.02zm-.954.994l.013.048h.001l-.014-.048zm1.391-4.89l.05-.002-.05.002zm-.835-5.486l.049-.011-.049.011zm-1.67-4.492l-.043.025.044-.025zM20.25 2.085l.012.049-.012-.049zm-.079.02l-.012-.048.012.048zm-3.935.755v.05h.004l-.004-.05zm-.597 0l-.004.05h.005v-.05zm-3.895-.755l-.013.048.013-.048zM3.992 4.609l.044.025-.044-.025zm-1.67 4.492l.05.013-.05-.013zm-.834 5.486l-.05-.002.05.002zm.397 3.816l-.046.02.046-.02zm.955.994l.017-.047h-.003l-.014.047zm1.63-.199l.017.047-.018-.047zm4.61-3.3l-.033-.036.034.037zm13.715.08l-.036.036h.001l.035-.036zm4.611 3.3l-.019.046h.001l.018-.046zm4.542-4.773c-.08-1.832-.398-3.863-.876-5.774l-.097.025c.476 1.905.794 3.929.873 5.754l.1-.005zm-.56 4.554c.441-1.004.64-2.484.56-4.553l-.1.003c.08 2.065-.12 3.527-.552 4.51l.091.04zm-1.94 1.857c.81-.243 1.497-.811 1.94-1.857l-.093-.04c-.432 1.022-1.096 1.567-1.876 1.8l.029.097zm-2.577-.28c.92.36 1.806.483 2.575.28l-.025-.097c-.742.196-1.605.08-2.514-.276l-.036.093zm-5.104-3.627c1.75 1.63 3.544 2.987 5.103 3.627l.038-.093c-1.542-.632-3.325-1.979-5.073-3.607l-.068.073zm-5.81-1.776c2.301 0 4.59.596 5.81 1.775l.069-.072c-1.246-1.206-3.568-1.803-5.878-1.803v.1zm-5.808 1.775c1.218-1.18 3.508-1.775 5.809-1.775v-.1c-2.311 0-4.633.597-5.879 1.803l.07.072zm-5.104 3.628c1.559-.64 3.353-1.996 5.103-3.627l-.068-.073c-1.748 1.628-3.531 2.975-5.073 3.607l.038.093zm-2.576.28c.768.202 1.654.12 2.577-.28l-.04-.092c-.906.393-1.769.47-2.512.275l-.025.097zM.529 19.1c.441.964 1.087 1.572 1.939 1.816l.027-.096c-.817-.234-1.443-.818-1.876-1.762l-.09.042zm-.562-4.555c-.08 2.03.12 3.51.56 4.553l.093-.038c-.433-1.024-.632-2.486-.553-4.51l-.1-.005zm.876-5.774c-.478 1.911-.796 3.942-.876 5.774l.1.005c.08-1.825.397-3.85.873-5.755l-.097-.024zM2.637 3.91C1.919 5.226 1.28 6.94.843 8.772l.097.023c.437-1.825 1.071-3.53 1.784-4.837l-.087-.048zM12.054.65C10.261.197 8.601-.224 7.042.088 5.478.402 4.025 1.45 2.637 3.91l.087.05C4.104 1.514 5.535.491 7.062.186c1.532-.307 3.17.105 4.967.56l.025-.097zm.06.015l-.06-.015-.025.097.06.015.025-.097zm.31.075l-.31-.075-.024.097.31.076.024-.098zm3.34.64c-1.155-.109-2.277-.381-3.34-.64L12.4.838c1.063.258 2.191.532 3.354.641l.01-.1zm.392 0h-.397v.1h.397v-.1zm3.335-.64c-1.063.259-2.185.531-3.34.64l.01.1c1.163-.11 2.292-.384 3.354-.642L19.49.74zm.31-.075l-.31.075.024.098.31-.076-.023-.097zm9.477 3.204C27.882 1.416 26.421.37 24.847.063c-1.569-.305-3.24.126-5.046.602l.025.097c1.812-.478 3.46-.9 5.002-.6 1.536.299 2.976 1.32 4.363 3.757l.087-.05zm1.794 4.862c-.478-1.83-1.075-3.544-1.794-4.861l-.087.048c.712 1.307 1.308 3.011 1.784 4.838l.097-.025zm-1.128 9.732c-.235.548-.544.852-.923.966l.03.095c.416-.125.743-.457.985-1.022l-.092-.039zm.433-3.874c.08 1.826-.08 3.05-.433 3.874l.092.04c.362-.846.52-2.087.441-3.918l-.1.004zm-.833-5.476c.436 1.827.754 3.731.833 5.476l.1-.004c-.08-1.753-.398-3.665-.836-5.495l-.097.023zm-1.665-4.479c.673 1.187 1.228 2.733 1.665 4.48l.097-.025c-.438-1.751-.996-3.306-1.675-4.504l-.087.05zm-7.617-2.5c1.497-.374 2.861-.715 4.122-.48 1.256.233 2.416 1.038 3.495 2.98l.087-.049c-1.088-1.96-2.27-2.79-3.563-3.03-1.287-.239-2.675.109-4.165.482l.024.097zm-.079.02l.08-.02-.025-.097-.079.02.024.097zm-3.943.756c1.436-.12 2.711-.439 3.944-.757l-.025-.096c-1.233.318-2.501.635-3.927.754l.008.1zm-.084 0h.08v-.1h-.08v.1zm-.437 0h.437v-.1h-.437v.1zm-.08 0h.08v-.1h-.08v.1zm-3.908-.757c1.233.318 2.508.637 3.904.757l.009-.1c-1.387-.118-2.655-.435-3.888-.753l-.025.096zm-7.695 2.48c1.088-1.958 2.26-2.77 3.528-3 1.274-.232 2.654.122 4.167.52l.026-.096c-1.508-.397-2.91-.759-4.21-.523-1.307.237-2.5 1.074-3.598 3.051l.087.049zm-1.665 4.48c.437-1.707.992-3.292 1.665-4.479l-.087-.05c-.68 1.199-1.237 2.794-1.675 4.505l.097.025zm-.833 5.476c.08-1.706.357-3.65.833-5.475l-.097-.025a27.47 27.47 0 0 0-.836 5.496l.1.004zm.394 3.795c-.314-.745-.474-1.968-.394-3.795l-.1-.004c-.08 1.83.079 3.072.401 3.838l.093-.04zm.922.965c-.379-.114-.688-.417-.923-.965l-.091.039c.242.565.569.897.985 1.022l.029-.096zm1.598-.198c-.636.239-1.177.351-1.595.199l-.035.094c.456.166 1.029.04 1.665-.199l-.035-.094zm4.595-3.289c-1.63 1.51-3.254 2.777-4.596 3.29l.036.093c1.362-.52 2.998-1.799 4.627-3.31l-.067-.073zm6.91-2.2c-2.67 0-5.347.757-6.91 2.2l.067.074c1.538-1.42 4.187-2.174 6.843-2.174v-.1zm6.873 2.281c-1.524-1.524-4.203-2.28-6.872-2.28v.1c2.656 0 5.304.753 6.801 2.25l.071-.07zm4.595 3.288c-1.383-.553-3.007-1.78-4.596-3.289l-.069.073c1.592 1.511 3.227 2.749 4.627 3.31l.037-.094zm1.598.197c-.423.115-.967.04-1.6-.197l-.035.093c.64.24 1.209.324 1.66.2l-.025-.096z" fill="#0F1322"/><path fill-rule="evenodd" clip-rule="evenodd" d="M10.87 6.08c.556.04 1.033.318 1.43.676.398.398.676.994.676 1.63a2.25 2.25 0 0 1-.676 1.63 2.12 2.12 0 0 1-1.43.675c-.04.557-.319 1.034-.676 1.431a2.347 2.347 0 0 1-1.63.676 2.252 2.252 0 0 1-1.63-.675 2.12 2.12 0 0 1-.676-1.432 2.216 2.216 0 0 1-1.47-.675 2.347 2.347 0 0 1-.676-1.63c0-.636.238-1.193.675-1.63l.04-.04c.398-.358.875-.596 1.431-.636.04-.556.318-1.073.676-1.43a2.347 2.347 0 0 1 1.63-.677c.636 0 1.192.239 1.63.676l.04.04c.357.358.596.874.635 1.391zm-.16 3.14a.81.81 0 0 0 .597-.238.809.809 0 0 0 .238-.596.809.809 0 0 0-.238-.596.81.81 0 0 0-.597-.239h-.556a.755.755 0 0 1-.755-.755v-.557a.95.95 0 0 0-.2-.556l-.039-.04a.809.809 0 0 0-.596-.239.809.809 0 0 0-.597.239.809.809 0 0 0-.238.596v.557a.755.755 0 0 1-.755.755h-.557a.95.95 0 0 0-.556.199l-.04.04a.809.809 0 0 0-.239.596c0 .238.12.437.239.556a.809.809 0 0 0 .596.239h.557c.437 0 .755.358.755.755v.557c0 .238.08.437.238.596a.809.809 0 0 0 .597.238c.238 0 .437-.08.596-.238a.809.809 0 0 0 .239-.596v-.517c0-.437.357-.755.755-.755h.556z" fill="#fff"/><path d="M12.3 6.756l.036-.035-.002-.002-.034.037zm-1.43-.676l-.05.004.003.043.043.003.003-.05zm1.43 3.936l-.035-.036-.002.002.037.034zm-1.43.675l-.004-.05-.043.004-.004.043.05.003zm-.676 1.431l.035.036.002-.002-.037-.034zm-3.26 0l.035-.035-.002-.002-.033.037zm-.676-1.43l.05-.004-.003-.044-.044-.002-.003.05zm-1.47-.676l-.036.035.035-.035zm0-3.26l.035.035-.036-.035zm.04-.04l-.034-.037-.002.002.035.035zm1.43-.636l.004.05.043-.003.003-.043-.05-.004zm.676-1.43l.035.035-.035-.036zm3.26 0l.035-.036-.035.035zm.04.039l.035-.035-.036.035zm1.073 3.1l-.036.036.036-.035zM9.2 5.684l.04-.03-.005-.006-.035.036zm-.04-.04l-.035.035.035-.035zm-1.193 0l.036.035-.036-.035zM5.861 7.75l-.03-.04-.006.004.036.036zm-.04.04l.035.035-.035-.035zm0 1.152l-.035.036.035-.036zm2.146 2.147l.036-.035-.036.035zm4.367-4.37c-.402-.362-.89-.648-1.461-.689l-.007.1c.541.039 1.008.31 1.4.663l.068-.074zm.692 1.667c0-.65-.284-1.26-.69-1.665l-.071.07a2.3 2.3 0 0 1 .661 1.595h.1zm-.69 1.665c.446-.446.69-1.016.69-1.665h-.1c0 .622-.233 1.166-.661 1.594l.07.071zm-1.463.69a2.171 2.171 0 0 0 1.465-.692l-.075-.067a2.07 2.07 0 0 1-1.397.66l.007.1zm-.642 1.415c.362-.402.647-.89.688-1.461l-.1-.007c-.038.541-.31 1.008-.663 1.401l.075.067zm-1.667.692c.65 0 1.259-.284 1.665-.69l-.07-.07a2.297 2.297 0 0 1-1.595.66v.1zm-1.665-.69c.446.446 1.015.69 1.665.69v-.1a2.201 2.201 0 0 1-1.595-.66l-.07.07zm-.69-1.463A2.17 2.17 0 0 0 6.9 12.16l.067-.075a2.07 2.07 0 0 1-.659-1.397l-.1.007zm-1.457-.644c.405.405.894.65 1.503.69l.006-.1a2.166 2.166 0 0 1-1.438-.66l-.071.07zm-.69-1.665c0 .65.284 1.259.69 1.665l.07-.07a2.297 2.297 0 0 1-.66-1.595h-.1zm.69-1.665a2.301 2.301 0 0 0-.69 1.665h.1c0-.623.233-1.167.66-1.595l-.07-.07zm.04-.04l-.04.04.07.07.04-.04-.07-.07zm1.463-.65c-.57.04-1.057.284-1.461.648l.067.074c.39-.351.857-.584 1.4-.623l-.006-.1zm.644-1.417c-.365.365-.65.892-.69 1.463l.099.007c.039-.543.31-1.049.661-1.4l-.07-.07zm1.665-.69c-.65 0-1.26.284-1.665.69l.07.07a2.297 2.297 0 0 1 1.595-.66v-.1zm1.665.69a2.301 2.301 0 0 0-1.665-.69v.1a2.2 2.2 0 0 1 1.594.66l.07-.07zm.04.04l-.04-.04-.07.07.039.04.07-.07zm.65 1.422a2.312 2.312 0 0 0-.65-1.422l-.071.07c.35.35.583.855.621 1.36l.1-.008zm.352 2.87a.759.759 0 0 1-.56.225v.1a.86.86 0 0 0 .631-.254l-.07-.07zm.224-.56a.759.759 0 0 1-.224.56l.071.071a.859.859 0 0 0 .253-.631h-.1zm-.224-.561c.15.149.224.335.224.56h.1a.859.859 0 0 0-.253-.63l-.07.07zm-.56-.224c.226 0 .411.075.56.224l.071-.07a.86.86 0 0 0-.632-.254v.1zm-.557 0h.556v-.1h-.556v.1zm-.805-.805c0 .423.338.805.805.805v-.1a.705.705 0 0 1-.705-.705h-.1zm0-.557v.557h.1v-.557h-.1zm-.19-.526a.9.9 0 0 1 .19.526h.1a1 1 0 0 0-.21-.586l-.08.06zm-.034-.035l.04.04.07-.07-.04-.04-.07.07zm-.561-.224a.76.76 0 0 1 .56.224l.071-.07a.859.859 0 0 0-.631-.254v.1zm-.561.224a.76.76 0 0 1 .56-.224v-.1a.859.859 0 0 0-.63.254l.07.07zm-.224.561a.76.76 0 0 1 .224-.56l-.07-.071a.859.859 0 0 0-.254.631h.1zm0 .557v-.557h-.1v.557h.1zm-.805.805a.805.805 0 0 0 .805-.805h-.1a.705.705 0 0 1-.705.705v.1zm-.557 0h.557v-.1h-.557v.1zm-.526.189a.9.9 0 0 1 .526-.189v-.1a1 1 0 0 0-.586.209l.06.08zm-.035.035l.04-.04-.07-.07-.04.04.07.07zm-.224.56a.76.76 0 0 1 .224-.56l-.07-.07a.859.859 0 0 0-.254.63h.1zm.224.522a.755.755 0 0 1-.224-.521h-.1c0 .255.128.466.254.592l.07-.071zm.561.224a.76.76 0 0 1-.56-.224l-.071.07c.169.17.38.254.631.254v-.1zm.557 0h-.557v.1h.557v-.1zm.805.805a.805.805 0 0 0-.805-.805v.1c.408 0 .705.333.705.705h.1zm0 .557v-.557h-.1v.557h.1zm.224.56a.76.76 0 0 1-.224-.56h-.1c0 .25.084.462.253.631l.07-.07zm.56.224a.76.76 0 0 1-.56-.223l-.07.07c.168.17.38.253.63.253v-.1zm.562-.223a.76.76 0 0 1-.561.223v.1c.25 0 .462-.084.631-.253l-.07-.07zm.224-.561a.76.76 0 0 1-.224.56l.07.071a.859.859 0 0 0 .254-.631h-.1zm0-.517v.517h.1v-.517h-.1zm.805-.805a.805.805 0 0 0-.805.805h.1c0-.408.333-.705.705-.705v-.1zm.556 0h-.556v.1h.556v-.1z" fill="#0F1322"/><path d="M22.874 6.955a1.391 1.391 0 1 0 0-2.783 1.391 1.391 0 0 0 0 2.783zm0 5.645a1.391 1.391 0 1 0 0-2.783 1.391 1.391 0 0 0 0 2.782zm-2.822-2.823a1.391 1.391 0 1 0 0-2.783 1.391 1.391 0 0 0 0 2.783zm5.645 0a1.391 1.391 0 1 0 0-2.783 1.391 1.391 0 0 0 0 2.783z" fill="#fff" stroke="#0F1322" stroke-width=".1"/></svg>