<svg width="33" height="28" viewBox="0 0 33 28" fill="none" xmlns="http://www.w3.org/2000/svg"><path d="M13.825 0c7.622 0 13.82 6.204 13.82 13.825v.046l2.735-4.12a.883.883 0 0 1 1.222-.249.883.883 0 0 1 .248 1.221L27.88 16.7a.884.884 0 0 1-.628.385c-.039.007-.072.007-.11.007a.864.864 0 0 1-.588-.229l-5.519-4.97a.886.886 0 0 1-.065-1.247.886.886 0 0 1 1.247-.065l3.664 3.31v-.065c0-6.654-5.407-12.062-12.056-12.062-6.648 0-12.062 5.408-12.062 12.062 0 6.655 5.408 12.062 12.056 12.062 3.22 0 6.25-1.253 8.522-3.533a.88.88 0 0 1 1.248 0 .879.879 0 0 1 0 1.248 13.723 13.723 0 0 1-9.77 4.049C6.204 27.65 0 21.453 0 13.825 0 6.198 6.204 0 13.825 0z" fill="#fff" stroke="#080918" stroke-width=".5"/></svg>