<svg width="33" height="32" viewBox="0 0 33 32" fill="none" xmlns="http://www.w3.org/2000/svg"><path fill-rule="evenodd" clip-rule="evenodd" d="M16 0a15.85 15.85 0 0 1 11.292 4.686A15.91 15.91 0 0 1 31.969 16c0 4.274-1.661 8.292-4.678 11.314A15.848 15.848 0 0 1 16.002 32a15.849 15.849 0 0 1-11.293-4.686A15.911 15.911 0 0 1 .031 16c0-4.274 1.661-8.292 4.677-11.314A15.849 15.849 0 0 1 16 0zM1.91 16c0 7.784 6.32 14.118 14.09 14.118S30.09 23.784 30.09 16c0-7.784-6.32-14.118-14.09-14.118S1.91 8.216 1.91 16z" fill="#fff"/><path d="M27.469 4.51A16.099 16.099 0 0 0 16-.25v.5a15.6 15.6 0 0 1 11.115 4.613l.354-.353zM32.219 16a16.16 16.16 0 0 0-4.75-11.49l-.354.353A15.661 15.661 0 0 1 31.719 16h.5zm-4.75 11.49A16.161 16.161 0 0 0 32.218 16h-.5a15.66 15.66 0 0 1-4.605 11.137l.354.353zM16 32.25c4.332 0 8.405-1.69 11.468-4.76l-.354-.353A15.598 15.598 0 0 1 16 31.75v.5zM4.531 27.49a16.099 16.099 0 0 0 11.47 4.76v-.5a15.599 15.599 0 0 1-11.116-4.613l-.354.353zM-.219 16c0 4.34 1.688 8.421 4.75 11.49l.354-.353A15.661 15.661 0 0 1 .281 16h-.5zm4.75-11.49A16.161 16.161 0 0 0-.219 16h.5c0-4.207 1.635-8.162 4.604-11.137l-.354-.353zm11.47-4.76c-4.333 0-8.407 1.69-11.47 4.76l.354.353A15.599 15.599 0 0 1 16 .25v-.5zm0 30.118C8.368 29.868 2.16 23.647 2.16 16h-.5c0 7.922 6.432 14.368 14.34 14.368v-.5zM29.84 16c0 7.647-6.21 13.868-13.84 13.868v.5c7.907 0 14.34-6.446 14.34-14.368h-.5zM16 2.132c7.63 0 13.84 6.221 13.84 13.868h.5c0-7.922-6.433-14.368-14.34-14.368v.5zM2.16 16C2.16 8.353 8.37 2.132 16 2.132v-.5C8.092 1.632 1.66 8.078 1.66 16h.5z" fill="#292837"/><path fill-rule="evenodd" clip-rule="evenodd" d="M9.09 16.92h13.82a.94.94 0 0 1 .939.942c0 4.336-3.521 7.864-7.849 7.864s-7.849-3.528-7.849-7.864c0-.52.42-.942.94-.942zm1.014 1.883c.452 2.852 2.924 5.04 5.896 5.04 2.973 0 5.445-2.188 5.896-5.04H10.104z" fill="#fff"/><path d="M10.104 18.803v-.25H9.81l.046.289.247-.04zm11.792 0l.247.039.046-.29h-.293v.25zm1.013-2.133H9.091v.5h13.818v-.5zm1.19 1.192a1.19 1.19 0 0 0-1.19-1.192v.5c.38 0 .69.31.69.692h.5zM16 25.976c4.466 0 8.099-3.64 8.099-8.114h-.5c0 4.198-3.41 7.614-7.599 7.614v.5zm-8.099-8.114c0 4.473 3.633 8.114 8.1 8.114v-.5c-4.19 0-7.6-3.416-7.6-7.614h-.5zm1.19-1.192a1.19 1.19 0 0 0-1.19 1.192h.5a.69.69 0 0 1 .69-.692v-.5zM16 23.593c-2.848 0-5.217-2.096-5.65-4.83l-.494.079c.47 2.972 3.045 5.251 6.143 5.251v-.5zm5.648-4.83c-.433 2.734-2.802 4.83-5.649 4.83v.5c3.098 0 5.673-2.28 6.143-5.251l-.494-.078zm-11.545.29h11.792v-.5H10.104v.5z" fill="#292837"/><path fill-rule="evenodd" clip-rule="evenodd" d="M10.643 14.118l-1.606.573a.938.938 0 0 1-1.254-.913l.048-1.708-1.04-1.353a.943.943 0 0 1 .478-1.478l1.636-.482.963-1.41a.94.94 0 0 1 1.55 0l.964 1.41 1.635.482a.94.94 0 0 1 .48 1.478l-1.041 1.353.048 1.708a.942.942 0 0 1-1.255.913l-1.606-.573zm0-4.573l-.377.552a.941.941 0 0 1-.51.371l-.64.19.407.53c.132.17.201.383.195.6l-.019.668.63-.224a.938.938 0 0 1 .63 0l.629.224-.02-.668a.943.943 0 0 1 .196-.6l.407-.53-.64-.19a.94.94 0 0 1-.51-.37l-.378-.553z" fill="#fff"/><path d="M9.037 14.69l.084.236-.084-.235zm1.606-.572l.084-.236-.084-.03-.084.03.084.236zm-2.473.447l.147-.202-.147.202zm-.387-.787l.25.007-.25-.007zm.048-1.708l.25.007.002-.089-.054-.07-.198.152zm-1.04-1.353l.198-.153-.199.153zm-.15-.865l-.238-.078.238.078zm.628-.613l.071.24-.07-.24zm1.636-.482l.07.24.086-.025.05-.074-.206-.14zm.963-1.41l-.206-.14.206.14zm1.55 0l.207-.14-.207.14zm.964 1.41l-.207.141.05.074.086.025.07-.24zm1.635.482l-.07.24.07-.24zm.48 1.478l-.2-.153.2.153zm-1.041 1.353l-.198-.152-.054.07.002.09.25-.008zm.048 1.708l.25-.007-.25.007zm-.387.787l.147.203-.147-.203zm-.868.126l-.084.235.085-.235zm-1.983-4.594l.207.141-.207-.14zm.377-.552l.207-.14-.207-.303-.206.302.206.141zm-.886.923l.07.24-.07-.24zm-.641.19l-.07-.24-.35.103.222.289.198-.153zm.407.53l.199-.153-.199.152zm.195.6l-.25-.007.25.007zm-.019.668l-.25-.007-.01.366.344-.123-.084-.236zm.63-.224l.083.235-.084-.235zm.63 0l.084-.236-.084.236zm.629.224l-.084.236.344.123-.01-.366-.25.007zm-.02-.668l-.25.006.25-.006zm.196-.6l.198.152-.198-.153zm.407-.53l.198.152.222-.29-.35-.103-.07.24zm-.64-.19l-.071.24.07-.24zm-.51-.37l-.207.14.207-.14zm-1.9 4.828l1.606-.573-.168-.47-1.606.572.168.471zm-1.098-.159c.318.232.729.29 1.098.16l-.168-.472a.688.688 0 0 1-.636-.092l-.294.405zm-.49-.996c-.01.392.172.765.49.997l.294-.405a.691.691 0 0 1-.284-.578l-.5-.014zm.048-1.708l-.048 1.708.5.014.048-1.708-.5-.014zm-.989-1.194l1.04 1.353.397-.304-1.04-1.354-.397.305zm-.189-1.095c-.12.374-.05.784.19 1.095l.396-.305a.692.692 0 0 1-.11-.635l-.476-.155zM7.2 9a1.19 1.19 0 0 0-.796.774l.476.155a.69.69 0 0 1 .461-.45L7.2 9zm1.635-.483L7.2 9l.141.48 1.636-.483-.142-.48zm.828-1.31L8.7 8.616l.412.282.964-1.41-.413-.281zm.981-.519c-.393 0-.76.194-.981.519l.412.282a.69.69 0 0 1 .57-.3v-.5zm.982.519a1.19 1.19 0 0 0-.982-.519v.5a.69.69 0 0 1 .569.3l.413-.282zm.963 1.409l-.963-1.41-.413.283.963 1.41.413-.283zm1.5.384l-1.636-.483-.141.48 1.635.482.142-.48zm.795.774A1.19 1.19 0 0 0 14.088 9l-.142.48a.69.69 0 0 1 .461.449l.476-.155zm-.189 1.095c.24-.311.31-.72.189-1.095l-.476.155a.69.69 0 0 1-.11.635l.397.305zm-1.04 1.353l1.04-1.353-.396-.305-1.04 1.354.396.304zm.1 1.549l-.048-1.708-.5.014.048 1.708.5-.014zm-.49.996c.317-.23.5-.603.49-.996l-.5.014a.692.692 0 0 1-.284.578l.294.405zm-.7.228c.248 0 .494-.077.7-.227l-.294-.405a.688.688 0 0 1-.405.132v.5zm-.398-.069c.13.046.264.07.399.07v-.5a.69.69 0 0 1-.232-.041l-.167.471zm-1.607-.573l1.607.573.168-.47-1.607-.574-.168.471zm-.086-4.115l.377-.552-.413-.282-.377.552.413.282zm-.646.47a1.2 1.2 0 0 0 .646-.47l-.413-.282a.69.69 0 0 1-.374.273l.141.479zm-.64.189l.64-.189-.141-.48-.64.19.14.479zm.535.138l-.408-.53-.396.305.407.53.397-.305zm.246.76a1.192 1.192 0 0 0-.246-.76l-.397.304a.693.693 0 0 1 .143.442l.5.014zm-.019.668l.019-.668-.5-.014-.019.668.5.014zm.296-.466l-.63.224.168.47.63-.224-.168-.47zm.399-.07c-.136 0-.27.023-.4.07l.168.47a.686.686 0 0 1 .231-.04v-.5zm.399.07a1.19 1.19 0 0 0-.4-.07v.5c.079 0 .157.014.232.04l.168-.47zm.629.224l-.63-.225-.167.471.629.225.168-.471zm-.353-.426l.019.668.5-.014-.02-.668-.5.014zm.246-.76a1.193 1.193 0 0 0-.246.76l.5-.014a.693.693 0 0 1 .143-.441l-.396-.305zm.408-.53l-.408.53.397.305.407-.53-.396-.305zm-.513.203l.64.189.142-.48-.64-.188-.142.479zm-.646-.47c.155.227.383.393.646.47l.141-.48a.69.69 0 0 1-.374-.272l-.413.282zm-.377-.552l.377.552.413-.282-.377-.552-.413.282z" fill="#292837"/><path fill-rule="evenodd" clip-rule="evenodd" d="M23.095 8.757l1.635.482a.94.94 0 0 1 .48 1.478l-1.04 1.353.047 1.708a.942.942 0 0 1-1.254.913l-1.607-.573-1.606.573a.942.942 0 0 1-.867-.126.941.941 0 0 1-.387-.787l.048-1.708-1.04-1.353a.942.942 0 0 1 .479-1.478l1.635-.482.964-1.41a.938.938 0 0 1 1.55 0l.963 1.41zm-2.664 3.03l-.018.67.629-.225a.937.937 0 0 1 .63 0l.629.224-.019-.668a.943.943 0 0 1 .195-.6l.407-.53-.64-.19a.94.94 0 0 1-.51-.37l-.378-.553-.377.552a.94.94 0 0 1-.51.371l-.64.19.407.53a.94.94 0 0 1 .195.6z" fill="#fff"/><path d="M24.73 9.24l-.07.24.07-.24zm-1.635-.483l-.207.141.05.074.086.025.07-.24zm2.114 1.96l-.198-.153.198.153zm-1.04 1.353l-.198-.152-.054.07.002.089.25-.007zm.048 1.708l.25-.007-.25.007zm-.387.787l-.147-.202.147.202zm-.867.126l-.084.235.084-.235zm-1.607-.573l.084-.236-.084-.03-.084.03.085.236zm-1.606.573l.084.235-.084-.235zm-.867-.126l-.147.203.147-.203zm-.387-.787l.25.007-.25-.007zm.048-1.708l.25.007.002-.089-.054-.07-.198.152zm-1.04-1.353l.198-.153-.198.153zm-.15-.865l-.237-.078.238.078zm.629-.613l.07.24-.07-.24zm1.635-.482l.07.24.086-.025.05-.074-.206-.14zm.964-1.41l.206.142-.206-.141zm1.55 0l.206-.14-.206.14zm-1.72 5.11l-.25-.008-.01.365.345-.122-.084-.236zm.02-.67l-.25-.006.25.007zm.61.445l.084.235-.084-.235zm.63 0l.084-.236-.084.236zm.629.224l-.084.236.344.123-.01-.366-.25.007zm-.019-.668l-.25.006.25-.006zm.195-.6l-.199-.153.199.152zm.407-.53l.198.152.222-.29-.35-.103-.07.24zm-.64-.19l-.071.24.07-.24zm-.51-.37l-.207.14.207-.14zm-.378-.553l.207-.14-.206-.303-.207.302.207.141zm-.377.552l-.206-.14.206.14zm-.51.371l.071.24-.07-.24zm-.64.19l-.07-.24-.35.103.222.289.198-.153zm.407.53l-.198.152.198-.153zM24.801 9l-1.635-.483-.142.48 1.636.482L24.8 9zm.795.774A1.19 1.19 0 0 0 24.801 9l-.141.48a.69.69 0 0 1 .46.449l.476-.155zm-.189 1.095c.24-.311.31-.72.19-1.095l-.476.155a.692.692 0 0 1-.11.635l.396.305zm-1.04 1.353l1.04-1.353-.396-.305-1.04 1.354.396.304zm.1 1.549l-.048-1.708-.5.014.048 1.708.5-.014zm-.49.997c.318-.232.5-.605.49-.997l-.5.014a.692.692 0 0 1-.284.578l.294.405zm-1.098.158c.37.132.78.073 1.098-.159l-.294-.404a.687.687 0 0 1-.636.092l-.168.471zm-1.607-.573l1.607.573.168-.47-1.607-.574-.168.471zm-1.438.573l1.607-.573-.168-.47-1.607.572.168.471zm-.399.07c.135 0 .27-.024.399-.07l-.167-.471a.69.69 0 0 1-.232.04v.5zm-.699-.228c.206.15.451.227.7.227v-.5a.689.689 0 0 1-.406-.132l-.294.405zm-.49-.997c-.01.392.173.765.49.996l.294-.404a.691.691 0 0 1-.284-.578l-.5-.014zm.048-1.708l-.047 1.708.5.014.047-1.708-.5-.014zm-.989-1.194l1.04 1.353.397-.304-1.04-1.354-.397.305zm-.188-1.095c-.121.374-.05.784.188 1.095l.397-.305a.692.692 0 0 1-.11-.635l-.475-.155zM17.912 9a1.19 1.19 0 0 0-.795.774l.475.155a.69.69 0 0 1 .461-.45L17.912 9zm1.636-.483L17.912 9l.142.48 1.635-.483-.142-.48zm.827-1.31l-.963 1.409.413.282.963-1.41-.413-.281zm.982-.519c-.393 0-.76.194-.982.519l.413.282a.689.689 0 0 1 .569-.3v-.5zm.981.519a1.19 1.19 0 0 0-.982-.519v.5a.69.69 0 0 1 .57.3l.412-.282zm.963 1.409l-.963-1.41-.413.283.963 1.41.413-.283zm-2.638 3.847l.018-.668-.5-.014-.018.668.5.014zm.295-.466l-.63.224.169.47.629-.224-.168-.47zm.798 0a1.186 1.186 0 0 0-.798 0l.168.47a.686.686 0 0 1 .462 0l.168-.47zm.629.224l-.63-.225-.167.471.629.225.168-.471zm-.353-.426l.019.668.5-.014-.02-.668-.499.014zm.246-.76a1.194 1.194 0 0 0-.246.76l.5-.014a.694.694 0 0 1 .143-.442l-.397-.304zm.408-.53l-.408.53.397.305.407-.53-.396-.305zm-.513.203l.64.189.142-.48-.64-.188-.142.479zm-.646-.47c.155.227.383.393.646.47l.142-.48a.69.69 0 0 1-.375-.272l-.413.282zm-.377-.552l.377.552.413-.282-.377-.552-.413.282zm.036.552l.377-.552-.413-.282-.377.552.413.282zm-.646.47a1.19 1.19 0 0 0 .646-.47l-.413-.282a.689.689 0 0 1-.374.273l.141.479zm-.64.189l.64-.189-.141-.48-.64.19.14.479zm.535.138l-.408-.53-.396.305.407.53.397-.305zm.246.76a1.19 1.19 0 0 0-.247-.76l-.396.305a.692.692 0 0 1 .143.44l.5.015z" fill="#292837"/></svg>