<svg width="64" height="70" viewBox="0 0 64 70" fill="none" xmlns="http://www.w3.org/2000/svg"><g fill="#EE8335"><path opacity=".051" fill-rule="evenodd" clip-rule="evenodd" d="M32 11l20.785 12v24L32 59 11.215 47V23L32 11z" stroke="#EE8335" stroke-width="22" stroke-linejoin="round"/><path fill-rule="evenodd" clip-rule="evenodd" d="M27.678 29.915a.585.585 0 0 0 .66.58L46.49 28.15a.586.586 0 0 0 .51-.58v-5.984a.585.585 0 0 0-.66-.58L28.187 23.35a.585.585 0 0 0-.51.58v5.984zm1.171-.665v-4.804l16.98-2.195v4.803l-16.98 2.196z"/><path d="M28.186 48a.478.478 0 0 1-.36-.17.626.626 0 0 1-.148-.412V27.582c0-.322.228-.582.508-.582.281 0 .509.26.509.582v19.836a.626.626 0 0 1-.149.412.478.478 0 0 1-.36.17zm18.306-5.5a.479.479 0 0 1-.36-.17.623.623 0 0 1-.149-.41V25.08c0-.32.228-.58.509-.58.28 0 .508.26.508.58v16.84a.622.622 0 0 1-.149.41.48.48 0 0 1-.36.17z"/><path fill-rule="evenodd" clip-rule="evenodd" d="M17 47.75c0 2.895 2.623 5.25 5.848 5.25 3.224 0 5.847-2.355 5.847-5.25s-2.623-5.25-5.848-5.25C19.623 42.5 17 44.855 17 47.75zm1.17 0c0-2.251 2.098-4.083 4.677-4.083 2.58 0 4.678 1.832 4.678 4.083 0 2.251-2.098 4.083-4.677 4.083-2.58 0-4.678-1.832-4.678-4.083zm17.135-6c0 2.895 2.623 5.25 5.848 5.25C44.377 47 47 44.645 47 41.75s-2.623-5.25-5.847-5.25c-3.225 0-5.848 2.355-5.848 5.25zm1.17 0c0-2.251 2.098-4.083 4.678-4.083 2.579 0 4.678 1.832 4.678 4.083 0 2.251-2.1 4.083-4.678 4.083-2.58 0-4.678-1.832-4.678-4.083z"/></g></svg>