<svg width="33" height="29" viewBox="0 0 33 29" fill="none" xmlns="http://www.w3.org/2000/svg"><g fill="#fff"><path fill-rule="evenodd" clip-rule="evenodd" d="M23.762 16.708h7.572a.667.667 0 0 1 0 1.334H.666a.667.667 0 0 1 0-1.334H8.24a8.014 8.014 0 1 1 15.523 0zm-14.138 0h12.753c.2-.639.304-1.31.304-2a6.638 6.638 0 0 0-1.957-4.723A6.637 6.637 0 0 0 16 8.028a6.637 6.637 0 0 0-4.724 1.957 6.638 6.638 0 0 0-1.957 4.723c0 .69.105 1.361.305 2z"/><path d="M23.762 16.708l-.146-.037-.048.187h.194v-.15zm-15.523 0v.15h.193l-.048-.187-.145.037zm14.138 0v.15h.11l.033-.105-.143-.045zm-12.753 0l-.144.045.033.105h.11v-.15zm11.1-6.723l.106-.106-.106.106zm-9.448 0l-.106-.106.106.106zm20.058 6.573h-7.572v.3h7.572v-.3zm.816.817a.817.817 0 0 0-.816-.817v.3c.284 0 .516.232.516.517h.3zm-.816.817c.45 0 .816-.366.816-.817h-.3a.517.517 0 0 1-.516.517v.3zm-30.668 0h30.668v-.3H.666v.3zm-.816-.817c0 .45.365.817.817.817v-.3a.517.517 0 0 1-.517-.517h-.3zm.817-.817a.817.817 0 0 0-.817.817h.3c0-.285.231-.517.516-.517v-.3zm7.572 0H.666v.3H8.24v-.3zm-.403-1.85c0 .704.09 1.387.257 2.037l.291-.074a7.855 7.855 0 0 1-.248-1.963h-.3zM16 6.545a8.164 8.164 0 0 0-8.164 8.163h.3A7.864 7.864 0 0 1 16 6.845v-.3zm8.164 8.163A8.164 8.164 0 0 0 16 6.545v.3a7.864 7.864 0 0 1 7.864 7.863h.3zm-.257 2.037a8.18 8.18 0 0 0 .257-2.037h-.3a7.88 7.88 0 0 1-.248 1.963l.291.074zm-1.53-.187H9.624v.3h12.753v-.3zm.154-1.85c0 .674-.103 1.331-.297 1.955l.286.09a6.86 6.86 0 0 0 .31-2.045h-.3zm-1.913-4.617a6.487 6.487 0 0 1 1.913 4.617h.3c0-1.823-.712-3.54-2.001-4.83l-.212.213zM16 8.178c1.744 0 3.384.68 4.617 1.913l.213-.212A6.787 6.787 0 0 0 16 7.878v.3zm-4.618 1.913A6.487 6.487 0 0 1 16 8.178v-.3a6.79 6.79 0 0 0-4.83 2l.212.213zM9.47 14.708c0-1.743.68-3.383 1.913-4.617l-.212-.212a6.788 6.788 0 0 0-2 4.829h.3zm.298 1.955a6.539 6.539 0 0 1-.298-1.955h-.3c0 .705.107 1.392.311 2.045l.287-.09z"/><path d="M6 12.042H2a.667.667 0 0 0 0 1.334h4a.667.667 0 0 0 0-1.334zm24 0h-4a.666.666 0 0 0 0 1.334l.001-.001 3.999.001v-.001a.666.666 0 1 0 0-1.333zm-3.629-7.704a.667.667 0 0 0-.943 0h-.001L22.6 7.167a.668.668 0 0 0 .943.943l2.828-2.829a.667.667 0 0 0 0-.942zM16 .042a.666.666 0 0 0-.666.666v4a.666.666 0 1 0 1.332 0v-4A.666.666 0 0 0 16 .042zM9.4 7.166L6.572 4.338a.666.666 0 1 0-.942.944l2.828 2.827a.667.667 0 0 0 .942-.943zm8.486 17.818h-.001l-1.413-1.414a.666.666 0 0 0-.943 0l-1.415 1.414a.666.666 0 1 0 .943.943l.277-.276v2.391a.666.666 0 1 0 1.332 0v-2.391l.277.276c.26.262.682.262.943 0a.665.665 0 0 0 0-.943z" stroke="#fff" stroke-width=".3"/></g></svg>