<svg width="54" height="58" viewBox="0 0 54 58" fill="none" xmlns="http://www.w3.org/2000/svg"><path opacity=".052" fill-rule="evenodd" clip-rule="evenodd" d="M27 13l13.856 8v16L27 45l-13.856-8V21L27 13z" fill="#F4F8FF" stroke="#F4F8FF" stroke-width="25" stroke-linejoin="round"/><path d="M26.337 23.771l-7.565 7.575a.925.925 0 0 0-.272.659c0 .25.096.483.272.658l.557.558a.93.93 0 0 0 1.315 0l6.353-6.36 6.36 6.367a.923.923 0 0 0 .657.272.927.927 0 0 0 .658-.272l.556-.558a.925.925 0 0 0 .272-.658.925.925 0 0 0-.272-.659l-7.572-7.582a.924.924 0 0 0-.66-.271.923.923 0 0 0-.66.271z" fill="#1A65FD"/></svg>