<svg width="126" height="140" viewBox="0 0 126 140" fill="none" xmlns="http://www.w3.org/2000/svg"><path opacity=".051" fill-rule="evenodd" clip-rule="evenodd" d="M63 17l45.899 26.5v53L63 123 17.1 96.5v-53L63 17z" fill="#1A65FD" stroke="#1A65FD" stroke-width="34" stroke-linejoin="round"/><path fill-rule="evenodd" clip-rule="evenodd" d="M57.997 57.747l16.326 8.932a2.997 2.997 0 0 1-.019 5.272L57.978 80.73a2.993 2.993 0 0 1-1.421.361c-.53 0-1.06-.143-1.538-.428a2.973 2.973 0 0 1-1.46-2.574V60.377c0-1.07.55-2.034 1.47-2.58a2.973 2.973 0 0 1 2.968-.05zm-.107 4.876v13.238l12.2-6.561-12.2-6.677z" fill="#0054FF"/><path d="M74.323 66.68l.456-.834-.456.833zm-16.326-8.933l.456-.834-.456.834zM75.883 69.32l.95.004-.95-.004zm-1.579 2.63l.45.837-.45-.837zm-16.326 8.78l-.45-.837.45.837zm-2.959-.067l-.487.816.487-.816zm.01-22.866l-.484-.817.484.817zm2.86 18.064h-.95v1.59l1.4-.753-.45-.837zm0-13.238l.457-.833-1.406-.77v1.603h.95zM70.092 69.3l.45.837 1.543-.83-1.537-.84-.456.833zm4.688-3.454l-16.326-8.933-.912 1.667 16.326 8.933.912-1.667zm2.054 3.479a3.947 3.947 0 0 0-2.054-3.48l-.912 1.668a2.047 2.047 0 0 1 1.066 1.805l1.9.007zm-2.079 3.463a3.948 3.948 0 0 0 2.079-3.463l-1.9-.008a2.048 2.048 0 0 1-1.079 1.798l.9 1.673zm-16.326 8.779l16.326-8.779-.9-1.673-16.326 8.778.9 1.674zm-1.871.474c.643 0 1.285-.159 1.871-.474l-.9-1.673c-.31.166-.643.247-.971.247v1.9zm-2.025-.563a3.941 3.941 0 0 0 2.025.563v-1.9c-.358 0-.72-.096-1.05-.294l-.975 1.632zM52.61 78.09c0 1.4.721 2.672 1.923 3.39l.975-1.632a2.024 2.024 0 0 1-.998-1.758h-1.9zm0-17.712V78.09h1.9V60.377h-1.9zm1.935-3.397a3.922 3.922 0 0 0-1.935 3.397h1.9c0-.734.372-1.388 1.004-1.762l-.968-1.635zm3.91-.067a3.923 3.923 0 0 0-3.91.067l.97 1.635a2.023 2.023 0 0 1 2.027-.035l.912-1.667zm.386 18.948V62.623h-1.9v13.238h1.9zm10.801-7.398L57.44 75.025l.9 1.673 12.201-6.561-.9-1.674zm-12.207-5.006l12.201 6.676.912-1.667-12.201-6.676-.912 1.667z" fill="#F3F8FF"/><path fill-rule="evenodd" clip-rule="evenodd" d="M99.35 55.176l.003.034c.022.248.544 6.14.544 12.055v5.53c0 5.915-.522 11.807-.544 12.055l-.008.075c-.072.581-.78 5.759-3.23 8.422-2.94 3.234-6.255 3.586-7.849 3.755h-.001c-.152.016-.291.03-.415.047l-.129.013c-9.769.71-24.522.808-24.67.808h-.045c-.75-.01-18.435-.275-24.076-.812l-.17-.023a13.85 13.85 0 0 0-.713-.092l-.024-.003c-1.9-.218-5.435-.623-8.23-3.682-2.56-2.692-3.183-7.885-3.246-8.47l-.003-.038C26.52 84.602 26 78.71 26 72.795v-5.53c0-5.915.521-11.807.544-12.055l.008-.075c.073-.582.78-5.76 3.23-8.422 2.982-3.28 6.316-3.664 7.918-3.85l.067-.007c.1-.012.193-.022.28-.034l.13-.014c9.857-.71 24.61-.807 24.758-.807L62.95 42h.012c.148.001 14.902.098 24.671.809l.13.013c.11.015.232.029.366.044 1.621.184 4.992.569 7.965 3.734 2.572 2.69 3.194 7.981 3.257 8.576zm-4.307 29.25c.045-.518.523-6.156.523-11.631v-5.53c0-5.563-.492-11.28-.524-11.65-.185-1.688-.91-4.804-2.083-6.026l-.018-.018c-1.887-2.013-3.943-2.248-5.303-2.403h-.008c-.134-.016-.259-.03-.373-.045-9.502-.686-23.796-.79-24.309-.792h-.02c-.778.005-14.887.112-24.378.792l-.322.039-.031.003c-1.323.153-3.322.384-5.219 2.47-1.144 1.244-1.905 4.321-2.124 6-.047.53-.523 6.161-.523 11.63v5.53c0 5.551.49 11.256.524 11.648.185 1.654.91 4.717 2.083 5.939l.04.042c1.704 1.874 3.919 2.128 5.538 2.313.32.037.622.072.902.117 5.469.508 22.896.775 23.63.786.653-.004 14.85-.11 24.299-.793.14-.017.294-.034.461-.051 1.38-.146 3.27-.347 5.11-2.372 1.194-1.297 1.941-4.573 2.125-5.998z" fill="#0054FF"/><path d="M99.353 55.21l.947-.084-.001-.01-.946.094zm-.003-.034l.945-.094v-.005l-.945.1zm.547 12.09h.95v-.001h-.95zm-.544 17.584l.945.105.001-.01.001-.011-.947-.084zm-.008.075l.943.117.001-.011-.944-.106zm-3.23 8.422l-.7-.644-.004.004.703.64zm-7.849 3.755l.1.944-.1-.944zm-.001 0l.098.945h.001l-.1-.945zm-.415.047l.1.945.012-.002.013-.001-.125-.942zm-.129.013l.07.948.014-.001.015-.002-.099-.945zm-24.67.808l-.004-.95h-.02l.024.95zm-.023 0l-.023.95.023.001h.024l-.023-.95zm-.022 0l.024-.95h-.01l-.014.95zm-24.076-.812l-.13.941.02.003.02.002.09-.946zm-.17-.023l-.165.935.017.003.017.003.13-.941zm-.713-.092l.108-.944-.108.944zm-.024-.003l-.108.944.108-.944zm-8.23-3.682l.7-.64-.005-.008-.007-.006-.688.654zm-3.246-8.47l-.944.1.944-.1zm-.003-.038l-.947.084v.008l.002.008.945-.1zm0-29.64l-.945-.106v.011l-.002.011.947.084zm.008-.075l-.943-.118-.001.012.944.106zm3.23-8.422l.7.643.003-.004-.703-.639zm7.918-3.85l.11.944-.11-.943zm.067-.007l-.11-.944.11.944zm.28-.034l-.099-.945-.014.002-.014.002.127.941zm.13-.014l-.069-.947-.014.001-.016.002.099.945zm24.758-.807l.004.95h.019l.019-.001-.041-.95zM62.95 42l.04-.95h-.082l.042.95zm.012 0l-.04.95h.037l.003-.95zm24.671.809l.1-.945-.016-.002-.015-.001-.069.948zm.13.013l.125-.942-.013-.001-.014-.002-.099.945zm.366.044l.108-.944-.108.944zm7.965 3.734l-.693.65.006.006.686-.656zm-1.05 37.826l.942.121.003-.02.002-.019-.947-.082zm-.001-28.811l.946-.084-.001-.01-.001-.01-.944.104zm-2.083-6.026l-.693.65.008.008.685-.658zm-.018-.018l-.693.65h.001l.692-.65zm-5.303-2.403l-.109.944h.001l.108-.944zm-.008 0l.11-.944-.11.943zm-.373-.045l.118-.942-.025-.004-.025-.001-.068.947zm-24.309-.792l.007-.95h-.014l.008.95zm-.02 0l.008.95-.007-.95zm-24.378.792l-.068-.947-.027.002-.027.003.122.942zm-.322.039l-.109-.944.11.944zm-.031.003l.109.944-.109-.944zm-5.219 2.47l.7.644.003-.005-.703-.639zm-2.124 6l-.942-.122-.003.02-.002.02.947.083zm.001 28.808l-.946.083.001.01.001.012.944-.105zm2.083 5.939l.694-.65-.009-.008-.685.657zm.04.042l.703-.639-.009-.01-.694.65zm5.538 2.313l.112-.943h-.004l-.108.944zm0 0l-.112.944h.005l.107-.943zm.902.117l-.153.938.033.005.032.003.088-.946zm23.63.786l-.015.95h.02l-.006-.95zm24.299-.793l.069.948.024-.002.025-.003-.118-.943zm.461-.051l.1.944-.1-.944zm5.11-2.372l-.698-.643-.004.004.703.64zm7.381-35.309l-.004-.033-1.89.189.003.034 1.891-.19zm.548 12.15c0-5.96-.525-11.885-.547-12.139l-1.893.168c.022.242.54 6.1.54 11.971h1.9zm0 5.53v-5.53h-1.9v5.53h1.9zm-.547 12.138c.022-.253.547-6.18.547-12.138h-1.9c0 5.871-.518 11.728-.54 11.97l1.893.168zm-.011.098l.009-.076-1.889-.211-.008.075 1.888.212zm-3.475 8.959c1.376-1.497 2.216-3.63 2.72-5.37a24.83 24.83 0 0 0 .754-3.578l-1.886-.234a22.81 22.81 0 0 1-.693 3.283c-.48 1.66-1.22 3.446-2.294 4.612l1.399 1.287zm-8.448 4.056c1.644-.174 5.266-.555 8.451-4.06l-1.406-1.279c-2.692 2.963-5.702 3.286-7.245 3.45l.2 1.89zm-.002 0h.002l-.2-1.889.198 1.89zm-.389.044c.108-.014.234-.027.388-.043l-.196-1.89c-.15.016-.302.032-.441.05l.25 1.884zm-.155.017l.13-.013-.199-1.89-.129.013.198 1.89zm-24.765.813c.146 0 14.93-.097 24.735-.81l-.138-1.895c-4.86.353-10.971.555-15.896.668a627.658 627.658 0 0 1-8.518.136H63.1l-.038.001h-.014l.007 1.9zm-.003 0h.023l-.048-1.9-.022.001.047 1.9zm-.07 0h.023l.047-1.899h-.022l-.048 1.899zm-24.142-.816c5.69.541 23.427.806 24.152.816l.028-1.9c-.774-.01-18.408-.275-24-.807l-.18 1.891zm-.211-.028l.17.023.261-1.882-.17-.023-.261 1.882zm-.69-.09c.303.035.519.06.656.084l.328-1.871c-.206-.036-.49-.069-.768-.1l-.216 1.887zm-.024-.002l.024.002.216-1.887-.024-.003-.216 1.888zm-8.824-3.985c3.053 3.34 6.914 3.766 8.824 3.985l.216-1.888c-1.892-.217-5.099-.6-7.637-3.379L29.09 94zm-3.488-9.01c.034.32.213 1.823.716 3.602.497 1.755 1.344 3.907 2.785 5.422l1.377-1.31c-1.12-1.176-1.863-2.967-2.334-4.629a21.284 21.284 0 0 1-.655-3.288l-1.89.202zm-.004-.039l.004.038 1.89-.2-.005-.038-1.89.2zm-.549-12.155c0 5.959.525 11.885.547 12.14l1.893-.169c-.022-.242-.54-6.1-.54-11.971h-1.9zm0-5.53v5.53h1.9v-5.53h-1.9zm.547-12.139c-.022.253-.547 6.18-.547 12.14h1.9c0-5.872.518-11.73.54-11.972l-1.893-.168zm.01-.097l-.008.075 1.889.212.008-.076-1.888-.211zm3.476-8.959c-1.376 1.496-2.216 3.63-2.72 5.37a24.734 24.734 0 0 0-.754 3.577l1.886.235c.033-.264.22-1.65.693-3.284.48-1.659 1.22-3.446 2.294-4.612l-1.399-1.286zm8.508-4.15c-1.654.19-5.288.608-8.512 4.154l1.406 1.278c2.74-3.013 5.774-3.366 7.324-3.544l-.218-1.888zm.066-.008l-.067.008.22 1.887.066-.007-.219-1.888zm.263-.032l-.263.032.22 1.888c.097-.012.2-.023.296-.036l-.253-1.884zm.158-.016l-.13.013.197 1.89.13-.014-.197-1.89zm24.854-.813c-.146 0-14.93.097-24.824.81l.137 1.895c4.905-.353 11.038-.555 15.974-.668a631.168 631.168 0 0 1 8.705-.137h.015l-.007-1.9zm-.025 0h-.013l.083 1.899h.013l-.083-1.9zm.096 0h-.013l-.083 1.898h.013l.083-1.898zm24.698.81c-9.806-.713-24.59-.81-24.736-.81l-.007 1.9h.015a8.476 8.476 0 0 0 .175 0l.506.005a627.67 627.67 0 0 1 8.013.132c4.924.113 11.036.315 15.896.668l.138-1.895zm.16.016l-.13-.013-.198 1.89.13.013.197-1.89zm.374.045a12.261 12.261 0 0 1-.348-.042l-.251 1.884c.12.016.252.03.385.046l.215-1.888zm8.55 4.028c-3.217-3.426-6.885-3.839-8.55-4.028l-.214 1.888c1.578.18 4.65.535 7.379 3.44l1.385-1.3zm3.51 9.127a23.65 23.65 0 0 0-.718-3.659c-.498-1.778-1.348-3.957-2.798-5.474l-1.373 1.312c1.122 1.174 1.869 2.986 2.341 4.674a21.79 21.79 0 0 1 .658 3.346l1.89-.2zm-5.679 17.718c0 5.432-.475 11.037-.52 11.548l1.894.165c.045-.524.526-6.195.526-11.713h-1.9zm0-5.53v5.53h1.9v-5.53h-1.9zm-.52-11.566c.031.362.52 6.046.52 11.566h1.9c0-5.607-.495-11.358-.528-11.734l-1.893.168zm-1.822-5.452c.421.44.844 1.337 1.189 2.46a17.42 17.42 0 0 1 .634 3.011l1.889-.206a19.301 19.301 0 0 0-.707-3.364c-.357-1.163-.884-2.434-1.635-3.217l-1.37 1.316zm-.025-.026l.017.019 1.385-1.301-.017-.019-1.385 1.301zm-4.719-2.109c1.326.151 3.079.36 4.718 2.108l1.386-1.3c-2.134-2.276-4.494-2.537-5.888-2.696l-.216 1.888zm-.008 0h.007l.218-1.888h-.008l-.217 1.887zm-.384-.046l.384.045.217-1.887-.364-.043-.237 1.885zm-24.196-.786c.518.004 14.78.107 24.246.79l.137-1.894c-9.537-.69-23.862-.792-24.37-.796l-.013 1.9zm-.006 0h.02l-.015-1.9h-.02l.015 1.9zm-24.318.79c9.455-.677 23.534-.784 24.318-.79l-.014-1.9c-.774.006-14.914.113-24.44.796l.136 1.895zm-.28.035c.113-.013.227-.026.334-.04l-.244-1.884-.309.037.219 1.887zm-.032.004l.032-.004-.219-1.887-.032.004.22 1.887zm-4.625 2.166c1.653-1.819 3.351-2.019 4.625-2.166l-.218-1.887c-1.371.158-3.673.42-5.813 2.774l1.406 1.279zm-1.885 5.484c.102-.786.336-1.92.678-3 .355-1.114.781-2.021 1.203-2.48l-1.398-1.287c-.722.785-1.248 2.038-1.615 3.192a20.358 20.358 0 0 0-.752 3.329l1.884.246zm-.515 11.506c0-5.426.473-11.025.519-11.546l-1.893-.166c-.047.535-.526 6.2-.526 11.712h1.9zm0 5.53v-5.53h-1.9v5.53h1.9zm.52 11.564c-.033-.385-.52-6.056-.52-11.564h-1.9c0 5.594.493 11.333.528 11.73l1.893-.166zm1.822 5.365c-.424-.442-.846-1.33-1.19-2.433a16.91 16.91 0 0 1-.634-2.954l-1.888.21a18.8 18.8 0 0 0 .708 3.31c.358 1.148.885 2.403 1.634 3.182l1.37-1.315zm.05.052l-.04-.043-1.39 1.297.04.043 1.39-1.297zm4.95 2.018c-1.637-.188-3.504-.427-4.942-2.009l-1.406 1.278c1.97 2.166 4.533 2.435 6.132 2.618l.217-1.887zm.005 0l-.225 1.887h.001l.224-1.887zm.943.123c-.307-.05-.632-.088-.948-.123l-.214 1.888c.323.036.603.069.856.11l.306-1.875zm23.49.773c-.757-.011-18.133-.278-23.555-.782L39.33 93.8c5.516.513 22.993.78 23.703.79l.028-1.9zm24.217-.79c-9.413.68-23.579.786-24.237.79l.012 1.9c.65-.004 14.877-.109 24.362-.795l-.137-1.895zm.431-.05c-.169.019-.33.036-.48.055l.236 1.885c.13-.016.277-.032.442-.05l-.198-1.89zm4.507-2.065c-1.593 1.753-3.177 1.925-4.508 2.066l.2 1.89c1.43-.152 3.627-.382 5.714-2.678l-1.406-1.278zm1.885-5.48c-.085.659-.306 1.78-.649 2.887-.354 1.146-.79 2.109-1.232 2.59l1.398 1.286c.751-.817 1.286-2.14 1.65-3.314.374-1.212.619-2.44.718-3.207l-1.885-.243z" fill="#F3F8FF"/></svg>